<?xml version='1.0' encoding='UTF-8'?>
<svg viewBox="-0.0002 -0.0001 32 32" xmlns="http://www.w3.org/2000/svg">
  <g transform="matrix(0.0625, 0, 0, 0.0625, 0, 0)">
    <path d="M463.55, 272.13L400, 272.13L400, 223.93Q400, 219.61 399.73, 215.46C429.3, 187.58 431.98, 150.83 432, 112.46C432, 103.85 425.36, 96.46 416.75, 96.05A16 16 0 0 0 400, 112C400, 140 398.14, 160.15 390.1, 175.84C370.88, 134.69 324.32, 111.93 256, 111.93C216.2, 111.93 181.81, 121.06 156.57, 138.32C141.67, 148.51 130.37, 161.23 122.87, 176.04C114, 160.65 112, 141 112, 112.46C112, 103.85 105.4, 96.46 96.8, 96.02A16 16 0 0 0 80, 112C80, 149.63 82.61, 185.73 112.44, 213.63Q112.01, 218.69 112, 223.93L112, 272.13L48.45, 272.13C39.84, 272.13 32.45, 278.75 32.02, 287.36A16 16 0 0 0 48.02, 304.13L112.02, 304.13L112.02, 320A143.32 143.32 0 0 0 122.41, 373.69C96.74, 396.64 80.18, 422 80, 463.34C80, 472.08 86.62, 479.64 95.36, 479.99A16 16 0 0 0 112, 464C112, 436.34 121.1, 419.29 138.17, 402.68A144.37 144.37 0 0 0 220, 459.42A16 16 0 0 0 240, 443.93L240, 192.45C240, 183.84 246.62, 176.45 255.23, 176.02A16 16 0 0 1 272, 192L272, 443.93A16 16 0 0 0 292, 459.42A144.4 144.4 0 0 0 373.82, 402.68C390.82, 419.22 399.91, 436.2 399.99, 463.63A16.27 16.27 0 0 0 415.09, 480A16 16 0 0 0 432, 464C432, 422.32 415.4, 396.77 389.61, 373.69A143.32 143.32 0 0 0 400, 320L400, 304.13L464, 304.13A16 16 0 0 0 480, 287.36C479.58, 278.75 472.16, 272.13 463.55, 272.13z" fill="#727272" fill-opacity="1" class="Black" />
    <path d="M321.39, 104L321.71, 104.09C335.28, 107.89 346.78, 93.54 339.91, 81.24A95.86 95.86 0 0 0 256.21, 32L255.79, 32A95.87 95.87 0 0 0 171.6, 82.13C164.76, 94.71 176.74, 109.13 190.44, 104.99C210.15, 98.99 232.23, 95.93 256, 95.93C280.09, 95.93 302.09, 98.65 321.39, 104z" fill="#727272" fill-opacity="1" class="Black" />
  </g>
</svg>