<?xml version='1.0' encoding='UTF-8'?>
<svg viewBox="-1.9999 -1.9457 32 31.9999" xmlns="http://www.w3.org/2000/svg">
  <g transform="matrix(0.0575, 0, 0, 0.0575, 0, 0)">
    <g transform="matrix(1.3307, 0, 0, 1.3307, 0, 0.4773)">
      <g fill="#f44336">
        <path d="M356.3398, 296.3477L69.7265, 9.7344C57.2265, -2.7656 36.9609, -2.7656 24.4804, 9.7344L9.3749, 24.8164C-3.1251, 37.3203 -3.1251, 57.5859 9.3749, 70.0664L295.9882, 356.6797C308.4921, 369.1797 328.7577, 369.1797 341.2382, 356.6797L356.3202, 341.5977C368.8436, 329.1172 368.8436, 308.8477 356.3397, 296.3477zM356.3398, 296.3477" fill="#D11C1C" fill-opacity="1" class="Red" />
        <path d="M295.9883, 9.7344L9.375, 296.3477C-3.125, 308.8477 -3.125, 329.1172 9.375, 341.5977L24.457, 356.6797C36.9609, 369.1797 57.2265, 369.1797 69.707, 356.6797L356.3398, 70.0859C368.8437, 57.5859 368.8437, 37.3203 356.3398, 24.8398L341.2578, 9.7578C328.7578, -2.7656 308.4922, -2.7656 295.9883, 9.7344zM295.9883, 9.7344" fill="#D11C1C" fill-opacity="1" class="Red" />
      </g>
    </g>
  </g>
</svg>