<?xml version='1.0' encoding='UTF-8'?>
<svg viewBox="-2 -2 32 32" version="1.1" xmlns="http://www.w3.org/2000/svg" xmlns:xlink="http://www.w3.org/1999/xlink" xml:space="preserve" id="Capa_1" style="enable-background:new 0 0 511.963 511.963">
  <g transform="matrix(0.0547, 0, 0, 0.0547, 0, 0)">
    <g>
      <path d="M498.687, 498.687C481.286, 516.388 452.788, 516.388 435.087, 498.687L353.662, 417.262L355.462, 355.462L417.262, 353.662L498.687, 435.087C516.388, 452.786 516.388, 481.287 498.687, 498.687z" fill="#1177D7" fill-opacity="1" class="Blue" />
      <path d="M498.687, 498.687C481.286, 516.388 452.788, 516.388 435.087, 498.687L353.662, 417.262L355.462, 355.462L498.687, 498.687z" fill="#1177D7" fill-opacity="1" class="Blue" />
      <path d="M417.262, 353.662L353.662, 417.262L288.563, 352.163C282.863, 346.463 282.863, 336.863 288.563, 331.163L331.162, 288.564C336.862, 282.864 346.462, 282.864 352.162, 288.564L417.262, 353.662z" fill="#FFB115" fill-opacity="1" class="Yellow" />
      <path d="M385.462, 385.462L353.662, 417.262L288.563, 352.163C282.863, 346.463 282.863, 336.863 288.563, 331.163L309.864, 309.862L385.462, 385.462z" fill="#FFB115" fill-opacity="1" class="Yellow" />
      <path d="M332.664, 57.262C256.463, -19.238 133.464, -18.937 57.262, 57.262C-19.238, 133.463 -18.937, 256.462 57.262, 332.662C133.463, 409.163 256.462, 408.863 332.664, 332.662C409.163, 256.463 408.863, 133.463 332.664, 57.262z" fill="#1177D7" fill-opacity="1" class="Blue" />
      <path d="M332.664, 332.662C256.463, 408.863 133.464, 409.163 57.262, 332.662C-18.937, 256.463 -19.238, 133.463 57.262, 57.262L332.664, 332.662z" fill="#1177D7" fill-opacity="1" class="Blue" />
      <path d="M311.663, 311.663C247.162, 376.162 142.763, 376.162 78.262, 311.663C13.763, 247.162 13.763, 142.763 78.262, 78.262C142.763, 13.761 247.162, 13.761 311.663, 78.262C376.162, 142.763 376.162, 247.163 311.663, 311.663z" fill="#FFFFFF" fill-opacity="1" class="White" />
      <path d="M311.663, 311.663C247.162, 376.162 142.763, 376.162 78.262, 311.663C13.763, 247.162 13.763, 142.763 78.262, 78.262L311.663, 311.663z" fill="#FFFFFF" fill-opacity="1" class="White" />
      <path d="M164.963, 119.963C140.149, 119.963 119.963, 99.777 119.963, 74.963C119.963, 66.672 126.672, 59.963 134.963, 59.963C143.254, 59.963 149.963, 66.672 149.963, 74.963C149.963, 83.239 156.687, 89.963 164.963, 89.963C173.254, 89.963 179.963, 96.672 179.963, 104.963C179.963, 113.254 173.254, 119.963 164.963, 119.963z" fill="#1177D7" fill-opacity="1" class="Blue" />
      <path d="M224.963, 119.963C216.672, 119.963 209.963, 113.254 209.963, 104.963C209.963, 96.672 216.672, 89.963 224.963, 89.963C233.239, 89.963 239.963, 83.239 239.963, 74.963C239.963, 66.672 246.672, 59.963 254.963, 59.963C263.254, 59.963 269.963, 66.672 269.963, 74.963C269.963, 99.777 249.777, 119.963 224.963, 119.963z" fill="#1177D7" fill-opacity="1" class="Blue" />
      <path d="M128.254, 178.381L95.09, 161.799C92.761, 160.604 89.963, 162.303 89.963, 164.963C89.963, 173.254 83.254, 179.963 74.963, 179.963C66.672, 179.963 59.963, 173.254 59.963, 164.963C59.963, 139.968 86.278, 123.824 108.493, 134.963L141.672, 151.545C149.084, 155.251 152.087, 164.26 148.381, 171.672C144.69, 179.033 135.734, 182.095 128.254, 178.381z" fill="#1177D7" fill-opacity="1" class="Blue" />
      <path d="M241.545, 171.672C237.839, 164.26 240.842, 155.251 248.254, 151.545L281.418, 134.963C303.711, 123.739 329.963, 140.072 329.963, 164.963C329.963, 173.254 323.254, 179.963 314.963, 179.963C306.672, 179.963 299.963, 173.254 299.963, 164.963C299.963, 162.444 297.411, 160.622 294.821, 161.799L261.672, 178.381C254.185, 182.099 245.233, 179.027 241.545, 171.672z" fill="#1177D7" fill-opacity="1" class="Blue" />
      <path d="M134.963, 329.963C126.672, 329.963 119.963, 323.254 119.963, 314.963L119.963, 311.799C119.963, 289.533 132.341, 269.509 152.248, 259.548C159.66, 255.871 168.669, 258.845 172.375, 266.257C176.081, 273.669 173.078, 282.678 165.666, 286.384C155.983, 291.218 149.963, 300.959 149.963, 311.799L149.963, 314.963C149.963, 323.254 143.254, 329.963 134.963, 329.963z" fill="#1177D7" fill-opacity="1" class="Blue" />
      <path d="M74.963, 269.963C66.672, 269.963 59.963, 263.254 59.963, 254.963C59.963, 230.149 80.149, 209.963 104.963, 209.963L134.963, 209.963C143.254, 209.963 149.963, 216.672 149.963, 224.963C149.963, 233.254 143.254, 239.963 134.963, 239.963L104.963, 239.963C96.687, 239.963 89.963, 246.687 89.963, 254.963C89.963, 263.254 83.254, 269.963 74.963, 269.963z" fill="#1177D7" fill-opacity="1" class="Blue" />
      <path d="M254.963, 329.963C246.672, 329.963 239.963, 323.254 239.963, 314.963L239.963, 311.799C239.963, 300.959 233.942, 291.218 224.26, 286.384C216.848, 282.678 213.845, 273.669 217.551, 266.257C221.272, 258.845 230.295, 255.871 237.678, 259.548C257.585, 269.509 269.963, 289.533 269.963, 311.799L269.963, 314.963C269.963, 323.254 263.254, 329.963 254.963, 329.963z" fill="#1177D7" fill-opacity="1" class="Blue" />
      <path d="M314.963, 269.963C306.672, 269.963 299.963, 263.254 299.963, 254.963C299.963, 246.687 293.239, 239.963 284.963, 239.963L254.963, 239.963C246.672, 239.963 239.963, 233.254 239.963, 224.963C239.963, 216.672 246.672, 209.963 254.963, 209.963L284.963, 209.963C309.777, 209.963 329.963, 230.149 329.963, 254.963C329.963, 263.254 323.254, 269.963 314.963, 269.963z" fill="#1177D7" fill-opacity="1" class="Blue" />
      <path d="M269.963, 149.963L230.663, 179.963L159.263, 179.963L119.963, 149.963L131.363, 131.363L151.462, 98.362C154.163, 93.263 159.262, 89.963 164.962, 89.963L224.962, 89.963C230.662, 89.963 235.762, 93.263 238.462, 98.362L269.963, 149.963z" fill="#1177D7" fill-opacity="1" class="Blue" />
      <polygon points="179.963,179.963 159.263,179.963 119.963,149.963 131.363,131.363  " fill="#1177D7" fill-opacity="1" class="Blue" />
      <path d="M269.963, 149.963L269.963, 224.963C269.963, 238.163 266.663, 250.462 260.963, 260.963C248.063, 284.362 223.163, 299.963 194.963, 299.963C153.563, 299.963 119.963, 266.363 119.963, 224.963L119.963, 149.963L269.963, 149.963z" fill="#D11C1C" fill-opacity="1" class="Red" />
      <path d="M260.963, 260.963C248.063, 284.362 223.163, 299.963 194.963, 299.963C153.563, 299.963 119.963, 266.363 119.963, 224.963L119.963, 149.963L149.963, 149.963L260.963, 260.963z" fill="#D11C1C" fill-opacity="1" class="Red" />
    </g>
  </g>
</svg>