<?xml version='1.0' encoding='UTF-8'?>
<svg viewBox="-0.3298 -0.4149 32 32" xmlns="http://www.w3.org/2000/svg">
  <g transform="matrix(0.0609, 0, 0, 0.0609, 0, 0)">
    <g transform="matrix(5.4759, 0, 0, 5.4759, 0, 0)">
      <g id="Layer_5">
        <circle cx="46.95" cy="51.4" r="1.25" fill="#727272" fill-opacity="1" class="Black" />
        <circle cx="46.95" cy="56.34" r="1.25" fill="#727272" fill-opacity="1" class="Black" />
        <path d="M55.72, 43.81L61.12, 38.88L63.71, 36.53C68.39, 32.31 70.71, 26.59 70.8, 19.02L70.8, 12.66L74.72, 12.66A1.25 1.25 0 0 0 76, 11.41L76, 6A1.25 1.25 0 0 0 74.75, 4.75L19.17, 4.75A1.25 1.25 0 0 0 17.92, 6L17.92, 11.41A1.25 1.25 0 0 0 19.17, 12.66L23.09, 12.66L23.09, 19C23.18, 26.55 25.51, 32.27 30.19, 36.48L33.19, 39.22L38.19, 43.78A4.57 4.57 0 0 1 40, 47.09A4.76 4.76 0 0 1 38.07, 50.48L30.17, 57.7C25.49, 61.91 23.17, 67.63 23.07, 75.2L23.07, 80.72L19.17, 80.72A1.25 1.25 0 0 0 17.92, 82L17.92, 87.41A1.25 1.25 0 0 0 19.17, 88.66L74.72, 88.66A1.25 1.25 0 0 0 76, 87.38L76, 82A1.25 1.25 0 0 0 74.75, 80.75L70.8, 80.75L70.8, 75.18C70.71, 67.63 68.39, 61.91 63.71, 57.7L55.8, 50.47A4.71 4.71 0 0 1 53.89, 47.11A4.61 4.61 0 0 1 55.72, 43.81zM51.39, 47.12A7.07 7.07 0 0 0 54.12, 52.33L62, 59.55C66.2, 63.33 68.19, 68.31 68.27, 75.2L68.27, 80.72L25.59, 80.72L25.59, 75.21C25.68, 68.31 27.67, 63.33 31.87, 59.55L39.77, 52.34A7.13 7.13 0 0 0 42.52, 47.09A6.88 6.88 0 0 0 39.86, 42L34.86, 37.44L31.86, 34.7C27.67, 30.92 25.68, 25.94 25.59, 19.05L25.59, 12.66L68.3, 12.66L68.3, 19C68.22, 25.9 66.23, 30.88 62.03, 34.66C61.16, 35.44 60.3, 36.23 59.43, 37.03L54, 42A7 7 0 0 0 51.39, 47.12z" fill="#727272" fill-opacity="1" class="Black" />
        <path d="M63.41, 29A1.24 1.24 0 0 0 63.23, 27.52A1.22 1.22 0 0 0 61.76, 27.27C56.83, 29.78 54.98, 30.72 47.33, 28.27A20 20 0 0 0 32.45, 29.27A1.25 1.25 0 0 0 32, 31.17C32.48, 31.74 43.36, 42.17 43.46, 42.17A5.78 5.78 0 0 1 44.86, 45.48A2 2 0 0 0 47, 47.22A1.83 1.83 0 0 0 49, 45.56A6.42 6.42 0 0 1 51.2, 41.45C51.37, 41.3 52.07, 40.63 53.02, 39.72C55.36, 37.48 59.26, 33.72 60.33, 32.78A15.26 15.26 0 0 0 63.41, 29z" fill="#727272" fill-opacity="1" class="Black" />
        <path d="M29.73, 76.72A1.25 1.25 0 0 0 31, 78L62.91, 78A1.25 1.25 0 0 0 64.16, 76.75A17.22 17.22 0 0 0 29.73, 76.75z" fill="#727272" fill-opacity="1" class="Black" />
      </g>
    </g>
  </g>
</svg>