<?xml version='1.0' encoding='UTF-8'?>
<svg viewBox="-1.9999 -1.9999 32 32" version="1.1" xmlns="http://www.w3.org/2000/svg" xmlns:xlink="http://www.w3.org/1999/xlink" xml:space="preserve" style="shape-rendering:geometricPrecision;text-rendering:geometricPrecision;image-rendering:optimizeQuality;fill-rule:evenodd;clip-rule:evenodd">
  <g transform="matrix(0.0203, 0, 0, 0.0203, 0, 0)">
    <g transform="matrix(1.0747, 0, 0, 1.0747, 0, 0)">
      <defs>
        <style type="text/css">
    .fil0 {fill:#1177D7;fill-rule:nonzero}
    .fil3 {fill:#727272;fill-rule:nonzero}
    .fil4 {fill:#D11C1C;fill-rule:nonzero}
    .fil1 {fill:#FFB115;fill-rule:nonzero}
    .fil2 {fill:white;fill-rule:nonzero}
   </style>
      </defs>
      <g id="Layer_x0020_1">
        <path d="M1249.01, 1249.01C1205.44, 1293.35 1134.07, 1293.35 1089.73, 1249.01L885.78, 1045.08L890.3, 890.3L1045.08, 885.78L1249.01, 1089.73C1293.35, 1134.05 1293.35, 1205.44 1249.01, 1249.01z" fill="#1177D7" fill-opacity="1" class="Blue" fill-rule="evenodd" />
        <path d="M1045.08, 885.78L965.43, 965.43L965.44, 965.44L885.78, 1045.08L722.74, 882.03C708.47, 867.75 708.47, 843.71 722.74, 829.44L829.44, 722.74C843.71, 708.47 867.75, 708.47 882.03, 722.74L1045.08, 885.78z" fill="#FFB115" fill-opacity="1" class="Yellow" fill-rule="evenodd" />
        <path d="M833.19, 833.19C642.34, 1024.04 334.28, 1024.8 143.42, 833.19C-47.43, 642.34 -48.18, 334.28 143.42, 143.42C334.28, -47.43 642.34, -48.18 833.19, 143.42C1024.04, 334.28 1024.8, 642.34 833.19, 833.19z" fill="#1177D7" fill-opacity="1" class="Blue" fill-rule="evenodd" />
        <path d="M780.6, 780.6C619.05, 942.15 357.58, 942.15 196.01, 780.6C34.48, 619.05 34.48, 357.58 196.01, 196.01C357.58, 34.46 619.05, 34.46 780.6, 196.01C942.15, 357.58 942.15, 619.05 780.6, 780.6z" fill="#FFFFFF" fill-opacity="1" class="White" fill-rule="evenodd" />
        <path d="M413.16, 300.47C351.02, 300.47 300.47, 249.9 300.47, 187.75C300.47, 166.99 317.27, 150.18 338.04, 150.18C358.8, 150.18 375.61, 166.99 375.61, 187.75C375.61, 208.49 392.45, 225.32 413.16, 225.32C433.93, 225.32 450.73, 242.13 450.73, 262.9C450.73, 283.66 433.93, 300.47 413.16, 300.47zM563.45, 300.47C542.68, 300.47 525.87, 283.66 525.87, 262.9C525.87, 242.13 542.68, 225.32 563.45, 225.32C584.18, 225.32 601.02, 208.49 601.02, 187.75C601.02, 166.99 617.82, 150.18 638.59, 150.18C659.35, 150.18 676.16, 166.99 676.16, 187.75C676.16, 249.9 625.59, 300.47 563.45, 300.47zM450.73, 450.73L398.9, 450.73L371.66, 429.94L371.64, 429.97C362.39, 448.41 339.96, 456.08 321.23, 446.77L238.17, 405.25C232.33, 402.26 225.32, 406.5 225.32, 413.16C225.32, 433.93 208.52, 450.73 187.75, 450.73C166.99, 450.73 150.18, 433.93 150.18, 413.16C150.18, 350.57 216.1, 310.14 271.74, 338.04L311.36, 357.83L329.02, 329.02L450.73, 450.73zM187.75, 676.16C166.99, 676.16 150.18, 659.35 150.18, 638.59C150.18, 576.44 200.75, 525.87 262.9, 525.87L338.04, 525.87C358.8, 525.87 375.61, 542.68 375.61, 563.45C375.61, 584.21 358.8, 601.02 338.04, 601.02L262.9, 601.02C242.16, 601.02 225.32, 617.86 225.32, 638.59C225.32, 659.35 208.52, 676.16 187.75, 676.16zM338.04, 826.42C317.27, 826.42 300.47, 809.62 300.47, 788.87L300.47, 780.94C300.47, 725.17 331.46, 675.02 381.32, 650.06C399.89, 640.85 422.45, 648.31 431.73, 666.86C441.02, 685.43 433.5, 708 414.93, 717.28C390.68, 729.39 375.61, 753.79 375.61, 780.94L375.61, 788.87C375.61, 809.62 358.8, 826.42 338.04, 826.42zM638.59, 826.42C617.82, 826.42 601.02, 809.62 601.02, 788.87L601.02, 780.94C601.02, 753.79 585.94, 729.39 561.68, 717.28C543.13, 708 535.6, 685.43 544.88, 666.86C554.2, 648.31 576.81, 640.85 595.29, 650.06C645.15, 675.02 676.16, 725.17 676.16, 780.94L676.16, 788.87C676.16, 809.62 659.35, 826.42 638.59, 826.42zM788.87, 676.16C768.1, 676.16 751.3, 659.35 751.3, 638.59C751.3, 617.86 734.44, 601.02 713.73, 601.02L638.59, 601.02C617.82, 601.02 601.02, 584.21 601.02, 563.45C601.02, 542.68 617.82, 525.87 638.59, 525.87L713.73, 525.87C775.87, 525.87 826.42, 576.44 826.42, 638.59C826.42, 659.35 809.62, 676.16 788.87, 676.16zM604.98, 429.97C595.7, 411.41 603.21, 388.85 621.78, 379.55L704.85, 338.04C760.68, 309.91 826.42, 350.83 826.42, 413.16C826.42, 433.93 809.62, 450.73 788.87, 450.73C768.1, 450.73 751.3, 433.93 751.3, 413.16C751.3, 406.86 744.9, 402.29 738.41, 405.25L655.39, 446.77C636.63, 456.08 614.22, 448.4 604.98, 429.97z" fill="#727272" fill-opacity="1" class="Black" fill-rule="evenodd" />
        <path d="M676.16, 375.61L577.72, 450.73L398.9, 450.73L300.47, 375.61L329.02, 329.02L379.35, 246.35C386.11, 233.6 398.88, 225.32 413.16, 225.32L563.45, 225.32C577.72, 225.32 590.49, 233.6 597.26, 246.35L676.16, 375.61z" fill="#727272" fill-opacity="1" class="Black" fill-rule="evenodd" />
        <path d="M676.16, 375.61L676.16, 563.45C676.16, 596.5 667.89, 627.3 653.61, 653.61C621.3, 712.22 558.95, 751.3 488.3, 751.3C384.62, 751.3 300.47, 667.14 300.47, 563.45L300.47, 375.61L375.61, 375.61L676.16, 375.61z" fill="#D11C1C" fill-opacity="1" class="Red" fill-rule="evenodd" />
      </g>
    </g>
  </g>
</svg>