<?xml version='1.0' encoding='UTF-8'?>
<svg viewBox="-2 -1.9999 32 32" xmlns="http://www.w3.org/2000/svg" enable-background="new 0 0 512 512" id="Layer_1">
  <g transform="matrix(0.0547, 0, 0, 0.0547, 0, 0)">
    <g>
      <path d="M437.018, 39.687C431.159, 33.828 421.663, 33.83 415.804, 39.687C409.947, 45.545 409.947, 55.042 415.805, 60.9C458.492, 103.585 482, 160.339 482, 220.707C482, 228.991 488.717, 235.707 497, 235.707C505.285, 235.707 512, 228.991 512, 220.707C512, 152.325 485.371, 88.038 437.018, 39.687z" fill="#727272" fill-opacity="1" class="Black" />
      <path d="M96.193, 39.688C90.334, 33.829 80.838, 33.831 74.979, 39.688C26.629, 88.042 0, 152.328 0, 220.707C0, 228.991 6.716, 235.707 15, 235.707C23.284, 235.707 30, 228.991 30, 220.707C30, 160.342 53.508, 103.588 96.193, 60.901C102.051, 55.043 102.051, 45.546 96.193, 39.688z" fill="#727272" fill-opacity="1" class="Black" />
      <path d="M370.357, 85.126C364.5, 90.984 364.5, 100.481 370.358, 106.34C400.908, 136.887 417.732, 177.503 417.732, 220.707C417.732, 228.991 424.449, 235.707 432.732, 235.707C441.017, 235.707 447.732, 228.991 447.732, 220.707C447.732, 169.489 427.787, 121.339 391.571, 85.125C385.713, 79.268 376.215, 79.269 370.357, 85.126z" fill="#727272" fill-opacity="1" class="Black" />
      <path d="M141.634, 85.133C135.776, 79.276 126.279, 79.277 120.421, 85.134C84.209, 121.35 64.266, 169.497 64.266, 220.707C64.266, 228.991 70.983, 235.707 79.266, 235.707C87.551, 235.707 94.266, 228.991 94.266, 220.707C94.266, 177.51 111.089, 136.895 141.635, 106.347C147.492, 100.488 147.492, 90.99 141.634, 85.133z" fill="#727272" fill-opacity="1" class="Black" />
      <path d="M383.467, 329.633L383.467, 252.84C383.467, 224.83 374.549, 198.251 357.678, 175.976C343.576, 157.36 324.345, 142.816 302.739, 134.258C299.73, 111.146 279.918, 93.24 256, 93.24C232.082, 93.24 212.268, 111.146 209.261, 134.258C187.655, 142.816 168.424, 157.36 154.323, 175.976C137.451, 198.251 128.533, 224.83 128.533, 252.84L128.533, 329.633L97.984, 390.732C95.66, 395.381 95.908, 400.904 98.64, 405.326C101.373, 409.749 106.202, 412.44 111.4, 412.44L400.6, 412.44C405.799, 412.44 410.627, 409.749 413.36, 405.326C416.093, 400.904 416.342, 395.382 414.017, 390.732z" fill="#727272" fill-opacity="1" class="Black" />
      <path d="M256, 476.707C283.005, 476.707 306.886, 463.123 321.204, 442.439L190.795, 442.439C205.114, 463.123 228.995, 476.707 256, 476.707z" fill="#727272" fill-opacity="1" class="Black" />
    </g>
  </g>
</svg>