<?xml version='1.0' encoding='UTF-8'?>
<svg viewBox="0.5563 0.5499 32 32" xmlns="http://www.w3.org/2000/svg">
  <g transform="matrix(0.0647, 0, 0, 0.0647, 0, 0)">
    <g transform="matrix(8, 0, 0, 8, 0, 0)">
      <g id="Skeleton">
        <path d="M44.3709, 22.7462C44.4175, 21 45.449, 20.3506 45.6538, 18.8974A12.9333 12.9333 0 0 0 40.8887, 7.4429A13.4662 13.4662 0 0 0 32, 4.9687A13.4662 13.4662 0 0 0 23.1113, 7.4429A12.9333 12.9333 0 0 0 18.3462, 18.8974C18.551, 20.3505 19.5825, 21 19.6291, 22.7462C19.6887, 24.9764 17.5933, 25.6179 17.7963, 27.603A3.6822 3.6822 0 0 0 19.7207, 30.4437C21.2486, 31.1698 23.5394, 29.0912 24.5197, 34.3389A2.211 2.211 0 0 0 25.6129, 35.8807A12.1273 12.1273 0 0 0 32, 37.3165A12.1273 12.1273 0 0 0 38.3871, 35.8807A2.211 2.211 0 0 0 39.4803, 34.3389C40.4606, 29.0912 42.7514, 31.1698 44.2793, 30.4437A3.6822 3.6822 0 0 0 46.2037, 27.603C46.4067, 25.618 44.3114, 24.9764 44.3709, 22.7462zM27.1575, 26.5722C26.4588, 26.6997 24.2541, 27.0064 23.0366, 25.83C21.6319, 24.4726 22.0175, 21.5298 23.0878, 20.5572C24.0958, 19.6412 25.8507, 19.876 26.9784, 20.0454A3.7733 3.7733 0 0 1 30.0499, 21.7859C30.6386, 22.8353 29.8836, 24.3577 29.8195, 24.499A3.4076 3.4076 0 0 1 27.1575, 26.5723zM34.1886, 32.9493C33.6968, 33.2487 32.72, 32.9569 31.9963, 32.2456C31.2727, 32.9569 30.303, 33.2487 29.8112, 32.9493C29.2199, 32.5893 29.2522, 31.4589 29.4779, 30.9123A18.5846 18.5846 0 0 1 31.1539, 27.741C31.4063, 27.3857 31.6469, 27.4216 31.9999, 27.6716C32.3529, 27.4216 32.5935, 27.3857 32.8459, 27.741A18.5846 18.5846 0 0 1 34.5219, 30.9123C34.7475, 31.4589 34.7799, 32.5893 34.1885, 32.9493zM40.9633, 25.83C39.7458, 27.0064 37.5411, 26.6998 36.8424, 26.5722A3.4076 3.4076 0 0 1 34.1804, 24.4989C34.1162, 24.3576 33.3613, 22.8352 33.95, 21.7858A3.7733 3.7733 0 0 1 37.0215, 20.0453C38.1492, 19.876 39.9041, 19.6411 40.9121, 20.5571C41.9824, 21.5297 42.368, 24.4725 40.9633, 25.8299z" fill="#727272" fill-opacity="1" class="Black" />
        <path d="M25.4, 47.89C26.95, 48.61 28.34, 49.26 29.6, 49.84C22.52, 53.11 21.7, 53.52 20.99, 55.3A11.2651 11.2651 0 0 1 19.53, 58.27A2.6236 2.6236 0 0 1 15.17, 57.23A5.1313 5.1313 0 0 1 15.19, 54.9A0.376 0.376 0 0 0 14.98, 54.41C11.8, 53.16 12.31, 49.6 14.72, 48.97C16.19, 48.59 17.81, 49.7 19.36, 49.78C20.43, 49.83 22.69, 49.04 25.4, 47.89z" fill="#727272" fill-opacity="1" class="Black" />
        <path d="M48.94, 44.58C46.84, 44.72 46.39, 43.58 44.24, 43.67A7.3337 7.3337 0 0 0 41.56, 44.27C40.5, 44.77 39.5, 45.25 38.55, 45.69C37.19, 45.09 35.73, 44.42 34.32, 43.76C36.09, 42.9 37.73, 42.09 39.07, 41.45A13.8044 13.8044 0 0 0 42.27, 39.3C43.42, 37.8 43, 35.87 44.85, 34.79C46.19, 34 49.49, 34.41 48.7, 38.43A0.7506 0.7506 0 0 0 49.18, 39.3A3.4872 3.4872 0 0 1 51.2, 41.45A2.7622 2.7622 0 0 1 48.94, 44.58z" fill="#727272" fill-opacity="1" class="Black" />
        <path d="M49.02, 54.41A0.376 0.376 0 0 0 48.81, 54.9A5.1313 5.1313 0 0 1 48.83, 57.23A2.6236 2.6236 0 0 1 44.47, 58.27A11.2651 11.2651 0 0 1 43.01, 55.3C42.0174, 52.8059 40.7701, 52.9769 22.44, 44.27A7.3337 7.3337 0 0 0 19.76, 43.67C17.61, 43.58 17.16, 44.72 15.06, 44.58A2.7622 2.7622 0 0 1 12.8, 41.45A3.4872 3.4872 0 0 1 14.82, 39.3A0.7506 0.7506 0 0 0 15.3, 38.43C14.51, 34.41 17.81, 34 19.15, 34.79C21, 35.87 20.58, 37.8 21.73, 39.3C22.8826, 40.8367 41.676, 49.9098 44.64, 49.78C46.19, 49.7 47.81, 48.59 49.28, 48.97C51.69, 49.6 52.2, 53.16 49.02, 54.41z" fill="#727272" fill-opacity="1" class="Black" />
      </g>
    </g>
  </g>
</svg>