<?xml version='1.0' encoding='UTF-8'?>
<svg viewBox="0.4405 0.4405 32 32" xmlns="http://www.w3.org/2000/svg">
  <g transform="matrix(0.0642, 0, 0, 0.0642, 0, 0)">
    <g transform="matrix(8, 0, 0, 8, 0, 0)">
      <g id="Skull">
        <path d="M52.8344, 34.7117C52.913, 31.7709 54.6501, 30.677 54.995, 28.2299A21.7818 21.7818 0 0 0 46.9698, 8.9388C40.7808, 4.1978 33.9033, 4.7719 31.9999, 4.7719C30.0965, 4.7719 23.219, 4.1978 17.03, 8.9388A21.7818 21.7818 0 0 0 9.0048, 28.2299C9.3497, 30.677 11.0869, 31.7709 11.1654, 34.7117C11.2657, 38.4676 7.7369, 39.5481 8.0788, 42.8911A6.2014 6.2014 0 0 0 11.3197, 47.6753C13.8929, 48.8981 17.751, 45.3974 19.402, 54.2352A3.7237 3.7237 0 0 0 21.243, 56.8318C24.8099, 58.7963 27.956, 59.2499 31.9998, 59.2499C36.0436, 59.2499 39.1897, 58.7963 42.7566, 56.8318A3.7237 3.7237 0 0 0 44.5976, 54.2352C46.2486, 45.3974 50.1067, 48.8981 52.6799, 47.6753A6.2014 6.2014 0 0 0 55.9208, 42.8911C56.2627, 39.548 52.7339, 38.4675 52.8342, 34.7117zM16.3223, 40.284C13.7464, 37.795 14.4536, 32.3989 16.4162, 30.6154C18.2646, 28.9357 21.4824, 29.3664 23.5502, 29.6767C28.5959, 30.4342 30.916, 33.095 28.7599, 37.8433A6.2481 6.2481 0 0 1 23.8787, 41.645C22.5974, 41.8788 18.5548, 42.4411 16.3223, 40.284zM35.686, 51.8951C34.8578, 52.3993 33.2126, 51.9078 31.994, 50.7099C30.7754, 51.9078 29.1422, 52.3992 28.3141, 51.8951C27.3182, 51.2888 27.3727, 49.385 27.7527, 48.4643A31.3019 31.3019 0 0 1 30.5752, 43.1233C31.0003, 42.5249 31.4056, 42.5853 32.0001, 43.0064C32.5946, 42.5854 32.9999, 42.5249 33.425, 43.1233A31.3019 31.3019 0 0 1 36.2475, 48.4643C36.6274, 49.3849 36.682, 51.2888 35.6861, 51.8951zM47.6777, 40.284C45.4452, 42.4411 41.4026, 41.8788 40.1213, 41.645A6.2481 6.2481 0 0 1 35.2401, 37.8433C33.0844, 33.0959 35.403, 30.4344 40.4498, 29.6767C42.5176, 29.3663 45.7354, 28.9357 47.5838, 30.6154C49.5465, 32.3989 50.2536, 37.795 47.6778, 40.284z" fill="#727272" fill-opacity="1" class="Black" />
      </g>
    </g>
  </g>
</svg>