<?xml version='1.0' encoding='UTF-8'?>
<svg viewBox="-2.0025 -2.0025 32 32" xmlns="http://www.w3.org/2000/svg" xmlns:xlink="http://www.w3.org/1999/xlink">
  <g transform="translate(-2.6692, -2.6692)">
    <g transform="matrix(0.6667, 0, 0, 0.6667, 0, 0)">
      <path d="M41, 4L9, 4C6.24, 4 4, 6.24 4, 9L4, 41C4, 43.76 6.24, 46 9, 46L41, 46C43.76, 46 46, 43.76 46, 41L46, 9C46, 6.24 43.76, 4 41, 4zM37, 19L35, 19C32.86, 19 32, 19.5 32, 21L32, 24L37, 24L36, 29L32, 29L32, 44L27, 44L27, 29L23, 29L23, 24L27, 24L27, 21C27, 17 29, 14 33, 14C35.9, 14 37, 15 37, 15L37, 19z" />
    </g>
  </g>
</svg>