<?xml version='1.0' encoding='UTF-8'?>
<svg viewBox="-2 -2.3225 32 32" xmlns="http://www.w3.org/2000/svg" xmlns:xlink="http://www.w3.org/1999/xlink">
  <g transform="translate(-2.8, -2.8005)">
    <g transform="matrix(0.7, 0, 0, 0.7, 0, 0)">
      <path d="M44, 24C44, 32.96 38.12, 40.54 30, 43.08L30, 38C30, 36.29 29.28, 34.76 28.14, 33.66C33.38, 32.71 36, 29.66 36, 24C36, 21.55 35.5, 19.61 34.52, 18.1C34.96, 16.39 35.22, 13.96 34, 12C31.64, 12 29.99, 13.39 29.02, 14.53C27.57, 14.18 25.9, 14 24, 14C22.2, 14 20.54, 14.2 19.06, 14.61C18.1, 13.46 16.42, 12 14, 12C12.58, 14.28 13.16, 16.74 13.7, 18.12C12.62, 19.63 12, 21.57 12, 24C12, 29.66 14.62, 32.71 19.86, 33.66C19.19, 34.31 18.67, 35.1 18.35, 36L16, 36C14.56, 36 14, 35.36 13.23, 34.32C12.46, 33.28 11.63, 32.58 10.64, 32.29C10.11, 32.23 9.75, 32.66 10.22, 33.04C11.79, 34.17 11.9, 36.02 12.53, 37.23C13.1, 38.32 14.28, 39 15.61, 39L18, 39L18, 43.08C9.88, 40.54 4, 32.96 4, 24C4, 12.95 12.95, 4 24, 4C35.05, 4 44, 12.95 44, 24z" />
    </g>
  </g>
</svg>