<?xml version='1.0' encoding='UTF-8'?>
<svg viewBox="-2.0025 -2.0025 32 32" xmlns="http://www.w3.org/2000/svg" xmlns:xlink="http://www.w3.org/1999/xlink">
  <g transform="translate(-2.6692, -2.6692)">
    <g transform="matrix(0.6667, 0, 0, 0.6667, 0, 0)">
      <path d="M41, 4L9, 4C6.24, 4 4, 6.24 4, 9L4, 41C4, 43.76 6.24, 46 9, 46L41, 46C43.76, 46 46, 43.76 46, 41L46, 9C46, 6.24 43.76, 4 41, 4zM17, 20L17, 39L11, 39L11, 20L17, 20zM11, 14.47C11, 13.07 12.2, 12 14, 12C15.8, 12 16.93, 13.07 17, 14.47C17, 15.87 15.88, 17 14, 17C12.2, 17 11, 15.87 11, 14.47zM39, 39L33, 39C33, 39 33, 29.74 33, 29C33, 27 32, 25 29.5, 24.96L29.42, 24.96C27, 24.96 26, 27.02 26, 29C26, 29.91 26, 39 26, 39L20, 39L20, 20L26, 20L26, 22.56C26, 22.56 27.93, 20 31.81, 20C35.78, 20 39, 22.73 39, 28.26L39, 39z" />
    </g>
  </g>
</svg>