<?xml version='1.0' encoding='UTF-8'?>
<svg viewBox="-2 -5.5175 32 32" xmlns="http://www.w3.org/2000/svg" xmlns:xlink="http://www.w3.org/1999/xlink">
  <g id="Layer_1" transform="translate(0, -3.5176)">
    <g transform="matrix(0.0547, 0, 0, 0.0547, 0, 0)">
      <path d="M298.789, 313.693C286.051, 322.185 271.255, 326.674 256, 326.674C240.746, 326.674 225.95, 322.185 213.212, 313.693L3.409, 173.82C2.245, 173.044 1.111, 172.235 0, 171.403L0, 400.6C0, 426.878 21.325, 447.733 47.133, 447.733L464.866, 447.733C491.144, 447.733 511.999, 426.408 511.999, 400.6L511.999, 171.402C510.886, 172.236 509.75, 173.047 508.583, 173.824z" />
    </g>
  </g>
  <g id="Layer_1" transform="translate(0, -3.5176)">
    <g transform="matrix(0.0547, 0, 0, 0.0547, 0, 0)">
      <path d="M20.05, 148.858L229.853, 288.732C237.795, 294.027 246.897, 296.674 255.999, 296.674C265.102, 296.674 274.205, 294.026 282.147, 288.732L491.95, 148.858C504.505, 140.493 512, 126.493 512, 111.383C512, 85.402 490.863, 64.266 464.883, 64.266L47.117, 64.266C21.137, 64.267 0, 85.403 0, 111.408C0, 126.493 7.496, 140.493 20.05, 148.858z" />
    </g>
  </g>
</svg>