<?xml version='1.0' encoding='UTF-8'?>
<svg viewBox="-2.12 -2 32 32" xmlns="http://www.w3.org/2000/svg" xmlns:xlink="http://www.w3.org/1999/xlink">
  <g transform="translate(-1.3678, -1.2174)">
    <g transform="matrix(0.6087, 0, 0, 0.6087, 0, 0)">
      <path d="M11.4062, 2C10.4062, 2 9.5117, 2.6875 9.3125, 3.6875C9.3125, 3.6875 3.4141, 30.6953 2.3125, 36.0938C2.1133, 37.1953 2.3867, 37.7891 2.6875, 38.1875C3.0859, 38.6875 3.6992, 39 4.5, 39L12, 39L17.9062, 11.8125C18.1055, 10.8125 19.0117, 9 21.8125, 9L38, 9C36.6016, 4.3984 32.1055, 2 27.9062, 2zM22, 11.0938L20.4062, 11.4062C20.1055, 11.6055 19.9141, 12.0117 19.8125, 12.3125L17.4062, 23.5C18.1055, 23.1992 18.793, 23.0938 19.5938, 23.0938L26.8125, 23.0938C33.2109, 23.0938 36.8008, 20.5078 38, 14.9062C38.1992, 13.9062 38.3125, 13.1133 38.3125, 12.3125L38.1875, 11.1875L38.1875, 11.0938zM40.0938, 11.3125L40.1875, 12C40.2891, 13 40.1055, 13.8945 39.9062, 15.0938C38.5078, 21.5938 33.9883, 24.9062 26.6875, 24.9062L19.5, 24.9062C17.8984, 24.9062 16.8008, 25.6055 16.5, 26.9062C16.1016, 28.707 12.6016, 45.1992 12.5, 45.5C12.3984, 46 12.5078, 46.6875 12.9062, 47.1875C13.207, 47.5859 13.6875, 48 14.6875, 48L22.6875, 48C23.6875, 48 24.6133, 47.2891 24.8125, 46.1875C25.7109, 42.3867 26.8984, 36.6133 27, 36.3125C27, 36.2109 27.0938, 36 27.0938, 36L32.4062, 36C40.207, 36 46.1016, 31.3125 47.5, 23.8125C48.5, 19.2109 47.207, 16.2891 45.9062, 14.6875C44.1055, 12.3867 40.793, 11.3125 40.0938, 11.3125z" />
    </g>
  </g>
</svg>