<?xml version='1.0' encoding='UTF-8'?>
<svg viewBox="-2.0025 -2.0025 32 32" xmlns="http://www.w3.org/2000/svg" xmlns:xlink="http://www.w3.org/1999/xlink">
  <g transform="translate(-2.6692, -2.6692)">
    <g transform="matrix(0.6667, 0, 0, 0.6667, 0, 0)">
      <path d="M11, 4C7.134, 4 4, 7.134 4, 11L4, 39C4, 42.866 7.134, 46 11, 46L39, 46C42.866, 46 46, 42.866 46, 39L46, 11C46, 7.134 42.866, 4 39, 4L11, 4zM13.0859, 13L21.0234, 13L26.6602, 21.0098L33.5, 13L36, 13L27.7891, 22.6133L37.9141, 37L29.9785, 37L23.4375, 27.707L15.5, 37L13, 37L22.3086, 26.1035L13.0859, 13zM16.9141, 15L31.0215, 35L34.0859, 35L19.9785, 15L16.9141, 15z" />
    </g>
  </g>
</svg>