<?xml version='1.0' encoding='UTF-8'?>
<svg viewBox="-2.0025 -2 32 32" xmlns="http://www.w3.org/2000/svg" xmlns:xlink="http://www.w3.org/1999/xlink">
  <g transform="translate(-1.2176, -1.2174)">
    <g transform="matrix(0.6087, 0, 0, 0.6087, 0, 0)">
      <path d="M25, 2C12.318, 2 2, 12.318 2, 25C2, 28.96 3.023, 32.854 4.963, 36.29L2.037, 46.73C1.941, 47.073 2.034, 47.441 2.282, 47.696C2.473, 47.893 2.733, 48 3, 48C3.08, 48 3.161, 47.99 3.24, 47.971L14.136, 45.272C17.463, 47.058 21.21, 48 25, 48C37.682, 48 48, 37.682 48, 25C48, 12.318 37.682, 2 25, 2zM36.57, 33.116C36.078, 34.478 33.718, 35.721 32.584, 35.888C31.566, 36.037 30.278, 36.101 28.864, 35.657C28.007, 35.387 26.907, 35.029 25.498, 34.428C19.575, 31.902 15.707, 26.013 15.411, 25.624C15.116, 25.235 13, 22.463 13, 19.594C13, 16.725 14.525, 15.314 15.067, 14.73C15.609, 14.146 16.248, 14 16.642, 14C17.036, 14 17.429, 14.005 17.774, 14.021C18.137, 14.039 18.624, 13.884 19.103, 15.022C19.595, 16.19 20.776, 19.059 20.922, 19.352C21.07, 19.644 21.168, 19.985 20.972, 20.374C20.776, 20.763 20.678, 21.006 20.382, 21.347C20.086, 21.688 19.762, 22.107 19.496, 22.369C19.2, 22.66 18.893, 22.975 19.237, 23.559C19.581, 24.143 20.766, 26.052 22.522, 27.598C24.777, 29.584 26.68, 30.2 27.27, 30.492C27.86, 30.784 28.205, 30.735 28.549, 30.346C28.893, 29.956 30.025, 28.643 30.418, 28.06C30.811, 27.477 31.205, 27.573 31.747, 27.768C32.289, 27.962 35.192, 29.372 35.782, 29.664C36.372, 29.956 36.766, 30.102 36.914, 30.345C37.062, 30.587 37.062, 31.755 36.57, 33.116z" />
    </g>
  </g>
</svg>