<?xml version="1.0" ?><!DOCTYPE svg  PUBLIC '-//W3C//DTD SVG 1.1//EN'  'http://www.w3.org/Graphics/SVG/1.1/DTD/svg11.dtd'><svg height="512px" style="enable-background:new 0 0 512 512;" version="1.1" viewBox="0 0 512 512" width="512px" xml:space="preserve" xmlns="http://www.w3.org/2000/svg" xmlns:xlink="http://www.w3.org/1999/xlink"><g id="_x32_-Microsoft_Access"><g><g><polygon points="134.075,270.424 176.681,270.424 155.373,211.702    " style="fill:#E5173E;"/><path d="M342.248,68.633c-20.339,0-39.883,1.492-57.503,4.366V54.22c0-4.298-1.891-8.364-5.198-11.104     c-3.283-2.738-7.68-3.922-11.818-3.053L37.731,83.3c-6.813,1.275-11.73,7.211-11.73,14.156v317.104     c0,6.92,4.917,12.884,11.73,14.158l229.997,43.24c0.86,0.17,1.753,0.259,2.646,0.259c3.334,0,6.582-1.153,9.172-3.317     c3.308-2.735,5.198-6.829,5.198-11.1v-18.79c17.613,2.871,37.161,4.38,57.503,4.38c69.232,0,143.751-18.044,143.751-57.654     V126.283C485.999,86.675,411.48,68.633,342.248,68.633z M217.791,341.628c-1.639,0.578-3.275,0.868-4.921,0.868     c-5.864,0-11.38-3.635-13.477-9.485l-12.25-33.761h-63.507l-12.219,33.761c-2.733,7.496-10.926,11.384-18.431,8.617     c-7.442-2.708-11.328-10.983-8.598-18.478l57.505-158.548c4.109-11.424,22.855-11.424,26.989,0l57.508,158.548     C229.094,330.645,225.234,338.92,217.791,341.628z M457.25,385.736c0,7.411-39.533,28.826-115.002,28.826     c-20.664,0-40.29-1.642-57.503-4.786v-57.249c17.613,2.87,37.161,4.382,57.503,4.382c42.519,0,86.97-6.831,115.002-21.273     V385.736z M457.25,299.248c0,7.413-39.533,28.832-115.002,28.832c-20.664,0-40.29-1.643-57.503-4.786v-57.236     c17.62,2.872,37.164,4.366,57.503,4.366c42.519,0,86.97-6.836,115.002-21.273V299.248z M457.25,212.77     c0,7.411-39.533,28.825-115.002,28.825c-20.664,0-40.29-1.644-57.503-4.801v-57.221c17.62,2.874,37.164,4.368,57.503,4.368     c42.519,0,86.97-6.833,115.002-21.278V212.77z M342.248,155.113c-20.664,0-40.29-1.644-57.503-4.801v-48.053     c17.225-3.156,36.846-4.802,57.503-4.802c75.469,0,115.002,21.423,115.002,28.827     C457.25,133.695,417.717,155.113,342.248,155.113z" style="fill:#E5173E;"/></g></g></g><g id="Layer_1"/></svg>