<?xml version="1.0" ?><!DOCTYPE svg  PUBLIC '-//W3C//DTD SVG 1.1//EN'  'http://www.w3.org/Graphics/SVG/1.1/DTD/svg11.dtd'><svg height="512px" style="enable-background:new 0 0 512 512;" version="1.1" viewBox="0 0 512 512" width="512px" xml:space="preserve" xmlns="http://www.w3.org/2000/svg" xmlns:xlink="http://www.w3.org/1999/xlink"><g id="_x32_65-powerpoint"><g><g><path d="M169.752,212.771h-28.751v57.653h28.751c15.843,0,28.751-12.946,28.751-28.828     C198.503,225.711,185.595,212.771,169.752,212.771z" style="fill:#D04424;"/><path d="M471.624,97.457H284.746V54.219c-0.001-4.298-1.892-8.364-5.198-11.104     c-3.282-2.738-7.681-3.922-11.819-3.053L37.731,83.3c-6.814,1.275-11.73,7.211-11.73,14.157v317.106     c0,6.919,4.916,12.883,11.73,14.157l229.997,43.24c0.862,0.17,1.754,0.259,2.646,0.259c3.334,0,6.582-1.152,9.172-3.318     c3.309-2.734,5.199-6.828,5.199-11.099v-43.239h186.878c7.938,0,14.375-6.455,14.375-14.416V111.87     C486,103.913,479.563,97.457,471.624,97.457z M169.752,299.25h-28.751v43.247c0,7.956-6.443,14.412-14.373,14.412     c-7.934,0-14.378-6.456-14.378-14.412V198.353c0-7.957,6.444-14.413,14.378-14.413h43.124c31.709,0,57.497,25.859,57.497,57.657     C227.249,273.393,201.461,299.25,169.752,299.25z M284.746,183.937c13.111-17.503,33.985-28.825,57.503-28.825v72.066h71.876     c0,39.817-32.173,72.071-71.876,72.071c-23.518,0-44.392-11.32-57.503-28.823V183.937z M414.125,356.909H284.746V328.08h129.379     c7.933,0,14.373,6.458,14.373,14.417C428.498,350.453,422.058,356.909,414.125,356.909z M370.998,198.354v-72.071     c39.706,0,71.874,32.258,71.875,72.071H370.998z" style="fill:#D04424;"/></g></g></g><g id="Layer_1"/></svg>