<?xml version='1.0' encoding='UTF-8'?>
<svg viewBox="-4 -2 32 32" xmlns="http://www.w3.org/2000/svg" xmlns:xlink="http://www.w3.org/1999/xlink">
  <g id="Layer_1" transform="translate(-4, -2)" style="enable-background:new 0 0 32 32">
    <g id="Bug">
      <path d="M27, 20C27.6, 20 28, 19.6 28, 19C28, 18.4 27.6, 18 27, 18L24, 18C24, 17.3 23.9, 16.6 23.7, 16L25.4, 16L27.7, 13.7C28.1, 13.3 28.1, 12.7 27.7, 12.3C27.3, 11.9 26.7, 11.9 26.3, 12.3L24.6, 14L23.1, 14C22.8, 13.3 22.5, 12.6 22.2, 12L22, 12L16, 12L10.1, 12L9.8, 12C9.4, 12.6 9.1, 13.3 8.9, 14L7.4, 14L5.7, 12.3C5.3, 11.9 4.7, 11.9 4.3, 12.3C3.9, 12.7 3.9, 13.3 4.3, 13.7L6.6, 16L8.3, 16C8.2, 16.6 8.1, 17.3 8, 18L5, 18C4.4, 18 4, 18.4 4, 19C4, 19.6 4.4, 20 5, 20L8, 20C8, 20.7 8.1, 21.4 8.3, 22L6.6, 22L4.3, 24.3C3.9, 24.7 3.9, 25.3 4.3, 25.7C4.7, 26.1 5.3, 26.1 5.7, 25.7L7.4, 24L8.9, 24C10.2, 27.6 12.9, 30 16, 30C19.1, 30 21.8, 27.6 23.1, 24L24.6, 24L26.3, 25.7C26.7, 26.1 27.3, 26.1 27.7, 25.7C28.1, 25.3 28.1, 24.7 27.7, 24.3L25.4, 22L23.7, 22C23.8, 21.4 23.9, 20.7 24, 20L27, 20z" fill="#D11C1C" class="Red" />
    </g>
  </g>
  <g id="Layer_1" transform="translate(-4, -2)" style="enable-background:new 0 0 32 32">
    <g id="Bug">
      <path d="M19.9, 5.5C19.9, 5.5 19.9, 5.5 19.9, 5.5L21.7, 3.7C22.1, 3.3 22.1, 2.7 21.7, 2.3C21.3, 1.9 20.7, 1.9 20.3, 2.3L18.2, 4.4C17.5, 4.1 16.8, 4 16, 4C15.2, 4 14.5, 4.1 13.8, 4.4L11.7, 2.3C11.3, 1.9 10.7, 1.9 10.3, 2.3C9.9, 2.7 9.9, 3.3 10.3, 3.7L12.1, 5.5C10.8, 6.6 10, 8.2 10, 10L22, 10C22, 8.2 21.2, 6.6 19.9, 5.5z" fill="#727272" class="Black" />
    </g>
  </g>
</svg>