<?xml version='1.0' encoding='UTF-8'?>
<svg viewBox="-2 -2 32 32" xmlns="http://www.w3.org/2000/svg" xmlns:xlink="http://www.w3.org/1999/xlink">
  <g id="Capa_1" transform="translate(0, 0)" style="enable-background:new 0 0 559.98 559.98">
    <g transform="matrix(0.05, 0, 0, 0.05, 0, 0)">
      <g>
        <g>
          <path d="M279.99, 0C125.601, 0 0, 125.601 0, 279.99C0, 434.38 125.601, 559.98 279.99, 559.98C434.38, 559.98 559.98, 434.379 559.98, 279.99C559.98, 125.601 434.38, 0 279.99, 0zM279.99, 498.78C159.346, 498.78 61.2, 400.634 61.2, 279.99C61.2, 159.352 159.346, 61.2 279.99, 61.2C400.634, 61.2 498.78, 159.352 498.78, 279.99C498.78, 400.634 400.634, 498.78 279.99, 498.78z" fill="#1177D7" fill-opacity="1" class="Blue" />
        </g>
      </g>
    </g>
  </g>
  <g id="Capa_1" transform="translate(0, 0)" style="enable-background:new 0 0 559.98 559.98">
    <g transform="matrix(0.05, 0, 0, 0.05, 0, 0)">
      <g>
        <g>
          <path d="M304.226, 280.326L304.226, 162.976C304.226, 149.873 293.608, 139.255 280.51, 139.255C267.408, 139.255 256.789, 149.873 256.789, 162.976L256.789, 287.904C256.789, 288.277 256.881, 288.627 256.899, 289C256.587, 295.45 258.809, 301.999 263.735, 306.926L352.078, 395.262C361.344, 404.528 376.362, 404.528 385.621, 395.262C394.881, 385.996 394.887, 370.978 385.621, 361.718L304.226, 280.326z" fill="#727272" fill-opacity="1" class="Black" />
        </g>
      </g>
    </g>
  </g>
</svg>