<?xml version='1.0' encoding='UTF-8'?>
<svg viewBox="-2 -2 32 32" xmlns="http://www.w3.org/2000/svg" xmlns:xlink="http://www.w3.org/1999/xlink">
  <g id="Layer_1" transform="translate(-0.336, -0.336)">
    <g transform="matrix(0.056, 0, 0, 0.056, 0, 0)">
      <g id="_x32_1.BringForword">
        <path d="M306, 6L56, 6C28.386, 6 6, 28.386 6, 56L6, 306C6, 333.614 28.386, 356 56, 356L306, 356C333.614, 356 356, 333.614 356, 306L356, 56C356, 28.386 333.614, 6 306, 6z" id="_x3C_Path_x3E__4_" />
      </g>
    </g>
  </g>
  <g id="Layer_1" transform="translate(-0.336, -0.336)">
    <g transform="matrix(0.056, 0, 0, 0.056, 0, 0)">
      <g id="_x32_1.BringForword">
        <path d="M456, 156L403.743, 156C395.459, 156 388.743, 162.716 388.743, 171L388.743, 198.75C388.743, 207.034 395.459, 213.75 403.743, 213.75L448.25, 213.75L448.25, 448.25L213.75, 448.25L213.75, 403.743C213.75, 395.459 207.034, 388.743 198.75, 388.743L171, 388.743C162.716, 388.743 156, 395.459 156, 403.743L156, 456C156, 483.614 178.386, 506 206, 506L456, 506C483.614, 506 506, 483.614 506, 456L506, 206C506, 178.386 483.614, 156 456, 156z" id="_x3C_Path_x3E__3_" />
      </g>
    </g>
  </g>
</svg>