<?xml version='1.0' encoding='UTF-8'?>
<svg viewBox="-4.34 -2 32 32" xmlns="http://www.w3.org/2000/svg" xmlns:xlink="http://www.w3.org/1999/xlink">
  <g transform="translate(-2.335, 0)">
    <g transform="matrix(0.9993, 0, 0, 0.9993, 0, 0)">
      <g transform="matrix(0.0547, 0, 0, 0.0547, 0, 0)">
        <g transform="matrix(5.3333, 0, 0, 5.3333, 0, 0)">
          <g id="_09-timer">
            <path d="M77.08, 28.577L82.828, 22.829L77.172, 17.171L71.023, 23.32A39.747 39.747 0 0 0 52, 16.2L52, 8L60, 8L60, 0L36, 0L36, 8L44, 8L44, 16.2A39.747 39.747 0 0 0 24.977, 23.32L18.828, 17.171L13.172, 22.829L18.92, 28.577A40 40 0 1 0 77.08, 28.577zM48, 88A32 32 0 1 1 80, 56A32.036 32.036 0 0 1 48, 88z" fill="#727272" fill-opacity="1" class="Black" />
          </g>
        </g>
      </g>
    </g>
  </g>
  <g transform="translate(-2.335, 0)">
    <g transform="matrix(0.9993, 0, 0, 0.9993, 0, 0)">
      <g transform="matrix(0.0547, 0, 0, 0.0547, 0, 0)">
        <g transform="matrix(5.3333, 0, 0, 5.3333, 0, 0)">
          <g id="_09-timer">
            <path d="M48, 32L48, 56L24, 56A24 24 0 1 0 48, 32z" fill="#1177D7" fill-opacity="1" class="Blue" />
          </g>
        </g>
      </g>
    </g>
  </g>
</svg>