<?xml version='1.0' encoding='UTF-8'?>
<svg viewBox="0 0 185.47 42.51" xmlns="http://www.w3.org/2000/svg" xmlns:xlink="http://www.w3.org/1999/xlink">
  <g transform="matrix(6.2812, 0, 0, 6.2812, 0, 0)">
    <defs tag="staticElement_id20847751">
      <style type="text/css">
    .fil0 {fill:#EEEEEE}
   </style>
    </defs>
    <g transform="translate(-0.0216, -0.0017)" style="shape-rendering:geometricPrecision;text-rendering:geometricPrecision;image-rendering:optimizeQuality;fill-rule:evenodd;clip-rule:evenodd" fill-rule="evenodd">
      <g transform="matrix(0.1395, 0, 0, 0.1395, 0, 0)">
        <g transform="matrix(1.0821, 0, 0, 1.0821, 0.1516, 0)">
          <g id="Layer_x0020_1">
            <g>
              <path d="M32.93, 7.27C30.98, 6.31 29.54, 7.37 30.17, 9.3C30.39, 9.97 30.82, 10.62 31.36, 11.15C31.89, 11.69 32.54, 12.12 33.21, 12.34C35.14, 12.97 36.2, 11.54 35.24, 9.58C35, 9.1 34.66, 8.64 34.26, 8.25C33.87, 7.85 33.42, 7.51 32.93, 7.27zM0.11, 18.18C0.11, 18.18 0.11, 18.18 0.11, 18.18L0.11, 18.18L0.12, 18.08L0.12, 18.08L0.14, 17.98L0.14, 17.98L0.15, 17.89L0.15, 17.89L0.16, 17.79L0.16, 17.79L0.18, 17.69L0.18, 17.69L0.19, 17.6L0.19, 17.6L0.21, 17.5L0.21, 17.5L0.22, 17.4L0.22, 17.4C0.23, 17.34 0.24, 17.27 0.26, 17.21L0.26, 17.21L0.27, 17.11L0.27, 17.11C0.29, 17.01 0.31, 16.92 0.33, 16.82L0.33, 16.82L0.35, 16.73L0.35, 16.73C0.37, 16.63 0.39, 16.53 0.41, 16.44L0.41, 16.44C0.43, 16.37 0.44, 16.31 0.46, 16.25L0.46, 16.25C0.47, 16.18 0.49, 16.12 0.5, 16.05L0.5, 16.05C0.52, 15.99 0.53, 15.93 0.55, 15.86L0.55, 15.86L0.58, 15.77L0.58, 15.77L0.6, 15.67L0.6, 15.67L0.63, 15.58L0.63, 15.58C0.65, 15.48 0.68, 15.39 0.71, 15.29L0.71, 15.29L0.74, 15.2L0.74, 15.19C0.75, 15.13 0.77, 15.07 0.79, 15L0.79, 15L0.82, 14.91L0.82, 14.91L0.85, 14.81L0.85, 14.81L0.88, 14.72L0.88, 14.72L0.95, 14.53L0.95, 14.53L0.98, 14.43L0.98, 14.43L1.01, 14.34L1.01, 14.34L1.04, 14.24L1.04, 14.24L1.08, 14.15L1.08, 14.15L1.11, 14.05L1.11, 14.05L1.15, 13.96L1.15, 13.96L1.18, 13.86L1.18, 13.86L1.22, 13.77L1.22, 13.77L1.25, 13.67L1.25, 13.67L1.29, 13.58L1.29, 13.58L1.33, 13.48L1.33, 13.48L1.36, 13.39L1.36, 13.39L1.4, 13.29L1.4, 13.29L1.44, 13.2L1.44, 13.2L1.48, 13.1L1.48, 13.1L1.52, 13.01L1.52, 13.01L1.56, 12.91L1.56, 12.91L1.6, 12.82L1.64, 12.72L1.64, 12.72L1.68, 12.63L1.68, 12.63L1.72, 12.53L1.76, 12.44L1.81, 12.34L1.85, 12.25L1.89, 12.15L1.93, 12.06C0.21, 15.92 0.43, 20.57 2.11, 25.06C2.39, 25.69 2.94, 25.8 3.33, 25.74C3.76, 25.65 4.18, 25.53 4.58, 25.41C4.58, 25.41 4.58, 25.41 4.58, 25.41C6.15, 25.01 7.45, 24.92 8.41, 26.24C8.47, 26.34 8.54, 26.44 8.61, 26.54C8.61, 26.54 8.61, 26.55 8.62, 26.55C8.62, 26.55 8.62, 26.55 8.62, 26.55C9.58, 27.97 10.68, 29.33 11.92, 30.6C12.68, 31.34 13.49, 32.04 14.31, 32.69C14.31, 32.69 14.31, 32.69 14.31, 32.69C16.36, 34.16 14.4, 36.49 12.48, 35.01C11.56, 34.29 10.67, 33.51 9.83, 32.69C8.56, 31.39 7.4, 29.98 6.39, 28.5C6.39, 28.49 6.39, 28.49 6.39, 28.49C6.19, 28.2 5.84, 28.02 5.5, 28.1C5.5, 28.1 5.5, 28.1 5.5, 28.1C4.93, 28.25 4.32, 28.38 3.68, 28.46C3.68, 28.46 3.68, 28.47 3.68, 28.47C3.68, 28.47 3.68, 28.47 3.68, 28.47C3.04, 28.53 1.51, 28.64 0.95, 26.92C0.69, 26.05 0.46, 25.05 0.31, 23.92C0.23, 23.34 0.16, 22.7 0.11, 22.02C-0.04, 20.7 -0.03, 19.42 0.11, 18.18L0.11, 18.18zM0.11, 18.18L0.11, 18.18L0.11, 18.18L0.11, 18.18zM34.87, 21.03L34.87, 21.03L34.85, 21.03C34.78, 21.03 34.71, 21.03 34.64, 21.02L34.64, 21.02L34.61, 21.02C34.55, 21.02 34.5, 21.01 34.45, 21.01L34.45, 21.01L34.44, 21.01C34.41, 21.01 34.37, 21 34.34, 21L34.34, 21L34.32, 21C34.29, 21 34.26, 20.99 34.23, 20.99L34.23, 20.99L34.21, 20.99C34.18, 20.98 34.14, 20.98 34.11, 20.98L34.11, 20.98L34.11, 20.98C34.03, 20.97 33.95, 20.96 33.87, 20.95L33.87, 20.94L33.86, 20.94C33.84, 20.94 33.81, 20.94 33.79, 20.94L33.79, 20.93L33.78, 20.93C33.76, 20.93 33.74, 20.93 33.72, 20.92L33.72, 20.92L33.71, 20.92C33.69, 20.92 33.67, 20.92 33.65, 20.91L33.65, 20.91L33.65, 20.91C33.58, 20.9 33.52, 20.89 33.46, 20.88L33.46, 20.88L33.46, 20.88C33.44, 20.88 33.42, 20.87 33.41, 20.87L33.41, 20.87L33.4, 20.87L33.35, 20.86L33.35, 20.86L33.34, 20.86C33.33, 20.86 33.32, 20.85 33.3, 20.85L33.3, 20.85L33.29, 20.85C33.27, 20.84 33.26, 20.84 33.25, 20.84L33.25, 20.84L33.24, 20.84C33.22, 20.83 33.21, 20.83 33.19, 20.83L33.19, 20.83L33.19, 20.83L33.14, 20.82L33.14, 20.82L33.14, 20.82C33.12, 20.81 33.1, 20.81 33.09, 20.8L33.09, 20.8L33.09, 20.8C33.04, 20.79 32.99, 20.78 32.95, 20.77L32.95, 20.77L32.95, 20.77L32.9, 20.76L32.9, 20.76L32.9, 20.76L32.86, 20.75L32.86, 20.75L32.86, 20.75C32.84, 20.75 32.83, 20.74 32.82, 20.74L32.82, 20.74L32.81, 20.74L32.78, 20.73L32.78, 20.73L32.77, 20.73C32.76, 20.73 32.74, 20.72 32.73, 20.72L32.73, 20.72L32.73, 20.72L32.69, 20.71L32.69, 20.71L32.69, 20.71L32.65, 20.7L32.65, 20.7L32.64, 20.7L32.6, 20.69L32.6, 20.69L32.6, 20.69C32.56, 20.68 32.53, 20.66 32.49, 20.65L32.49, 20.65L32.49, 20.65C32.46, 20.65 32.44, 20.64 32.41, 20.63L32.41, 20.63L32.41, 20.63L32.38, 20.62L32.38, 20.62L32.37, 20.62L32.34, 20.61L32.34, 20.61L32.34, 20.61L32.3, 20.6L32.3, 20.6L32.3, 20.6L32.27, 20.59L32.27, 20.59L32.26, 20.59C32.25, 20.59 32.24, 20.58 32.23, 20.58L32.23, 20.58L32.23, 20.58L32.2, 20.57L32.2, 20.57L32.19, 20.57L32.17, 20.56L32.17, 20.56L32.16, 20.56C32.09, 20.54 32.03, 20.51 31.96, 20.49L31.96, 20.49L31.96, 20.49L31.93, 20.48L31.93, 20.48L31.93, 20.48L31.9, 20.47L31.9, 20.47L31.9, 20.47L31.87, 20.46L31.87, 20.46L31.86, 20.46L31.83, 20.45L31.83, 20.45L31.83, 20.45L31.8, 20.44L31.8, 20.44L31.8, 20.44L31.77, 20.43L31.77, 20.43L31.77, 20.43C31.75, 20.42 31.73, 20.41 31.72, 20.41L31.72, 20.41L31.71, 20.41L31.68, 20.4L31.68, 20.4L31.68, 20.4L31.65, 20.38L31.65, 20.38L31.65, 20.38C31.58, 20.36 31.52, 20.34 31.45, 20.31L31.45, 20.31L31.45, 20.31L31.4, 20.29L31.4, 20.29L31.39, 20.29L31.34, 20.27L31.34, 20.27L31.34, 20.27L31.31, 20.26L31.31, 20.25L31.31, 20.25C31.29, 20.25 31.27, 20.24 31.26, 20.23L31.26, 20.23L31.25, 20.23C31.24, 20.23 31.22, 20.22 31.2, 20.21L31.2, 20.21L31.2, 20.21C31.18, 20.2 31.17, 20.2 31.15, 20.19L31.15, 20.19C31.08, 20.16 31.01, 20.13 30.95, 20.1L30.95, 20.1L30.94, 20.1C30.92, 20.09 30.89, 20.08 30.87, 20.07L30.87, 20.07L30.87, 20.07L30.85, 20.06L30.85, 20.06L30.85, 20.06C30.82, 20.05 30.8, 20.04 30.77, 20.03L30.77, 20.03L30.77, 20.03L30.75, 20.02L30.75, 20.02L30.75, 20.02C30.72, 20.01 30.7, 20 30.68, 19.99L30.68, 19.99L30.68, 19.99L30.66, 19.98L30.66, 19.97L30.65, 19.97C30.54, 19.92 30.43, 19.87 30.31, 19.81L30.31, 19.81L30.31, 19.81L30.29, 19.8L30.29, 19.8L30.29, 19.8L30.27, 19.79L30.27, 19.79L30.27, 19.79L30.25, 19.78L30.25, 19.78L30.25, 19.78L30.23, 19.77L30.23, 19.77L30.23, 19.77L30.21, 19.76L30.21, 19.76L30.2, 19.76L30.19, 19.75L30.19, 19.75L30.18, 19.75L30.16, 19.74L30.16, 19.74L30.16, 19.74L30.14, 19.73L30.14, 19.73L30.14, 19.73L30.12, 19.72L30.12, 19.72L30.12, 19.72L30.1, 19.71L30.1, 19.71L30.1, 19.71C30.02, 19.67 29.95, 19.63 29.88, 19.59L29.88, 19.59L29.87, 19.59C29.84, 19.57 29.81, 19.55 29.78, 19.54L29.78, 19.53L29.77, 19.53L29.76, 19.52L29.76, 19.52L29.75, 19.52L29.74, 19.51L29.74, 19.51L29.73, 19.51L29.71, 19.5L29.71, 19.5L29.71, 19.5C29.7, 19.49 29.68, 19.48 29.66, 19.47L29.66, 19.47L29.66, 19.47L29.64, 19.46L29.64, 19.46L29.64, 19.46C29.61, 19.44 29.57, 19.42 29.54, 19.4L29.54, 19.4L29.54, 19.4C29.49, 19.38 29.44, 19.35 29.39, 19.32L29.39, 19.32L29.39, 19.32C29.38, 19.31 29.36, 19.3 29.34, 19.29L29.34, 19.29L29.34, 19.29L29.29, 19.25L29.29, 19.25L29.28, 19.25C29.27, 19.24 29.25, 19.23 29.23, 19.22L29.23, 19.22L29.23, 19.22L29.21, 19.21L29.21, 19.21L29.21, 19.21L29.18, 19.19L29.18, 19.19L29.18, 19.19C29.16, 19.18 29.14, 19.17 29.13, 19.16L29.13, 19.16L29.12, 19.16L29.07, 19.12L29.07, 19.12L29.07, 19.12C28.98, 19.06 28.88, 19 28.78, 18.94L28.78, 18.94L28.78, 18.94L28.75, 18.92L28.75, 18.92L28.75, 18.92L28.72, 18.9L28.72, 18.9L28.72, 18.9C28.71, 18.89 28.7, 18.89 28.69, 18.88L28.69, 18.88L28.68, 18.88C28.67, 18.87 28.66, 18.86 28.65, 18.86L28.65, 18.85L28.65, 18.85C28.56, 18.79 28.46, 18.73 28.37, 18.66L28.37, 18.66L28.37, 18.66C28.34, 18.64 28.32, 18.63 28.29, 18.61L28.29, 18.61L28.29, 18.61L28.26, 18.59L28.26, 18.58L28.26, 18.58C28.24, 18.58 28.23, 18.57 28.22, 18.56L28.22, 18.55L28.21, 18.55C28.2, 18.55 28.19, 18.54 28.18, 18.53L28.18, 18.53L28.18, 18.53L28.15, 18.51L28.15, 18.51L28.15, 18.51C28.14, 18.5 28.12, 18.49 28.11, 18.48L28.11, 18.48L28.11, 18.48C28.08, 18.46 28.06, 18.44 28.03, 18.42L28.03, 18.42L28.03, 18.42C27.98, 18.38 27.93, 18.35 27.87, 18.31L27.87, 18.3L27.87, 18.3C27.86, 18.29 27.84, 18.28 27.83, 18.27L27.83, 18.27L27.83, 18.27C27.8, 18.25 27.77, 18.22 27.73, 18.2L27.73, 18.2L27.73, 18.2C27.72, 18.19 27.7, 18.18 27.69, 18.17L27.69, 18.16L27.69, 18.16L27.65, 18.13L27.65, 18.13L27.65, 18.13C27.63, 18.12 27.61, 18.11 27.6, 18.09L27.6, 18.09L27.59, 18.09L27.55, 18.06L27.55, 18.06L27.55, 18.06C27.46, 17.99 27.37, 17.92 27.28, 17.84L27.28, 17.84L27.28, 17.84C27.26, 17.82 27.24, 17.81 27.22, 17.79L27.22, 17.79L27.22, 17.79C27.2, 17.77 27.18, 17.76 27.17, 17.75L27.17, 17.74L27.17, 17.74L27.16, 17.74L27.16, 17.73L27.15, 17.73C27.14, 17.72 27.12, 17.71 27.1, 17.69L27.1, 17.69L27.1, 17.69L27.09, 17.68L27.09, 17.68L27.09, 17.68C27.07, 17.66 27.05, 17.64 27.03, 17.63L27.03, 17.63L27.03, 17.63C27.01, 17.61 26.98, 17.59 26.96, 17.57C26.94, 17.55 26.91, 17.53 26.89, 17.51L26.89, 17.51L26.89, 17.51C26.86, 17.48 26.82, 17.45 26.79, 17.42L26.79, 17.42L26.79, 17.42C26.76, 17.4 26.73, 17.37 26.71, 17.35L26.71, 17.35L26.71, 17.35L26.7, 17.34L26.7, 17.34L26.69, 17.34L26.69, 17.33L26.69, 17.32L26.68, 17.32C26.65, 17.3 26.63, 17.27 26.6, 17.25L26.6, 17.25L26.6, 17.25L26.59, 17.24L26.59, 17.24L26.59, 17.24L26.58, 17.23L26.58, 17.23L26.58, 17.23C26.54, 17.2 26.51, 17.17 26.48, 17.14L26.48, 17.14L26.48, 17.14C26.43, 17.1 26.38, 17.05 26.33, 17L26.32, 16.99L26.32, 16.99L26.32, 16.99L26.31, 16.98L26.31, 16.98L26.31, 16.98L26.3, 16.97L26.3, 16.97L26.3, 16.97C26.21, 16.89 26.13, 16.8 26.04, 16.72L26.04, 16.72L26.04, 16.72L26.03, 16.71L26.03, 16.71L26.03, 16.71L26.02, 16.7L26.02, 16.7L26.02, 16.7L26.01, 16.69L26.01, 16.69L26.01, 16.69L26, 16.68L26, 16.68L26, 16.68L25.99, 16.67L25.99, 16.67L25.99, 16.67L25.98, 16.66L25.98, 16.66L25.98, 16.66C25.96, 16.64 25.94, 16.62 25.92, 16.6C25.89, 16.57 25.87, 16.55 25.85, 16.53L25.85, 16.53L25.85, 16.53L25.84, 16.52L25.84, 16.52L25.84, 16.52L25.83, 16.51L25.83, 16.51L25.83, 16.51L25.82, 16.5L25.82, 16.49L25.82, 16.49L25.81, 16.49L25.81, 16.48L25.8, 16.48L25.8, 16.48L25.8, 16.47L25.79, 16.47L25.79, 16.47L25.79, 16.46L25.78, 16.46L25.78, 16.45L25.78, 16.45L25.77, 16.45L25.76, 16.44L25.76, 16.44L25.76, 16.44L25.75, 16.43L25.75, 16.43L25.75, 16.43L25.74, 16.42L25.74, 16.42L25.74, 16.42L25.73, 16.41L25.73, 16.41L25.73, 16.41L25.72, 16.4L25.72, 16.4L25.72, 16.4L25.71, 16.39L25.71, 16.39L25.71, 16.39L25.7, 16.38L25.7, 16.38L25.7, 16.38L25.69, 16.37L25.69, 16.37L25.69, 16.37L25.68, 16.36L25.68, 16.35L25.68, 16.35L25.67, 16.35L25.67, 16.34L25.67, 16.34L25.66, 16.33L25.66, 16.33L25.66, 16.33L25.65, 16.32L25.65, 16.32L25.65, 16.32L25.64, 16.31L25.64, 16.31L25.64, 16.31C25.6, 16.27 25.56, 16.24 25.53, 16.2L25.53, 16.19L25.52, 16.19L25.52, 16.19L25.52, 16.18L25.51, 16.18L25.51, 16.18L25.51, 16.17L25.5, 16.17L25.5, 16.17L25.5, 16.16L25.49, 16.16L25.49, 16.15L25.49, 16.15L25.48, 16.15L25.48, 16.14L25.48, 16.14L25.47, 16.14L25.46, 16.13L25.46, 16.13L25.46, 16.13L25.45, 16.12L25.45, 16.12L25.45, 16.12L25.44, 16.11L25.44, 16.11L25.44, 16.11L25.43, 16.1L25.43, 16.1L25.43, 16.1L25.42, 16.09L25.42, 16.09L25.42, 16.09L25.41, 16.07L25.41, 16.07L25.41, 16.07C25.37, 16.03 25.33, 15.98 25.28, 15.94L25.28, 15.93L25.28, 15.93L25.27, 15.92L25.27, 15.92C25.25, 15.9 25.22, 15.87 25.2, 15.84L25.2, 15.84L25.19, 15.84L25.19, 15.83L25.19, 15.83L25.18, 15.83L25.18, 15.82L25.18, 15.82L25.17, 15.82L25.17, 15.81L25.17, 15.81L25.17, 15.81L25.12, 15.76L25.12, 15.75L25.12, 15.75L25.11, 15.75L25.11, 15.74L25.11, 15.74L25.1, 15.73L25.1, 15.73L25.1, 15.73L25.09, 15.72L25.09, 15.72L25.09, 15.72L25.08, 15.71L25.08, 15.71L25.08, 15.71L25.05, 15.67L25.05, 15.67L25.04, 15.67L25.04, 15.66L25.04, 15.65L25.03, 15.65L25.03, 15.65L25.03, 15.64L25.02, 15.64L25.02, 15.64L25.02, 15.63L25.01, 15.63L25, 15.62L25, 15.62L25, 15.62L24.97, 15.59L24.97, 15.58L24.97, 15.58L24.96, 15.57L24.96, 15.57L24.96, 15.57L24.95, 15.56L24.95, 15.56L24.95, 15.56L24.94, 15.55L24.94, 15.55L24.94, 15.55L24.93, 15.54L24.93, 15.54L24.93, 15.54L24.89, 15.49L24.89, 15.48L24.88, 15.48L24.88, 15.47L24.88, 15.47L24.87, 15.47L24.87, 15.46L24.87, 15.46L24.86, 15.46L24.81, 15.4L24.81, 15.4L24.81, 15.4L24.8, 15.39L24.8, 15.39L24.8, 15.39C24.77, 15.34 24.73, 15.3 24.69, 15.26L24.69, 15.26L24.69, 15.26L24.65, 15.2L24.65, 15.2L24.65, 15.2L24.64, 15.19L24.64, 15.19L24.64, 15.19L24.61, 15.15L24.61, 15.15L24.61, 15.15L24.6, 15.14L24.6, 15.14L24.6, 15.14L24.57, 15.1L24.57, 15.09L24.56, 15.09L24.56, 15.09L24.56, 15.08L24.55, 15.08L24.52, 15.05L24.52, 15.04L24.52, 15.04L24.51, 15.03L24.51, 15.03L24.51, 15.03L24.5, 15.02L24.5, 15.02L24.48, 14.99L24.48, 14.99L24.48, 14.99L24.47, 14.98L24.47, 14.98L24.47, 14.98L24.45, 14.95L24.45, 14.94L24.44, 14.94L24.44, 14.94L24.44, 14.93L24.43, 14.93L24.43, 14.92L24.43, 14.92L24.43, 14.92L24.41, 14.9L24.41, 14.89L24.4, 14.89L24.39, 14.88L24.39, 14.88L24.39, 14.88L24.38, 14.87L24.38, 14.87L24.38, 14.87L24.36, 14.84L24.36, 14.84L24.36, 14.84L24.35, 14.83L24.35, 14.82L24.35, 14.82L24.32, 14.79L24.32, 14.78L24.32, 14.78L24.31, 14.77L24.31, 14.77L24.31, 14.77L24.28, 14.73L24.28, 14.73L24.28, 14.73C24.24, 14.69 24.21, 14.64 24.18, 14.6L24.18, 14.6L24.18, 14.6L24.15, 14.56L24.15, 14.56L24.15, 14.56L24.12, 14.52L24.12, 14.51L24.11, 14.51L24.09, 14.49L24.09, 14.48L24.09, 14.48L24.08, 14.47L24.08, 14.47L24.08, 14.47L24.06, 14.44L24.06, 14.44L24.06, 14.44L24.05, 14.43L24.05, 14.43L24.05, 14.43L24.04, 14.41L24.04, 14.4L24.04, 14.4L24.03, 14.4L24.03, 14.39L24.03, 14.39L24.01, 14.37L24.01, 14.36L24, 14.36L24, 14.35L24, 14.35L24, 14.35L23.98, 14.32L23.98, 14.32L23.97, 14.32L23.97, 14.31L23.97, 14.31L23.97, 14.31L23.96, 14.29L23.96, 14.29L23.95, 14.29L23.95, 14.28L23.95, 14.28L23.94, 14.28L23.92, 14.25L23.92, 14.24L23.92, 14.24L23.91, 14.23L23.91, 14.23L23.91, 14.23L23.9, 14.22L23.9, 14.21L23.9, 14.21L23.89, 14.2L23.89, 14.2L23.89, 14.2L23.87, 14.17L23.87, 14.17L23.87, 14.17L23.84, 14.13L23.84, 14.12L23.84, 14.12L23.82, 14.09L23.82, 14.09L23.82, 14.09L23.77, 14.02C23.76, 14.01 23.75, 14 23.74, 13.99C23.51, 13.65 23.11, 13.54 22.73, 13.6C21.56, 13.83 20.49, 14.22 19.42, 14.7C19.43, 14.7 19.43, 14.7 19.43, 14.71C19.37, 14.73 19.32, 14.75 19.26, 14.77C19.24, 14.78 19.22, 14.79 19.19, 14.8L19.19, 14.8L19.19, 14.8C19.18, 14.81 19.16, 14.82 19.14, 14.82L19.14, 14.82L19.14, 14.83L19.12, 14.84L19.12, 14.84L19.12, 14.84L19.07, 14.86L19.06, 14.86L19.06, 14.86L19.04, 14.87L19.04, 14.87L19.04, 14.87L19.02, 14.88L19.01, 14.88L19.01, 14.88L18.99, 14.89L18.99, 14.89L18.99, 14.89L18.97, 14.9L18.96, 14.9L18.96, 14.9L18.94, 14.91L18.94, 14.91L18.94, 14.91C18.92, 14.92 18.9, 14.93 18.89, 14.93L18.88, 14.93L18.88, 14.93C18.86, 14.94 18.85, 14.95 18.83, 14.95L18.83, 14.95L18.83, 14.96C18.81, 14.96 18.79, 14.97 18.78, 14.98L18.78, 14.98L18.78, 14.98C18.75, 14.99 18.72, 15 18.69, 15.01L18.69, 15.01L18.69, 15.01L18.66, 15.02L18.66, 15.02L18.66, 15.02L18.63, 15.03L18.63, 15.03L18.63, 15.03L18.6, 15.04L18.59, 15.04L18.59, 15.04L18.57, 15.05L18.56, 15.05L18.56, 15.05L18.54, 15.06L18.53, 15.06L18.53, 15.07L18.51, 15.07L18.51, 15.07L18.51, 15.07L18.48, 15.08L18.48, 15.08L18.48, 15.08L18.45, 15.09L18.44, 15.09L18.44, 15.1L18.41, 15.11L18.41, 15.11L18.41, 15.11L18.38, 15.12L18.38, 15.12L18.38, 15.12L18.35, 15.13L18.35, 15.13L18.35, 15.13C18.31, 15.14 18.28, 15.15 18.24, 15.16L18.24, 15.16L18.24, 15.16C18.22, 15.17 18.19, 15.17 18.17, 15.18L18.16, 15.18L18.16, 15.18C18.15, 15.19 18.14, 15.19 18.13, 15.19L18.12, 15.19L18.12, 15.19L18.09, 15.2L18.08, 15.2L18.08, 15.21C18.07, 15.21 18.06, 15.21 18.05, 15.21L18.04, 15.21L18.04, 15.22L18.01, 15.22L18, 15.22L18, 15.23L17.97, 15.23L17.96, 15.23L17.96, 15.24L17.93, 15.25L17.92, 15.25L17.92, 15.25C17.91, 15.25 17.89, 15.25 17.88, 15.26L17.88, 15.26L17.88, 15.26C17.86, 15.26 17.85, 15.26 17.83, 15.27L17.83, 15.27L17.83, 15.27C17.82, 15.27 17.8, 15.27 17.78, 15.28L17.78, 15.28L17.78, 15.28C17.76, 15.28 17.75, 15.28 17.73, 15.29L17.72, 15.29L17.72, 15.29C17.7, 15.29 17.69, 15.3 17.67, 15.3L17.65, 15.3L17.65, 15.3C17.64, 15.31 17.63, 15.31 17.62, 15.31L17.59, 15.31L17.59, 15.31L17.55, 15.32L17.53, 15.32L17.53, 15.32C17.52, 15.33 17.5, 15.33 17.48, 15.33L17.47, 15.33L17.47, 15.33C17.41, 15.34 17.36, 15.35 17.3, 15.35L17.24, 15.35L17.24, 15.36C17.22, 15.36 17.19, 15.36 17.16, 15.36L17.08, 15.36L17.08, 15.37C17.01, 15.37 16.95, 15.37 16.88, 15.37L16.88, 15.36L16.78, 15.36C16.76, 15.36 16.73, 15.36 16.7, 15.36L16.7, 15.35L16.66, 15.35C16.63, 15.35 16.61, 15.35 16.58, 15.34L16.58, 15.34L16.57, 15.34C16.56, 15.34 16.54, 15.34 16.53, 15.34L16.53, 15.33L16.5, 15.33L16.47, 15.33L16.47, 15.32L16.44, 15.32C16.43, 15.32 16.42, 15.32 16.41, 15.31L16.41, 15.31L16.39, 15.31C16.38, 15.31 16.37, 15.31 16.36, 15.3L16.36, 15.3L16.34, 15.3C16.33, 15.3 16.31, 15.29 16.3, 15.29L16.3, 15.29L16.3, 15.29C16.26, 15.28 16.23, 15.27 16.2, 15.26L16.2, 15.26L16.18, 15.26L16.16, 15.25L16.16, 15.25L16.15, 15.25L16.13, 15.24L16.13, 15.23L16.12, 15.23C16.11, 15.23 16.11, 15.23 16.1, 15.23L16.1, 15.22L16.09, 15.22L16.08, 15.22L16.08, 15.21L16.06, 15.21L16.05, 15.21L16.05, 15.2L16.03, 15.2C16.03, 15.2 16.02, 15.2 16.01, 15.2L16.01, 15.19L16, 15.19C16, 15.19 15.99, 15.18 15.98, 15.18L15.98, 15.18L15.98, 15.18C15.95, 15.17 15.93, 15.16 15.91, 15.15L15.91, 15.15L15.91, 15.15L15.88, 15.14L15.88, 15.14L15.88, 15.14L15.86, 15.13L15.86, 15.13L15.86, 15.13L15.84, 15.12L15.84, 15.12L15.84, 15.12C15.83, 15.11 15.83, 15.11 15.82, 15.11L15.82, 15.11L15.82, 15.11L15.81, 15.1L15.81, 15.09L15.8, 15.09L15.79, 15.09L15.79, 15.08L15.78, 15.08L15.77, 15.08L15.77, 15.07L15.76, 15.07L15.75, 15.07L15.75, 15.06L15.74, 15.06L15.72, 15.05L15.72, 15.05L15.72, 15.05C15.71, 15.05 15.71, 15.04 15.7, 15.04L15.7, 15.04L15.7, 15.04L15.69, 15.03L15.69, 15.03L15.68, 15.03L15.67, 15.02L15.67, 15.02L15.67, 15.02C15.64, 15 15.61, 14.98 15.59, 14.97L15.59, 14.96L15.58, 14.96C15.57, 14.96 15.56, 14.95 15.54, 14.94L15.54, 14.93L15.54, 14.93L15.53, 14.93L15.53, 14.92L15.52, 14.92L15.51, 14.91L15.51, 14.91L15.51, 14.91L15.5, 14.9L15.5, 14.9L15.49, 14.9L15.49, 14.9L15.49, 14.89L15.48, 14.89L15.47, 14.88L15.47, 14.88L15.47, 14.88L15.46, 14.87L15.46, 14.87L15.45, 14.87L15.45, 14.86L15.45, 14.86L15.44, 14.86C15.43, 14.85 15.42, 14.84 15.41, 14.84L15.41, 14.84L15.41, 14.84L15.4, 14.83L15.4, 14.82L15.4, 14.82L15.39, 14.82L15.39, 14.81L15.39, 14.81C15.37, 14.8 15.36, 14.79 15.35, 14.78L15.35, 14.78L15.35, 14.78C15.31, 14.75 15.27, 14.71 15.23, 14.67L15.23, 14.66L15.22, 14.66L15.22, 14.66L15.22, 14.65L15.21, 14.65L15.21, 14.65L15.21, 14.64L15.2, 14.64L15.2, 14.64L15.2, 14.63L15.19, 14.63L15.19, 14.63L15.19, 14.62L15.18, 14.62L15.18, 14.62L15.18, 14.61L15.17, 14.61L15.17, 14.61L15.17, 14.6L15.16, 14.6L15.16, 14.59L15.16, 14.59L15.15, 14.59L15.15, 14.58L15.15, 14.58L15.14, 14.58L15.14, 14.57L15.14, 14.57L15.13, 14.57L15.12, 14.56L15.12, 14.56L15.12, 14.56L15.11, 14.55L15.11, 14.54L15.11, 14.54L15.1, 14.53L15.1, 14.53L15.1, 14.53C15.08, 14.51 15.06, 14.48 15.04, 14.46L15.04, 14.46L15.04, 14.46C15.03, 14.45 15.02, 14.43 15.01, 14.42L15.01, 14.42L15, 14.42L15, 14.41L15, 14.4L15, 14.4C14.99, 14.4 14.98, 14.39 14.98, 14.38L14.98, 14.37L14.97, 14.37L14.96, 14.36L14.96, 14.36L14.96, 14.36C14.96, 14.35 14.95, 14.34 14.94, 14.34L14.94, 14.33L14.94, 14.33L14.93, 14.32L14.93, 14.32L14.93, 14.32L14.92, 14.31L14.92, 14.3L14.91, 14.3L14.91, 14.29L14.91, 14.29L14.91, 14.29L14.9, 14.28L14.9, 14.28L14.9, 14.28L14.89, 14.26L14.89, 14.25L14.88, 14.25L14.88, 14.25L14.88, 14.24L14.88, 14.24C14.87, 14.23 14.86, 14.22 14.86, 14.22L14.86, 14.21L14.85, 14.21C14.84, 14.2 14.83, 14.18 14.83, 14.17L14.83, 14.17C14.81, 14.15 14.8, 14.13 14.79, 14.12L14.79, 14.11L14.79, 14.11C14.78, 14.1 14.78, 14.09 14.77, 14.08L14.77, 14.08L14.77, 14.08L14.76, 14.07L14.76, 14.06L14.76, 14.06L14.75, 14.05L14.74, 14.03L14.74, 14.03L14.74, 14.03L14.73, 14.01L14.73, 14.01L14.72, 14.01L14.72, 14L14.72, 14L14.72, 14C14.71, 13.99 14.71, 13.98 14.71, 13.98L14.71, 13.97L14.71, 13.97L14.7, 13.96L14.7, 13.95L14.69, 13.95L14.69, 13.94L14.69, 13.93L14.68, 13.93L14.68, 13.92L14.68, 13.92L14.67, 13.92L14.66, 13.9L14.66, 13.9L14.66, 13.9L14.65, 13.88L14.65, 13.88L14.65, 13.88C14.64, 13.86 14.63, 13.84 14.62, 13.82L14.62, 13.82L14.62, 13.82L14.61, 13.8L14.61, 13.8L14.61, 13.8C14.6, 13.77 14.58, 13.75 14.57, 13.72L14.57, 13.72L14.57, 13.72L14.56, 13.7L14.56, 13.69L14.56, 13.69L14.55, 13.68L14.55, 13.67L14.54, 13.67L14.54, 13.65L14.54, 13.65L14.53, 13.65L14.53, 13.63L14.53, 13.63L14.52, 13.63L14.51, 13.61L14.51, 13.61L14.51, 13.61L14.5, 13.59L14.5, 13.59L14.5, 13.59L14.49, 13.56L14.49, 13.55L14.49, 13.55L14.48, 13.54L14.48, 13.53L14.48, 13.53L14.47, 13.52L14.47, 13.51L14.47, 13.51L14.46, 13.49L14.46, 13.49L14.46, 13.49L14.45, 13.47L14.45, 13.47L14.45, 13.47C14.44, 13.45 14.44, 13.44 14.43, 13.42L14.43, 13.41L14.43, 13.41L14.42, 13.39L14.42, 13.39L14.42, 13.39C14.41, 13.37 14.4, 13.34 14.39, 13.32L14.39, 13.32L14.39, 13.32C14.38, 13.3 14.37, 13.28 14.36, 13.26L14.36, 13.26L14.36, 13.26L14.35, 13.24L14.35, 13.23L14.35, 13.23L14.34, 13.21L14.34, 13.21L14.34, 13.21L14.33, 13.18L14.33, 13.18L14.33, 13.18L14.32, 13.15L14.32, 13.14L14.32, 13.14L14.31, 13.13L14.31, 13.12L14.31, 13.12L14.3, 13.1L14.3, 13.09L14.3, 13.09L14.29, 13.07L14.29, 13.06L14.29, 13.06L14.28, 13.04L14.28, 13.03L14.28, 13.03L14.27, 13.01L14.27, 13L14.27, 13L14.26, 12.98L14.26, 12.97L14.26, 12.97L14.25, 12.95L14.25, 12.94L14.24, 12.94C14.22, 12.88 14.2, 12.82 14.18, 12.75L14.18, 12.75L14.18, 12.75L14.17, 12.72L14.17, 12.71L14.17, 12.71L14.16, 12.68L14.16, 12.68L14.16, 12.68L14.15, 12.65L14.15, 12.64L14.15, 12.64L14.14, 12.61L14.14, 12.61L14.14, 12.61L14.13, 12.58L14.13, 12.57L14.13, 12.57L14.12, 12.54L14.12, 12.53L14.12, 12.53L14.11, 12.5L14.11, 12.5L14.11, 12.5L14.1, 12.47L14.1, 12.45L14.09, 12.45L14.09, 12.43L14.09, 12.42L14.08, 12.42C14.08, 12.4 14.07, 12.37 14.07, 12.35L14.07, 12.35L14.06, 12.35C14.06, 12.33 14.06, 12.32 14.05, 12.3C14.03, 12.22 14.01, 12.13 13.99, 12.05L13.99, 12.05L13.99, 12.05C13.99, 12.03 13.98, 12.02 13.98, 12.01L13.98, 12L13.98, 12L13.97, 11.96L13.97, 11.96L13.97, 11.96C13.95, 11.86 13.92, 11.77 13.9, 11.67L13.9, 11.67L13.9, 11.67L13.89, 11.62L13.89, 11.61L13.89, 11.61C13.87, 11.51 13.85, 11.4 13.83, 11.29L13.83, 11.29L13.83, 11.29C13.82, 11.25 13.82, 11.21 13.81, 11.17L13.81, 11.17L13.81, 11.17C13.79, 11.06 13.77, 10.96 13.75, 10.85L13.75, 10.85L13.75, 10.85C13.75, 10.8 13.74, 10.76 13.73, 10.71L13.73, 10.71L13.73, 10.71C13.73, 10.68 13.73, 10.66 13.72, 10.63L13.72, 10.63L13.72, 10.63C13.71, 10.55 13.7, 10.47 13.69, 10.39L13.69, 10.39L13.69, 10.39C13.69, 10.35 13.68, 10.32 13.68, 10.29L13.68, 10.29L13.68, 10.29C13.67, 10.22 13.66, 10.16 13.66, 10.1L13.66, 10.1L13.66, 10.1C13.65, 10.01 13.64, 9.93 13.64, 9.85L13.64, 9.85L13.64, 9.85C13.63, 9.74 13.62, 9.64 13.62, 9.53L13.62, 9.52L13.61, 9.52C13.59, 9.15 13.59, 8.78 13.6, 8.43L13.6, 8.43L13.6, 8.42C13.61, 8.29 13.62, 8.16 13.63, 8.03L13.63, 8.03L13.63, 8.02C13.63, 7.98 13.63, 7.94 13.64, 7.9L13.64, 7.9L13.64, 7.89C13.65, 7.78 13.66, 7.68 13.67, 7.57L13.67, 7.57L13.67, 7.57C13.67, 7.54 13.68, 7.51 13.68, 7.48L13.68, 7.48L13.68, 7.48C13.72, 7.19 13.76, 6.91 13.82, 6.64L13.82, 6.64L13.82, 6.64C13.84, 6.56 13.85, 6.48 13.87, 6.4L13.87, 6.4L13.87, 6.4C13.89, 6.33 13.91, 6.25 13.93, 6.18L13.93, 6.18L13.93, 6.18C13.96, 6.06 13.99, 5.93 14.03, 5.81L14.03, 5.81L14.03, 5.81C14.07, 5.68 14.12, 5.55 14.16, 5.42L14.16, 5.42C14.2, 5.31 14.24, 5.21 14.28, 5.11L14.28, 5.11L14.28, 5.11C14.32, 5 14.36, 4.9 14.41, 4.81L14.41, 4.81L14.41, 4.8C14.5, 4.59 14.61, 4.38 14.72, 4.18L14.72, 4.18L14.72, 4.18C14.87, 3.9 15.04, 3.64 15.22, 3.38L15.22, 3.38L15.22, 3.38C16.72, 1.29 19.2, 0.03 22.38, 0L22.65, 0C22.84, 0 23.03, 0.01 23.23, 0.02L23.23, 0.02L23.24, 0.02C23.34, 0.03 23.44, 0.03 23.54, 0.04L23.54, 0.04L23.54, 0.04C23.72, 0.06 23.89, 0.08 24.07, 0.1L24.07, 0.1L24.07, 0.1C24.1, 0.1 24.13, 0.1 24.16, 0.11L24.16, 0.11L24.16, 0.11C24.29, 0.12 24.42, 0.14 24.54, 0.16L24.54, 0.16L24.55, 0.16C24.7, 0.18 24.84, 0.21 24.99, 0.24L24.99, 0.24L25, 0.24C25.11, 0.26 25.22, 0.28 25.33, 0.3L25.33, 0.3L25.33, 0.3L25.38, 0.31L25.38, 0.31L25.38, 0.31C25.54, 0.35 25.7, 0.38 25.86, 0.42L25.86, 0.42L25.86, 0.42L25.9, 0.43L25.9, 0.43L25.91, 0.43C26.02, 0.46 26.13, 0.49 26.25, 0.52L26.25, 0.52L26.25, 0.52L26.29, 0.53L26.29, 0.53L26.29, 0.53C26.33, 0.54 26.37, 0.55 26.41, 0.56L26.41, 0.56L26.41, 0.56C26.52, 0.59 26.64, 0.62 26.75, 0.66L26.75, 0.66L26.75, 0.66L26.82, 0.68L26.82, 0.68L26.83, 0.68C26.86, 0.69 26.9, 0.7 26.93, 0.71L26.93, 0.71L26.93, 0.71C27.04, 0.74 27.14, 0.77 27.24, 0.81L27.24, 0.81L27.24, 0.81L27.27, 0.82L27.27, 0.82L27.28, 0.82L27.31, 0.83L27.31, 0.83L27.31, 0.83L27.34, 0.84L27.34, 0.84L27.34, 0.84C27.45, 0.87 27.55, 0.91 27.66, 0.95L27.66, 0.95L27.66, 0.95L27.69, 0.96L27.69, 0.96L27.69, 0.96C27.74, 0.98 27.79, 0.99 27.84, 1.01L27.84, 1.01L27.85, 1.01L27.87, 1.02L27.87, 1.02L27.87, 1.02C27.98, 1.06 28.09, 1.1 28.19, 1.14L28.19, 1.14L28.2, 1.14L28.28, 1.17L28.28, 1.17L28.28, 1.17L28.37, 1.21L28.42, 1.23L28.42, 1.23L28.42, 1.23C28.48, 1.25 28.55, 1.28 28.61, 1.3L28.61, 1.3L28.61, 1.3L28.67, 1.33L28.67, 1.33L28.67, 1.33L28.72, 1.35L28.72, 1.35C28.76, 1.36 28.8, 1.38 28.85, 1.4L28.85, 1.4L28.85, 1.4L28.9, 1.42L28.9, 1.42L28.9, 1.42C28.99, 1.46 29.09, 1.5 29.18, 1.54L29.18, 1.54L29.18, 1.54L29.25, 1.57L29.25, 1.57L29.26, 1.57L29.33, 1.6L29.33, 1.61L29.33, 1.61L29.35, 1.61L29.35, 1.62L29.35, 1.62L29.43, 1.65L29.43, 1.65L29.43, 1.65C29.49, 1.68 29.55, 1.71 29.62, 1.73L29.62, 1.73L29.62, 1.73C29.66, 1.75 29.7, 1.77 29.74, 1.79L29.74, 1.79L29.74, 1.79L29.76, 1.8L29.76, 1.8L29.76, 1.8C29.81, 1.82 29.85, 1.84 29.9, 1.86L29.9, 1.86L29.9, 1.86L29.92, 1.87L29.92, 1.87L29.92, 1.87C29.98, 1.9 30.04, 1.93 30.1, 1.96C29.35, 1.62 28.62, 1.36 27.91, 1.15L27.91, 1.15C25.41, 0.44 23.18, 0.53 21.43, 1.26C20.59, 1.61 19.86, 2.12 19.26, 2.76C18.75, 3.3 18.34, 3.94 18.04, 4.67C18.01, 4.72 17.99, 4.77 17.97, 4.83L17.97, 4.83L17.97, 4.83C17.39, 6.34 17.27, 8.21 17.75, 10.35C17.86, 10.81 18.11, 11.07 18.59, 10.86C18.6, 10.86 18.6, 10.86 18.6, 10.85L18.7, 10.82L18.7, 10.82L18.7, 10.82L18.75, 10.8L18.75, 10.8L18.75, 10.79L18.8, 10.77L18.81, 10.77L18.81, 10.77L18.86, 10.75L18.86, 10.75L18.86, 10.75L18.88, 10.74L18.89, 10.74L18.89, 10.74L18.91, 10.73L18.91, 10.73L18.91, 10.73L18.94, 10.72L18.95, 10.72L18.95, 10.72L18.97, 10.71L18.97, 10.71L18.97, 10.71L18.99, 10.7L19, 10.7L19, 10.7L19.02, 10.69L19.03, 10.69L19.03, 10.68L19.05, 10.68L19.05, 10.68L19.05, 10.68L19.08, 10.67L19.09, 10.67L19.09, 10.66L19.11, 10.66L19.11, 10.66L19.11, 10.65L19.13, 10.64L19.14, 10.64L19.14, 10.64L19.19, 10.62L19.19, 10.62L19.19, 10.62L19.22, 10.61L19.22, 10.61L19.22, 10.61L19.28, 10.59L19.28, 10.59L19.28, 10.59C19.36, 10.56 19.43, 10.53 19.51, 10.5L19.51, 10.5L19.51, 10.5L19.54, 10.49L19.55, 10.49L19.55, 10.49L19.57, 10.48L19.58, 10.48L19.58, 10.48L19.6, 10.47L19.61, 10.47L19.61, 10.47L19.63, 10.46L19.64, 10.46L19.64, 10.46L19.66, 10.45L19.67, 10.45L19.67, 10.45L19.7, 10.44L19.71, 10.44L19.71, 10.44L19.73, 10.43L19.74, 10.43L19.74, 10.43L19.76, 10.42L19.77, 10.42L19.77, 10.41L19.79, 10.41L19.8, 10.41L19.8, 10.4L19.82, 10.4L19.83, 10.4L19.83, 10.39L19.85, 10.39L19.86, 10.39L19.86, 10.38L19.89, 10.38L19.89, 10.38L19.89, 10.37L19.92, 10.36L19.92, 10.36L19.92, 10.36L19.95, 10.35L19.95, 10.35L19.95, 10.35L19.98, 10.34L19.98, 10.34L19.98, 10.34L20.02, 10.33L20.02, 10.33L20.02, 10.33L20.05, 10.32L20.05, 10.32L20.05, 10.32C20.1, 10.3 20.16, 10.29 20.22, 10.27L20.22, 10.27L20.22, 10.27L20.25, 10.26L20.25, 10.26L20.25, 10.26L20.29, 10.25L20.29, 10.25L20.29, 10.24L20.32, 10.24L20.33, 10.24L20.33, 10.23L20.36, 10.22L20.36, 10.22L20.36, 10.22L20.39, 10.21L20.4, 10.21L20.4, 10.21L20.43, 10.2L20.43, 10.2L20.43, 10.2L20.46, 10.19L20.48, 10.19L20.48, 10.19L20.5, 10.18L20.51, 10.18L20.51, 10.18L20.54, 10.17L20.55, 10.17L20.55, 10.17L20.57, 10.16L20.58, 10.16L20.58, 10.16L20.61, 10.15L20.63, 10.15L20.63, 10.14L20.65, 10.14L20.66, 10.14L20.66, 10.13L20.69, 10.13L20.7, 10.13L20.7, 10.12L20.72, 10.12L20.73, 10.12L20.73, 10.11L20.76, 10.11L20.77, 10.11L20.77, 10.1L20.8, 10.1L20.81, 10.1L20.81, 10.09L20.84, 10.08L20.84, 10.08L20.84, 10.08L20.88, 10.07L20.88, 10.07L20.88, 10.07C20.92, 10.06 20.96, 10.05 21, 10.04L21, 10.04L21, 10.04L21.04, 10.03L21.04, 10.03L21.04, 10.03L21.08, 10.02L21.09, 10.02L21.09, 10.02L21.12, 10.01L21.13, 10.01L21.13, 10.01L21.17, 10L21.18, 10L21.18, 9.99L21.21, 9.99L21.23, 9.99L21.23, 9.98L21.25, 9.98L21.27, 9.98L21.27, 9.97L21.3, 9.97L21.31, 9.97L21.31, 9.96L21.34, 9.96L21.37, 9.96L21.37, 9.95L21.39, 9.94L21.41, 9.94L21.41, 9.94L21.43, 9.93L21.45, 9.93L21.45, 9.93L21.48, 9.92L21.49, 9.92L21.49, 9.92L21.53, 9.91L21.54, 9.91L21.54, 9.91L21.57, 9.9L21.59, 9.9L21.59, 9.9L21.62, 9.89L21.63, 9.89L21.63, 9.89L21.67, 9.88L21.68, 9.88L21.68, 9.88L21.77, 9.86L21.77, 9.86L21.77, 9.86L21.81, 9.85C21.81, 9.85 21.81, 9.85 21.81, 9.85C21.96, 9.81 22.13, 9.78 22.3, 9.74L22.3, 9.74C22.4, 9.72 22.51, 9.7 22.62, 9.67L22.62, 9.67L22.62, 9.67C22.81, 9.64 23, 9.61 23.2, 9.59L23.21, 9.59L23.21, 9.59C23.24, 9.58 23.28, 9.58 23.32, 9.58L23.32, 9.58L23.32, 9.58C23.38, 9.57 23.44, 9.57 23.49, 9.57L23.5, 9.57C23.63, 9.56 23.76, 9.56 23.89, 9.57L23.89, 9.57L23.9, 9.57C23.95, 9.57 24, 9.57 24.05, 9.58L24.05, 9.58L24.05, 9.58C24.14, 9.59 24.22, 9.6 24.31, 9.61L24.31, 9.61L24.31, 9.61C24.42, 9.63 24.54, 9.65 24.65, 9.69L24.65, 9.69L24.65, 9.69C24.68, 9.69 24.7, 9.7 24.73, 9.71L24.73, 9.71L24.73, 9.71C24.77, 9.72 24.81, 9.73 24.85, 9.75L24.85, 9.75L24.86, 9.75L24.89, 9.76C24.94, 9.78 24.99, 9.8 25.05, 9.83L25.05, 9.83L25.05, 9.83C25.09, 9.84 25.13, 9.86 25.17, 9.88L25.19, 9.89L25.19, 9.89L25.19, 9.89C25.29, 9.94 25.39, 10 25.49, 10.06L25.49, 10.06L25.49, 10.06C25.5, 10.07 25.51, 10.08 25.52, 10.08L25.52, 10.08L25.52, 10.08C25.54, 10.1 25.56, 10.11 25.58, 10.13L25.58, 10.13L25.58, 10.13C25.66, 10.18 25.74, 10.24 25.82, 10.31L25.82, 10.31L25.82, 10.31C25.85, 10.33 25.88, 10.36 25.9, 10.39L25.9, 10.39L25.9, 10.39C25.99, 10.47 26.08, 10.55 26.16, 10.64L26.16, 10.64L26.16, 10.64C26.19, 10.67 26.21, 10.7 26.24, 10.73L26.24, 10.73L26.24, 10.73C26.34, 10.85 26.45, 10.99 26.55, 11.14L26.55, 11.14L26.55, 11.14L26.57, 11.17L26.57, 11.17L26.57, 11.17C26.58, 11.18 26.58, 11.19 26.59, 11.2L26.59, 11.2L26.59, 11.2C26.6, 11.22 26.6, 11.23 26.61, 11.24L26.61, 11.24L26.61, 11.24C26.63, 11.26 26.65, 11.29 26.66, 11.32L26.66, 11.32L26.66, 11.32C26.7, 11.38 26.73, 11.43 26.76, 11.49C26.76, 11.49 26.76, 11.49 26.76, 11.49C27.27, 12.33 27.91, 13.15 28.63, 13.88C31.49, 16.71 35.46, 18.05 37.58, 16.17L37.58, 16.17C37.61, 16.15 37.63, 16.13 37.66, 16.11L37.66, 16.11L37.66, 16.11C37.71, 16.07 37.76, 16.03 37.82, 16L37.82, 16L37.82, 16C37.82, 16 37.83, 15.99 37.84, 15.99L37.84, 15.99L37.84, 15.99C37.88, 15.97 37.92, 15.95 37.95, 15.93L37.96, 15.93L37.96, 15.93C38, 15.92 38.05, 15.9 38.09, 15.89L38.1, 15.89L38.1, 15.89C38.13, 15.88 38.17, 15.88 38.2, 15.87L38.2, 15.87C38.24, 15.86 38.27, 15.86 38.3, 15.86L38.32, 15.86L38.32, 15.86C38.37, 15.85 38.43, 15.86 38.48, 15.86L38.48, 15.86L38.5, 15.86C38.53, 15.86 38.56, 15.86 38.6, 15.87L38.6, 15.87L38.6, 15.87C38.64, 15.88 38.68, 15.88 38.72, 15.89L38.72, 15.89L38.72, 15.89C38.76, 15.9 38.8, 15.91 38.85, 15.92L38.85, 15.92L38.85, 15.92C38.86, 15.93 38.87, 15.93 38.88, 15.93L38.88, 15.93L38.88, 15.93C38.9, 15.94 38.92, 15.95 38.94, 15.96L38.94, 15.96L38.94, 15.96C39.06, 16 39.17, 16.05 39.27, 16.12L39.27, 16.12L39.27, 16.12C39.4, 16.2 39.53, 16.3 39.64, 16.41L39.64, 16.41L39.64, 16.41C39.72, 16.49 39.8, 16.59 39.86, 16.69L39.86, 16.69L39.86, 16.69C39.88, 16.72 39.91, 16.76 39.93, 16.79L39.93, 16.8L39.93, 16.8C39.95, 16.84 39.98, 16.89 40, 16.95L40, 16.95L40, 16.95C40.02, 16.98 40.03, 17.02 40.04, 17.05L40.04, 17.06L40.04, 17.06C40.05, 17.06 40.05, 17.07 40.05, 17.08L40.05, 17.09L40.06, 17.09C40.07, 17.12 40.08, 17.16 40.09, 17.19L40.09, 17.2L40.09, 17.2C40.09, 17.21 40.09, 17.22 40.1, 17.23L40.1, 17.24L40.1, 17.24C40.1, 17.25 40.11, 17.27 40.11, 17.28L40.11, 17.28C40.12, 17.32 40.12, 17.36 40.13, 17.41L40.13, 17.41L40.13, 17.41C40.13, 17.44 40.14, 17.48 40.14, 17.51L40.14, 17.53L40.14, 17.53C40.15, 17.61 40.15, 17.69 40.14, 17.77L40.14, 17.77L40.14, 17.77C40.14, 17.8 40.14, 17.83 40.13, 17.86L40.13, 17.86L40.13, 17.88C40.12, 17.92 40.12, 17.96 40.11, 18L40.11, 18L40.11, 18.01C40.1, 18.04 40.1, 18.07 40.09, 18.1L40.09, 18.1L40.09, 18.1C40.08, 18.12 40.08, 18.13 40.08, 18.14L40.08, 18.14L40.08, 18.14C40.07, 18.18 40.06, 18.21 40.04, 18.25C40.04, 18.26 40.04, 18.27 40.03, 18.28L40.03, 18.28L40.03, 18.28C40.02, 18.31 40.01, 18.34 40, 18.37L40, 18.37L40, 18.37C39.99, 18.39 39.99, 18.41 39.98, 18.42L39.98, 18.42L39.98, 18.42C39.95, 18.51 39.91, 18.59 39.86, 18.68C39.84, 18.71 39.83, 18.73 39.81, 18.76L39.81, 18.76L39.79, 18.79L39.79, 18.79L39.79, 18.79C39.78, 18.8 39.77, 18.81 39.77, 18.82L39.77, 18.82L39.77, 18.82C39.76, 18.83 39.75, 18.84 39.75, 18.85L39.74, 18.85L39.74, 18.86C39.74, 18.87 39.73, 18.88 39.72, 18.89L39.72, 18.89L39.72, 18.89C39.69, 18.94 39.65, 18.99 39.62, 19.04L39.62, 19.04L39.62, 19.04C39.61, 19.05 39.59, 19.07 39.58, 19.08L39.58, 19.08L39.58, 19.09L39.57, 19.09L39.57, 19.09C39.56, 19.11 39.55, 19.12 39.54, 19.13L39.54, 19.13L39.54, 19.14L39.53, 19.15L39.53, 19.15L39.53, 19.15C39.52, 19.16 39.51, 19.18 39.5, 19.19L39.5, 19.19L39.5, 19.19L39.49, 19.2L39.49, 19.2L39.49, 19.2C39.47, 19.22 39.46, 19.24 39.45, 19.25L39.44, 19.25L39.44, 19.25C39.43, 19.28 39.41, 19.3 39.39, 19.32L39.39, 19.32C39.35, 19.36 39.31, 19.4 39.27, 19.45L39.27, 19.45L39.27, 19.45L39.26, 19.46L39.26, 19.46L39.26, 19.46C39.26, 19.46 39.26, 19.46 39.25, 19.47L39.25, 19.47L39.25, 19.47L39.24, 19.48L39.24, 19.48L39.24, 19.48L39.23, 19.49L39.23, 19.49L39.23, 19.49L39.22, 19.5L39.22, 19.5L39.22, 19.5L39.21, 19.51L39.21, 19.51L39.21, 19.51L39.2, 19.52L39.2, 19.52L39.2, 19.52L39.19, 19.53L39.19, 19.53L39.19, 19.53L39.18, 19.54L39.18, 19.54L39.18, 19.54L39.17, 19.55L39.17, 19.55L39.17, 19.56L39.16, 19.57L39.16, 19.57L39.16, 19.57C39.14, 19.58 39.13, 19.59 39.12, 19.6L39.12, 19.6L39.12, 19.6C39.09, 19.63 39.06, 19.66 39.03, 19.68L39.03, 19.68L39.03, 19.69L39.02, 19.69L39.02, 19.69L39.02, 19.7L39.01, 19.71L39.01, 19.71L39.01, 19.71C39, 19.71 39, 19.71 39, 19.72L39, 19.72L39, 19.72C38.98, 19.73 38.96, 19.75 38.95, 19.76L38.94, 19.76L38.94, 19.76L38.93, 19.77L38.93, 19.77L38.93, 19.77C38.91, 19.79 38.88, 19.81 38.86, 19.83L38.86, 19.83L38.86, 19.84C38.84, 19.85 38.82, 19.86 38.8, 19.88L38.8, 19.88C38.79, 19.89 38.77, 19.9 38.76, 19.91L38.76, 19.91L38.76, 19.91C38.75, 19.92 38.73, 19.93 38.72, 19.94L38.72, 19.94L38.72, 19.94C38.7, 19.95 38.69, 19.96 38.68, 19.97L38.67, 19.97L38.67, 19.98C38.66, 19.98 38.66, 19.99 38.65, 20L38.64, 20L38.64, 20L38.63, 20.01L38.63, 20.01L38.63, 20.01L38.6, 20.03L38.6, 20.03L38.6, 20.03C38.56, 20.06 38.53, 20.08 38.49, 20.1L38.49, 20.1L38.49, 20.1C38.46, 20.12 38.44, 20.14 38.41, 20.16L38.41, 20.16L38.41, 20.16C38.4, 20.17 38.39, 20.17 38.38, 20.18L38.37, 20.18L38.37, 20.18L38.36, 20.19L38.35, 20.19L38.35, 20.19C38.34, 20.2 38.33, 20.21 38.32, 20.21L38.32, 20.21L38.32, 20.21C38.3, 20.22 38.29, 20.23 38.27, 20.24L38.27, 20.24L38.27, 20.25C38.22, 20.27 38.17, 20.3 38.12, 20.33L38.12, 20.33L38.12, 20.33L38.1, 20.34L38.1, 20.34L38.1, 20.34L38.08, 20.35L38.07, 20.35L38.07, 20.35L38.06, 20.36L38.05, 20.36L38.05, 20.37C38.05, 20.37 38.04, 20.37 38.04, 20.37L38.03, 20.37L38.03, 20.38C37.94, 20.43 37.84, 20.47 37.75, 20.51L37.74, 20.51L37.74, 20.52L37.72, 20.52L37.72, 20.52L37.72, 20.53C37.71, 20.53 37.69, 20.54 37.68, 20.55L37.67, 20.55L37.67, 20.55C37.66, 20.55 37.66, 20.55 37.65, 20.56L37.65, 20.56L37.65, 20.56C37.63, 20.56 37.61, 20.57 37.6, 20.58L37.59, 20.58L37.59, 20.58C37.53, 20.61 37.47, 20.63 37.4, 20.65L37.4, 20.65L37.4, 20.65L37.37, 20.66L37.37, 20.66L37.37, 20.67C37.36, 20.67 37.35, 20.67 37.34, 20.68L37.34, 20.68L37.34, 20.68C37.33, 20.68 37.32, 20.68 37.31, 20.69L37.3, 20.69L37.3, 20.69L37.28, 20.7L37.27, 20.7L37.27, 20.7C37.26, 20.7 37.26, 20.7 37.25, 20.71L37.24, 20.71L37.24, 20.71L37.21, 20.72L37.21, 20.72L37.21, 20.72C37.15, 20.74 37.1, 20.76 37.04, 20.77L37.04, 20.77L37.04, 20.77C37.01, 20.78 36.99, 20.79 36.96, 20.79L36.96, 20.79L36.96, 20.79C36.95, 20.8 36.94, 20.8 36.93, 20.8L36.92, 20.8L36.92, 20.81L36.89, 20.82L36.88, 20.82L36.88, 20.82C36.81, 20.84 36.74, 20.85 36.66, 20.87L36.66, 20.87L36.66, 20.87C36.65, 20.87 36.63, 20.88 36.61, 20.88L36.61, 20.88L36.61, 20.88L36.56, 20.89L36.55, 20.89L36.55, 20.89C36.54, 20.9 36.53, 20.9 36.51, 20.9L36.5, 20.9L36.5, 20.9C36.49, 20.91 36.47, 20.91 36.46, 20.91L36.45, 20.91L36.45, 20.91C36.43, 20.92 36.41, 20.92 36.4, 20.92L36.39, 20.92L36.39, 20.92C36.33, 20.93 36.26, 20.95 36.2, 20.96L36.19, 20.96L36.19, 20.96C36.17, 20.96 36.15, 20.96 36.13, 20.97L36.12, 20.97L36.12, 20.97C36.09, 20.97 36.07, 20.97 36.05, 20.98L36.03, 20.98L36.03, 20.98C36, 20.98 35.98, 20.98 35.95, 20.99L35.94, 20.99L35.94, 20.99C35.87, 21 35.8, 21 35.73, 21.01L35.71, 21.01L35.71, 21.01C35.67, 21.01 35.63, 21.02 35.59, 21.02L35.55, 21.02L35.55, 21.02C35.48, 21.03 35.42, 21.03 35.36, 21.03L35.29, 21.03L35.29, 21.03C35.15, 21.04 35.01, 21.04 34.87, 21.03zM21.56, 17.86C19.79, 16.14 16.74, 18.26 18.64, 20.88C20.98, 23.36 23.99, 20.58 21.94, 18.31C21.93, 18.3 21.93, 18.3 21.93, 18.29C21.8, 18.15 21.68, 18 21.56, 17.86zM21.67, 5.73C21.19, 8.24 25.02, 8.15 25.65, 6.21C25.66, 6.17 25.67, 6.14 25.68, 6.11C25.68, 6.11 25.68, 6.1 25.68, 6.1C25.68, 6.1 25.68, 6.1 25.68, 6.1C25.82, 5.7 26.01, 5.33 26.29, 4.99C28.18, 2.69 32.53, 3.82 35.61, 6.9C37.36, 8.65 38.47, 10.8 38.7, 12.68C38.71, 12.69 38.73, 13.16 38.74, 13.19C39.01, 14.64 40.66, 15.52 40.52, 14.35C40.08, 11.33 38.31, 8.5 36.15, 6.36C33.97, 4.17 31.22, 2.5 28.36, 2.02C24.6, 1.4 22.32, 3.07 21.67, 5.73zM31.71, 24.66C30.02, 24.22 28.35, 23.47 26.78, 22.48C26.78, 22.48 26.78, 22.48 26.78, 22.48C26.75, 22.46 26.72, 22.44 26.69, 22.43C26.64, 22.39 26.59, 22.36 26.54, 22.33C24.36, 21.09 21.54, 24.01 24.06, 25.67C24.19, 25.76 24.32, 25.84 24.45, 25.92C36.73, 33.57 46.94, 25.68 40.55, 12.41C44.21, 20.57 39.8, 26.73 31.71, 24.66zM5.54, 20.53C4.87, 19.07 2.76, 19.91 3.03, 21.54C3.07, 21.66 3.11, 21.79 3.15, 21.91C3.86, 23.6 6.26, 22.71 5.64, 20.83C5.64, 20.82 5.64, 20.82 5.64, 20.81C5.61, 20.72 5.57, 20.63 5.54, 20.53zM0.79, 15C0.77, 15.07 0.75, 15.13 0.74, 15.19L0.79, 15zM0.46, 16.25C0.44, 16.31 0.43, 16.37 0.41, 16.44L0.46, 16.25zM0.26, 17.21C0.24, 17.27 0.23, 17.34 0.22, 17.4L0.26, 17.21zM8.12, 34.39C7.2, 33.46 6.36, 32.47 5.6, 31.44C5.6, 31.44 5.6, 31.43 5.6, 31.43C4.53, 29.84 2.6, 30.99 3.34, 32.25C3.41, 32.37 3.49, 32.51 3.59, 32.66C4.41, 33.92 5.36, 35.07 6.41, 36.11C7.44, 37.15 8.59, 38.1 9.85, 38.93C11.5, 39.92 11.53, 39.94 12.44, 40.37C13.28, 40.73 15.48, 41.79 18.59, 42.21C19.17, 42.28 19.81, 42.35 20.5, 42.4C21.82, 42.55 23.09, 42.55 24.33, 42.4C24.33, 42.4 24.33, 42.4 24.33, 42.4C26.42, 42.16 28.42, 41.52 30.45, 40.58C23.72, 43.58 14.57, 40.71 8.12, 34.39zM4.46, 16.23C4.46, 16.23 4.46, 16.23 4.46, 16.23C3.79, 11.53 4.92, 7.14 8.33, 4.26C5.37, 6.56 3.42, 8.66 2.57, 12.43C2.22, 13.95 2.11, 15.51 2.21, 17.08C2.43, 18.9 4.73, 17.75 4.46, 16.23zM21.65, 36.85C22.15, 35.95 22.61, 35.01 23.01, 34.01C23.5, 32.82 24.6, 30.73 21.9, 29.11C21.9, 29.11 21.9, 29.11 21.9, 29.11C20.23, 28.07 18.62, 26.79 17.16, 25.35C15.64, 23.82 14.32, 22.12 13.24, 20.35C11.86, 18.07 10.94, 15.78 10.46, 13.59C10.46, 13.59 10.46, 13.59 10.46, 13.59C9.94, 11.37 6.93, 12.44 7.16, 14.69C7.94, 19.39 10.62, 24.23 14.41, 28.1C15.87, 29.53 17.47, 30.8 19.14, 31.87C19.14, 31.87 19.14, 31.87 19.15, 31.87C19.62, 32.18 19.63, 32.28 19.5, 32.65C19.13, 33.55 18.68, 34.39 18.16, 35.24C18.16, 35.24 18.16, 35.24 18.16, 35.24C17.6, 36.13 16.96, 37.85 19.13, 38.85C22.72, 40.26 26.5, 40.76 30.09, 39.95C33.85, 39.09 35.95, 37.14 38.25, 34.19C34.43, 38.7 27.96, 39.22 21.65, 36.85zM35.4, 32.07C35.4, 32.07 35.4, 32.07 35.4, 32.07C35.39, 32.07 35.39, 32.07 35.38, 32.07C35.3, 32.09 35.22, 32.11 35.13, 32.13C33.12, 32.7 32.88, 35.44 35.17, 34.83C39.81, 33.17 41.67, 29.2 42.35, 24.27C41.72, 28.5 39.06, 31.15 35.4, 32.07zM10.27, 7.92C10.27, 7.92 10.27, 7.92 10.27, 7.92C10.99, 3.85 13.71, 0.84 18.24, 0.16C13.14, 0.87 9.06, 2.84 7.51, 7.85C7.01, 9.78 9.98, 9.58 10.27, 7.92zM29.29, 32.12C29.28, 32.12 29.27, 32.12 29.27, 32.12C26.92, 31.82 25.55, 34.92 28.02, 35.39C28.04, 35.39 28.05, 35.39 28.07, 35.39C30.54, 35.63 31.87, 32.75 29.66, 32.19C29.53, 32.17 29.41, 32.15 29.29, 32.12z" fill="#727272" class="Black" fill-rule="evenodd" />
            </g>
          </g>
        </g>
      </g>
    </g>
    <g transform="translate(-0.0216, -0.0017)" style="shape-rendering:geometricPrecision;text-rendering:geometricPrecision;image-rendering:optimizeQuality;fill-rule:evenodd;clip-rule:evenodd" fill-rule="evenodd">
      <g transform="matrix(0.1395, 0, 0, 0.1395, 0, 0)">
        <g transform="matrix(1.0821, 0, 0, 1.0821, 0.1516, 0)">
          <g id="Layer_x0020_1">
            <path d="M64.67, 31.31L62.19, 26.32L62.1, 26.32L58.89, 26.32L58.89, 31.31L54.44, 31.31L54.44, 13.29L62.1, 13.29C64.35, 13.29 66.09, 13.84 67.33, 14.94C68.57, 16.05 69.19, 17.61 69.19, 19.61C69.19, 20.97 68.93, 22.14 68.42, 23.12C67.9, 24.11 67.14, 24.87 66.16, 25.42L69.7, 31.31L64.67, 31.31zM185.47, 30.59C184.98, 30.88 184.42, 31.11 183.79, 31.27C183.16, 31.43 182.52, 31.52 181.87, 31.52C180.57, 31.52 179.53, 31.12 178.72, 30.33C177.92, 29.54 177.52, 28.46 177.52, 27.07L177.52, 21.1L175.7, 21.1L175.7, 18.07L177.52, 18.07L177.52, 14.21L181.82, 14.21L181.82, 18.07L185.22, 18.07L185.22, 21.1L181.82, 21.1L181.82, 26.35C181.82, 27.32 182.2, 27.81 182.96, 27.81C183.43, 27.81 183.99, 27.66 184.64, 27.35L185.47, 30.59zM174.03, 15.68C173.59, 15.68 173.23, 15.81 172.96, 16.06C172.68, 16.32 172.54, 16.69 172.54, 17.17L172.54, 18.07L175.46, 18.07L175.46, 21.1L172.54, 21.1L172.54, 31.31L168.24, 31.31L168.24, 21.1L166.47, 21.1L166.47, 18.07L168.24, 18.07L168.24, 16.78C168.24, 15.31 168.71, 14.15 169.64, 13.3C170.57, 12.45 171.77, 12.03 173.22, 12.03C174.18, 12.03 175.12, 12.21 176.04, 12.57L175.48, 16.04C174.84, 15.8 174.35, 15.68 174.03, 15.68zM158.26, 17.25C159.68, 17.25 160.94, 17.54 162.02, 18.13C163.11, 18.72 163.95, 19.56 164.55, 20.63C165.15, 21.7 165.45, 22.94 165.45, 24.34C165.45, 25.76 165.15, 27.01 164.55, 28.08C163.95, 29.15 163.11, 29.99 162.02, 30.58C160.94, 31.17 159.68, 31.46 158.26, 31.46C156.83, 31.46 155.57, 31.17 154.49, 30.58C153.4, 29.99 152.56, 29.15 151.97, 28.08C151.38, 27.01 151.09, 25.76 151.09, 24.34C151.09, 22.94 151.38, 21.7 151.97, 20.63C152.56, 19.56 153.4, 18.72 154.49, 18.13C155.57, 17.54 156.83, 17.25 158.26, 17.25zM158.26, 20.95C157.41, 20.95 156.73, 21.27 156.21, 21.9C155.7, 22.53 155.44, 23.37 155.44, 24.39C155.44, 25.44 155.7, 26.28 156.21, 26.91C156.73, 27.55 157.41, 27.86 158.26, 27.86C159.11, 27.86 159.8, 27.55 160.32, 26.91C160.84, 26.28 161.1, 25.44 161.1, 24.39C161.1, 23.37 160.83, 22.53 160.31, 21.9C159.78, 21.27 159.1, 20.95 158.26, 20.95zM148.36, 21.8C146.66, 20.85 145.27, 20.38 144.18, 20.38C143.81, 20.38 143.51, 20.46 143.29, 20.6C143.06, 20.75 142.95, 20.97 142.95, 21.26C142.95, 21.57 143.12, 21.81 143.48, 22C143.84, 22.19 144.4, 22.4 145.18, 22.62C146.12, 22.91 146.9, 23.2 147.53, 23.48C148.15, 23.76 148.69, 24.19 149.14, 24.77C149.6, 25.34 149.82, 26.09 149.82, 27.02C149.82, 28.42 149.31, 29.52 148.28, 30.32C147.25, 31.12 145.91, 31.52 144.26, 31.52C143.14, 31.52 142.07, 31.35 141.05, 31.01C140.03, 30.68 139.12, 30.19 138.33, 29.54L139.69, 26.58C140.43, 27.13 141.22, 27.55 142.03, 27.85C142.85, 28.15 143.63, 28.3 144.35, 28.3C144.78, 28.3 145.11, 28.23 145.36, 28.08C145.61, 27.94 145.74, 27.73 145.74, 27.45C145.74, 27.11 145.56, 26.84 145.19, 26.66C144.83, 26.47 144.26, 26.26 143.48, 26.04C142.56, 25.75 141.8, 25.46 141.2, 25.18C140.6, 24.89 140.07, 24.47 139.63, 23.91C139.18, 23.34 138.96, 22.6 138.96, 21.69C138.96, 20.29 139.46, 19.19 140.47, 18.39C141.47, 17.59 142.77, 17.19 144.35, 17.19C145.31, 17.19 146.25, 17.33 147.19, 17.61C148.12, 17.88 149, 18.28 149.82, 18.81L148.36, 21.8zM130.72, 17.25C132.86, 17.25 134.51, 17.91 135.66, 19.25C136.81, 20.59 137.38, 22.42 137.38, 24.75C137.38, 25.11 137.37, 25.39 137.36, 25.58L128.22, 25.58C128.43, 26.36 128.79, 26.97 129.31, 27.39C129.83, 27.81 130.46, 28.02 131.21, 28.02C131.78, 28.02 132.32, 27.9 132.85, 27.66C133.38, 27.42 133.86, 27.07 134.29, 26.6L136.55, 29C135.87, 29.8 135.05, 30.41 134.09, 30.83C133.12, 31.25 132.03, 31.46 130.82, 31.46C129.41, 31.46 128.18, 31.17 127.13, 30.59C126.07, 30.01 125.27, 29.18 124.71, 28.12C124.15, 27.06 123.87, 25.82 123.87, 24.42C123.87, 23 124.15, 21.74 124.72, 20.65C125.29, 19.56 126.09, 18.72 127.13, 18.13C128.16, 17.54 129.36, 17.25 130.72, 17.25zM133.18, 23.13C133.18, 22.33 132.95, 21.68 132.51, 21.19C132.06, 20.7 131.48, 20.46 130.75, 20.46C130.07, 20.46 129.5, 20.7 129.03, 21.18C128.57, 21.66 128.27, 22.31 128.12, 23.13L133.18, 23.13zM117.24, 17.22C118.68, 17.22 119.83, 17.7 120.7, 18.66C121.56, 19.62 122, 20.91 122, 22.54L122, 31.31L117.7, 31.31L117.7, 23.85C117.7, 23.07 117.49, 22.44 117.09, 21.99C116.68, 21.54 116.14, 21.31 115.46, 21.31C114.75, 21.33 114.16, 21.57 113.7, 22.05C113.24, 22.53 112.97, 23.17 112.89, 23.96L112.89, 31.31L108.56, 31.31L108.56, 17.4L112.89, 17.4L112.89, 19.66C113.36, 18.86 113.96, 18.25 114.7, 17.84C115.43, 17.43 116.28, 17.22 117.24, 17.22zM99.16, 17.25C100.58, 17.25 101.84, 17.54 102.92, 18.13C104.01, 18.72 104.85, 19.56 105.45, 20.63C106.05, 21.7 106.35, 22.94 106.35, 24.34C106.35, 25.76 106.05, 27.01 105.45, 28.08C104.85, 29.15 104.01, 29.99 102.92, 30.58C101.84, 31.17 100.58, 31.46 99.16, 31.46C97.73, 31.46 96.47, 31.17 95.39, 30.58C94.3, 29.99 93.47, 29.15 92.87, 28.08C92.28, 27.01 91.99, 25.76 91.99, 24.34C91.99, 22.94 92.28, 21.7 92.87, 20.63C93.47, 19.56 94.3, 18.72 95.39, 18.13C96.47, 17.54 97.73, 17.25 99.16, 17.25zM99.16, 20.95C98.31, 20.95 97.63, 21.27 97.11, 21.9C96.6, 22.53 96.34, 23.37 96.34, 24.39C96.34, 25.44 96.6, 26.28 97.11, 26.91C97.63, 27.55 98.31, 27.86 99.16, 27.86C100.01, 27.86 100.7, 27.55 101.22, 26.91C101.74, 26.28 102, 25.44 102, 24.39C102, 23.37 101.74, 22.53 101.21, 21.9C100.68, 21.27 100, 20.95 99.16, 20.95zM79.03, 17.4L90.55, 17.43L90.55, 20.2L84.23, 27.81L90.8, 27.81L90.8, 31.31L78.82, 31.31L78.82, 28.53L85.13, 20.92L79.03, 20.92L79.03, 17.4zM72.04, 17.4L76.34, 17.4L76.34, 31.31L72.04, 31.31L72.04, 17.4zM74.15, 11C74.81, 11 75.36, 11.23 75.79, 11.68C76.22, 12.13 76.43, 12.72 76.43, 13.44C76.43, 14.14 76.22, 14.73 75.79, 15.19C75.36, 15.65 74.81, 15.88 74.15, 15.88C73.49, 15.88 72.94, 15.65 72.51, 15.19C72.08, 14.73 71.87, 14.14 71.87, 13.44C71.87, 12.72 72.08, 12.13 72.51, 11.68C72.94, 11.23 73.49, 11 74.15, 11zM58.89, 22.57L62.12, 22.57C63.03, 22.57 63.73, 22.33 64.22, 21.85C64.72, 21.37 64.96, 20.67 64.96, 19.77C64.96, 18.89 64.72, 18.22 64.22, 17.75C63.73, 17.28 63.03, 17.04 62.12, 17.04L58.89, 17.04L58.89, 22.57z" fill="#727272" class="Black" fill-rule="evenodd" />
          </g>
        </g>
      </g>
    </g>
  </g>
</svg>