<?xml version='1.0' encoding='UTF-8'?>
<svg viewBox="0 -12.14 32 32" xmlns="http://www.w3.org/2000/svg" xmlns:xlink="http://www.w3.org/1999/xlink">
  <g transform="translate(0, -0.0007)">
    <g transform="matrix(1.1431, 0, 0, 1.1431, 0, 0)">
      <g transform="translate(-0.2945, -0.1828)">
        <g transform="matrix(0.0637, 0, 0, 0.0637, 0, 0)">
          <g id="svg_6" transform="matrix(0.1767, 0, 0, 0.1767, -4727, -3239.52)">
            <g id="svg_7">
              <path d="M27183.7779, 18415.3151L27089.5479, 18360.9751C27083.2879, 18357.3651 27076.6079, 18354.5351 27069.6579, 18352.6151C27062.7379, 18350.7151 27055.5979, 18349.6351 27048.4179, 18349.6351C27041.2479, 18349.6351 27034.1079, 18350.7151 27027.1979, 18352.6151C27020.2079, 18354.5451 27013.5079, 18357.3951 27007.2279, 18361.0151L26914.5279, 18414.5351L26913.0579, 18415.3151L26818.9479, 18469.6551C26812.7179, 18473.2551 26806.9479, 18477.6151 26801.8379, 18482.6651C26797.1879, 18487.2551 26793.1179, 18492.3951 26789.6979, 18497.9851L26788.6479, 18499.6651C26785.0279, 18505.9251 26782.3179, 18512.6351 26780.5079, 18519.6251C26778.6879, 18526.5951 26777.7179, 18533.7651 26777.7179, 18540.9751L26777.7179, 18758.3551C26777.7179, 18765.5651 26778.6879, 18772.7351 26780.5079, 18779.7051C26782.3079, 18786.6851 26785.0479, 18793.3451 26788.6479, 18799.5751C26792.2679, 18805.8351 26796.6979, 18811.5951 26801.8379, 18816.6651C26806.9679, 18821.7251 26812.7579, 18826.0351 26818.9779, 18829.6351L26911.7379, 18883.1851L26913.0779, 18884.0251L27007.1979, 18938.3651C27013.4579, 18941.9751 27020.1379, 18944.7951 27027.0579, 18946.6851L27027.1979, 18946.7151C27034.1079, 18948.6251 27041.2479, 18949.7051 27048.4179, 18949.7051C27055.6379, 18949.7051 27062.7979, 18948.6351 27069.7479, 18946.7151C27076.7179, 18944.8051 27083.3679, 18941.9251 27089.6279, 18938.3151L27182.3179, 18884.8051L27183.7779, 18884.0251L27277.8779, 18829.6351C27284.0979, 18826.0451 27289.8979, 18821.7251 27295.0179, 18816.6751C27300.1579, 18811.5951 27304.5779, 18805.8351 27308.1979, 18799.5751C27311.7979, 18793.3451 27314.5479, 18786.6751 27316.3479, 18779.7051C27318.1679, 18772.7351 27319.1379, 18765.5651 27319.1379, 18758.3551L27319.1379, 18540.9751C27319.1379, 18533.7751 27318.1679, 18526.5951 27316.3479, 18519.6251C27314.5379, 18512.6351 27311.7879, 18505.9351 27308.1479, 18499.6851C27304.5279, 18493.4651 27300.1379, 18487.7151 27295.0179, 18482.6651C27289.8879, 18477.6151 27284.0979, 18473.2951 27277.8779, 18469.7051L27185.1179, 18416.1551L27183.7779, 18415.3151zM27265.2879, 18525.1351C27266.4979, 18527.3451 27267.4479, 18529.6851 27268.0879, 18532.1251C27268.8379, 18534.9951 27269.0979, 18538.0251 27269.0979, 18540.9851L27269.0979, 18632.1651L27135.9879, 18556.7251C27132.2079, 18554.5851 27127.9679, 18553.4651 27123.6679, 18553.3951L27048.4179, 18553.3951C27034.6179, 18553.3951 27023.4179, 18564.6051 27023.4179, 18578.4051C27023.4179, 18592.2151 27034.6179, 18603.4151 27048.4179, 18603.4151L27117.2279, 18603.4151L27269.0879, 18689.4851L27269.0879, 18758.3651C27269.0879, 18761.3251 27268.8179, 18764.3551 27268.0779, 18767.2251C27267.3879, 18769.8651 27266.3779, 18772.4251 27265.0079, 18774.7951C27263.6579, 18777.1251 27261.9479, 18779.2551 27260.0379, 18781.1451C27257.9279, 18783.2251 27255.5479, 18785.0351 27252.9779, 18786.5251L27252.5079, 18786.7951L27252.3979, 18786.7951L27158.7879, 18840.8351L27157.3579, 18841.7451L27064.6179, 18895.2151C27062.0479, 18896.6951 27059.2979, 18897.8851 27056.4379, 18898.6751C27053.8279, 18899.3951 27051.0979, 18899.6951 27048.3879, 18899.6951C27045.6879, 18899.6951 27042.9479, 18899.4051 27040.3479, 18898.6751C27037.4879, 18897.8751 27034.7379, 18896.6951 27032.1779, 18895.2151L26938.0879, 18840.8951L26936.5379, 18840.0551L26843.9279, 18786.5251C26841.3379, 18785.0251 26838.8879, 18783.2351 26836.7579, 18781.1351C26834.8479, 18779.2451 26833.1279, 18777.1251 26831.7879, 18774.7951C26830.4179, 18772.4251 26829.4079, 18769.8651 26828.7179, 18767.2251C26827.9779, 18764.3551 26827.7079, 18761.3251 26827.7079, 18758.3651L26827.7079, 18667.1851L26960.8179, 18742.6251C26964.6079, 18744.7651 26968.8279, 18745.8951 26973.1379, 18745.9551L27048.3679, 18745.9551C27062.1779, 18745.9551 27073.3879, 18734.7651 27073.3879, 18720.9551C27073.3879, 18707.1351 27062.1779, 18695.9351 27048.3679, 18695.9351L26979.5779, 18695.9351L26827.7179, 18609.8651L26827.7179, 18540.9851C26827.7179, 18538.0251 26827.9779, 18534.9951 26828.7279, 18532.1251C26829.4179, 18529.5151 26830.4479, 18527.0051 26831.7779, 18524.7051L26832.4379, 18523.5051C26833.6679, 18521.5851 26835.1479, 18519.8151 26836.7679, 18518.2151C26838.8979, 18516.1051 26841.3379, 18514.3251 26843.9379, 18512.8251L26937.9979, 18458.5151L26939.4479, 18457.6151L27032.1879, 18404.1451C27034.7179, 18402.6851 27037.4379, 18401.4551 27040.2579, 18400.6851C27042.8979, 18399.9551 27045.6679, 18399.6651 27048.3979, 18399.6651C27051.1379, 18399.6651 27053.9079, 18399.9551 27056.5579, 18400.6851C27059.3979, 18401.4651 27062.1179, 18402.6551 27064.6279, 18404.1451L27160.2579, 18459.2951L27252.8679, 18512.8251C27255.4679, 18514.3251 27257.9079, 18516.1051 27260.0379, 18518.2151C27261.9479, 18520.1051 27263.6679, 18522.2251 27265.0079, 18524.5551L27265.2779, 18525.0251L27265.2779, 18525.1351L27265.2879, 18525.1351z" fill="#727272" id="svg_10" class="Black" />
            </g>
          </g>
        </g>
      </g>
    </g>
  </g>
  <g transform="translate(0, -0.0007)">
    <g transform="matrix(1.1431, 0, 0, 1.1431, 0, 0)">
      <g transform="translate(-0.2945, -0.1828)">
        <g transform="matrix(0.0637, 0, 0, 0.0637, 0, 0)">
          <g id="svg_6" transform="matrix(0.1767, 0, 0, 0.1767, -4727, -3239.52)">
            <g id="svg_7">
              <path d="M27567.1879, 18778.3851C27551.4979, 18778.3851 27536.8379, 18777.2151 27523.2379, 18774.8851C27509.6379, 18772.5551 27497.9279, 18769.1851 27488.1079, 18764.7751L27488.1079, 18714.3851C27498.9079, 18719.0451 27510.8479, 18722.8451 27523.9779, 18725.7951C27537.0979, 18728.7351 27549.5379, 18730.2051 27561.3079, 18730.2051C27576.0179, 18730.2051 27586.9879, 18728.8551 27594.2279, 18726.1551C27601.4679, 18723.4651 27605.0779, 18717.5751 27605.0779, 18708.5051C27605.0779, 18702.3751 27603.2979, 18697.4751 27599.7479, 18693.8051C27596.1879, 18690.1251 27590.4279, 18686.8751 27582.4679, 18684.0551C27574.4879, 18681.2351 27563.6479, 18677.8551 27549.9179, 18673.9351C27533.7379, 18669.0251 27520.8579, 18663.5751 27511.2879, 18657.5751C27501.7279, 18651.5651 27494.8679, 18644.2651 27490.6979, 18635.6951C27486.5279, 18627.1051 27484.4479, 18616.5651 27484.4479, 18604.0651C27484.4479, 18581.5051 27492.5379, 18564.2151 27508.7179, 18552.2051C27524.8979, 18540.1851 27548.8079, 18534.1851 27580.4279, 18534.1851C27594.1579, 18534.1851 27607.5279, 18535.2251 27620.5279, 18537.3151C27633.5279, 18539.3951 27644.0579, 18541.7851 27652.1579, 18544.4851L27652.1579, 18595.2451C27641.6079, 18591.0751 27631.0079, 18588.0051 27620.3379, 18586.0451C27609.6679, 18584.0751 27599.3179, 18583.0951 27589.2579, 18583.0951C27576.0179, 18583.0951 27565.2979, 18584.3251 27557.0779, 18586.7751C27548.8579, 18589.2351 27544.7479, 18594.8751 27544.7479, 18603.6951C27544.7479, 18608.8451 27546.2279, 18612.9551 27549.1679, 18616.0151C27552.1079, 18619.0851 27557.1979, 18621.8451 27564.4279, 18624.2951C27571.6579, 18626.7451 27581.5279, 18629.6951 27594.0379, 18633.1251C27613.3979, 18638.2751 27628.2379, 18644.4751 27638.5279, 18651.6951C27648.8379, 18658.9351 27655.9379, 18667.2651 27659.8579, 18676.7051C27663.7879, 18686.1451 27665.7479, 18696.7451 27665.7479, 18708.5151C27665.7479, 18729.3551 27657.6579, 18746.2251 27641.4779, 18759.0851C27625.2979, 18771.9651 27600.5379, 18778.3951 27567.1879, 18778.3951L27567.1879, 18778.3851zM27746.7779, 18778.3951C27735.7379, 18778.3951 27725.5079, 18776.4351 27716.0579, 18772.5051C27706.6179, 18768.5851 27699.0879, 18762.5151 27693.4479, 18754.3051C27687.8079, 18746.0851 27684.9879, 18735.8551 27684.9879, 18723.5951C27684.9879, 18705.6951 27691.0579, 18691.6551 27703.1879, 18681.4851C27715.3279, 18671.3051 27733.5279, 18666.2251 27757.7979, 18666.2251L27806.3479, 18666.2251L27806.3479, 18662.1851C27806.3479, 18653.3551 27803.4079, 18647.0451 27797.5179, 18643.2451C27791.6279, 18639.4451 27780.5979, 18637.5451 27764.4179, 18637.5451C27744.5579, 18637.5451 27725.0579, 18640.6051 27705.9379, 18646.7351L27705.9379, 18608.4851C27714.5179, 18605.0551 27724.9979, 18602.2351 27737.3779, 18600.0251C27749.7679, 18597.8151 27762.8179, 18596.7151 27776.5579, 18596.7151C27803.5279, 18596.7151 27824.6679, 18602.2351 27839.9979, 18613.2551C27855.3179, 18624.2951 27862.9879, 18641.8251 27862.9879, 18665.8551L27862.9879, 18774.7151L27811.1279, 18774.7151L27808.1879, 18760.0051C27801.8079, 18765.8951 27793.6679, 18770.4351 27783.7279, 18773.6151C27773.7979, 18776.7951 27761.4779, 18778.3951 27746.7679, 18778.3951L27746.7779, 18778.3951zM27765.5279, 18741.9851C27774.8479, 18741.9851 27782.9279, 18740.3851 27789.7979, 18737.1951C27796.6679, 18734.0051 27802.1879, 18729.9651 27806.3479, 18725.0551L27806.3479, 18700.4151L27764.4279, 18700.4151C27747.0179, 18700.4151 27738.3079, 18707.4051 27738.3079, 18721.3751C27738.3079, 18727.7551 27740.5179, 18732.7851 27744.9379, 18736.4551C27749.3479, 18740.1351 27756.2179, 18741.9751 27765.5279, 18741.9751L27765.5279, 18741.9851zM27960.5579, 18778.3951C27939.9679, 18778.3951 27923.9079, 18772.5651 27912.3879, 18760.9251C27900.8579, 18749.2751 27895.1079, 18732.3051 27895.1079, 18709.9951L27895.1079, 18600.3951L27954.3179, 18600.3951L27954.3179, 18706.6751C27954.3179, 18716.4951 27956.7079, 18723.6551 27961.4879, 18728.1951C27966.2779, 18732.7351 27973.4479, 18734.9951 27983.0079, 18734.9951C27990.1179, 18734.9951 27996.8579, 18733.5251 28003.2279, 18730.5851C28009.6079, 18727.6451 28014.8779, 18723.9651 28019.0379, 18719.5451L28019.0379, 18600.3851L28078.2579, 18600.3851L28078.2579, 18774.7151L28023.0879, 18774.7151L28021.2479, 18760.0051C28014.1379, 18765.4051 28005.5579, 18769.8151 27995.5079, 18773.2551C27985.4479, 18776.6851 27973.8079, 18778.4051 27960.5579, 18778.4051L27960.5579, 18778.3951zM28189.4379, 18778.3951C28167.8579, 18778.3951 28151.9779, 18772.8751 28141.8079, 18761.8451C28131.6279, 18750.8151 28126.5479, 18735.6151 28126.5479, 18716.2451L28126.5479, 18645.2651L28103.0179, 18645.2651L28103.0179, 18600.4051L28126.5479, 18600.4051L28126.5479, 18563.9851L28185.7679, 18548.1751L28185.7679, 18600.4051L28228.0579, 18600.4051L28225.4779, 18645.2651L28185.7579, 18645.2651L28185.7579, 18712.2051C28185.7579, 18720.5451 28187.8379, 18726.3651 28192.0079, 18729.6751C28196.1779, 18732.9851 28202.4379, 18734.6451 28210.7679, 18734.6451C28217.8779, 18734.6451 28225.1079, 18733.4151 28232.4579, 18730.9651L28232.4579, 18771.0551C28220.9379, 18775.9651 28206.5979, 18778.4151 28189.4379, 18778.4151L28189.4379, 18778.3951zM28268.9879, 18572.8051L28268.9879, 18528.3051L28333.3479, 18528.3051L28333.3479, 18572.8051L28268.9879, 18572.8051zM28273.7679, 18774.7251L28273.7679, 18644.1651L28248.0279, 18644.1651L28253.1779, 18600.4051L28332.9879, 18600.4051L28332.9879, 18774.7351L28273.7679, 18774.7351L28273.7679, 18774.7251zM28372.8079, 18774.7251L28372.8079, 18600.3951L28427.9779, 18600.3951L28429.8179, 18615.4651C28436.9279, 18610.5651 28445.8779, 18606.2051 28456.6679, 18602.4051C28467.4579, 18598.6051 28478.9779, 18596.7051 28491.2379, 18596.7051C28513.7979, 18596.7051 28530.2279, 18602.0951 28540.5279, 18612.8851C28550.8279, 18623.6751 28555.9679, 18640.3451 28555.9679, 18662.8951L28555.9679, 18774.7051L28496.7479, 18774.7051L28496.7479, 18667.6851C28496.7479, 18657.8651 28494.6679, 18650.8851 28490.4979, 18646.7151C28486.3279, 18642.5451 28478.8479, 18640.4651 28468.0679, 18640.4651C28461.6879, 18640.4651 28455.1879, 18641.9351 28448.5779, 18644.8751C28441.9479, 18647.8251 28436.4279, 18651.5051 28432.0279, 18655.9151L28432.0279, 18774.7151L28372.8079, 18774.7151L28372.8079, 18774.7251zM28668.9879, 18778.4051C28653.2979, 18778.4051 28638.6379, 18777.2351 28625.0379, 18774.9051C28611.4379, 18772.5751 28599.7279, 18769.2051 28589.9079, 18764.7951L28589.9079, 18714.4051C28600.7079, 18719.0651 28612.6479, 18722.8651 28625.7779, 18725.8151C28638.8979, 18728.7551 28651.3379, 18730.2251 28663.1079, 18730.2251C28677.8179, 18730.2251 28688.7879, 18728.8751 28696.0279, 18726.1751C28703.2679, 18723.4851 28706.8779, 18717.5951 28706.8779, 18708.5251C28706.8779, 18702.3951 28705.0979, 18697.4951 28701.5479, 18693.8251C28697.9879, 18690.1451 28692.2279, 18686.8951 28684.2679, 18684.0751C28676.2879, 18681.2551 28665.4479, 18677.8751 28651.7179, 18673.9551C28635.5379, 18669.0451 28622.6579, 18663.5951 28613.0879, 18657.5951C28603.5279, 18651.5851 28596.6679, 18644.2851 28592.4979, 18635.7151C28588.3279, 18627.1251 28586.2479, 18616.5851 28586.2479, 18604.0851C28586.2479, 18581.5251 28594.3379, 18564.2351 28610.5179, 18552.2251C28626.6979, 18540.2051 28650.6079, 18534.2051 28682.2279, 18534.2051C28695.9579, 18534.2051 28709.3279, 18535.2451 28722.3279, 18537.3351C28735.3279, 18539.4151 28745.8579, 18541.8051 28753.9579, 18544.5051L28753.9579, 18595.2651C28743.4079, 18591.0951 28732.8079, 18588.0251 28722.1379, 18586.0651C28711.4679, 18584.0951 28701.1179, 18583.1151 28691.0579, 18583.1151C28677.8179, 18583.1151 28667.0979, 18584.3451 28658.8779, 18586.7951C28650.6579, 18589.2551 28646.5479, 18594.8951 28646.5479, 18603.7151C28646.5479, 18608.8651 28648.0279, 18612.9751 28650.9679, 18616.0351C28653.9079, 18619.1051 28658.9979, 18621.8651 28666.2279, 18624.3151C28673.4579, 18626.7651 28683.3279, 18629.7151 28695.8379, 18633.1451C28715.1979, 18638.2951 28730.0379, 18644.4951 28740.3279, 18651.7151C28750.6379, 18658.9551 28757.7379, 18667.2851 28761.6579, 18676.7251C28765.5879, 18686.1651 28767.5479, 18696.7651 28767.5479, 18708.5351C28767.5479, 18729.3751 28759.4579, 18746.2451 28743.2779, 18759.1051C28727.0979, 18771.9851 28702.3379, 18778.4151 28668.9879, 18778.4151L28668.9879, 18778.4051zM28890.5079, 18778.4051C28856.9179, 18778.4051 28832.1479, 18770.6151 28816.2179, 18755.0551C28800.2879, 18739.4851 28792.3179, 18716.9851 28792.3179, 18687.5551C28792.3179, 18658.3751 28800.3479, 18635.9451 28816.3979, 18620.2451C28832.4579, 18604.5651 28857.1579, 18596.7151 28890.5079, 18596.7151C28924.0979, 18596.7151 28948.9279, 18604.5651 28964.9779, 18620.2451C28981.0379, 18635.9351 28989.0679, 18658.3751 28989.0679, 18687.5551C28989.0679, 18716.9851 28981.0979, 18739.4751 28965.1679, 18755.0551C28949.2279, 18770.6151 28924.3479, 18778.4051 28890.5079, 18778.4051zM28890.5079, 18732.0651C28904.2379, 18732.0651 28914.0479, 18728.6351 28919.9279, 18721.7651C28925.8179, 18714.8951 28928.7579, 18703.5051 28928.7579, 18687.5551C28928.7579, 18671.6251 28925.8179, 18660.2151 28919.9279, 18653.3551C28914.0479, 18646.4851 28904.2479, 18643.0451 28890.5079, 18643.0451C28877.0179, 18643.0451 28867.3379, 18646.4851 28861.4479, 18653.3551C28855.5679, 18660.2151 28852.6179, 18671.6151 28852.6179, 18687.5551C28852.6179, 18703.4951 28855.5679, 18714.8951 28861.4479, 18721.7651C28867.3379, 18728.6351 28877.0179, 18732.0651 28890.5079, 18732.0651zM29029.2779, 18774.7251L29029.2779, 18645.2651L29006.1079, 18645.2651L29006.1079, 18600.4051L29029.2779, 18600.4051L29029.2779, 18586.0651C29029.2779, 18567.1851 29034.6679, 18551.6151 29045.4579, 18539.3551C29056.2479, 18527.0951 29072.2979, 18520.9751 29093.6279, 18520.9751C29102.4579, 18520.9751 29110.2979, 18521.6451 29117.1679, 18522.9951C29124.0379, 18524.3451 29130.5379, 18526.2451 29136.6579, 18528.6951L29136.6579, 18568.4251C29132.9779, 18567.1951 29129.4279, 18566.2151 29125.9879, 18565.4751C29122.5579, 18564.7451 29118.7579, 18564.3751 29114.5879, 18564.3751C29105.0179, 18564.3751 29098.2779, 18566.1551 29094.3579, 18569.7051C29090.4379, 18573.2651 29088.4679, 18579.0951 29088.4679, 18587.1751L29088.4679, 18600.4251L29131.4979, 18600.4251L29128.9179, 18645.2851L29088.4579, 18645.2851L29088.4579, 18774.7451L29029.2479, 18774.7451L29029.2779, 18774.7251zM29221.7379, 18778.4051C29200.1579, 18778.4051 29184.2779, 18772.8851 29174.1079, 18761.8551C29163.9279, 18750.8251 29158.8479, 18735.6251 29158.8479, 18716.2551L29158.8479, 18645.2751L29135.3179, 18645.2751L29135.3179, 18600.4151L29158.8479, 18600.4151L29158.8479, 18563.9951L29218.0679, 18548.1851L29218.0679, 18600.4151L29260.3579, 18600.4151L29257.7779, 18645.2751L29218.0579, 18645.2751L29218.0579, 18712.2151C29218.0579, 18720.5551 29220.1379, 18726.3751 29224.3079, 18729.6851C29228.4779, 18732.9951 29234.7379, 18734.6551 29243.0679, 18734.6551C29250.1779, 18734.6551 29257.4079, 18733.4251 29264.7579, 18730.9751L29264.7579, 18771.0651C29253.2379, 18775.9751 29238.8979, 18778.4251 29221.7379, 18778.4251L29221.7379, 18778.4051z" fill="#727272" id="svg_11" class="Black" />
            </g>
          </g>
        </g>
      </g>
    </g>
  </g>
</svg>