<?xml version="1.0" encoding="UTF-8"?>
<!DOCTYPE svg PUBLIC "-//W3C//DTD SVG 1.1//EN" "http://www.w3.org/Graphics/SVG/1.1/DTD/svg11.dtd">
<!-- Creator: CorelDRAW -->
<svg xmlns="http://www.w3.org/2000/svg" xml:space="preserve" width="128px" height="128px" version="1.1" style="shape-rendering:geometricPrecision; text-rendering:geometricPrecision; image-rendering:optimizeQuality; fill-rule:evenodd; clip-rule:evenodd"
viewBox="0 0 127.88 127.88"
 xmlns:xlink="http://www.w3.org/1999/xlink"
 xmlns:xodm="http://www.corel.com/coreldraw/odm/2003">
 <defs>
  <style type="text/css">
   <![CDATA[
    .fil2 {fill:#165358}
    .fil0 {fill:url(#id0)}
    .fil1 {fill:url(#id1);fill-rule:nonzero}
   ]]>
  </style>
  <linearGradient id="id0" gradientUnits="userSpaceOnUse" x1="63.94" y1="127.88" x2="63.94" y2="0">
   <stop offset="0" style="stop-opacity:1; stop-color:#00656C"/>
   <stop offset="1" style="stop-opacity:1; stop-color:#0BACB6"/>
  </linearGradient>
  <linearGradient id="id1" gradientUnits="userSpaceOnUse" x1="63.94" y1="96.98" x2="63.94" y2="30.9">
   <stop offset="0" style="stop-opacity:1; stop-color:#CAE7E8"/>
   <stop offset="1" style="stop-opacity:1; stop-color:#FEFEFE"/>
  </linearGradient>
 </defs>
 <g id="Layer_x0020_1">
  <metadata id="CorelCorpID_0Corel-Layer"/>
  <rect class="fil0" width="127.88" height="127.88" rx="16.58" ry="17.05"/>
  <path class="fil1" d="M93.42 96.98l13.88 -10.25 -43.36 -55.83 -43.36 55.83 13.88 10.25 8.58 -11.42 41.8 0 8.58 11.42zm-19.73 -26.28l-19.5 0 9.75 -12.9 9.75 12.9z"/>
  <g>
   <path id="_1" class="fil2" d="M93.42 96.98l13.88 -10.25 -43.36 -55.83 -43.36 55.83 13.88 10.25 8.58 -11.42 41.8 0 8.58 11.42zm-19.73 -26.28l-19.5 0 9.75 -12.9 9.75 12.9zm33.86 16.37l-13.88 10.25 -0.34 0.25 -0.25 -0.34 -8.45 -11.24 -41.38 0 -8.45 11.24 -0.25 0.34 -0.34 -0.25 -13.89 -10.25 -0.35 -0.25 0.27 -0.35 43.36 -55.83 0.34 -0.43 0.34 0.43 43.36 55.83 0.27 0.35 -0.36 0.25zm-52.5 -16.79l17.78 0 -8.89 -11.77 -8.89 11.77z"/>
  </g>
 </g>
</svg>
