<?xml version="1.0" encoding="UTF-8"?>
<!DOCTYPE svg PUBLIC "-//W3C//DTD SVG 1.1//EN" "http://www.w3.org/Graphics/SVG/1.1/DTD/svg11.dtd">
<!-- Creator: CorelDRAW -->
<svg xmlns="http://www.w3.org/2000/svg" xml:space="preserve" width="128px" height="128px" version="1.1" style="shape-rendering:geometricPrecision; text-rendering:geometricPrecision; image-rendering:optimizeQuality; fill-rule:evenodd; clip-rule:evenodd"
viewBox="0 0 127.88 127.88"
 xmlns:xlink="http://www.w3.org/1999/xlink"
 xmlns:xodm="http://www.corel.com/coreldraw/odm/2003">
 <defs>
  <style type="text/css">
   <![CDATA[
    .fil2 {fill:#300B48}
    .fil0 {fill:url(#id0)}
    .fil1 {fill:url(#id1);fill-rule:nonzero}
   ]]>
  </style>
  <linearGradient id="id0" gradientUnits="userSpaceOnUse" x1="63.94" y1="127.88" x2="63.94" y2="0">
   <stop offset="0" style="stop-opacity:1; stop-color:#483166"/>
   <stop offset="1" style="stop-opacity:1; stop-color:#733F8F"/>
  </linearGradient>
  <linearGradient id="id1" gradientUnits="userSpaceOnUse" x1="63.94" y1="95.22" x2="63.94" y2="32.66">
   <stop offset="0" style="stop-opacity:1; stop-color:#C6B9D8"/>
   <stop offset="1" style="stop-opacity:1; stop-color:#FEFEFE"/>
  </linearGradient>
 </defs>
 <g id="Layer_x0020_1">
  <metadata id="CorelCorpID_0Corel-Layer"/>
  <rect class="fil0" width="127.88" height="127.88" rx="16.58" ry="17.05"/>
  <path class="fil1" d="M57.35 95.22c31.66,0 41.88,-7.82 41.88,-18.22 0,-7.2 -4.83,-11.18 -11.78,-13.37 6.09,-2.27 10.22,-6.26 10.22,-13.14 0,-10.01 -8.66,-17.83 -40.32,-17.83 -8.42,0 -19.89,0.55 -28.7,1.17l0 60.21c8.81,0.63 20.28,1.18 28.7,1.18zm1.79 -37.93c-4.68,0 -8.5,0 -11.77,-0.08l0 -8.91c3.27,-0.23 7.25,-0.39 11.77,-0.39 15.06,0 19.81,1.95 19.81,5 0,2.82 -3.97,4.38 -19.81,4.38zm0 22.68c-4.52,0 -8.5,-0.16 -11.77,-0.39l0 -8.92c3.27,-0.07 7.09,-0.07 11.77,-0.07 17.39,0 21.37,1.56 21.37,4.37 0,3.05 -4.75,5.01 -21.37,5.01z"/>
  <g>
   <path id="_1" class="fil2" d="M57.35 95.22c31.66,0 41.88,-7.82 41.88,-18.22 0,-7.2 -4.83,-11.18 -11.78,-13.37 6.09,-2.27 10.22,-6.26 10.22,-13.14 0,-10.01 -8.66,-17.83 -40.32,-17.83 -8.42,0 -19.89,0.55 -28.7,1.17l0 60.21c8.81,0.63 20.28,1.18 28.7,1.18zm1.79 -37.93c-4.68,0 -8.5,0 -11.77,-0.08l0 -8.91c3.27,-0.23 7.25,-0.39 11.77,-0.39 15.06,0 19.81,1.95 19.81,5 0,2.82 -3.97,4.38 -19.81,4.38zm0 22.68c-4.52,0 -8.5,-0.16 -11.77,-0.39l0 -8.92c3.27,-0.07 7.09,-0.07 11.77,-0.07 17.39,0 21.37,1.56 21.37,4.37 0,3.05 -4.75,5.01 -21.37,5.01zm31.21 10.42c-6.57,3.28 -17.1,5.25 -33,5.25 -3.93,0 -8.54,-0.12 -13.26,-0.31 -5.35,-0.22 -10.8,-0.53 -15.47,-0.86l-0.4 -0.03 0 -0.4 0 -60.21 0 -0.39 0.4 -0.03c4.67,-0.33 10.12,-0.64 15.47,-0.86 4.72,-0.19 9.33,-0.32 13.26,-0.32 15.9,0 26.05,1.98 32.23,5.22 6.29,3.29 8.52,7.88 8.52,13.04 0,3.55 -1.07,6.35 -2.93,8.57 -1.62,1.94 -3.85,3.42 -6.48,4.53 3.05,1.09 5.66,2.56 7.56,4.55 2.15,2.25 3.41,5.14 3.41,8.86 0,5.36 -2.62,10.05 -9.31,13.39zm-42.56 -33.59c3.12,0.07 6.84,0.07 11.35,0.07 7.88,0 12.8,-0.39 15.74,-1.12 2.73,-0.69 3.65,-1.64 3.65,-2.84 0,-1.32 -1.11,-2.43 -3.95,-3.23 -3.04,-0.86 -7.95,-1.34 -15.44,-1.34 -2.19,0 -4.22,0.03 -6.08,0.09 -1.89,0.07 -3.66,0.16 -5.27,0.27l0 8.1zm5.27 22.65c1.86,0.06 3.89,0.09 6.08,0.09 8.27,0 13.58,-0.48 16.81,-1.34 3.03,-0.81 4.14,-1.91 4.14,-3.24 0,-1.19 -0.92,-2.14 -3.84,-2.83 -3.13,-0.73 -8.44,-1.12 -17.11,-1.12 -2.51,0 -4.8,0 -6.41,0.01 -1.78,0.01 -3.42,0.03 -4.94,0.06l0 8.1c1.61,0.11 3.38,0.2 5.27,0.27z"/>
  </g>
 </g>
</svg>
