<?xml version="1.0" encoding="UTF-8"?>
<!DOCTYPE svg PUBLIC "-//W3C//DTD SVG 1.1//EN" "http://www.w3.org/Graphics/SVG/1.1/DTD/svg11.dtd">
<!-- Creator: CorelDRAW -->
<svg xmlns="http://www.w3.org/2000/svg" xml:space="preserve" width="128px" height="128px" version="1.1" style="shape-rendering:geometricPrecision; text-rendering:geometricPrecision; image-rendering:optimizeQuality; fill-rule:evenodd; clip-rule:evenodd"
viewBox="0 0 127.88 127.88"
 xmlns:xlink="http://www.w3.org/1999/xlink"
 xmlns:xodm="http://www.corel.com/coreldraw/odm/2003">
 <defs>
  <style type="text/css">
   <![CDATA[
    .fil2 {fill:#005358}
    .fil0 {fill:url(#id0)}
    .fil1 {fill:url(#id1);fill-rule:nonzero}
   ]]>
  </style>
  <linearGradient id="id0" gradientUnits="userSpaceOnUse" x1="63.94" y1="127.88" x2="63.94" y2="0">
   <stop offset="0" style="stop-opacity:1; stop-color:#0F824C"/>
   <stop offset="1" style="stop-opacity:1; stop-color:#05898F"/>
  </linearGradient>
  <linearGradient id="id1" gradientUnits="userSpaceOnUse" x1="63.94" y1="93.26" x2="63.94" y2="34.62">
   <stop offset="0" style="stop-opacity:1; stop-color:#CAE7E8"/>
   <stop offset="1" style="stop-opacity:1; stop-color:#FEFEFE"/>
  </linearGradient>
 </defs>
 <g id="Layer_x0020_1">
  <metadata id="CorelCorpID_0Corel-Layer"/>
  <rect class="fil0" width="127.88" height="127.88" rx="16.58" ry="17.05"/>
  <polygon class="fil1" points="95.92,77.62 50.6,77.62 50.6,70.98 86.79,70.98 86.79,56.9 50.6,56.9 50.6,50.26 95.99,50.26 95.99,34.62 31.88,34.62 31.88,93.26 95.92,93.26 "/>
  <g>
   <path id="_1" class="fil2" d="M95.92 77.62l-45.32 0 0 -6.64 36.19 0 0 -14.08 -36.19 0 0 -6.64 45.39 0 0 -15.64 -64.11 0 0 58.64 64.04 0 0 -15.64zm-44.89 -0.42l44.89 0 0.42 0 0 0.42 0 15.64 0 0.43 -0.42 0 -64.04 0 -0.42 0 0 -0.43 0 -58.64 0 -0.43 0.42 0 64.11 0 0.43 0 0 0.43 0 15.64 0 0.42 -0.43 0 -44.96 0 0 5.8 35.76 0 0.43 0 0 0.42 0 14.08 0 0.42 -0.43 0 -35.76 0 0 5.8z"/>
  </g>
 </g>
</svg>
