<?xml version="1.0" encoding="UTF-8"?>
<!DOCTYPE svg PUBLIC "-//W3C//DTD SVG 1.1//EN" "http://www.w3.org/Graphics/SVG/1.1/DTD/svg11.dtd">
<!-- Creator: CorelDRAW -->
<svg xmlns="http://www.w3.org/2000/svg" xml:space="preserve" width="32px" height="32px" version="1.1" style="shape-rendering:geometricPrecision; text-rendering:geometricPrecision; image-rendering:optimizeQuality; fill-rule:evenodd; clip-rule:evenodd"
viewBox="0 0 31.97 31.97"
 xmlns:xlink="http://www.w3.org/1999/xlink"
 xmlns:xodm="http://www.corel.com/coreldraw/odm/2003">
 <defs>
  <style type="text/css">
   <![CDATA[
    .fil2 {fill:#868040}
    .fil0 {fill:url(#id0)}
    .fil1 {fill:url(#id1);fill-rule:nonzero}
   ]]>
  </style>
  <linearGradient id="id0" gradientUnits="userSpaceOnUse" x1="15.98" y1="31.97" x2="15.98" y2="0">
   <stop offset="0" style="stop-opacity:1; stop-color:#EA7737"/>
   <stop offset="1" style="stop-opacity:1; stop-color:#E4D132"/>
  </linearGradient>
  <linearGradient id="id1" gradientUnits="userSpaceOnUse" x1="16.43" y1="24.42" x2="16.43" y2="12.88">
   <stop offset="0" style="stop-opacity:1; stop-color:#FFFCDC"/>
   <stop offset="1" style="stop-opacity:1; stop-color:white"/>
  </linearGradient>
 </defs>
 <g id="Layer_x0020_1">
  <metadata id="CorelCorpID_0Corel-Layer"/>
  <rect class="fil0" width="31.97" height="31.97" rx="4.14" ry="4.26"/>
  <g>
   <path class="fil1" d="M26.48 13.56c-0.24,-0.42 -0.68,-0.68 -1.16,-0.68 0,0 -0.01,0 -0.01,0l-12.62 0c0,0 0,0 0,0 -0.88,0 -1.65,0.57 -1.89,1.41l-2.5 8.57c-0.27,0.93 -1.12,1.56 -2.08,1.56 0,0 0,0 0,0l15.87 0c0.97,0 1.82,-0.63 2.09,-1.56l2.4 -8.23c0.04,-0.13 0.06,-0.27 0.06,-0.41 0,-0.23 -0.06,-0.46 -0.16,-0.66l0 0zm-19.03 9.05l2.5 -8.57c0.35,-1.21 1.47,-2.05 2.74,-2.05l11.29 0 0 -0.45c0,-0.98 -0.79,-1.77 -1.78,-1.77l-6.77 0c-0.26,0 -0.52,-0.12 -0.69,-0.33l-0.87 -1.08c-0.42,-0.51 -1.05,-0.81 -1.72,-0.81l-5.05 0c-0.98,0 -1.77,0.79 -1.77,1.77l0 13.33c0,0.49 0.4,0.88 0.89,0.88 0.57,0 1.07,-0.37 1.23,-0.92l0 0z"/>
   <path id="_1" class="fil2" d="M7.45 22.61l2.5 -8.57c0.35,-1.21 1.47,-2.05 2.74,-2.05l11.29 0 0 -0.45c0,-0.98 -0.79,-1.77 -1.78,-1.77l-6.77 0c-0.26,0 -0.52,-0.12 -0.69,-0.33l-0.87 -1.08c-0.42,-0.51 -1.05,-0.81 -1.72,-0.81l-5.05 0c-0.98,0 -1.77,0.79 -1.77,1.77l0 13.33c0,0.49 0.4,0.88 0.89,0.88 0.57,0 1.07,-0.37 1.23,-0.92l0 0zm18.59 -9.64c0.22,0.13 0.4,0.31 0.53,0.54l0.24 0.43 -0.1 -0.08c0.02,0.12 0.04,0.24 0.04,0.36 0,0.07 -0.01,0.15 -0.02,0.22 -0.01,0.08 -0.03,0.15 -0.05,0.23l0 0 -2.4 8.22c-0.14,0.48 -0.44,0.89 -0.82,1.18 -0.39,0.29 -0.86,0.46 -1.37,0.46l-15.83 0c-0.01,0 -0.03,0 -0.04,0l0 0 0 -0.11 0 0c0.96,0 1.81,-0.63 2.08,-1.56l2.5 -8.57c0.24,-0.84 1.01,-1.41 1.89,-1.41 0,0 0,0 0,0l12.62 0c0,0 0.01,0 0.01,0 0.48,0 0.92,0.26 1.16,0.68l0 0c0.1,0.2 0.16,0.43 0.16,0.66 0,0.14 -0.02,0.28 -0.06,0.41l-2.4 8.23c-0.27,0.93 -1.12,1.56 -2.09,1.56l-15.87 0 0 0 0 -0.1 0 0c0.46,0 0.89,-0.15 1.24,-0.42 0.34,-0.26 0.61,-0.63 0.74,-1.07l2.5 -8.57c0.13,-0.44 0.39,-0.81 0.74,-1.08 0.35,-0.26 0.79,-0.41 1.25,-0.41l0 0 0 0 12.62 0 0 0 0.01 0c0.26,0 0.51,0.07 0.72,0.2zm-19.82 11.35l0 0.1 0 0.11m3.83 -10.46l-2.44 8.38 0 0 -0.06 0.19c-0.09,0.3 -0.27,0.55 -0.5,0.72 -0.24,0.18 -0.53,0.28 -0.83,0.28l0 0c-0.28,0 -0.53,-0.11 -0.71,-0.29 -0.18,-0.18 -0.29,-0.43 -0.29,-0.7l0 -13.33c0,-0.52 0.21,-0.99 0.55,-1.33 0.34,-0.34 0.81,-0.55 1.33,-0.55l0 0 5.05 0c0.35,0 0.69,0.08 1,0.23 0.31,0.14 0.58,0.36 0.8,0.63l0.88 1.07c0.07,0.09 0.16,0.17 0.27,0.21 0.1,0.05 0.22,0.08 0.33,0.08l0 0 6.77 0 0 0c0.52,0 1,0.21 1.34,0.55 0.34,0.34 0.55,0.81 0.55,1.33l0 0 0 0.45 0 0.1 -0.11 0 -11.29 0c-0.61,0.01 -1.19,0.21 -1.65,0.56 -0.46,0.34 -0.82,0.84 -0.99,1.42l0 0z"/>
  </g>
 </g>
</svg>
