<?xml version="1.0" encoding="UTF-8"?>
<!DOCTYPE svg PUBLIC "-//W3C//DTD SVG 1.1//EN" "http://www.w3.org/Graphics/SVG/1.1/DTD/svg11.dtd">
<!-- Creator: CorelDRAW -->
<svg xmlns="http://www.w3.org/2000/svg" xml:space="preserve" width="128px" height="128px" version="1.1" style="shape-rendering:geometricPrecision; text-rendering:geometricPrecision; image-rendering:optimizeQuality; fill-rule:evenodd; clip-rule:evenodd"
viewBox="0 0 127.88 127.88"
 xmlns:xlink="http://www.w3.org/1999/xlink"
 xmlns:xodm="http://www.corel.com/coreldraw/odm/2003">
 <defs>
  <style type="text/css">
   <![CDATA[
    .fil2 {fill:#274F35}
    .fil0 {fill:url(#id0)}
    .fil1 {fill:url(#id1);fill-rule:nonzero}
   ]]>
  </style>
  <linearGradient id="id0" gradientUnits="userSpaceOnUse" x1="63.94" y1="127.88" x2="63.94" y2="0">
   <stop offset="0" style="stop-opacity:1; stop-color:#039251"/>
   <stop offset="1" style="stop-opacity:1; stop-color:#0C71B5"/>
  </linearGradient>
  <linearGradient id="id1" gradientUnits="userSpaceOnUse" x1="38.99" y1="126.12" x2="38.99" y2="45.5">
   <stop offset="0" style="stop-opacity:1; stop-color:#CBE5D6"/>
   <stop offset="1" style="stop-opacity:1; stop-color:white"/>
  </linearGradient>
 </defs>
 <g id="Layer_x0020_1">
  <metadata id="CorelCorpID_0Corel-Layer"/>
  <rect class="fil0" width="127.88" height="127.88" rx="16.58" ry="17.05"/>
  <g>
   <path class="fil1" d="M31.64 99.54c2.19,1.98 4.41,3.41 6.01,4.33 0.89,0.5 1.97,0.51 2.85,0.01 5.31,-2.97 9.56,-7.16 12,-12.73 1.95,-4.48 1.85,-8.07 1.84,-8.1 0,-0.04 0,-0.06 0,-0.1 0,-8.59 -6.89,-15.58 -15.35,-15.58 -8.47,0 -15.36,6.99 -15.36,15.58 0,6.22 2.7,11.81 8.01,16.59l0 0zm61.45 -10.24c2.07,-2.06 3.87,-4.33 5.39,-6.74 -9.23,-1.68 -16.34,-9.49 -16.96,-19.04l-1.04 0c-6.77,0 -12.28,-5.51 -12.28,-12.28 0,-6.76 5.51,-12.27 12.28,-12.27l16.15 0c-1.08,-1.43 -2.26,-2.79 -3.54,-4.07 -7.27,-7.27 -16.93,-11.27 -27.2,-11.27 -3.42,0 -6.77,0.45 -9.99,1.3l0 8.13c0,11 -8.94,19.94 -19.94,19.94l-7.47 0c-0.71,2.94 -1.07,5.99 -1.07,9.1 0,1.39 0.08,2.82 0.19,4.09 3.24,-2.23 7.16,-3.54 11.38,-3.54 11.05,0 20.05,8.98 20.08,20.04 0.01,0.59 0.04,4.7 -2.13,9.76 -0.78,1.82 -1.92,3.91 -3.55,6.06 4.6,1.6 9.79,2.06 12.5,2.06 10.27,0 19.93,-4 27.2,-11.27zm-41.91 -56.24l0 -6.53c-4.62,1.91 -8.86,4.73 -12.5,8.37 -3.87,3.87 -6.81,8.42 -8.72,13.38l6 0c8.39,0 15.22,-6.83 15.22,-15.22l0 0zm53.07 29.04c0,-6.54 -1.62,-12.83 -4.67,-18.41l-19.21 0c-4.16,0 -7.55,3.39 -7.55,7.55 0,4.17 3.39,7.56 7.55,7.56l3.36 0c1.3,0 2.36,1.05 2.36,2.36l0 1c0,8.38 6.47,15.28 14.68,15.96 2.28,-4.96 3.48,-10.4 3.48,-16.02l0 0zm-61.01 21.16c0,-2.35 -1.9,-4.25 -4.25,-4.25 -2.35,0 -4.25,1.9 -4.25,4.25 0,2.35 1.9,4.25 4.25,4.25 2.35,0 4.25,-1.9 4.25,-4.25zm-4.25 -8.87c4.95,0 8.97,4.08 8.97,9.1 0,5.02 -4.02,9.11 -8.97,9.11 -4.95,0 -8.98,-4.09 -8.98,-9.11 0,-5.02 4.03,-9.1 8.98,-9.1z"/>
   <path id="_1" class="fil2" d="M31.64 99.54c2.19,1.98 4.41,3.41 6.01,4.33 0.89,0.5 1.97,0.51 2.85,0.01 5.31,-2.97 9.56,-7.16 12,-12.73 1.95,-4.48 1.85,-8.07 1.84,-8.1 0,-0.04 0,-0.06 0,-0.1 0,-8.59 -6.89,-15.58 -15.35,-15.58 -8.47,0 -15.36,6.99 -15.36,15.58 0,6.22 2.7,11.81 8.01,16.59l0 0zm21.75 -1.03c4.6,1.6 9.79,2.06 12.5,2.06 10.27,0 19.93,-4 27.2,-11.27 2.07,-2.06 3.87,-4.33 5.39,-6.74 -9.23,-1.68 -16.34,-9.49 -16.96,-19.04l-1.04 0c-6.77,0 -12.28,-5.51 -12.28,-12.28 0,-6.76 5.51,-12.27 12.28,-12.27l16.15 0c-1.08,-1.43 -2.26,-2.79 -3.54,-4.07 -7.27,-7.27 -16.93,-11.27 -27.2,-11.27 -3.42,0 -6.77,0.45 -9.99,1.3l0 8.13c0,11 -8.94,19.94 -19.94,19.94l-7.47 0c-0.71,2.94 -1.07,5.99 -1.07,9.1 0,1.39 0.08,2.82 0.19,4.09 3.24,-2.23 7.16,-3.54 11.38,-3.54 11.05,0 20.05,8.98 20.08,20.04 0.01,0.59 0.04,4.7 -2.13,9.76 -0.78,1.82 -1.92,3.91 -3.55,6.06zm-2.21 -65.45l0 -6.53c-4.62,1.91 -8.86,4.73 -12.5,8.37 -3.87,3.87 -6.81,8.42 -8.72,13.38l6 0c8.39,0 15.22,-6.83 15.22,-15.22l0 0zm53.07 29.04c0,-6.54 -1.62,-12.83 -4.67,-18.41l-19.21 0c-4.16,0 -7.55,3.39 -7.55,7.55 0,4.17 3.39,7.56 7.55,7.56l3.36 0c1.3,0 2.36,1.05 2.36,2.36l0 1c0,8.38 6.47,15.28 14.68,15.96 2.28,-4.96 3.48,-10.4 3.48,-16.02l0 0zm-61.01 21.16c0,-2.35 -1.9,-4.25 -4.25,-4.25 -2.35,0 -4.25,1.9 -4.25,4.25 0,2.35 1.9,4.25 4.25,4.25 2.35,0 4.25,-1.9 4.25,-4.25zm-4.25 -8.87c4.95,0 8.97,4.08 8.97,9.1 0,5.02 -4.02,9.11 -8.97,9.11 -4.95,0 -8.98,-4.09 -8.98,-9.11 0,-5.02 4.03,-9.1 8.98,-9.1zm-4.74 27.79c-0.71,-0.51 -1.44,-1.07 -2.18,-1.7l0 0.02 -0.71 -0.64c-2.7,-2.43 -4.74,-5.07 -6.1,-7.89 -1.37,-2.83 -2.06,-5.84 -2.06,-9.02 0,-4.41 1.77,-8.41 4.63,-11.31 2.86,-2.9 6.8,-4.69 11.16,-4.69 4.35,0 8.29,1.79 11.15,4.69 2.86,2.9 4.63,6.9 4.63,11.31l0 0 0 0.04 0 0 0 0.04c0,0.03 0.05,1.68 -0.51,4.11 -0.28,1.22 -0.71,2.65 -1.37,4.18l0 0c-1.21,2.75 -2.85,5.17 -4.83,7.28 -2.1,2.23 -4.58,4.1 -7.35,5.65l0 0c-0.51,0.29 -1.07,0.43 -1.63,0.42 -0.57,0 -1.13,-0.15 -1.64,-0.43 -0.9,-0.52 -2.01,-1.21 -3.19,-2.06zm62.06 -15.84c-0.91,1.14 -1.89,2.23 -2.92,3.26 -3.67,3.68 -7.95,6.52 -12.61,8.45 -4.66,1.93 -9.7,2.95 -14.89,2.95 -1.57,0 -3.95,-0.16 -6.57,-0.59 -1.97,-0.32 -4.07,-0.81 -6.07,-1.5l-0.56 -0.19 0.36 -0.47c0.75,-0.99 1.4,-1.96 1.94,-2.9 0.63,-1.07 1.14,-2.1 1.55,-3.06 0.77,-1.78 1.25,-3.44 1.56,-4.87 0.56,-2.56 0.55,-4.35 0.54,-4.72l0 -0.01c-0.01,-5.41 -2.22,-10.31 -5.78,-13.87 -3.55,-3.55 -8.46,-5.75 -13.87,-5.75 -2.03,0 -3.99,0.31 -5.83,0.89 -1.91,0.59 -3.69,1.47 -5.3,2.58l-0.6 0.41 -0.07 -0.73c-0.06,-0.68 -0.11,-1.41 -0.15,-2.14 -0.03,-0.67 -0.05,-1.34 -0.05,-1.98 0,-1.56 0.09,-3.11 0.27,-4.64 0.19,-1.54 0.46,-3.06 0.82,-4.56l0.08 -0.32 0.33 0 7.47 0 0 -0.01c5.38,0 10.26,-2.18 13.8,-5.72 3.53,-3.53 5.72,-8.41 5.72,-13.79l0 -8.13 0 -0.32 0.31 -0.09c1.63,-0.43 3.3,-0.76 5,-0.98 1.68,-0.22 3.38,-0.34 5.1,-0.34 5.19,0 10.23,1.02 14.89,2.95 4.66,1.93 8.94,4.78 12.61,8.45 0.64,0.64 1.26,1.31 1.86,1.99 0.6,0.69 1.17,1.39 1.72,2.12l0.52 0.69 -0.86 0 -16.15 0c-3.27,0 -6.23,1.32 -8.38,3.47 -2.14,2.15 -3.47,5.11 -3.47,8.37 0,3.27 1.33,6.23 3.47,8.38 2.15,2.14 5.11,3.47 8.38,3.47l0 0.01 1.04 -0.01 0.39 0 0.03 0.4c0.3,4.65 2.18,8.89 5.1,12.17 2.95,3.31 6.97,5.65 11.51,6.48l0.62 0.12 -0.33 0.53c-0.77,1.22 -1.61,2.4 -2.53,3.55zm-44.7 -59.81l0 6.53 0 0.43 -0.01 0c-0.11,4.14 -1.84,7.89 -4.58,10.63 -2.83,2.83 -6.74,4.58 -11.06,4.58l-6 0 -0.61 0 0.22 -0.57c0.97,-2.52 2.2,-4.94 3.68,-7.21 1.47,-2.26 3.19,-4.38 5.13,-6.32 1.83,-1.83 3.81,-3.46 5.92,-4.87 2.13,-1.42 4.37,-2.62 6.72,-3.59l0.59 -0.25 0 0.64zm51.87 25.94c0.75,2.98 1.16,6.06 1.19,9.2l0 0 0 0.43c0,2.83 -0.3,5.61 -0.88,8.31 -0.59,2.72 -1.47,5.36 -2.63,7.89l-0.12 0.27 -0.3 -0.03c-4.23,-0.34 -8.02,-2.3 -10.73,-5.26 -2.7,-2.93 -4.35,-6.83 -4.35,-11.12l0 -1c0,-0.54 -0.22,-1.02 -0.57,-1.37 -0.35,-0.35 -0.83,-0.57 -1.36,-0.57l-3.36 0c-2.2,0 -4.19,-0.89 -5.64,-2.34 -1.44,-1.44 -2.34,-3.44 -2.34,-5.64 0,-2.2 0.9,-4.19 2.34,-5.63 1.45,-1.45 3.44,-2.34 5.64,-2.34l19.21 0 0.25 0 0.12 0.22c1.55,2.83 2.73,5.85 3.53,8.98zm-61.18 27.49c0.84,0.84 1.37,2.01 1.37,3.3 0,1.29 -0.53,2.46 -1.37,3.31 -0.85,0.85 -2.02,1.37 -3.31,1.37 -1.29,0 -2.46,-0.52 -3.31,-1.37 -0.85,-0.85 -1.37,-2.02 -1.37,-3.31 0,-1.29 0.52,-2.46 1.37,-3.3 0.85,-0.85 2.02,-1.37 3.31,-1.37 1.29,0 2.46,0.52 3.31,1.37zm2.73 -2.6c-1.55,-1.57 -3.69,-2.55 -6.04,-2.55 -2.36,0 -4.5,0.98 -6.04,2.55 -1.55,1.57 -2.51,3.74 -2.51,6.13 0,2.4 0.96,4.57 2.51,6.14 1.54,1.57 3.68,2.54 6.04,2.54 2.35,0 4.49,-0.97 6.04,-2.54 1.55,-1.57 2.51,-3.74 2.51,-6.14 0,-2.39 -0.96,-4.56 -2.51,-6.13z"/>
  </g>
 </g>
</svg>
