<?xml version="1.0" encoding="UTF-8"?>
<!DOCTYPE svg PUBLIC "-//W3C//DTD SVG 1.1//EN" "http://www.w3.org/Graphics/SVG/1.1/DTD/svg11.dtd">
<!-- Creator: CorelDRAW -->
<svg xmlns="http://www.w3.org/2000/svg" xml:space="preserve" width="128px" height="128px" version="1.1" style="shape-rendering:geometricPrecision; text-rendering:geometricPrecision; image-rendering:optimizeQuality; fill-rule:evenodd; clip-rule:evenodd"
viewBox="0 0 127.88 127.88"
 xmlns:xlink="http://www.w3.org/1999/xlink"
 xmlns:xodm="http://www.corel.com/coreldraw/odm/2003">
 <defs>
  <style type="text/css">
   <![CDATA[
    .fil2 {fill:#784C31}
    .fil0 {fill:url(#id0)}
    .fil1 {fill:url(#id1);fill-rule:nonzero}
   ]]>
  </style>
  <linearGradient id="id0" gradientUnits="userSpaceOnUse" x1="63.94" y1="127.88" x2="63.94" y2="0">
   <stop offset="0" style="stop-opacity:1; stop-color:#EA7737"/>
   <stop offset="1" style="stop-opacity:1; stop-color:#F4A832"/>
  </linearGradient>
  <linearGradient id="id1" gradientUnits="userSpaceOnUse" x1="63.91" y1="102.97" x2="63.91" y2="55.9">
   <stop offset="0" style="stop-opacity:1; stop-color:#FEEBD2"/>
   <stop offset="1" style="stop-opacity:1; stop-color:white"/>
  </linearGradient>
 </defs>
 <g id="Layer_x0020_1">
  <metadata id="CorelCorpID_0Corel-Layer"/>
  <rect class="fil0" width="127.88" height="127.88" rx="16.58" ry="17.05"/>
  <g>
   <path class="fil1" d="M74.64 65.9c-2.9,-2.74 -6.74,-4.27 -10.72,-4.27 -3.99,0 -7.83,1.53 -10.72,4.27l-12.93 12.23c-7.41,6.73 -2.07,19.61 7.94,19.11 5.43,-0.15 9.83,-2.93 15.69,-2.82 6.08,-0.11 10.59,2.34 16.04,2.82 9.84,0.22 14.92,-12.51 7.61,-19.11l-12.91 -12.23zm22.26 -17.98c-5.06,-0.99 -8.92,4.64 -9.93,9.48 -3.02,14.99 11.52,17.85 14.92,3.31 1.39,-6.23 -0.81,-11.86 -4.99,-12.79zm-21.43 8.1c5.03,0 9.12,-5.71 9.12,-12.73 -0.5,-16.88 -17.73,-16.88 -18.22,0 0,7.02 4.09,12.73 9.1,12.73zm-34.61 1.38c-0.99,-4.84 -4.87,-10.47 -9.92,-9.47 -9.37,2.36 -5.4,22.33 3.76,22.39 5.18,-0.17 7.58,-6.2 6.16,-12.92zm11.5 -1.38c5.02,0 9.11,-5.71 9.11,-12.73 -0.49,-16.88 -17.72,-16.88 -18.22,0 0,7.02 4.09,12.73 9.11,12.73z"/>
   <path id="_1" class="fil2" d="M74.64 65.9c-2.9,-2.74 -6.74,-4.27 -10.72,-4.27 -3.99,0 -7.83,1.53 -10.72,4.27l-12.93 12.23c-7.41,6.73 -2.07,19.61 7.94,19.11 5.43,-0.15 9.83,-2.93 15.69,-2.82 6.08,-0.11 10.59,2.34 16.04,2.82 9.84,0.22 14.92,-12.51 7.61,-19.11l-12.91 -12.23zm22.26 -17.98c-5.06,-0.99 -8.92,4.64 -9.93,9.48 -3.02,14.99 11.52,17.85 14.92,3.31 1.39,-6.23 -0.81,-11.86 -4.99,-12.79zm-21.43 8.1c5.03,0 9.12,-5.71 9.12,-12.73 -0.5,-16.88 -17.73,-16.88 -18.22,0 0,7.02 4.09,12.73 9.1,12.73zm-34.61 1.38c-0.99,-4.84 -4.87,-10.47 -9.92,-9.47 -9.37,2.36 -5.4,22.33 3.76,22.39 5.18,-0.17 7.58,-6.2 6.16,-12.92zm11.5 -1.38c5.02,0 9.11,-5.71 9.11,-12.73 -0.49,-16.88 -17.72,-16.88 -18.22,0 0,7.02 4.09,12.73 9.11,12.73zm17.48 6.32c1.87,0.74 3.6,1.84 5.09,3.25l0 0 12.92 12.23 0 0c2.56,2.32 3.65,5.37 3.59,8.37 -0.04,1.44 -0.34,2.87 -0.87,4.21 -0.53,1.33 -1.29,2.57 -2.26,3.64 -2.02,2.24 -4.91,3.7 -8.37,3.62l-0.03 0c-2.36,-0.21 -4.55,-0.78 -6.75,-1.35 -2.9,-0.76 -5.83,-1.53 -9.25,-1.47l-0.01 0c-3.05,-0.05 -5.72,0.69 -8.35,1.43 -2.37,0.66 -4.72,1.32 -7.32,1.39l0 0c-3.59,0.18 -6.61,-1.3 -8.7,-3.6 -0.93,-1.02 -1.68,-2.22 -2.21,-3.5 -0.54,-1.28 -0.85,-2.65 -0.92,-4.04 -0.16,-3.11 0.92,-6.29 3.58,-8.71l0 0 12.93 -12.22 0 0c1.48,-1.41 3.21,-2.51 5.08,-3.25 1.87,-0.75 3.88,-1.14 5.93,-1.14 2.04,0 4.05,0.39 5.92,1.14zm20.8 -12.7c1.74,-1.66 3.9,-2.61 6.34,-2.13l0.01 0 0.01 0 0 0c2.23,0.5 3.93,2.23 4.88,4.66 0.92,2.37 1.13,5.41 0.43,8.61l-0.01 0.02 0 0.01c-1.26,5.37 -4.02,8.45 -6.9,9.48 -1.18,0.41 -2.37,0.49 -3.5,0.25 -1.12,-0.24 -2.18,-0.81 -3.07,-1.68 -2.17,-2.11 -3.38,-6.05 -2.27,-11.54l0 -0.01c0.56,-2.73 2.02,-5.7 4.08,-7.67zm-8.38 2.9c-1.73,2.41 -4.13,3.91 -6.79,3.91 -2.65,0 -5.05,-1.5 -6.78,-3.91 -1.7,-2.38 -2.75,-5.65 -2.75,-9.25l0 -0.01c0.18,-6.15 2.54,-10.13 5.54,-11.94 1.26,-0.76 2.62,-1.14 3.99,-1.14 1.37,0 2.73,0.38 3.99,1.14 3,1.8 5.37,5.79 5.55,11.94l0.01 0.01c0,3.6 -1.06,6.87 -2.76,9.25zm-45.05 -2.9c2.06,1.97 3.51,4.94 4.07,7.67l0 0c0.23,1.11 0.37,2.21 0.4,3.26 0.08,2.51 -0.39,4.79 -1.35,6.55 -0.99,1.81 -2.49,3.07 -4.45,3.48 -0.37,0.08 -0.76,0.13 -1.17,0.14l-0.02 0c-3.21,-0.02 -5.81,-2.32 -7.48,-5.49 -0.94,-1.79 -1.59,-3.86 -1.88,-5.94 -0.29,-2.08 -0.23,-4.17 0.24,-6.02 0.73,-2.82 2.41,-5.06 5.26,-5.78l0.03 0c2.43,-0.48 4.61,0.47 6.35,2.13zm21.93 2.9c-1.72,2.41 -4.12,3.91 -6.78,3.91 -2.66,0 -5.06,-1.5 -6.79,-3.91 -1.7,-2.38 -2.75,-5.65 -2.75,-9.25l0 -0.01c0.18,-6.15 2.55,-10.14 5.56,-11.94 1.25,-0.76 2.62,-1.14 3.98,-1.14 1.37,0 2.74,0.38 3.99,1.14 3,1.81 5.37,5.79 5.54,11.94l0.01 0.01c0,3.6 -1.06,6.87 -2.76,9.25z"/>
  </g>
 </g>
</svg>
