<?xml version="1.0" encoding="UTF-8"?>
<!DOCTYPE svg PUBLIC "-//W3C//DTD SVG 1.1//EN" "http://www.w3.org/Graphics/SVG/1.1/DTD/svg11.dtd">
<!-- Creator: CorelDRAW -->
<svg xmlns="http://www.w3.org/2000/svg" xml:space="preserve" width="128px" height="128px" version="1.1" style="shape-rendering:geometricPrecision; text-rendering:geometricPrecision; image-rendering:optimizeQuality; fill-rule:evenodd; clip-rule:evenodd"
viewBox="0 0 127.88 127.88"
 xmlns:xlink="http://www.w3.org/1999/xlink"
 xmlns:xodm="http://www.corel.com/coreldraw/odm/2003">
 <defs>
  <style type="text/css">
   <![CDATA[
    .fil2 {fill:#283752}
    .fil0 {fill:url(#id0)}
    .fil1 {fill:url(#id1);fill-rule:nonzero}
   ]]>
  </style>
  <linearGradient id="id0" gradientUnits="userSpaceOnUse" x1="63.94" y1="127.88" x2="63.94" y2="0">
   <stop offset="0" style="stop-opacity:1; stop-color:#3D4895"/>
   <stop offset="1" style="stop-opacity:1; stop-color:#733F8F"/>
  </linearGradient>
  <linearGradient id="id1" gradientUnits="userSpaceOnUse" x1="63.94" y1="96.78" x2="63.94" y2="31.1">
   <stop offset="0" style="stop-opacity:1; stop-color:#BDCEE8"/>
   <stop offset="1" style="stop-opacity:1; stop-color:#FEFEFE"/>
  </linearGradient>
 </defs>
 <g id="Layer_x0020_1">
  <metadata id="CorelCorpID_0Corel-Layer"/>
  <rect class="fil0" width="127.88" height="127.88" rx="16.58" ry="17.05"/>
  <polygon class="fil1" points="28.22,93.26 46.94,93.26 46.94,64.1 99.66,96.78 99.66,34.62 80.94,34.62 80.94,63.78 28.22,31.1 "/>
  <g>
   <path id="_1" class="fil2" d="M28.22 93.26l18.72 0 0 -29.16 52.72 32.68 0 -62.16 -18.72 0 0 29.16 -52.72 -32.68 0 62.16zm18.72 0.43l-18.72 0 -0.43 0 0 -0.43 0 -62.16 0 -0.77 0.65 0.41 52.08 32.28 0 -28.4 0 -0.43 0.42 0 18.72 0 0.43 0 0 0.43 0 62.16 0 0.77 -0.65 -0.41 -52.08 -32.28 0 28.4 0 0.43 -0.42 0z"/>
  </g>
 </g>
</svg>
