<?xml version="1.0" encoding="UTF-8"?>
<!DOCTYPE svg PUBLIC "-//W3C//DTD SVG 1.1//EN" "http://www.w3.org/Graphics/SVG/1.1/DTD/svg11.dtd">
<!-- Creator: CorelDRAW -->
<svg xmlns="http://www.w3.org/2000/svg" xml:space="preserve" width="128px" height="128px" version="1.1" style="shape-rendering:geometricPrecision; text-rendering:geometricPrecision; image-rendering:optimizeQuality; fill-rule:evenodd; clip-rule:evenodd"
viewBox="0 0 127.88 127.88"
 xmlns:xlink="http://www.w3.org/1999/xlink"
 xmlns:xodm="http://www.corel.com/coreldraw/odm/2003">
 <defs>
  <style type="text/css">
   <![CDATA[
    .fil2 {fill:#6D2B2C}
    .fil0 {fill:url(#id0)}
    .fil1 {fill:url(#id1);fill-rule:nonzero}
   ]]>
  </style>
  <linearGradient id="id0" gradientUnits="userSpaceOnUse" x1="63.94" y1="127.88" x2="63.94" y2="0">
   <stop offset="0" style="stop-opacity:1; stop-color:#AF3437"/>
   <stop offset="1" style="stop-opacity:1; stop-color:#EA6B51"/>
  </linearGradient>
  <linearGradient id="id1" gradientUnits="userSpaceOnUse" x1="63.94" y1="98.15" x2="63.94" y2="29.73">
   <stop offset="0" style="stop-opacity:1; stop-color:#F9D0CC"/>
   <stop offset="1" style="stop-opacity:1; stop-color:#FEFEFE"/>
  </linearGradient>
 </defs>
 <g id="Layer_x0020_1">
  <metadata id="CorelCorpID_0Corel-Layer"/>
  <rect class="fil0" width="127.88" height="127.88" rx="16.58" ry="17.05"/>
  <path class="fil1" d="M106.17 82.82c-4.91,0.08 -9.51,0.16 -13.88,0 9.36,-4.84 13.88,-12.66 13.88,-22.2 0,-17.44 -16.77,-30.89 -42.19,-30.89 -25.51,0 -42.27,13.14 -42.27,31.75 0,15.64 12.16,26.82 34.08,32.45 14.27,3.67 31.12,4.22 47.57,4.22l2.81 0 0 -15.33zm-40.32 -4.14c-14.51,0 -24.65,-7.51 -24.65,-17.2 0,-9.7 10.14,-15.72 22.78,-15.72 12.87,0 22.69,6.02 22.69,16.19 0,10.24 -9.75,16.73 -20.82,16.73z"/>
  <g>
   <path id="_1" class="fil2" d="M105.85 82.4l0.32 0 0.43 -0.01 0 0.43 0 15.33 0 0.43 -0.43 0 -2.81 0c-8.23,0 -16.56,-0.14 -24.63,-0.74 -8.07,-0.6 -15.88,-1.66 -23.05,-3.5 -11.1,-2.85 -19.72,-7.13 -25.56,-12.68 -5.79,-5.52 -8.84,-12.29 -8.84,-20.18 0,-9.52 4.32,-17.62 11.9,-23.32 7.45,-5.59 18.04,-8.86 30.8,-8.86 12.6,0 23.1,3.29 30.52,8.72 7.7,5.64 12.1,13.59 12.1,22.6 0,4.92 -1.19,9.39 -3.6,13.25 -2.11,3.37 -5.14,6.26 -9.14,8.57 3.81,0.09 7.79,0.03 11.99,-0.04zm0.32 0.42c-4.91,0.08 -9.51,0.16 -13.88,0 9.36,-4.84 13.88,-12.66 13.88,-22.2 0,-17.44 -16.77,-30.89 -42.19,-30.89 -25.51,0 -42.27,13.14 -42.27,31.75 0,15.64 12.16,26.82 34.08,32.45 14.27,3.67 31.12,4.22 47.57,4.22l2.81 0 0 -15.33zm-40.32 -4.14c-14.51,0 -24.65,-7.51 -24.65,-17.2 0,-9.7 10.14,-15.72 22.78,-15.72 12.87,0 22.69,6.02 22.69,16.19 0,10.24 -9.75,16.73 -20.82,16.73zm-17.38 -5.21c4.27,2.98 10.29,4.78 17.38,4.78 5.64,0 10.92,-1.7 14.69,-4.74 3.5,-2.81 5.71,-6.76 5.71,-11.56 0,-4.81 -2.27,-8.66 -6.04,-11.35 -4.01,-2.86 -9.72,-4.41 -16.23,-4.41 -6.4,0 -12.14,1.55 -16.21,4.36 -3.81,2.63 -6.14,6.36 -6.14,10.93 0,4.75 2.52,8.97 6.84,11.99z"/>
  </g>
 </g>
</svg>
