<?xml version="1.0" encoding="UTF-8"?>
<!DOCTYPE svg PUBLIC "-//W3C//DTD SVG 1.1//EN" "http://www.w3.org/Graphics/SVG/1.1/DTD/svg11.dtd">
<!-- Creator: CorelDRAW -->
<svg xmlns="http://www.w3.org/2000/svg" xml:space="preserve" width="128px" height="128px" version="1.1" style="shape-rendering:geometricPrecision; text-rendering:geometricPrecision; image-rendering:optimizeQuality; fill-rule:evenodd; clip-rule:evenodd"
viewBox="0 0 127.88 127.88"
 xmlns:xlink="http://www.w3.org/1999/xlink"
 xmlns:xodm="http://www.corel.com/coreldraw/odm/2003">
 <defs>
  <style type="text/css">
   <![CDATA[
    .fil2 {fill:#6D2B2C}
    .fil1 {fill:url(#id0)}
    .fil0 {fill:url(#id1)}
   ]]>
  </style>
  <linearGradient id="id0" gradientUnits="userSpaceOnUse" x1="63.94" y1="82.93" x2="63.94" y2="44.95">
   <stop offset="0" style="stop-opacity:1; stop-color:#FBD9C9"/>
   <stop offset="1" style="stop-opacity:1; stop-color:#FEFEFE"/>
  </linearGradient>
  <linearGradient id="id1" gradientUnits="userSpaceOnUse" x1="63.94" y1="127.88" x2="63.94" y2="0">
   <stop offset="0" style="stop-opacity:1; stop-color:#AE3335"/>
   <stop offset="1" style="stop-opacity:1; stop-color:#E13338"/>
  </linearGradient>
 </defs>
 <g id="Layer_x0020_1">
  <metadata id="CorelCorpID_0Corel-Layer"/>
  <rect class="fil0" width="127.88" height="127.88" rx="16.58" ry="17.05"/>
  <g>
   <path class="fil1" d="M17.05 44.95l93.78 0 0 37.98 -93.78 0 0 -37.98zm32.63 14.2c0,1.92 -0.49,3.63 -1.46,5.12 -0.98,1.5 -2.37,2.65 -4.17,3.47 -1.8,0.82 -3.91,1.22 -6.3,1.22l-2.58 0 0 9.05 -8.49 0 0 -28.14 11.54 0c3.96,0 6.86,0.75 8.7,2.26 1.84,1.5 2.76,3.84 2.76,7.02zm-8.97 0.29c0,-1.16 -0.33,-2.03 -1,-2.62 -0.67,-0.58 -1.64,-0.88 -2.94,-0.88l-1.6 0 0 6.95 1.9 0c2.43,0 3.64,-1.15 3.64,-3.45zm38.87 4.14c0,2.86 -0.6,5.38 -1.8,7.57 -1.2,2.19 -2.91,3.88 -5.13,5.07 -2.23,1.19 -4.79,1.79 -7.69,1.79l-11.91 0 0 -28.14 11.65 0c9.92,0 14.88,4.57 14.88,13.71zm-9.01 0.08c0,-1.37 -0.27,-2.61 -0.83,-3.71 -0.56,-1.1 -1.35,-1.94 -2.38,-2.54 -1.04,-0.61 -2.26,-0.91 -3.66,-0.91l-2.17 0 0 14.88 2.37 0c2.03,0 3.65,-0.7 4.86,-2.09 1.21,-1.4 1.81,-3.27 1.81,-5.63zm21.46 -7.16l0 5.07 8.36 0 0 6.63 -8.36 0 0 9.81 -8.48 0 0 -28.14 17.64 0 0 6.63 -9.16 0z"/>
   <path id="_1" class="fil2" d="M17.05 44.52l93.78 0 0.42 0 0 0.43 0 37.98 0 0.43 -0.42 0 -93.78 0 -0.43 0 0 -0.43 0 -37.98 0 -0.43 0.43 0zm0 0.43l93.78 0 0 37.98 -93.78 0 0 -37.98zm32.63 14.2c0,1.92 -0.49,3.63 -1.46,5.12 -0.98,1.5 -2.37,2.65 -4.17,3.47 -1.8,0.82 -3.91,1.22 -6.3,1.22l-2.58 0 0 9.05 -8.49 0 0 -28.14 11.54 0c3.96,0 6.86,0.75 8.7,2.26 1.84,1.5 2.76,3.84 2.76,7.02zm-8.97 0.29c0,-1.16 -0.33,-2.03 -1,-2.62 -0.67,-0.58 -1.64,-0.88 -2.94,-0.88l-1.6 0 0 6.95 1.9 0c2.43,0 3.64,-1.15 3.64,-3.45zm38.87 4.14c0,2.86 -0.6,5.38 -1.8,7.57 -1.2,2.19 -2.91,3.88 -5.13,5.07 -2.23,1.19 -4.79,1.79 -7.69,1.79l-11.91 0 0 -28.14 11.65 0c9.92,0 14.88,4.57 14.88,13.71zm-9.01 0.08c0,-1.37 -0.27,-2.61 -0.83,-3.71 -0.56,-1.1 -1.35,-1.94 -2.38,-2.54 -1.04,-0.61 -2.26,-0.91 -3.66,-0.91l-2.17 0 0 14.88 2.37 0c2.03,0 3.65,-0.7 4.86,-2.09 1.21,-1.4 1.81,-3.27 1.81,-5.63zm21.46 -7.16l0 5.07 8.36 0 0 6.63 -8.36 0 0 9.81 -8.48 0 0 -28.14 17.64 0 0 6.63 -9.16 0zm-43.13 5.25c0.23,-0.81 0.35,-1.68 0.35,-2.6 0,-1.54 -0.22,-2.87 -0.66,-3.99 -0.43,-1.1 -1.08,-2 -1.94,-2.7 -0.87,-0.72 -2,-1.25 -3.39,-1.61 -1.41,-0.37 -3.09,-0.55 -5.04,-0.55l-11.11 0 0 27.28 7.63 0 0 -8.62 0 -0.42 0.43 0 2.58 0c1.17,0 2.27,-0.1 3.29,-0.3 1.02,-0.2 1.96,-0.5 2.83,-0.89 0.87,-0.39 1.64,-0.87 2.31,-1.42 0.66,-0.55 1.22,-1.18 1.68,-1.89 0.46,-0.71 0.81,-1.47 1.04,-2.29zm-8.04 -3.98c0.19,0.48 0.28,1.04 0.28,1.67 0,2.59 -1.36,3.88 -4.07,3.88l-1.9 0 -0.43 0 0 -0.43 0 -6.95 0 -0.43 0.43 0 1.6 0c0.69,0 1.3,0.08 1.83,0.24 0.55,0.17 1.02,0.42 1.4,0.75l0 0.01c0.38,0.34 0.67,0.76 0.86,1.26zm37.85 9.75c0.29,-1.23 0.44,-2.54 0.44,-3.94 0,-4.44 -1.19,-7.77 -3.58,-9.97 -2.4,-2.21 -6.02,-3.31 -10.87,-3.31l-11.23 0 0 27.28 11.49 0c1.42,0 2.75,-0.14 4,-0.43l0 0c1.25,-0.29 2.41,-0.73 3.49,-1.31 1.07,-0.57 2.02,-1.26 2.85,-2.08 0.82,-0.82 1.53,-1.76 2.11,-2.82 0.58,-1.05 1.01,-2.2 1.3,-3.42zm-7.93 -5.91c0.14,0.65 0.22,1.34 0.22,2.05 0,1.22 -0.16,2.32 -0.48,3.31 -0.32,0.99 -0.8,1.86 -1.44,2.59l0 0c-0.65,0.75 -1.41,1.31 -2.27,1.68 -0.87,0.38 -1.84,0.56 -2.91,0.56l-2.37 0 -0.43 0 0 -0.42 0 -14.88 0 -0.42 0.43 0 2.17 0c0.74,0 1.43,0.08 2.07,0.24 0.65,0.16 1.25,0.4 1.8,0.72 0.55,0.32 1.04,0.71 1.47,1.16 0.42,0.46 0.78,0.98 1.08,1.56 0.29,0.58 0.51,1.2 0.66,1.85zm20.82 -0.04l0 -5.07 0 -0.42 0.43 0 8.74 0 0 -5.78 -16.8 0 0 27.28 7.63 0 0 -9.38 0 -0.43 0.43 0 7.93 0 0 -5.78 -7.93 0 -0.43 0 0 -0.42z"/>
  </g>
 </g>
</svg>
