<?xml version="1.0" encoding="UTF-8"?>
<!DOCTYPE svg PUBLIC "-//W3C//DTD SVG 1.1//EN" "http://www.w3.org/Graphics/SVG/1.1/DTD/svg11.dtd">
<!-- Creator: CorelDRAW -->
<svg xmlns="http://www.w3.org/2000/svg" xml:space="preserve" width="128px" height="128px" version="1.1" style="shape-rendering:geometricPrecision; text-rendering:geometricPrecision; image-rendering:optimizeQuality; fill-rule:evenodd; clip-rule:evenodd"
viewBox="0 0 127.88 127.88"
 xmlns:xlink="http://www.w3.org/1999/xlink"
 xmlns:xodm="http://www.corel.com/coreldraw/odm/2003">
 <defs>
  <style type="text/css">
   <![CDATA[
    .fil2 {fill:#165358}
    .fil0 {fill:url(#id0)}
    .fil1 {fill:url(#id1);fill-rule:nonzero}
   ]]>
  </style>
  <linearGradient id="id0" gradientUnits="userSpaceOnUse" x1="63.94" y1="127.88" x2="63.94" y2="0">
   <stop offset="0" style="stop-opacity:1; stop-color:#00656C"/>
   <stop offset="1" style="stop-opacity:1; stop-color:#0BACB6"/>
  </linearGradient>
  <linearGradient id="id1" gradientUnits="userSpaceOnUse" x1="63.94" y1="95.22" x2="63.94" y2="32.66">
   <stop offset="0" style="stop-opacity:1; stop-color:#CAE7E8"/>
   <stop offset="1" style="stop-opacity:1; stop-color:#FEFEFE"/>
  </linearGradient>
 </defs>
 <g id="Layer_x0020_1">
  <metadata id="CorelCorpID_0Corel-Layer"/>
  <rect class="fil0" width="127.88" height="127.88" rx="16.58" ry="17.05"/>
  <path class="fil1" d="M27.63 87.24c7.96,3.75 19.58,7.98 37.44,7.98 20.51,0 35.17,-6.73 35.17,-20.49 0,-14.78 -18.09,-17.98 -41.49,-19.31 -6.55,-0.4 -10.21,-0.94 -10.21,-3.13 0,-3.05 7.25,-3.99 14.97,-3.99 10.14,0 19.73,2.03 26.21,4.69l6.16 -14.31c-7.96,-3.44 -18.96,-6.02 -31.2,-6.02 -18.64,0 -34.86,5.55 -34.86,20.57 0,12.82 12.4,17.36 39.23,19.08 7.25,0.47 12.48,0.86 12.48,3.28 0,3.05 -8.27,3.99 -15.52,3.99 -13.5,0 -23.95,-3.05 -31.59,-6.65l-6.79 14.31z"/>
  <g>
   <path id="_1" class="fil2" d="M27.63 87.24c7.96,3.75 19.58,7.98 37.44,7.98 20.51,0 35.17,-6.73 35.17,-20.49 0,-14.78 -18.09,-17.98 -41.49,-19.31 -6.55,-0.4 -10.21,-0.94 -10.21,-3.13 0,-3.05 7.25,-3.99 14.97,-3.99 10.14,0 19.73,2.03 26.21,4.69l6.16 -14.31c-7.96,-3.44 -18.96,-6.02 -31.2,-6.02 -18.64,0 -34.86,5.55 -34.86,20.57 0,12.82 12.4,17.36 39.23,19.08 7.25,0.47 12.48,0.86 12.48,3.28 0,3.05 -8.27,3.99 -15.52,3.99 -13.5,0 -23.95,-3.05 -31.59,-6.65l-6.79 14.31zm14.91 5.81c-6.17,-1.53 -11.09,-3.54 -15.09,-5.42l-0.38 -0.19 0.18 -0.38 6.78 -14.31 0.19 -0.38 0.38 0.18c3.8,1.78 8.29,3.43 13.51,4.64 5.23,1.2 11.18,1.96 17.9,1.96 4.02,0 8.34,-0.29 11.37,-1.06 2.23,-0.58 3.72,-1.39 3.72,-2.5 0,-0.96 -1.18,-1.54 -3.18,-1.96 -2.18,-0.45 -5.29,-0.67 -8.9,-0.9 -13.46,-0.86 -23.32,-2.44 -29.82,-5.41 -6.63,-3.03 -9.81,-7.49 -9.81,-14.09 0,-7.11 3.55,-12.15 9.24,-15.51 6.55,-3.86 15.95,-5.49 26.05,-5.49 5.82,0 11.37,0.59 16.44,1.57 5.64,1.08 10.71,2.67 14.93,4.49l0.39 0.17 -0.17 0.39 -6.16 14.31 -0.17 0.38 -0.39 -0.16c-3.36,-1.38 -7.58,-2.59 -12.28,-3.43 -4.27,-0.77 -8.95,-1.22 -13.76,-1.22 -4.2,0 -8.24,0.27 -11.04,1.02 -2.14,0.57 -3.51,1.39 -3.51,2.54 0,0.86 0.81,1.42 2.34,1.83 1.7,0.45 4.23,0.68 7.48,0.87l0 0c11.73,0.67 22.15,1.81 29.64,4.64 7.62,2.88 12.25,7.5 12.25,15.1 0,6.81 -3.49,11.93 -9.46,15.41 -6.33,3.68 -15.45,5.5 -26.14,5.5 -8.97,0 -16.37,-1.06 -22.53,-2.59z"/>
  </g>
 </g>
</svg>
