<?xml version="1.0" encoding="UTF-8"?>
<!DOCTYPE svg PUBLIC "-//W3C//DTD SVG 1.1//EN" "http://www.w3.org/Graphics/SVG/1.1/DTD/svg11.dtd">
<!-- Creator: CorelDRAW -->
<svg xmlns="http://www.w3.org/2000/svg" xml:space="preserve" width="128px" height="128px" version="1.1" style="shape-rendering:geometricPrecision; text-rendering:geometricPrecision; image-rendering:optimizeQuality; fill-rule:evenodd; clip-rule:evenodd"
viewBox="0 0 127.88 127.88"
 xmlns:xlink="http://www.w3.org/1999/xlink"
 xmlns:xodm="http://www.corel.com/coreldraw/odm/2003">
 <defs>
  <style type="text/css">
   <![CDATA[
    .fil2 {fill:#283752}
    .fil0 {fill:url(#id0)}
    .fil1 {fill:url(#id1);fill-rule:nonzero}
   ]]>
  </style>
  <linearGradient id="id0" gradientUnits="userSpaceOnUse" x1="63.94" y1="127.88" x2="63.94" y2="0">
   <stop offset="0" style="stop-opacity:1; stop-color:#2D4469"/>
   <stop offset="1" style="stop-opacity:1; stop-color:#0C71B5"/>
  </linearGradient>
  <linearGradient id="id1" gradientUnits="userSpaceOnUse" x1="63.94" y1="96.98" x2="63.94" y2="30.9">
   <stop offset="0" style="stop-opacity:1; stop-color:#BDCEE8"/>
   <stop offset="1" style="stop-opacity:1; stop-color:#FEFEFE"/>
  </linearGradient>
 </defs>
 <g id="Layer_x0020_1">
  <metadata id="CorelCorpID_0Corel-Layer"/>
  <rect class="fil0" width="127.88" height="127.88" rx="16.58" ry="17.05"/>
  <polygon class="fil1" points="63.94,96.98 107.3,41.15 93.11,30.9 63.94,69.69 34.77,30.9 20.58,41.15 "/>
  <g>
   <path id="_1" class="fil2" d="M63.94 96.98l43.36 -55.83 -14.19 -10.25 -29.17 38.79 -29.17 -38.79 -14.19 10.25 43.36 55.83zm43.7 -55.57l-43.36 55.83 -0.34 0.43 -0.34 -0.43 -43.36 -55.83 -0.27 -0.35 0.36 -0.26 14.19 -10.24 0.34 -0.25 0.25 0.34 28.83 38.33 28.83 -38.33 0.25 -0.34 0.34 0.25 14.19 10.24 0.36 0.26 -0.27 0.35z"/>
  </g>
 </g>
</svg>
