<?xml version="1.0" encoding="UTF-8"?>
<!DOCTYPE svg PUBLIC "-//W3C//DTD SVG 1.1//EN" "http://www.w3.org/Graphics/SVG/1.1/DTD/svg11.dtd">
<!-- Creator: CorelDRAW -->
<svg xmlns="http://www.w3.org/2000/svg" xml:space="preserve" width="128px" height="128px" version="1.1" style="shape-rendering:geometricPrecision; text-rendering:geometricPrecision; image-rendering:optimizeQuality; fill-rule:evenodd; clip-rule:evenodd"
viewBox="0 0 127.88 127.88"
 xmlns:xlink="http://www.w3.org/1999/xlink"
 xmlns:xodm="http://www.corel.com/coreldraw/odm/2003">
 <defs>
  <style type="text/css">
   <![CDATA[
    .fil2 {fill:#784C31}
    .fil0 {fill:url(#id0)}
    .fil1 {fill:url(#id1);fill-rule:nonzero}
   ]]>
  </style>
  <linearGradient id="id0" gradientUnits="userSpaceOnUse" x1="63.94" y1="127.88" x2="63.94" y2="0">
   <stop offset="0" style="stop-opacity:1; stop-color:#EA7737"/>
   <stop offset="1" style="stop-opacity:1; stop-color:#F4A832"/>
  </linearGradient>
  <linearGradient id="id1" gradientUnits="userSpaceOnUse" x1="63.94" y1="106.57" x2="63.94" y2="21.31">
   <stop offset="0" style="stop-opacity:1; stop-color:#FEEBD2"/>
   <stop offset="1" style="stop-opacity:1; stop-color:white"/>
  </linearGradient>
 </defs>
 <g id="Layer_x0020_1">
  <metadata id="CorelCorpID_0Corel-Layer"/>
  <rect class="fil0" width="127.88" height="127.88" rx="16.58" ry="17.05"/>
  <g>
   <path class="fil1" d="M60.39 85.25c0,1.96 1.59,3.55 3.55,3.55 1.96,0 3.55,-1.59 3.55,-3.55l0 -42.62c0,-1.96 -1.59,-3.56 -3.55,-3.56 -1.96,0 -3.55,1.6 -3.55,3.56l0 42.62zm-35.52 -42.62c-1.97,0 -3.56,1.59 -3.56,3.55l0 35.52c0,1.96 1.59,3.55 3.56,3.55 1.96,0 3.55,-1.59 3.55,-3.55l0 -35.52c0,-1.96 -1.59,-3.55 -3.55,-3.55zm30.19 35.52l0 -28.42c0,-1.96 -1.59,-3.55 -3.55,-3.55 -1.96,0 -3.56,1.59 -3.56,3.55l0 28.42c0,1.96 1.6,3.55 3.56,3.55 1.96,0 3.55,-1.59 3.55,-3.55zm-15.99 -3.55c1.96,0 3.56,-1.6 3.56,-3.56l0 -14.21c0,-1.96 -1.6,-3.55 -3.56,-3.55 -1.96,0 -3.55,1.59 -3.55,3.55l0 14.21c0,1.96 1.59,3.56 3.55,3.56zm40.85 3.55l0 -28.42c0,-1.96 -1.59,-3.55 -3.55,-3.55 -1.96,0 -3.55,1.59 -3.55,3.55l0 28.42c0,1.96 1.59,3.55 3.55,3.55 1.96,0 3.55,-1.59 3.55,-3.55zm23.09 -35.52c-1.96,0 -3.55,1.59 -3.55,3.55l0 35.52c0,1.96 1.59,3.55 3.55,3.55 1.96,0 3.56,-1.59 3.56,-3.55l0 -35.52c0,-1.96 -1.6,-3.55 -3.56,-3.55zm-14.21 10.65c-1.96,0 -3.55,1.59 -3.55,3.55l0 14.21c0,1.96 1.59,3.56 3.55,3.56 1.97,0 3.56,-1.6 3.56,-3.56l0 -14.21c0,-1.96 -1.59,-3.55 -3.56,-3.55zm-28.41 49.73c0,1.96 1.59,3.56 3.55,3.56 1.96,0 3.55,-1.6 3.55,-3.56l0 -3.55c0,-1.96 -1.59,-3.55 -3.55,-3.55 -1.96,0 -3.55,1.59 -3.55,3.55l0 3.55zm3.55 -71.04c1.96,0 3.55,-1.59 3.55,-3.55l0 -3.55c0,-1.97 -1.59,-3.56 -3.55,-3.56 -1.96,0 -3.55,1.59 -3.55,3.56l0 3.55c0,1.96 1.59,3.55 3.55,3.55z"/>
   <path id="_1" class="fil2" d="M60.39 85.25c0,1.96 1.59,3.55 3.55,3.55 1.96,0 3.55,-1.59 3.55,-3.55l0 -42.62c0,-1.96 -1.59,-3.56 -3.55,-3.56 -1.96,0 -3.55,1.6 -3.55,3.56l0 42.62zm-35.52 -42.62c-1.97,0 -3.56,1.59 -3.56,3.55l0 35.52c0,1.96 1.59,3.55 3.56,3.55 1.96,0 3.55,-1.59 3.55,-3.55l0 -35.52c0,-1.96 -1.59,-3.55 -3.55,-3.55zm30.19 35.52l0 -28.42c0,-1.96 -1.59,-3.55 -3.55,-3.55 -1.96,0 -3.56,1.59 -3.56,3.55l0 28.42c0,1.96 1.6,3.55 3.56,3.55 1.96,0 3.55,-1.59 3.55,-3.55zm-15.99 -3.55c1.96,0 3.56,-1.6 3.56,-3.56l0 -14.21c0,-1.96 -1.6,-3.55 -3.56,-3.55 -1.96,0 -3.55,1.59 -3.55,3.55l0 14.21c0,1.96 1.59,3.56 3.55,3.56zm40.85 3.55l0 -28.42c0,-1.96 -1.59,-3.55 -3.55,-3.55 -1.96,0 -3.55,1.59 -3.55,3.55l0 28.42c0,1.96 1.59,3.55 3.55,3.55 1.96,0 3.55,-1.59 3.55,-3.55zm23.09 -35.52c-1.96,0 -3.55,1.59 -3.55,3.55l0 35.52c0,1.96 1.59,3.55 3.55,3.55 1.96,0 3.56,-1.59 3.56,-3.55l0 -35.52c0,-1.96 -1.6,-3.55 -3.56,-3.55zm-14.21 10.65c-1.96,0 -3.55,1.59 -3.55,3.55l0 14.21c0,1.96 1.59,3.56 3.55,3.56 1.97,0 3.56,-1.6 3.56,-3.56l0 -14.21c0,-1.96 -1.59,-3.55 -3.56,-3.55zm-28.41 49.73c0,1.96 1.59,3.56 3.55,3.56 1.96,0 3.55,-1.6 3.55,-3.56l0 -3.55c0,-1.96 -1.59,-3.55 -3.55,-3.55 -1.96,0 -3.55,1.59 -3.55,3.55l0 3.55zm3.55 -71.04c1.96,0 3.55,-1.59 3.55,-3.55l0 -3.55c0,-1.97 -1.59,-3.56 -3.55,-3.56 -1.96,0 -3.55,1.59 -3.55,3.56l0 3.55c0,1.96 1.59,3.55 3.55,3.55zm-2.81 56.1c-0.72,-0.72 -1.17,-1.72 -1.17,-2.82l0 -42.62c0,-1.1 0.45,-2.1 1.17,-2.82 0.72,-0.72 1.71,-1.16 2.81,-1.16 1.1,0 2.09,0.44 2.81,1.16 0.72,0.72 1.17,1.72 1.17,2.82l0 42.62c0,1.1 -0.45,2.1 -1.17,2.82 -0.72,0.72 -1.71,1.16 -2.81,1.16 -1.1,0 -2.09,-0.44 -2.81,-1.16zm-39.08 -44.7c0.72,-0.72 1.72,-1.17 2.82,-1.17 1.09,0 2.09,0.45 2.81,1.17 0.72,0.72 1.16,1.71 1.16,2.81l0 35.52c0,1.1 -0.44,2.09 -1.16,2.81 -0.72,0.72 -1.72,1.17 -2.81,1.17 -1.1,0 -2.1,-0.45 -2.82,-1.17 -0.72,-0.72 -1.16,-1.71 -1.16,-2.81l0 -35.52c0,-1.1 0.44,-2.09 1.16,-2.81zm33.44 6.36l0 28.42c0,1.1 -0.45,2.09 -1.17,2.81 -0.72,0.72 -1.72,1.17 -2.81,1.17 -1.1,0 -2.1,-0.45 -2.82,-1.17 -0.72,-0.72 -1.16,-1.71 -1.16,-2.81l0 -28.42c0,-1.1 0.44,-2.09 1.16,-2.81 0.72,-0.72 1.72,-1.17 2.82,-1.17 1.09,0 2.09,0.45 2.81,1.17 0.72,0.72 1.17,1.71 1.17,2.81zm-13.6 24.13c-0.72,0.72 -1.72,1.16 -2.82,1.16 -1.09,0 -2.09,-0.44 -2.81,-1.16 -0.72,-0.72 -1.16,-1.72 -1.16,-2.82l0 -14.21c0,-1.09 0.44,-2.09 1.16,-2.81 0.72,-0.72 1.72,-1.16 2.81,-1.16 1.1,0 2.1,0.44 2.82,1.16 0.72,0.72 1.16,1.72 1.16,2.81l0 14.21c0,1.1 -0.44,2.1 -1.16,2.82zm38.46 -24.13l0 28.42c0,1.1 -0.45,2.09 -1.17,2.81 -0.72,0.72 -1.71,1.17 -2.81,1.17 -1.1,0 -2.09,-0.45 -2.81,-1.17 -0.72,-0.72 -1.17,-1.71 -1.17,-2.81l0 -28.42c0,-1.1 0.45,-2.09 1.17,-2.81 0.72,-0.72 1.71,-1.17 2.81,-1.17 1.1,0 2.09,0.45 2.81,1.17 0.72,0.72 1.17,1.71 1.17,2.81zm19.85 -6.36c0.72,-0.72 1.72,-1.17 2.81,-1.17 1.1,0 2.1,0.45 2.82,1.17 0.72,0.72 1.16,1.71 1.16,2.81l0 35.52c0,1.1 -0.44,2.09 -1.16,2.81 -0.72,0.72 -1.72,1.17 -2.82,1.17 -1.09,0 -2.09,-0.45 -2.81,-1.17 -0.72,-0.72 -1.17,-1.71 -1.17,-2.81l0 -35.52c0,-1.1 0.45,-2.09 1.17,-2.81zm-14.21 10.65c0.72,-0.72 1.72,-1.16 2.81,-1.16 1.1,0 2.1,0.44 2.82,1.16 0.72,0.72 1.16,1.72 1.16,2.81l0 14.21c0,1.1 -0.44,2.1 -1.16,2.82 -0.72,0.72 -1.72,1.16 -2.82,1.16 -1.09,0 -2.09,-0.44 -2.81,-1.16 -0.72,-0.72 -1.16,-1.72 -1.16,-2.82l0 -14.21c0,-1.09 0.44,-2.09 1.16,-2.81zm-24.86 51.81c-0.72,-0.72 -1.17,-1.72 -1.17,-2.82l0 -3.55c0,-1.1 0.45,-2.09 1.17,-2.81 0.72,-0.72 1.71,-1.17 2.81,-1.17 1.1,0 2.09,0.45 2.81,1.17 0.72,0.72 1.17,1.71 1.17,2.81l0 3.55c0,1.1 -0.45,2.1 -1.17,2.82 -0.72,0.72 -1.71,1.16 -2.81,1.16 -1.1,0 -2.09,-0.44 -2.81,-1.16zm5.62 -74.6c-0.72,0.72 -1.71,1.17 -2.81,1.17 -1.1,0 -2.09,-0.45 -2.81,-1.17 -0.72,-0.72 -1.17,-1.71 -1.17,-2.81l0 -3.55c0,-1.1 0.45,-2.1 1.17,-2.82 0.72,-0.72 1.71,-1.16 2.81,-1.16 1.1,0 2.09,0.44 2.81,1.16 0.72,0.72 1.17,1.72 1.17,2.82l0 3.55c0,1.1 -0.45,2.09 -1.17,2.81z"/>
  </g>
 </g>
</svg>
