<?xml version="1.0" encoding="UTF-8"?>
<!DOCTYPE svg PUBLIC "-//W3C//DTD SVG 1.1//EN" "http://www.w3.org/Graphics/SVG/1.1/DTD/svg11.dtd">
<!-- Creator: CorelDRAW -->
<svg xmlns="http://www.w3.org/2000/svg" xml:space="preserve" width="128px" height="128px" version="1.1" style="shape-rendering:geometricPrecision; text-rendering:geometricPrecision; image-rendering:optimizeQuality; fill-rule:evenodd; clip-rule:evenodd"
viewBox="0 0 127.88 127.88"
 xmlns:xlink="http://www.w3.org/1999/xlink"
 xmlns:xodm="http://www.corel.com/coreldraw/odm/2003">
 <defs>
  <style type="text/css">
   <![CDATA[
    .fil2 {fill:#46633C}
    .fil0 {fill:url(#id0)}
    .fil1 {fill:url(#id1);fill-rule:nonzero}
   ]]>
  </style>
  <linearGradient id="id0" gradientUnits="userSpaceOnUse" x1="63.94" y1="127.88" x2="63.94" y2="0">
   <stop offset="0" style="stop-opacity:1; stop-color:#274F35"/>
   <stop offset="1" style="stop-opacity:1; stop-color:#11A661"/>
  </linearGradient>
  <linearGradient id="id1" gradientUnits="userSpaceOnUse" x1="63.94" y1="96.19" x2="63.94" y2="31.68">
   <stop offset="0" style="stop-opacity:1; stop-color:#CBE5D6"/>
   <stop offset="1" style="stop-opacity:1; stop-color:#FEFEFE"/>
  </linearGradient>
 </defs>
 <g id="Layer_x0020_1">
  <metadata id="CorelCorpID_0Corel-Layer"/>
  <rect class="fil0" width="127.88" height="127.88" rx="16.58" ry="17.05"/>
  <polygon class="fil1" points="83.75,96.19 117.75,40.36 102.78,31.68 83.67,63.67 63.94,31.68 44.21,63.67 25.1,31.68 10.12,40.36 44.13,96.19 63.94,64.13 "/>
  <g>
   <path id="_1" class="fil2" d="M83.75 96.19l34 -55.83 -14.97 -8.68 -19.11 31.99 -19.73 -31.99 -19.73 31.99 -19.11 -31.99 -14.98 8.68 34.01 55.83 19.81 -32.06 19.81 32.06zm34.37 -55.61l-34.01 55.84 -0.36 0.59 -0.36 -0.59 -19.45 -31.48 -19.45 31.48 -0.36 0.59 -0.36 -0.59 -34.01 -55.84 -0.22 -0.37 0.37 -0.21 14.98 -8.68 0.36 -0.21 0.21 0.36 18.75 31.38 19.37 -31.39 0.36 -0.58 0.36 0.58 19.37 31.39 18.74 -31.38 0.22 -0.36 0.36 0.21 14.98 8.68 0.37 0.21 -0.22 0.37z"/>
  </g>
 </g>
</svg>
