<?xml version="1.0" encoding="UTF-8"?>
<!DOCTYPE svg PUBLIC "-//W3C//DTD SVG 1.1//EN" "http://www.w3.org/Graphics/SVG/1.1/DTD/svg11.dtd">
<!-- Creator: CorelDRAW -->
<svg xmlns="http://www.w3.org/2000/svg" xml:space="preserve" width="149.979mm" height="150.014mm" version="1.1" style="shape-rendering:geometricPrecision; text-rendering:geometricPrecision; image-rendering:optimizeQuality; fill-rule:evenodd; clip-rule:evenodd"
viewBox="0 0 14981.64 14985.05"
 xmlns:xlink="http://www.w3.org/1999/xlink"
 xmlns:xodm="http://www.corel.com/coreldraw/odm/2003">
 <defs>
  <style type="text/css">
   <![CDATA[
    .fil0 {fill:#0E5C2F}
    .fil1 {fill:#217346}
    .fil2 {fill:url(#id0);fill-rule:nonzero}
   ]]>
  </style>
  <linearGradient id="id0" gradientUnits="userSpaceOnUse" x1="3735.94" y1="7493.21" x2="11247.74" y2="7493.21">
   <stop offset="0" style="stop-opacity:1; stop-color:#C8EFD4"/>
   <stop offset="1" style="stop-opacity:1; stop-color:#FEFEFE"/>
  </linearGradient>
 </defs>
 <g id="Layer_x0020_1">
  <metadata id="CorelCorpID_0Corel-Layer"/>
  <path class="fil0" d="M1997.83 1.36l6958.01 0 0 14983.7 -6958.01 0c-1098.8,0 -1997.83,-899.02 -1997.83,-1997.83l0 -10988.04c0,-1098.8 899.02,-1997.83 1997.83,-1997.83z"/>
  <path class="fil1" d="M7491.85 0l5491.96 0c1098.8,0 1997.83,899.02 1997.83,1997.83l0 10988.04c0,1098.8 -899.02,1997.83 -1997.83,1997.83l-5491.96 0 0 -14983.7z"/>
  <polygon class="fil2" points="11238.59,9096.61 5929.17,9096.61 5929.17,8317.82 10169.39,8317.82 10169.39,6668.61 5929.17,6668.61 5929.17,5889.82 11247.74,5889.82 11247.74,4057.36 3735.94,4057.36 3735.94,10929.06 11238.59,10929.06 "/>
 </g>
</svg>
