<?xml version="1.0" encoding="UTF-8"?>
<!DOCTYPE svg PUBLIC "-//W3C//DTD SVG 1.1//EN" "http://www.w3.org/Graphics/SVG/1.1/DTD/svg11.dtd">
<!-- Creator: CorelDRAW -->
<svg xmlns="http://www.w3.org/2000/svg" xml:space="preserve" width="64px" height="64px" version="1.1" style="shape-rendering:geometricPrecision; text-rendering:geometricPrecision; image-rendering:optimizeQuality; fill-rule:evenodd; clip-rule:evenodd"
viewBox="0 0 63.94 63.94"
 xmlns:xlink="http://www.w3.org/1999/xlink"
 xmlns:xodm="http://www.corel.com/coreldraw/odm/2003">
 <defs>
  <style type="text/css">
   <![CDATA[
    .fil2 {fill:#300B48}
    .fil0 {fill:url(#id0)}
    .fil1 {fill:url(#id1);fill-rule:nonzero}
   ]]>
  </style>
  <linearGradient id="id0" gradientUnits="userSpaceOnUse" x1="31.97" y1="63.94" x2="31.97" y2="0">
   <stop offset="0" style="stop-opacity:1; stop-color:#483166"/>
   <stop offset="1" style="stop-opacity:1; stop-color:#733F8F"/>
  </linearGradient>
  <linearGradient id="id1" gradientUnits="userSpaceOnUse" x1="31.97" y1="47.61" x2="31.97" y2="16.33">
   <stop offset="0" style="stop-opacity:1; stop-color:#C6B9D8"/>
   <stop offset="1" style="stop-opacity:1; stop-color:#FEFEFE"/>
  </linearGradient>
 </defs>
 <g id="Layer_x0020_1">
  <metadata id="CorelCorpID_0Corel-Layer"/>
  <rect class="fil0" width="63.94" height="63.94" rx="8.29" ry="8.53"/>
  <path class="fil1" d="M28.67 47.61c15.84,0 20.95,-3.91 20.95,-9.11 0,-3.6 -2.42,-5.59 -5.89,-6.69 3.04,-1.13 5.11,-3.12 5.11,-6.57 0,-5 -4.33,-8.91 -20.17,-8.91 -4.21,0 -9.94,0.27 -14.35,0.59l0 30.1c4.41,0.31 10.14,0.59 14.35,0.59zm0.9 -18.96c-2.34,0 -4.25,0 -5.89,-0.04l0 -4.46c1.64,-0.12 3.63,-0.2 5.89,-0.2 7.53,0 9.91,0.98 9.91,2.51 0,1.4 -1.99,2.19 -9.91,2.19zm0 11.33c-2.26,0 -4.25,-0.07 -5.89,-0.19l0 -4.46c1.64,-0.04 3.55,-0.04 5.89,-0.04 8.7,0 10.69,0.78 10.69,2.19 0,1.53 -2.38,2.5 -10.69,2.5z"/>
  <g>
   <path id="_1" class="fil2" d="M28.67 47.61c15.84,0 20.95,-3.91 20.95,-9.11 0,-3.6 -2.42,-5.59 -5.89,-6.69 3.04,-1.13 5.11,-3.12 5.11,-6.57 0,-5 -4.33,-8.91 -20.17,-8.91 -4.21,0 -9.94,0.27 -14.35,0.59l0 30.1c4.41,0.31 10.14,0.59 14.35,0.59zm0.9 -18.96c-2.34,0 -4.25,0 -5.89,-0.04l0 -4.46c1.64,-0.12 3.63,-0.2 5.89,-0.2 7.53,0 9.91,0.98 9.91,2.51 0,1.4 -1.99,2.19 -9.91,2.19zm0 11.33c-2.26,0 -4.25,-0.07 -5.89,-0.19l0 -4.46c1.64,-0.04 3.55,-0.04 5.89,-0.04 8.7,0 10.69,0.78 10.69,2.19 0,1.53 -2.38,2.5 -10.69,2.5zm15.61 5.21c-3.29,1.65 -8.56,2.63 -16.51,2.63 -1.96,0 -4.27,-0.06 -6.63,-0.15 -2.67,-0.11 -5.39,-0.27 -7.73,-0.44l-0.2 -0.01 0 -0.2 0 -30.1 0 -0.2 0.2 -0.02c2.34,-0.16 5.06,-0.32 7.73,-0.43 2.36,-0.09 4.67,-0.15 6.63,-0.15 7.96,0 13.03,0.98 16.12,2.6 3.15,1.65 4.26,3.95 4.26,6.52 0,1.78 -0.54,3.18 -1.47,4.29 -0.81,0.97 -1.92,1.71 -3.23,2.27 1.52,0.54 2.82,1.28 3.78,2.27 1.07,1.13 1.7,2.57 1.7,4.43 0,2.68 -1.31,5.02 -4.65,6.69zm-21.28 -16.79c1.56,0.03 3.42,0.03 5.67,0.03 3.94,0 6.4,-0.19 7.87,-0.56 1.37,-0.34 1.82,-0.81 1.82,-1.41 0,-0.67 -0.55,-1.22 -1.97,-1.62 -1.52,-0.43 -3.98,-0.67 -7.72,-0.67 -1.09,0 -2.11,0.02 -3.04,0.05 -0.95,0.03 -1.83,0.07 -2.63,0.13l0 4.05zm2.63 11.32c0.93,0.03 1.95,0.05 3.04,0.05 4.14,0 6.79,-0.24 8.4,-0.67 1.52,-0.4 2.07,-0.96 2.07,-1.62 0,-0.6 -0.45,-1.07 -1.91,-1.41 -1.57,-0.37 -4.23,-0.56 -8.56,-0.56 -1.26,0 -2.4,0 -3.21,0 -0.89,0 -1.7,0.01 -2.46,0.03l0 4.05c0.8,0.06 1.68,0.1 2.63,0.13z"/>
  </g>
 </g>
</svg>
