<?xml version="1.0" encoding="UTF-8"?>
<!DOCTYPE svg PUBLIC "-//W3C//DTD SVG 1.1//EN" "http://www.w3.org/Graphics/SVG/1.1/DTD/svg11.dtd">
<!-- Creator: CorelDRAW -->
<svg xmlns="http://www.w3.org/2000/svg" xml:space="preserve" width="64px" height="64px" version="1.1" style="shape-rendering:geometricPrecision; text-rendering:geometricPrecision; image-rendering:optimizeQuality; fill-rule:evenodd; clip-rule:evenodd"
viewBox="0 0 63.94 63.94"
 xmlns:xlink="http://www.w3.org/1999/xlink"
 xmlns:xodm="http://www.corel.com/coreldraw/odm/2003">
 <defs>
  <style type="text/css">
   <![CDATA[
    .fil2 {fill:#274F35;fill-rule:nonzero}
    .fil0 {fill:url(#id0)}
    .fil1 {fill:url(#id1);fill-rule:nonzero}
   ]]>
  </style>
  <linearGradient id="id0" gradientUnits="userSpaceOnUse" x1="31.97" y1="63.94" x2="31.97" y2="0">
   <stop offset="0" style="stop-opacity:1; stop-color:#039251"/>
   <stop offset="1" style="stop-opacity:1; stop-color:#0C71B5"/>
  </linearGradient>
  <linearGradient id="id1" gradientUnits="userSpaceOnUse" x1="31.97" y1="53.28" x2="31.97" y2="10.66">
   <stop offset="0" style="stop-opacity:1; stop-color:#CBE5D6"/>
   <stop offset="1" style="stop-opacity:1; stop-color:white"/>
  </linearGradient>
 </defs>
 <g id="Layer_x0020_1">
  <metadata id="CorelCorpID_0Corel-Layer"/>
  <rect class="fil0" width="63.94" height="63.94" rx="8.29" ry="8.53"/>
  <path class="fil1" d="M31.97 10.66c-11.75,0 -21.31,9.56 -21.31,21.31 0,11.75 9.56,21.31 21.31,21.31 11.75,0 21.31,-9.56 21.31,-21.31 0,-11.75 -9.56,-21.31 -21.31,-21.31zm1.84 21.34l0 -8.94c0,-1 -0.8,-1.8 -1.8,-1.8 -1,0 -1.81,0.8 -1.81,1.8l0 9.51c0,0.03 0.01,0.06 0.01,0.09 -0.02,0.49 0.15,0.98 0.52,1.36l6.73 6.72c0.7,0.71 1.85,0.71 2.55,0 0.71,-0.7 0.71,-1.84 0,-2.55l-6.2 -6.19zm-1.84 16.62c-9.18,0 -16.65,-7.47 -16.65,-16.65 0,-9.18 7.47,-16.65 16.65,-16.65 9.18,0 16.65,7.47 16.65,16.65 0,9.18 -7.47,16.65 -16.65,16.65z"/>
  <path class="fil2" d="M31.97 10.76c-5.85,0 -11.15,2.38 -14.99,6.22 -3.84,3.84 -6.22,9.14 -6.22,14.99 0,5.85 2.38,11.15 6.22,14.99 3.84,3.84 9.14,6.22 14.99,6.22 5.85,0 11.15,-2.38 14.99,-6.22 3.84,-3.84 6.22,-9.14 6.22,-14.99 0,-5.85 -2.38,-11.15 -6.22,-14.99 -3.84,-3.84 -9.14,-6.22 -14.99,-6.22zm-15.14 6.07c3.88,-3.88 9.23,-6.28 15.14,-6.28 5.91,0 11.26,2.4 15.14,6.28 3.88,3.88 6.28,9.23 6.28,15.14 0,5.91 -2.4,11.26 -6.28,15.14 -3.88,3.88 -9.23,6.28 -15.14,6.28 -5.91,0 -11.26,-2.4 -15.14,-6.28 -3.88,-3.88 -6.28,-9.23 -6.28,-15.14 0,-5.91 2.4,-11.26 6.28,-15.14zm16.88 15.17l0 -8.94c0,-0.47 -0.19,-0.89 -0.5,-1.2 -0.31,-0.31 -0.73,-0.5 -1.2,-0.5 -0.47,0 -0.89,0.19 -1.2,0.5 -0.31,0.31 -0.5,0.73 -0.5,1.2l0 9.51c0,0.01 0,0.02 0,0.03 0.01,0.02 0.01,0.03 0.01,0.05l0 0.01c-0.01,0.24 0.02,0.48 0.11,0.7 0.08,0.21 0.21,0.41 0.38,0.58l6.72 6.73c0.33,0.33 0.77,0.5 1.2,0.5 0.44,0 0.87,-0.17 1.2,-0.5l0 0c0.34,-0.33 0.5,-0.77 0.5,-1.2 0,-0.44 -0.16,-0.87 -0.49,-1.2l-6.23 -6.23 0 -0.04zm0.21 -8.94l0 8.89 6.17 6.17c0.37,0.37 0.56,0.86 0.56,1.35 0,0.49 -0.19,0.98 -0.56,1.35l0 0c-0.38,0.37 -0.87,0.56 -1.36,0.56 -0.48,0 -0.97,-0.19 -1.35,-0.56l-6.72 -6.72c-0.2,-0.2 -0.34,-0.42 -0.43,-0.66 -0.1,-0.25 -0.14,-0.52 -0.12,-0.78l-0.01 -0.03c0,-0.02 0,-0.04 0,-0.06l0 -9.51c0,-0.53 0.21,-1 0.56,-1.35 0.34,-0.35 0.82,-0.56 1.35,-0.56 0.53,0 1,0.21 1.35,0.56 0.35,0.35 0.56,0.82 0.56,1.35zm-1.95 25.67c-4.62,0 -8.81,-1.88 -11.85,-4.91 -3.03,-3.04 -4.91,-7.23 -4.91,-11.85 0,-4.62 1.88,-8.81 4.91,-11.85 3.04,-3.03 7.23,-4.91 11.85,-4.91 4.62,0 8.81,1.88 11.85,4.91 3.03,3.04 4.91,7.23 4.91,11.85 0,4.62 -1.88,8.81 -4.91,11.85 -3.04,3.03 -7.23,4.91 -11.85,4.91zm-11.7 -5.06c3,2.99 7.14,4.85 11.7,4.85 4.56,0 8.7,-1.86 11.7,-4.85 2.99,-3 4.85,-7.14 4.85,-11.7 0,-4.56 -1.86,-8.7 -4.85,-11.7 -3,-2.99 -7.14,-4.85 -11.7,-4.85 -4.56,0 -8.7,1.86 -11.7,4.85 -2.99,3 -4.85,7.14 -4.85,11.7 0,4.56 1.86,8.7 4.85,11.7z"/>
 </g>
</svg>
