<?xml version="1.0" encoding="UTF-8"?>
<!DOCTYPE svg PUBLIC "-//W3C//DTD SVG 1.1//EN" "http://www.w3.org/Graphics/SVG/1.1/DTD/svg11.dtd">
<!-- Creator: CorelDRAW -->
<svg xmlns="http://www.w3.org/2000/svg" xml:space="preserve" width="64px" height="64px" version="1.1" style="shape-rendering:geometricPrecision; text-rendering:geometricPrecision; image-rendering:optimizeQuality; fill-rule:evenodd; clip-rule:evenodd"
viewBox="0 0 63.94 63.94"
 xmlns:xlink="http://www.w3.org/1999/xlink"
 xmlns:xodm="http://www.corel.com/coreldraw/odm/2003">
 <defs>
  <style type="text/css">
   <![CDATA[
    .fil2 {fill:#6D2B2C}
    .fil0 {fill:url(#id0)}
    .fil1 {fill:url(#id1);fill-rule:nonzero}
   ]]>
  </style>
  <linearGradient id="id0" gradientUnits="userSpaceOnUse" x1="31.97" y1="63.94" x2="31.97" y2="0">
   <stop offset="0" style="stop-opacity:1; stop-color:#AF3437"/>
   <stop offset="1" style="stop-opacity:1; stop-color:#EA6B51"/>
  </linearGradient>
  <linearGradient id="id1" gradientUnits="userSpaceOnUse" x1="31.97" y1="47.61" x2="31.97" y2="16.33">
   <stop offset="0" style="stop-opacity:1; stop-color:#F9D0CC"/>
   <stop offset="1" style="stop-opacity:1; stop-color:#FEFEFE"/>
  </linearGradient>
 </defs>
 <g id="Layer_x0020_1">
  <metadata id="CorelCorpID_0Corel-Layer"/>
  <rect class="fil0" width="63.94" height="63.94" rx="8.29" ry="8.53"/>
  <path class="fil1" d="M25.96 39.59c-1.28,0 -2.57,-0.04 -3.78,-0.11l0 -15.02c1.21,-0.08 2.5,-0.11 3.78,-0.11 9.29,0 15.41,2.34 15.41,7.62 0,5.28 -6.12,7.62 -15.41,7.62zm-13.14 7.43c4.41,0.35 8.43,0.59 11.97,0.59 18.72,0 26.33,-6.73 26.33,-15.64 0,-8.91 -7.61,-15.64 -26.33,-15.64 -3.54,0 -7.56,0.24 -11.97,0.59l0 30.1z"/>
  <g>
   <path id="_1" class="fil2" d="M25.96 39.59c-1.28,0 -2.57,-0.04 -3.78,-0.11l0 -15.02c1.21,-0.08 2.5,-0.11 3.78,-0.11 9.29,0 15.41,2.34 15.41,7.62 0,5.28 -6.12,7.62 -15.41,7.62zm-13.14 7.43c4.41,0.35 8.43,0.59 11.97,0.59 18.72,0 26.33,-6.73 26.33,-15.64 0,-8.91 -7.61,-15.64 -26.33,-15.64 -3.54,0 -7.56,0.24 -11.97,0.59l0 30.1zm11.22 -7.67c0.62,0.02 1.26,0.03 1.92,0.03 4.77,0 8.7,-0.62 11.37,-1.94 2.44,-1.21 3.82,-3.01 3.82,-5.47 0,-2.46 -1.38,-4.26 -3.82,-5.47 -2.67,-1.32 -6.6,-1.94 -11.37,-1.94 -0.66,0 -1.3,0.01 -1.92,0.03 -0.55,0.01 -1.1,0.04 -1.65,0.07l0 14.62c0.55,0.03 1.1,0.05 1.65,0.07zm-4.92 8.31c-2.01,-0.1 -4.12,-0.25 -6.31,-0.43l-0.2 -0.01 0 -0.2 0 -30.1 0 -0.2 0.2 -0.02c2.19,-0.17 4.3,-0.32 6.31,-0.42 2.01,-0.1 3.9,-0.16 5.67,-0.16 8.89,0 15.29,1.51 19.58,4.06 4.81,2.86 6.96,7.01 6.96,11.79 0,4.78 -2.15,8.93 -6.96,11.79 -4.29,2.55 -10.69,4.06 -19.58,4.06 -1.77,0 -3.66,-0.06 -5.67,-0.16z"/>
  </g>
 </g>
</svg>
