<?xml version="1.0" encoding="UTF-8"?>
<!DOCTYPE svg PUBLIC "-//W3C//DTD SVG 1.1//EN" "http://www.w3.org/Graphics/SVG/1.1/DTD/svg11.dtd">
<!-- Creator: CorelDRAW -->
<svg xmlns="http://www.w3.org/2000/svg" xml:space="preserve" width="64px" height="64px" version="1.1" style="shape-rendering:geometricPrecision; text-rendering:geometricPrecision; image-rendering:optimizeQuality; fill-rule:evenodd; clip-rule:evenodd"
viewBox="0 0 63.94 63.94"
 xmlns:xlink="http://www.w3.org/1999/xlink"
 xmlns:xodm="http://www.corel.com/coreldraw/odm/2003">
 <defs>
  <style type="text/css">
   <![CDATA[
    .fil2 {fill:#868040}
    .fil0 {fill:url(#id0)}
    .fil1 {fill:url(#id1);fill-rule:nonzero}
   ]]>
  </style>
  <linearGradient id="id0" gradientUnits="userSpaceOnUse" x1="31.97" y1="63.94" x2="31.97" y2="0">
   <stop offset="0" style="stop-opacity:1; stop-color:#EA7737"/>
   <stop offset="1" style="stop-opacity:1; stop-color:#E4D132"/>
  </linearGradient>
  <linearGradient id="id1" gradientUnits="userSpaceOnUse" x1="32.86" y1="48.85" x2="32.86" y2="25.75">
   <stop offset="0" style="stop-opacity:1; stop-color:#FFFCDC"/>
   <stop offset="1" style="stop-opacity:1; stop-color:white"/>
  </linearGradient>
 </defs>
 <g id="Layer_x0020_1">
  <metadata id="CorelCorpID_0Corel-Layer"/>
  <rect class="fil0" width="63.94" height="63.94" rx="8.29" ry="8.53"/>
  <g>
   <path class="fil1" d="M52.96 27.12c-0.47,-0.84 -1.36,-1.37 -2.33,-1.37 0,0 0,0 0,0l-25.25 0c0,0 0,0 0,0 -1.75,0 -3.29,1.16 -3.78,2.83l-5 17.14c-0.54,1.85 -2.24,3.13 -4.17,3.13 0,0 0,0 0,0l31.76 0c1.93,0 3.63,-1.28 4.17,-3.13l4.79 -16.45c0.09,-0.27 0.13,-0.55 0.13,-0.84 0,-0.46 -0.11,-0.91 -0.32,-1.31l0 0zm-38.07 18.1l5 -17.13c0.72,-2.43 2.95,-4.11 5.48,-4.11l22.59 0 0 -0.89c0,-1.96 -1.59,-3.56 -3.55,-3.56l-13.54 0c-0.54,0 -1.04,-0.24 -1.38,-0.65l-1.75 -2.15c-0.84,-1.04 -2.11,-1.64 -3.44,-1.64l-10.09 0c-1.96,0 -3.55,1.59 -3.55,3.56l0 26.64c0,0.98 0.79,1.78 1.77,1.78 1.14,0 2.14,-0.76 2.46,-1.85l0 0z"/>
   <path id="_1" class="fil2" d="M14.89 45.22l5 -17.13c0.72,-2.43 2.95,-4.11 5.48,-4.11l22.59 0 0 -0.89c0,-1.96 -1.59,-3.56 -3.55,-3.56l-13.54 0c-0.54,0 -1.04,-0.24 -1.38,-0.65l-1.75 -2.15c-0.84,-1.04 -2.11,-1.64 -3.44,-1.64l-10.09 0c-1.96,0 -3.55,1.59 -3.55,3.56l0 26.64c0,0.98 0.79,1.78 1.77,1.78 1.14,0 2.14,-0.76 2.46,-1.85l0 0zm37.2 -19.28c0.43,0.25 0.8,0.62 1.05,1.08l0.48 0.87 -0.21 -0.16c0.06,0.23 0.09,0.46 0.09,0.7 0,0.15 -0.02,0.31 -0.04,0.46 -0.02,0.15 -0.06,0.3 -0.1,0.44l0 0 -4.8 16.45c-0.28,0.97 -0.87,1.79 -1.64,2.37 -0.77,0.57 -1.72,0.91 -2.73,0.91l-31.67 0c-0.03,0 -0.06,0 -0.09,0l0 0 0 -0.21 0 0c1.93,0 3.63,-1.28 4.17,-3.13l5 -17.14c0.49,-1.67 2.03,-2.83 3.78,-2.83 0,0 0,0 0,0l25.25 0c0,0 0,0 0,0 0.97,0 1.86,0.53 2.33,1.37l0 0c0.21,0.4 0.32,0.85 0.32,1.31 0,0.29 -0.04,0.57 -0.13,0.84l-4.79 16.45c-0.54,1.85 -2.24,3.13 -4.17,3.13l-31.76 0 0 0 0 -0.22 0 0c0.92,0 1.78,-0.3 2.48,-0.82 0.7,-0.53 1.23,-1.27 1.49,-2.15l5 -17.13c0.25,-0.89 0.79,-1.64 1.49,-2.16 0.7,-0.53 1.57,-0.83 2.49,-0.83l0 0 0 0 25.25 0 0 0 0 0c0.52,0 1.02,0.14 1.46,0.4zm-39.66 22.69l0 0.22 0 0.21m7.67 -20.91l-4.89 16.74 0 0 -0.11 0.39c-0.18,0.59 -0.53,1.09 -1,1.44 -0.47,0.36 -1.05,0.56 -1.67,0.56l0 0c-0.55,0 -1.04,-0.22 -1.4,-0.58 -0.36,-0.36 -0.59,-0.86 -0.59,-1.41l0 -26.64c0,-1.04 0.43,-1.99 1.11,-2.67 0.68,-0.68 1.62,-1.1 2.66,-1.1l0 0 10.09 0c0.7,0 1.38,0.16 2,0.45 0.61,0.29 1.16,0.72 1.61,1.27l1.74 2.14c0.15,0.19 0.34,0.33 0.54,0.43 0.21,0.1 0.44,0.15 0.68,0.15l0 0 13.54 0 0 0c1.04,0 1.98,0.42 2.66,1.1 0.68,0.69 1.11,1.63 1.11,2.67l0 0 0 0.89 0 0.21 -0.22 0 -22.59 0c-1.22,0 -2.36,0.41 -3.29,1.1 -0.93,0.7 -1.64,1.69 -1.98,2.86l0 0z"/>
  </g>
 </g>
</svg>
