<?xml version="1.0" encoding="UTF-8"?>
<!DOCTYPE svg PUBLIC "-//W3C//DTD SVG 1.1//EN" "http://www.w3.org/Graphics/SVG/1.1/DTD/svg11.dtd">
<!-- Creator: CorelDRAW -->
<svg xmlns="http://www.w3.org/2000/svg" xml:space="preserve" width="64px" height="64px" version="1.1" style="shape-rendering:geometricPrecision; text-rendering:geometricPrecision; image-rendering:optimizeQuality; fill-rule:evenodd; clip-rule:evenodd"
viewBox="0 0 63.94 63.94"
 xmlns:xlink="http://www.w3.org/1999/xlink"
 xmlns:xodm="http://www.corel.com/coreldraw/odm/2003">
 <defs>
  <style type="text/css">
   <![CDATA[
    .fil2 {fill:#274F35}
    .fil0 {fill:url(#id0)}
    .fil1 {fill:url(#id1);fill-rule:nonzero}
   ]]>
  </style>
  <linearGradient id="id0" gradientUnits="userSpaceOnUse" x1="31.97" y1="63.94" x2="31.97" y2="0">
   <stop offset="0" style="stop-opacity:1; stop-color:#039251"/>
   <stop offset="1" style="stop-opacity:1; stop-color:#0C71B5"/>
  </linearGradient>
  <linearGradient id="id1" gradientUnits="userSpaceOnUse" x1="19.49" y1="63.06" x2="19.49" y2="22.75">
   <stop offset="0" style="stop-opacity:1; stop-color:#CBE5D6"/>
   <stop offset="1" style="stop-opacity:1; stop-color:white"/>
  </linearGradient>
 </defs>
 <g id="Layer_x0020_1">
  <metadata id="CorelCorpID_0Corel-Layer"/>
  <rect class="fil0" width="63.94" height="63.94" rx="8.29" ry="8.53"/>
  <g>
   <path class="fil1" d="M15.82 49.77c1.1,0.99 2.21,1.71 3.01,2.16 0.44,0.25 0.98,0.26 1.42,0.01 2.66,-1.49 4.78,-3.58 6,-6.37 0.97,-2.24 0.92,-4.03 0.92,-4.05 0,-0.01 0,-0.03 0,-0.04 0,-4.3 -3.44,-7.79 -7.68,-7.79 -4.23,0 -7.68,3.49 -7.68,7.79 0,3.11 1.35,5.9 4.01,8.29l0 0zm30.72 -5.12c1.04,-1.03 1.94,-2.16 2.7,-3.37 -4.61,-0.84 -8.17,-4.74 -8.48,-9.52l-0.52 0c-3.39,0 -6.14,-2.75 -6.14,-6.14 0,-3.38 2.75,-6.14 6.14,-6.14l8.08 0c-0.54,-0.71 -1.13,-1.39 -1.78,-2.03 -3.63,-3.63 -8.46,-5.64 -13.6,-5.64 -1.71,0 -3.38,0.23 -4.99,0.66l0 4.06c0,5.5 -4.47,9.97 -9.97,9.97l-3.73 0c-0.36,1.47 -0.54,3 -0.54,4.55 0,0.7 0.04,1.41 0.1,2.04 1.61,-1.11 3.57,-1.77 5.68,-1.77 5.53,0 10.03,4.5 10.04,10.02 0.01,0.3 0.02,2.35 -1.06,4.89 -0.39,0.91 -0.96,1.95 -1.78,3.02 2.31,0.8 4.9,1.04 6.25,1.04 5.14,0 9.97,-2.01 13.6,-5.64zm-20.95 -28.12l0 -3.27c-2.31,0.96 -4.43,2.37 -6.25,4.19 -1.93,1.93 -3.41,4.21 -4.36,6.69l3 0c4.2,0 7.61,-3.41 7.61,-7.61l0 0zm26.53 14.52c0,-3.27 -0.81,-6.41 -2.33,-9.2l-9.6 0c-2.09,0 -3.78,1.69 -3.78,3.77 0,2.08 1.69,3.78 3.78,3.78l1.67 0c0.66,0 1.18,0.53 1.18,1.18l0 0.5c0,4.19 3.24,7.64 7.35,7.98 1.13,-2.48 1.73,-5.2 1.73,-8.01l0 0zm-30.5 10.58c0,-1.17 -0.95,-2.12 -2.13,-2.12 -1.17,0 -2.12,0.95 -2.12,2.12 0,1.18 0.95,2.13 2.12,2.13 1.18,0 2.13,-0.95 2.13,-2.13zm-2.13 -4.44c2.48,0 4.49,2.05 4.49,4.56 0,2.51 -2.01,4.55 -4.49,4.55 -2.47,0 -4.48,-2.04 -4.48,-4.55 0,-2.51 2.01,-4.56 4.48,-4.56z"/>
   <path id="_1" class="fil2" d="M15.82 49.77c1.1,0.99 2.21,1.71 3.01,2.16 0.44,0.25 0.98,0.26 1.42,0.01 2.66,-1.49 4.78,-3.58 6,-6.37 0.97,-2.24 0.92,-4.03 0.92,-4.05 0,-0.01 0,-0.03 0,-0.04 0,-4.3 -3.44,-7.79 -7.68,-7.79 -4.23,0 -7.68,3.49 -7.68,7.79 0,3.11 1.35,5.9 4.01,8.29l0 0zm10.87 -0.52c2.31,0.8 4.9,1.04 6.25,1.04 5.14,0 9.97,-2.01 13.6,-5.64 1.04,-1.03 1.94,-2.16 2.7,-3.37 -4.61,-0.84 -8.17,-4.74 -8.48,-9.52l-0.52 0c-3.39,0 -6.14,-2.75 -6.14,-6.14 0,-3.38 2.75,-6.14 6.14,-6.14l8.08 0c-0.54,-0.71 -1.13,-1.39 -1.78,-2.03 -3.63,-3.63 -8.46,-5.64 -13.6,-5.64 -1.71,0 -3.38,0.23 -4.99,0.66l0 4.06c0,5.5 -4.47,9.97 -9.97,9.97l-3.73 0c-0.36,1.47 -0.54,3 -0.54,4.55 0,0.7 0.04,1.41 0.1,2.04 1.61,-1.11 3.57,-1.77 5.68,-1.77 5.53,0 10.03,4.5 10.04,10.02 0.01,0.3 0.02,2.35 -1.06,4.89 -0.39,0.91 -0.96,1.95 -1.78,3.02zm-1.1 -32.72l0 -3.27c-2.31,0.96 -4.43,2.37 -6.25,4.19 -1.93,1.93 -3.41,4.21 -4.36,6.69l3 0c4.2,0 7.61,-3.41 7.61,-7.61l0 0zm26.53 14.52c0,-3.27 -0.81,-6.41 -2.33,-9.2l-9.6 0c-2.09,0 -3.78,1.69 -3.78,3.77 0,2.08 1.69,3.78 3.78,3.78l1.67 0c0.66,0 1.18,0.53 1.18,1.18l0 0.5c0,4.19 3.24,7.64 7.35,7.98 1.13,-2.48 1.73,-5.2 1.73,-8.01l0 0zm-30.5 10.58c0,-1.17 -0.95,-2.12 -2.13,-2.12 -1.17,0 -2.12,0.95 -2.12,2.12 0,1.18 0.95,2.13 2.12,2.13 1.18,0 2.13,-0.95 2.13,-2.13zm-2.13 -4.44c2.48,0 4.49,2.05 4.49,4.56 0,2.51 -2.01,4.55 -4.49,4.55 -2.47,0 -4.48,-2.04 -4.48,-4.55 0,-2.51 2.01,-4.56 4.48,-4.56zm-2.37 13.9c-0.35,-0.25 -0.72,-0.54 -1.09,-0.85l0 0.01 -0.35 -0.32c-1.35,-1.22 -2.37,-2.53 -3.05,-3.94 -0.68,-1.42 -1.03,-2.93 -1.03,-4.51 0,-2.21 0.89,-4.21 2.31,-5.66 1.43,-1.45 3.41,-2.35 5.58,-2.35 2.18,0 4.15,0.9 5.58,2.35 1.43,1.45 2.31,3.45 2.31,5.66l0 0 0 0.01 0 0 0 0.03c0,0.01 0.03,0.83 -0.25,2.05 -0.14,0.61 -0.35,1.32 -0.68,2.09l0 0c-0.61,1.38 -1.43,2.59 -2.42,3.64 -1.05,1.11 -2.29,2.05 -3.67,2.82l0 0.01c-0.26,0.14 -0.54,0.21 -0.82,0.21 -0.28,0 -0.57,-0.08 -0.82,-0.22 -0.45,-0.26 -1,-0.6 -1.6,-1.03zm31.03 -7.92c-0.45,0.57 -0.94,1.12 -1.46,1.63 -1.83,1.84 -3.97,3.26 -6.3,4.23 -2.33,0.96 -4.85,1.47 -7.45,1.47 -0.78,0 -1.97,-0.08 -3.28,-0.29 -0.98,-0.17 -2.04,-0.41 -3.04,-0.75l-0.27 -0.1 0.17 -0.23c0.38,-0.5 0.7,-0.99 0.98,-1.45 0.31,-0.54 0.57,-1.06 0.77,-1.54 0.38,-0.89 0.63,-1.72 0.78,-2.43 0.28,-1.28 0.28,-2.17 0.27,-2.36l0 -0.01c0,-2.7 -1.11,-5.15 -2.89,-6.93 -1.78,-1.77 -4.23,-2.87 -6.94,-2.87 -1.01,0 -1.99,0.15 -2.91,0.44 -0.96,0.3 -1.85,0.73 -2.65,1.29l-0.3 0.21 -0.03 -0.37c-0.04,-0.34 -0.06,-0.7 -0.08,-1.07 -0.02,-0.33 -0.03,-0.67 -0.03,-0.99 0,-0.78 0.05,-1.55 0.14,-2.32 0.09,-0.77 0.23,-1.53 0.41,-2.28l0.04 -0.16 0.17 0 3.73 0 0 0c2.69,0 5.13,-1.1 6.9,-2.86 1.76,-1.77 2.86,-4.21 2.86,-6.9l0 -4.06 0 -0.17 0.16 -0.04c0.81,-0.22 1.64,-0.38 2.49,-0.49 0.85,-0.11 1.7,-0.17 2.55,-0.17 2.6,0 5.12,0.51 7.45,1.47 2.33,0.97 4.47,2.39 6.3,4.23 0.33,0.32 0.64,0.65 0.93,0.99 0.3,0.35 0.59,0.7 0.87,1.07l0.25 0.34 -0.42 0 -8.08 0c-1.63,0 -3.12,0.66 -4.19,1.73 -1.07,1.08 -1.74,2.56 -1.74,4.19 0,1.64 0.67,3.12 1.74,4.19 1.07,1.07 2.56,1.74 4.19,1.74l0 0 0.52 0 0.2 0 0.01 0.2c0.15,2.32 1.09,4.44 2.55,6.08 1.48,1.66 3.49,2.83 5.76,3.24l0.31 0.06 -0.17 0.26c-0.39,0.61 -0.81,1.21 -1.27,1.78zm-22.35 -29.91l0 3.27 0 0.21 0 0c-0.06,2.08 -0.92,3.95 -2.29,5.32 -1.42,1.41 -3.37,2.29 -5.53,2.29l-3 0 -0.31 0 0.11 -0.29c0.49,-1.26 1.1,-2.46 1.84,-3.6 0.74,-1.13 1.6,-2.19 2.57,-3.16 0.92,-0.92 1.91,-1.73 2.96,-2.44 1.06,-0.71 2.19,-1.31 3.36,-1.79l0.29 -0.12 0 0.31zm25.94 12.98c0.38,1.48 0.58,3.03 0.6,4.6l0 0 0 0.21c0,1.41 -0.15,2.81 -0.45,4.16 -0.29,1.36 -0.73,2.68 -1.31,3.94l-0.06 0.13 -0.15 -0.01c-2.12,-0.17 -4.01,-1.15 -5.37,-2.63 -1.35,-1.46 -2.17,-3.42 -2.17,-5.56l0 -0.5c0,-0.27 -0.11,-0.51 -0.28,-0.69 -0.18,-0.17 -0.42,-0.28 -0.69,-0.28l-1.67 0c-1.1,0 -2.1,-0.45 -2.82,-1.17 -0.73,-0.72 -1.17,-1.72 -1.17,-2.82 0,-1.1 0.44,-2.1 1.17,-2.82 0.72,-0.72 1.72,-1.17 2.82,-1.17l9.6 0 0.12 0 0.06 0.11c0.78,1.42 1.37,2.93 1.77,4.5zm-30.59 13.74c0.42,0.42 0.68,1.01 0.68,1.65 0,0.65 -0.26,1.23 -0.68,1.66 -0.43,0.42 -1.01,0.68 -1.66,0.68 -0.64,0 -1.23,-0.26 -1.65,-0.68 -0.42,-0.43 -0.68,-1.01 -0.68,-1.66 0,-0.64 0.26,-1.23 0.68,-1.65 0.42,-0.43 1.01,-0.69 1.65,-0.69 0.65,0 1.23,0.26 1.66,0.69zm1.36 -1.3c-0.77,-0.79 -1.84,-1.27 -3.02,-1.27 -1.17,0 -2.24,0.48 -3.02,1.27 -0.77,0.78 -1.25,1.87 -1.25,3.07 0,1.19 0.48,2.28 1.25,3.06 0.78,0.79 1.85,1.28 3.02,1.28 1.18,0 2.25,-0.49 3.02,-1.27 0.78,-0.79 1.26,-1.88 1.26,-3.07 0,-1.2 -0.48,-2.29 -1.26,-3.07z"/>
  </g>
 </g>
</svg>
