<?xml version="1.0" encoding="UTF-8"?>
<!DOCTYPE svg PUBLIC "-//W3C//DTD SVG 1.1//EN" "http://www.w3.org/Graphics/SVG/1.1/DTD/svg11.dtd">
<!-- Creator: CorelDRAW -->
<svg xmlns="http://www.w3.org/2000/svg" xml:space="preserve" width="64px" height="64px" version="1.1" style="shape-rendering:geometricPrecision; text-rendering:geometricPrecision; image-rendering:optimizeQuality; fill-rule:evenodd; clip-rule:evenodd"
viewBox="0 0 63.94 63.94"
 xmlns:xlink="http://www.w3.org/1999/xlink"
 xmlns:xodm="http://www.corel.com/coreldraw/odm/2003">
 <defs>
  <style type="text/css">
   <![CDATA[
    .fil2 {fill:#283752}
    .fil0 {fill:url(#id0)}
    .fil1 {fill:url(#id1);fill-rule:nonzero}
   ]]>
  </style>
  <linearGradient id="id0" gradientUnits="userSpaceOnUse" x1="31.97" y1="63.94" x2="31.97" y2="0">
   <stop offset="0" style="stop-opacity:1; stop-color:#3D4895"/>
   <stop offset="1" style="stop-opacity:1; stop-color:#733F8F"/>
  </linearGradient>
  <linearGradient id="id1" gradientUnits="userSpaceOnUse" x1="31.97" y1="48.39" x2="31.97" y2="15.55">
   <stop offset="0" style="stop-opacity:1; stop-color:#BDCEE8"/>
   <stop offset="1" style="stop-opacity:1; stop-color:#FEFEFE"/>
  </linearGradient>
 </defs>
 <g id="Layer_x0020_1">
  <metadata id="CorelCorpID_0Corel-Layer"/>
  <rect class="fil0" width="63.94" height="63.94" rx="8.29" ry="8.53"/>
  <polygon class="fil1" points="14.11,46.63 23.47,46.63 23.47,32.05 49.83,48.39 49.83,17.31 40.47,17.31 40.47,31.89 14.11,15.55 "/>
  <g>
   <path id="_1" class="fil2" d="M14.11 46.63l9.36 0 0 -14.58 26.36 16.34 0 -31.08 -9.36 0 0 14.58 -26.36 -16.34 0 31.08zm9.36 0.21l-9.36 0 -0.21 0 0 -0.21 0 -31.08 0 -0.38 0.32 0.2 26.04 16.14 0 -14.2 0 -0.22 0.21 0 9.36 0 0.21 0 0 0.22 0 31.08 0 0.38 -0.32 -0.2 -26.04 -16.14 0 14.2 0 0.21 -0.21 0z"/>
  </g>
 </g>
</svg>
