<?xml version="1.0" encoding="UTF-8"?>
<!DOCTYPE svg PUBLIC "-//W3C//DTD SVG 1.1//EN" "http://www.w3.org/Graphics/SVG/1.1/DTD/svg11.dtd">
<!-- Creator: CorelDRAW -->
<svg xmlns="http://www.w3.org/2000/svg" xml:space="preserve" width="64px" height="64px" version="1.1" style="shape-rendering:geometricPrecision; text-rendering:geometricPrecision; image-rendering:optimizeQuality; fill-rule:evenodd; clip-rule:evenodd"
viewBox="0 0 63.94 63.94"
 xmlns:xlink="http://www.w3.org/1999/xlink"
 xmlns:xodm="http://www.corel.com/coreldraw/odm/2003">
 <defs>
  <style type="text/css">
   <![CDATA[
    .fil2 {fill:#6D2B2C}
    .fil0 {fill:url(#id0)}
    .fil1 {fill:url(#id1);fill-rule:nonzero}
   ]]>
  </style>
  <linearGradient id="id0" gradientUnits="userSpaceOnUse" x1="31.97" y1="63.94" x2="31.97" y2="0">
   <stop offset="0" style="stop-opacity:1; stop-color:#AF3437"/>
   <stop offset="1" style="stop-opacity:1; stop-color:#EA6B51"/>
  </linearGradient>
  <linearGradient id="id1" gradientUnits="userSpaceOnUse" x1="31.97" y1="49.07" x2="31.97" y2="14.86">
   <stop offset="0" style="stop-opacity:1; stop-color:#F9D0CC"/>
   <stop offset="1" style="stop-opacity:1; stop-color:#FEFEFE"/>
  </linearGradient>
 </defs>
 <g id="Layer_x0020_1">
  <metadata id="CorelCorpID_0Corel-Layer"/>
  <rect class="fil0" width="63.94" height="63.94" rx="8.29" ry="8.53"/>
  <path class="fil1" d="M53.09 41.41c-2.46,0.04 -4.76,0.08 -6.95,0 4.68,-2.42 6.95,-6.33 6.95,-11.1 0,-8.72 -8.39,-15.45 -21.1,-15.45 -12.75,0 -21.14,6.57 -21.14,15.88 0,7.82 6.09,13.41 17.04,16.22 7.14,1.84 15.56,2.11 23.79,2.11l1.41 0 0 -7.66zm-20.17 -2.07c-7.25,0 -12.32,-3.75 -12.32,-8.6 0,-4.85 5.07,-7.86 11.39,-7.86 6.43,0 11.35,3.01 11.35,8.09 0,5.12 -4.88,8.37 -10.42,8.37z"/>
  <g>
   <path id="_1" class="fil2" d="M52.93 41.2l0.15 0 0.22 0 0 0.21 0 7.66 0 0.22 -0.21 0 -1.41 0c-4.11,0 -8.28,-0.07 -12.32,-0.37 -4.03,-0.3 -7.93,-0.83 -11.52,-1.75 -5.55,-1.43 -9.86,-3.56 -12.78,-6.34 -2.9,-2.76 -4.42,-6.15 -4.42,-10.09 0,-4.76 2.16,-8.81 5.95,-11.66 3.72,-2.79 9.02,-4.43 15.4,-4.43 6.3,0 11.55,1.64 15.26,4.36 3.85,2.82 6.05,6.8 6.05,11.3 0,2.46 -0.59,4.69 -1.8,6.63 -1.05,1.68 -2.57,3.13 -4.57,4.28 1.9,0.05 3.89,0.02 6,-0.02zm0.16 0.21c-2.46,0.04 -4.76,0.08 -6.95,0 4.68,-2.42 6.95,-6.33 6.95,-11.1 0,-8.72 -8.39,-15.45 -21.1,-15.45 -12.75,0 -21.14,6.57 -21.14,15.88 0,7.82 6.09,13.41 17.04,16.22 7.14,1.84 15.56,2.11 23.79,2.11l1.41 0 0 -7.66zm-20.17 -2.07c-7.25,0 -12.32,-3.75 -12.32,-8.6 0,-4.85 5.07,-7.86 11.39,-7.86 6.43,0 11.35,3.01 11.35,8.09 0,5.12 -4.88,8.37 -10.42,8.37zm-8.68 -2.61c2.13,1.49 5.14,2.4 8.68,2.4 2.82,0 5.46,-0.86 7.35,-2.37 1.75,-1.41 2.85,-3.39 2.85,-5.79 0,-2.4 -1.13,-4.33 -3.01,-5.67 -2.01,-1.43 -4.87,-2.21 -8.12,-2.21 -3.2,0 -6.07,0.78 -8.1,2.18 -1.91,1.32 -3.07,3.18 -3.07,5.47 0,2.38 1.26,4.49 3.42,5.99z"/>
  </g>
 </g>
</svg>
