<?xml version="1.0" encoding="UTF-8"?>
<!DOCTYPE svg PUBLIC "-//W3C//DTD SVG 1.1//EN" "http://www.w3.org/Graphics/SVG/1.1/DTD/svg11.dtd">
<!-- Creator: CorelDRAW -->
<svg xmlns="http://www.w3.org/2000/svg" xml:space="preserve" width="64px" height="64px" version="1.1" style="shape-rendering:geometricPrecision; text-rendering:geometricPrecision; image-rendering:optimizeQuality; fill-rule:evenodd; clip-rule:evenodd"
viewBox="0 0 63.94 63.94"
 xmlns:xlink="http://www.w3.org/1999/xlink"
 xmlns:xodm="http://www.corel.com/coreldraw/odm/2003">
 <defs>
  <style type="text/css">
   <![CDATA[
    .fil2 {fill:#6D2B2C}
    .fil1 {fill:url(#id0)}
    .fil0 {fill:url(#id1)}
   ]]>
  </style>
  <linearGradient id="id0" gradientUnits="userSpaceOnUse" x1="31.97" y1="41.46" x2="31.97" y2="22.47">
   <stop offset="0" style="stop-opacity:1; stop-color:#FBD9C9"/>
   <stop offset="1" style="stop-opacity:1; stop-color:#FEFEFE"/>
  </linearGradient>
  <linearGradient id="id1" gradientUnits="userSpaceOnUse" x1="31.97" y1="63.94" x2="31.97" y2="0">
   <stop offset="0" style="stop-opacity:1; stop-color:#AE3335"/>
   <stop offset="1" style="stop-opacity:1; stop-color:#E13338"/>
  </linearGradient>
 </defs>
 <g id="Layer_x0020_1">
  <metadata id="CorelCorpID_0Corel-Layer"/>
  <rect class="fil0" width="63.94" height="63.94" rx="8.29" ry="8.53"/>
  <g>
   <path class="fil1" d="M8.53 22.47l46.88 0 0 18.99 -46.88 0 0 -18.99zm16.31 7.1c0,0.97 -0.25,1.82 -0.73,2.57 -0.49,0.74 -1.18,1.32 -2.09,1.73 -0.9,0.41 -1.95,0.61 -3.14,0.61l-1.3 0 0 4.52 -4.24 0 0 -14.06 5.77 0c1.98,0 3.43,0.37 4.35,1.12 0.92,0.75 1.38,1.93 1.38,3.51zm-4.48 0.15c0,-0.58 -0.17,-1.01 -0.5,-1.31 -0.34,-0.29 -0.83,-0.44 -1.47,-0.44l-0.81 0 0 3.48 0.95 0c1.22,0 1.83,-0.58 1.83,-1.73zm19.43 2.07c0,1.43 -0.3,2.69 -0.9,3.78 -0.6,1.1 -1.45,1.95 -2.57,2.54 -1.11,0.6 -2.39,0.89 -3.84,0.89l-5.96 0 0 -14.06 5.83 0c4.96,0 7.44,2.28 7.44,6.85zm-4.5 0.04c0,-0.68 -0.14,-1.3 -0.42,-1.85 -0.28,-0.55 -0.68,-0.97 -1.19,-1.28 -0.52,-0.3 -1.13,-0.45 -1.83,-0.45l-1.09 0 0 7.44 1.19 0c1.01,0 1.83,-0.35 2.43,-1.05 0.6,-0.69 0.91,-1.63 0.91,-2.81zm10.72 -3.58l0 2.53 4.18 0 0 3.32 -4.18 0 0 4.9 -4.24 0 0 -14.06 8.83 0 0 3.31 -4.59 0z"/>
   <path id="_1" class="fil2" d="M8.53 22.26l46.88 0 0.22 0 0 0.21 0 18.99 0 0.22 -0.22 0 -46.88 0 -0.22 0 0 -0.22 0 -18.99 0 -0.21 0.22 0zm0 0.21l46.88 0 0 18.99 -46.88 0 0 -18.99zm16.31 7.1c0,0.97 -0.25,1.82 -0.73,2.57 -0.49,0.74 -1.18,1.32 -2.09,1.73 -0.9,0.41 -1.95,0.61 -3.14,0.61l-1.3 0 0 4.52 -4.24 0 0 -14.06 5.77 0c1.98,0 3.43,0.37 4.35,1.12 0.92,0.75 1.38,1.93 1.38,3.51zm-4.48 0.15c0,-0.58 -0.17,-1.01 -0.5,-1.31 -0.34,-0.29 -0.83,-0.44 -1.47,-0.44l-0.81 0 0 3.48 0.95 0c1.22,0 1.83,-0.58 1.83,-1.73zm19.43 2.07c0,1.43 -0.3,2.69 -0.9,3.78 -0.6,1.1 -1.45,1.95 -2.57,2.54 -1.11,0.6 -2.39,0.89 -3.84,0.89l-5.96 0 0 -14.06 5.83 0c4.96,0 7.44,2.28 7.44,6.85zm-4.5 0.04c0,-0.68 -0.14,-1.3 -0.42,-1.85 -0.28,-0.55 -0.68,-0.97 -1.19,-1.28 -0.52,-0.3 -1.13,-0.45 -1.83,-0.45l-1.09 0 0 7.44 1.19 0c1.01,0 1.83,-0.35 2.43,-1.05 0.6,-0.69 0.91,-1.63 0.91,-2.81zm10.72 -3.58l0 2.53 4.18 0 0 3.32 -4.18 0 0 4.9 -4.24 0 0 -14.06 8.83 0 0 3.31 -4.59 0zm-21.56 2.63c0.12,-0.41 0.18,-0.84 0.18,-1.31 0,-0.76 -0.11,-1.43 -0.33,-1.99 -0.22,-0.55 -0.54,-1 -0.97,-1.35 -0.44,-0.36 -1.01,-0.63 -1.7,-0.81 -0.71,-0.18 -1.55,-0.27 -2.52,-0.27l-5.55 0 0 13.64 3.81 0 0 -4.31 0 -0.21 0.21 0 1.3 0c0.58,0 1.13,-0.05 1.64,-0.15 0.51,-0.1 0.98,-0.25 1.42,-0.45 0.43,-0.19 0.82,-0.43 1.15,-0.71 0.33,-0.27 0.61,-0.58 0.84,-0.94 0.23,-0.35 0.4,-0.74 0.52,-1.14zm-4.02 -1.99c0.09,0.24 0.14,0.52 0.14,0.83 0,1.29 -0.68,1.94 -2.04,1.94l-0.95 0 -0.21 0 0 -0.21 0 -3.48 0 -0.21 0.21 0 0.81 0c0.34,0 0.64,0.04 0.91,0.12 0.27,0.08 0.51,0.2 0.7,0.37l0 0c0.19,0.17 0.33,0.38 0.43,0.64zm18.93 4.87c0.14,-0.62 0.21,-1.27 0.21,-1.97 0,-2.22 -0.59,-3.88 -1.79,-4.98 -1.19,-1.11 -3,-1.66 -5.43,-1.66l-5.61 0 0 13.64 5.74 0c0.71,0 1.38,-0.07 2,-0.22l0 0c0.62,-0.14 1.21,-0.36 1.74,-0.65 0.54,-0.28 1.02,-0.63 1.43,-1.04 0.41,-0.41 0.76,-0.88 1.05,-1.41 0.29,-0.53 0.51,-1.1 0.66,-1.71zm-3.97 -2.95c0.07,0.32 0.11,0.67 0.11,1.02 0,0.61 -0.08,1.16 -0.24,1.65 -0.16,0.5 -0.4,0.93 -0.72,1.3l0 0c-0.32,0.38 -0.7,0.66 -1.14,0.84 -0.43,0.19 -0.91,0.28 -1.45,0.28l-1.19 0 -0.21 0 0 -0.21 0 -7.44 0 -0.21 0.21 0 1.09 0c0.37,0 0.71,0.04 1.04,0.12 0.32,0.08 0.62,0.2 0.9,0.36 0.27,0.16 0.51,0.35 0.73,0.58 0.21,0.23 0.39,0.49 0.54,0.78 0.15,0.29 0.26,0.6 0.33,0.93zm10.41 -0.03l0 -2.53 0 -0.21 0.21 0 4.37 0 0 -2.89 -8.39 0 0 13.64 3.81 0 0 -4.69 0 -0.21 0.21 0 3.97 0 0 -2.89 -3.97 0 -0.21 0 0 -0.22z"/>
  </g>
 </g>
</svg>
