<?xml version="1.0" encoding="UTF-8"?>
<!DOCTYPE svg PUBLIC "-//W3C//DTD SVG 1.1//EN" "http://www.w3.org/Graphics/SVG/1.1/DTD/svg11.dtd">
<!-- Creator: CorelDRAW -->
<svg xmlns="http://www.w3.org/2000/svg" xml:space="preserve" width="64px" height="64px" version="1.1" style="shape-rendering:geometricPrecision; text-rendering:geometricPrecision; image-rendering:optimizeQuality; fill-rule:evenodd; clip-rule:evenodd"
viewBox="0 0 63.94 63.94"
 xmlns:xlink="http://www.w3.org/1999/xlink"
 xmlns:xodm="http://www.corel.com/coreldraw/odm/2003">
 <defs>
  <style type="text/css">
   <![CDATA[
    .fil2 {fill:#072157}
    .fil0 {fill:url(#id0)}
    .fil1 {fill:url(#id1);fill-rule:nonzero}
   ]]>
  </style>
  <linearGradient id="id0" gradientUnits="userSpaceOnUse" x1="31.97" y1="63.94" x2="31.97" y2="0">
   <stop offset="0" style="stop-opacity:1; stop-color:#0C71B5"/>
   <stop offset="1" style="stop-opacity:1; stop-color:#AF4C94"/>
  </linearGradient>
  <linearGradient id="id1" gradientUnits="userSpaceOnUse" x1="27.71" y1="46.9" x2="27.71" y2="25.57">
   <stop offset="0" style="stop-opacity:1; stop-color:#CAE7E8"/>
   <stop offset="1" style="stop-opacity:1; stop-color:snow"/>
  </linearGradient>
 </defs>
 <g id="Layer_x0020_1">
  <metadata id="CorelCorpID_0Corel-Layer"/>
  <rect class="fil0" width="63.94" height="63.94" rx="8.29" ry="8.53"/>
  <g>
   <path class="fil1" d="M25.73 17.8c2.1,2.09 2.1,5.49 0,7.59 -2.09,2.09 -5.49,2.09 -7.59,0 -2.1,-2.1 -2.1,-5.5 0,-7.59 2.1,-2.1 5.5,-2.1 7.59,0zm22.58 18.74c6.19,10.83 6.12,8.3 2.44,14.73 -0.71,1.25 -2.05,2.02 -3.48,2.02l-24.73 0c-2.93,0 -5.66,-1.58 -7.11,-4.12 -5.83,-10.2 -6.2,-8.86 -1.77,-15.07 0.85,-1.18 2.22,-1.89 3.67,-1.89l11.21 0c2.58,6.58 11.84,6.85 14.75,0.35 2.1,0.63 3.9,2.03 5.02,3.98zm-1.92 10.17c0.88,0 0.88,-1.33 0,-1.33l-21.68 0c-1.47,0 -2.82,-0.8 -3.54,-2.08l-3.35 -6.05c-0.43,-0.77 -1.6,-0.12 -1.17,0.65l3.36 6.04c0.95,1.71 2.75,2.77 4.7,2.77l21.68 0zm-3.74 -17.41c0,-3.68 -2.98,-6.66 -6.66,-6.66 -3.68,0 -6.67,2.98 -6.67,6.66 0,3.68 2.99,6.67 6.67,6.67 3.68,0 6.66,-2.99 6.66,-6.67zm-8.49 -18.65c1.92,0 3.49,1.56 3.49,3.48 0,1.93 -1.57,3.49 -3.49,3.49 -1.92,0 -3.49,-1.56 -3.49,-3.49 0,-1.92 1.57,-3.48 3.49,-3.48z"/>
   <path id="_1" class="fil2" d="M25.88 17.64l0 0.01 0 0c1.09,1.09 1.64,2.51 1.64,3.94 0,1.43 -0.55,2.86 -1.64,3.95l0 0 0 0 0 0 0 0c-1.09,1.09 -2.52,1.63 -3.94,1.63 -1.43,0 -2.86,-0.54 -3.95,-1.63l0 0 0 0 0 0c-1.09,-1.09 -1.63,-2.52 -1.63,-3.95 0,-1.43 0.54,-2.85 1.63,-3.94l0 0 0 -0.01 0 0 0 0c1.09,-1.09 2.52,-1.63 3.95,-1.63 1.42,0 2.85,0.54 3.94,1.63l0 0 0 0zm-0.15 0.16c2.1,2.09 2.1,5.49 0,7.59 -2.09,2.09 -5.49,2.09 -7.59,0 -2.1,-2.1 -2.1,-5.5 0,-7.59 2.1,-2.1 5.5,-2.1 7.59,0zm22.58 18.74c6.19,10.83 6.12,8.3 2.44,14.73 -0.71,1.25 -2.05,2.02 -3.48,2.02l-24.73 0c-2.93,0 -5.66,-1.58 -7.11,-4.12 -5.83,-10.2 -6.2,-8.86 -1.77,-15.07 0.85,-1.18 2.22,-1.89 3.67,-1.89l11.21 0c2.58,6.58 11.84,6.85 14.75,0.35 2.1,0.63 3.9,2.03 5.02,3.98zm-1.92 10.17c0.88,0 0.88,-1.33 0,-1.33l-21.68 0c-1.47,0 -2.82,-0.8 -3.54,-2.08l-3.35 -6.05c-0.43,-0.77 -1.6,-0.12 -1.17,0.65l3.36 6.04c0.95,1.71 2.75,2.77 4.7,2.77l21.68 0zm-3.74 -17.41c0,-3.68 -2.98,-6.66 -6.66,-6.66 -3.68,0 -6.67,2.98 -6.67,6.66 0,3.68 2.99,6.67 6.67,6.67 3.68,0 6.66,-2.99 6.66,-6.67zm-8.49 -18.65c1.92,0 3.49,1.56 3.49,3.48 0,1.93 -1.57,3.49 -3.49,3.49 -1.92,0 -3.49,-1.56 -3.49,-3.49 0,-1.92 1.57,-3.48 3.49,-3.48zm14.33 25.78c1.01,1.77 1.84,3.15 2.52,4.29 1.49,2.5 2.26,3.8 2.44,4.89 0.21,1.21 -0.32,2.09 -1.43,3.92 -0.31,0.53 -0.68,1.13 -1.09,1.85 -0.37,0.65 -0.91,1.19 -1.54,1.55 -0.64,0.37 -1.37,0.57 -2.12,0.57l-24.73 0c-1.51,0 -2.96,-0.4 -4.22,-1.13 -1.26,-0.73 -2.33,-1.79 -3.07,-3.1 -0.76,-1.32 -1.39,-2.4 -1.94,-3.33 -1.75,-2.97 -2.68,-4.56 -2.84,-5.92 -0.19,-1.58 0.66,-2.76 2.48,-5.3 0.15,-0.2 0.31,-0.42 0.54,-0.75 0.44,-0.62 1.02,-1.11 1.68,-1.45 0.66,-0.34 1.4,-0.52 2.16,-0.52l11.21 0 0.14 0 0.06 0.13c0.8,2.06 2.28,3.49 4.01,4.26 0.96,0.43 2,0.66 3.05,0.69 1.05,0.02 2.1,-0.15 3.09,-0.54 1.75,-0.69 3.3,-2.04 4.2,-4.06l0.08 -0.17 0.18 0.05c1.08,0.32 2.08,0.84 2.96,1.54 0.87,0.69 1.62,1.54 2.18,2.53zm-2.1 10.07c0.21,0 0.35,-0.12 0.41,-0.26 0.02,-0.06 0.04,-0.13 0.04,-0.2 0,-0.07 -0.02,-0.13 -0.04,-0.19 -0.06,-0.15 -0.2,-0.26 -0.41,-0.26l-21.68 0c-0.77,0 -1.52,-0.21 -2.16,-0.59 -0.64,-0.38 -1.19,-0.93 -1.56,-1.6l-3.36 -6.04c-0.1,-0.19 -0.27,-0.25 -0.43,-0.24 -0.06,0.01 -0.13,0.03 -0.18,0.07 -0.06,0.03 -0.11,0.07 -0.15,0.12 -0.1,0.12 -0.14,0.3 -0.03,0.49l3.35 6.04c0.46,0.82 1.12,1.48 1.9,1.94 0.78,0.46 1.68,0.72 2.62,0.72l21.68 0zm-5.54 -22.06c1.24,1.25 2.01,2.97 2.01,4.86 0,1.9 -0.77,3.62 -2.01,4.87 -1.24,1.24 -2.96,2.01 -4.86,2.01 -1.9,0 -3.62,-0.77 -4.86,-2.01 -1.25,-1.25 -2.02,-2.97 -2.02,-4.87 0,-1.89 0.77,-3.61 2.02,-4.86 1.24,-1.24 2.96,-2.01 4.86,-2.01 1.9,0 3.62,0.77 4.86,2.01zm-6.69 -14.01c1.02,0 1.95,0.42 2.62,1.09 0.67,0.67 1.08,1.59 1.08,2.61l0 0c0,1.02 -0.41,1.95 -1.08,2.62 -0.67,0.67 -1.6,1.08 -2.62,1.08 -1.02,0 -1.94,-0.41 -2.61,-1.08 -0.67,-0.67 -1.09,-1.59 -1.09,-2.62 0,-1.02 0.42,-1.94 1.09,-2.61 0.67,-0.67 1.59,-1.09 2.61,-1.09z"/>
  </g>
 </g>
</svg>
