<?xml version="1.0" encoding="UTF-8"?>
<!DOCTYPE svg PUBLIC "-//W3C//DTD SVG 1.1//EN" "http://www.w3.org/Graphics/SVG/1.1/DTD/svg11.dtd">
<!-- Creator: CorelDRAW -->
<svg xmlns="http://www.w3.org/2000/svg" xml:space="preserve" width="64px" height="64px" version="1.1" style="shape-rendering:geometricPrecision; text-rendering:geometricPrecision; image-rendering:optimizeQuality; fill-rule:evenodd; clip-rule:evenodd"
viewBox="0 0 63.94 63.94"
 xmlns:xlink="http://www.w3.org/1999/xlink"
 xmlns:xodm="http://www.corel.com/coreldraw/odm/2003">
 <defs>
  <style type="text/css">
   <![CDATA[
    .fil2 {fill:#283752}
    .fil0 {fill:url(#id0)}
    .fil1 {fill:url(#id1);fill-rule:nonzero}
   ]]>
  </style>
  <linearGradient id="id0" gradientUnits="userSpaceOnUse" x1="31.97" y1="63.94" x2="31.97" y2="0">
   <stop offset="0" style="stop-opacity:1; stop-color:#2D4469"/>
   <stop offset="1" style="stop-opacity:1; stop-color:#0C71B5"/>
  </linearGradient>
  <linearGradient id="id1" gradientUnits="userSpaceOnUse" x1="31.97" y1="48.49" x2="31.97" y2="15.45">
   <stop offset="0" style="stop-opacity:1; stop-color:#BDCEE8"/>
   <stop offset="1" style="stop-opacity:1; stop-color:#FEFEFE"/>
  </linearGradient>
 </defs>
 <g id="Layer_x0020_1">
  <metadata id="CorelCorpID_0Corel-Layer"/>
  <rect class="fil0" width="63.94" height="63.94" rx="8.29" ry="8.53"/>
  <polygon class="fil1" points="31.97,48.49 53.65,20.57 46.55,15.45 31.97,34.84 17.39,15.45 10.29,20.57 "/>
  <g>
   <path id="_1" class="fil2" d="M31.97 48.49l21.68 -27.92 -7.1 -5.12 -14.58 19.39 -14.58 -19.39 -7.1 5.12 21.68 27.92zm21.85 -27.79l-21.68 27.92 -0.17 0.22 -0.17 -0.22 -21.68 -27.92 -0.14 -0.17 0.18 -0.13 7.1 -5.12 0.17 -0.12 0.12 0.16 14.42 19.17 14.41 -19.17 0.13 -0.16 0.17 0.12 7.1 5.12 0.17 0.13 -0.13 0.17z"/>
  </g>
 </g>
</svg>
