<?xml version="1.0" encoding="UTF-8"?>
<!DOCTYPE svg PUBLIC "-//W3C//DTD SVG 1.1//EN" "http://www.w3.org/Graphics/SVG/1.1/DTD/svg11.dtd">
<!-- Creator: CorelDRAW -->
<svg xmlns="http://www.w3.org/2000/svg" xml:space="preserve" width="64px" height="64px" version="1.1" style="shape-rendering:geometricPrecision; text-rendering:geometricPrecision; image-rendering:optimizeQuality; fill-rule:evenodd; clip-rule:evenodd"
viewBox="0 0 63.94 63.94"
 xmlns:xlink="http://www.w3.org/1999/xlink"
 xmlns:xodm="http://www.corel.com/coreldraw/odm/2003">
 <defs>
  <style type="text/css">
   <![CDATA[
    .fil2 {fill:#46633C}
    .fil0 {fill:url(#id0)}
    .fil1 {fill:url(#id1);fill-rule:nonzero}
   ]]>
  </style>
  <linearGradient id="id0" gradientUnits="userSpaceOnUse" x1="31.97" y1="63.94" x2="31.97" y2="0">
   <stop offset="0" style="stop-opacity:1; stop-color:#0F824C"/>
   <stop offset="1" style="stop-opacity:1; stop-color:#E4D132"/>
  </linearGradient>
  <linearGradient id="id1" gradientUnits="userSpaceOnUse" x1="31.97" y1="47.61" x2="31.97" y2="16.33">
   <stop offset="0" style="stop-opacity:1; stop-color:#CBE5D6"/>
   <stop offset="1" style="stop-opacity:1; stop-color:#FEFEFE"/>
  </linearGradient>
 </defs>
 <g id="Layer_x0020_1">
  <metadata id="CorelCorpID_0Corel-Layer"/>
  <rect class="fil0" width="63.94" height="63.94" rx="8.29" ry="8.53"/>
  <polygon class="fil1" points="50.9,23.45 45.36,16.33 32.03,26.54 18.18,16.33 12.65,23.6 24.54,32.13 13.04,40.49 18.57,47.61 31.91,37.4 45.75,47.61 51.29,40.34 39.4,31.81 "/>
  <g>
   <path id="_1" class="fil2" d="M50.9 23.45l-5.54 -7.12 -13.33 10.21 -13.85 -10.21 -5.53 7.27 11.89 8.53 -11.5 8.36 5.53 7.12 13.34 -10.21 13.84 10.21 5.54 -7.27 -11.89 -8.53 11.5 -8.36zm-5.37 -7.25l5.54 7.12 0.14 0.17 -0.18 0.13 -11.27 8.19 11.66 8.35 0.17 0.13 -0.13 0.18 -5.54 7.27 -0.12 0.16 -0.17 -0.12 -13.72 -10.11 -13.21 10.11 -0.16 0.13 -0.13 -0.17 -5.54 -7.12 -0.14 -0.17 0.18 -0.13 11.27 -8.19 -11.66 -8.35 -0.17 -0.13 0.13 -0.18 5.54 -7.27 0.12 -0.16 0.17 0.12 13.72 10.11 13.21 -10.11 0.16 -0.13 0.13 0.17z"/>
  </g>
 </g>
</svg>
