<?xml version="1.0" encoding="UTF-8"?>
<!DOCTYPE svg PUBLIC "-//W3C//DTD SVG 1.1//EN" "http://www.w3.org/Graphics/SVG/1.1/DTD/svg11.dtd">
<!-- Creator: CorelDRAW -->
<svg xmlns="http://www.w3.org/2000/svg" xml:space="preserve" width="64px" height="64px" version="1.1" style="shape-rendering:geometricPrecision; text-rendering:geometricPrecision; image-rendering:optimizeQuality; fill-rule:evenodd; clip-rule:evenodd"
viewBox="0 0 63.94 63.94"
 xmlns:xlink="http://www.w3.org/1999/xlink"
 xmlns:xodm="http://www.corel.com/coreldraw/odm/2003">
 <defs>
  <style type="text/css">
   <![CDATA[
    .fil2 {fill:#283752}
    .fil0 {fill:url(#id0)}
    .fil1 {fill:url(#id1);fill-rule:nonzero}
   ]]>
  </style>
  <linearGradient id="id0" gradientUnits="userSpaceOnUse" x1="31.97" y1="63.94" x2="31.97" y2="0">
   <stop offset="0" style="stop-opacity:1; stop-color:#0C71B5"/>
   <stop offset="1" style="stop-opacity:1; stop-color:#AF4C94"/>
  </linearGradient>
  <linearGradient id="id1" gradientUnits="userSpaceOnUse" x1="31.97" y1="47.61" x2="31.97" y2="16.33">
   <stop offset="0" style="stop-opacity:1; stop-color:#CAE7E8"/>
   <stop offset="1" style="stop-opacity:1; stop-color:#FEFEFE"/>
  </linearGradient>
 </defs>
 <g id="Layer_x0020_1">
  <metadata id="CorelCorpID_0Corel-Layer"/>
  <rect class="fil0" width="63.94" height="63.94" rx="8.29" ry="8.53"/>
  <path class="fil1" d="M31.99 47.61c12.52,0 20.9,-6.73 20.9,-15.64 0,-8.91 -8.38,-15.64 -20.9,-15.64 -12.56,0 -20.94,6.73 -20.94,15.64 0,8.91 8.38,15.64 20.94,15.64zm0 -8.02c-6.12,0 -11.19,-2.89 -11.19,-7.62 0,-4.77 5.07,-7.62 11.19,-7.62 6.08,0 11.15,2.85 11.15,7.62 0,4.73 -5.07,7.62 -11.15,7.62z"/>
  <g>
   <path id="_1" class="fil2" d="M31.99 47.61c12.52,0 20.9,-6.73 20.9,-15.64 0,-8.91 -8.38,-15.64 -20.9,-15.64 -12.56,0 -20.94,6.73 -20.94,15.64 0,8.91 8.38,15.64 20.94,15.64zm0 -8.02c-6.12,0 -11.19,-2.89 -11.19,-7.62 0,-4.77 5.07,-7.62 11.19,-7.62 6.08,0 11.15,2.85 11.15,7.62 0,4.73 -5.07,7.62 -11.15,7.62zm15.14 3.81c-3.69,2.77 -8.91,4.42 -15.14,4.42 -6.25,0 -11.47,-1.65 -15.17,-4.41 -3.8,-2.84 -5.98,-6.86 -5.98,-11.44 0,-4.58 2.18,-8.6 5.98,-11.44 3.7,-2.76 8.92,-4.41 15.17,-4.41 6.23,0 11.45,1.65 15.14,4.41 3.79,2.85 5.97,6.86 5.97,11.44 0,4.58 -2.18,8.59 -5.97,11.43zm-23.1 -6.15c2.01,1.37 4.84,2.13 7.96,2.13 3.1,0 5.92,-0.76 7.93,-2.13 1.86,-1.27 3.01,-3.07 3.01,-5.28 0,-2.23 -1.15,-4.02 -3,-5.29 -2.01,-1.37 -4.84,-2.12 -7.94,-2.12 -3.12,0 -5.96,0.75 -7.97,2.12 -1.86,1.26 -3.01,3.06 -3.01,5.29 0,2.21 1.15,4.01 3.02,5.28z"/>
  </g>
 </g>
</svg>
