<?xml version='1.0' encoding='UTF-8'?>
<svg viewBox="-6 -4 32 32" xmlns="http://www.w3.org/2000/svg" xmlns:xlink="http://www.w3.org/1999/xlink">
  <g id="Layer_1" transform="translate(-6, -4)" style="enable-background:new 0 0 32 32">
    <g id="Bell">
      <path d="M22, 18L22, 12C22, 9.4 20.3, 7.2 18, 6.3C18, 6.2 18, 6.1 18, 6C18, 4.9 17.1, 4 16, 4C14.9, 4 14, 4.9 14, 6C14, 6.1 14, 6.2 14, 6.3C11.7, 7.1 10, 9.3 10, 12L10, 18L6, 22L6, 24L26, 24L26, 22L22, 18z" fill="#FFB115" class="Yellow" />
    </g>
  </g>
  <g id="Layer_1" transform="translate(-6, -4)" style="enable-background:new 0 0 32 32">
    <g id="Bell">
      <path d="M16, 28C17.1, 28 18, 27.1 18, 26L14, 26C14, 27.1 14.9, 28 16, 28z" fill="#FFB115" class="Yellow" />
    </g>
  </g>
</svg>