<?xml version='1.0' encoding='UTF-8'?>
<svg viewBox="-1.9 -1.9925 32 32" xmlns="http://www.w3.org/2000/svg" xmlns:xlink="http://www.w3.org/1999/xlink">
  <g id="Layer_1" transform="translate(-1.9, -1.9925)" style="enable-background:new 0 0 32 32">
    <g id="Fingerprint">
      <path d="M23, 6C22.8, 6 22.6, 5.9 22.5, 5.8C22.2, 5.6 15.9, 1.7 7.5, 5.8C7, 6.1 6.4, 5.9 6.1, 5.4C5.9, 4.9 6.1, 4.3 6.6, 4.1C16, -0.6 23.2, 4 23.5, 4.2C24, 4.5 24.1, 5.1 23.8, 5.6C23.6, 5.8 23.3, 6 23, 6zM3.7, 13.7C14.6, 2.3 25.9, 11.4 26.3, 11.8C26.7, 12.2 27.4, 12.1 27.7, 11.7C28.1, 11.3 28, 10.6 27.6, 10.3C27.5, 10.2 14.5, -0.4 2.2, 12.4C1.8, 12.8 1.8, 13.4 2.2, 13.8C2.5, 13.9 2.8, 14 3, 14C3.3, 14 3.5, 13.9 3.7, 13.7zM24, 27C24, 26.4 23.6, 26 23, 26C17.7, 26 16, 22.7 15.9, 22.6C15.7, 22.1 15.1, 21.9 14.6, 22.2C14.1, 22.4 13.9, 23 14.2, 23.5C14.3, 23.7 16.6, 28.1 23.1, 28.1C23.6, 28 24, 27.6 24, 27zM15.9, 29.4C16.1, 28.9 15.9, 28.3 15.5, 28.1C15.5, 28.1 12, 26.3 12, 23C12, 21.3 13.3, 20 15, 20C16.6, 20 17.3, 20.8 18.3, 21.7C19.3, 22.7 20.6, 24 23, 24C25.8, 24 28, 21.8 28, 19C28, 15.8 24, 10 16, 10C7.6, 10 2, 16 2, 25C2, 25.6 2.4, 26 3, 26C3.6, 26 4, 25.6 4, 25C4, 17.1 8.7, 12 16, 12C22.6, 12 26, 16.6 26, 19C26, 20.7 24.7, 22 23, 22C21.4, 22 20.7, 21.2 19.7, 20.3C18.7, 19.3 17.4, 18 15, 18C12.2, 18 10, 20.2 10, 23C10, 27.6 14.4, 29.8 14.6, 29.9C14.7, 30 14.8, 30 15, 30C15.4, 30 15.7, 29.8 15.9, 29.4zM9.7, 29.8C10.1, 29.4 10.2, 28.8 9.8, 28.4C9.8, 28.4 8, 26.3 8, 23.1C8, 20.7 10.3, 16.1 16, 16.1C20.3, 16.1 22, 19.4 22.1, 19.6C22.3, 20.1 22.9, 20.3 23.4, 20C23.9, 19.8 24.1, 19.2 23.8, 18.7C23.8, 18.4 21.6, 14 16, 14C9.5, 14 6, 19.2 6, 23C6, 27 8.1, 29.5 8.2, 29.7C8.4, 29.9 8.7, 30 9, 30C9.2, 30 9.5, 29.9 9.7, 29.8z" fill="#727272" class="Black" />
    </g>
  </g>
</svg>