<?xml version="1.0" encoding="UTF-8"?>
<!DOCTYPE svg PUBLIC "-//W3C//DTD SVG 1.1//EN" "http://www.w3.org/Graphics/SVG/1.1/DTD/svg11.dtd">
<!-- Creator: CorelDRAW -->
<svg xmlns="http://www.w3.org/2000/svg" xml:space="preserve" width="16px" height="16px" version="1.1" style="shape-rendering:geometricPrecision; text-rendering:geometricPrecision; image-rendering:optimizeQuality; fill-rule:evenodd; clip-rule:evenodd"
viewBox="0 0 15.98 15.99"
 xmlns:xlink="http://www.w3.org/1999/xlink"
 xmlns:xodm="http://www.corel.com/coreldraw/odm/2003">
 <defs>
  <style type="text/css">
   <![CDATA[
    .fil0 {fill:#002F5C}
    .fil1 {fill:#003D71}
    .fil2 {fill:#00ACB6}
    .fil4 {fill:#68C1C3}
    .fil5 {fill:#98D1D1}
    .fil3 {fill:#CAE7E8}
   ]]>
  </style>
 </defs>
 <g id="Layer_x0020_1">
  <metadata id="CorelCorpID_0Corel-Layer"/>
  <path class="fil0" d="M2.13 0l7.42 0 0 15.99 -7.42 0c-1.17,0 -2.13,-0.96 -2.13,-2.14l0 -11.72c0,-1.17 0.96,-2.13 2.13,-2.13z"/>
  <path class="fil1" d="M7.99 0l5.86 0c1.17,0 2.13,0.96 2.13,2.13l0 11.72c0,1.18 -0.96,2.13 -2.13,2.13l-5.86 0 0 -15.98z"/>
  <path class="fil2" d="M7.5 2.62c-3.29,0.24 -5.5,2.25 -5.7,4.91l3 0c0.2,-1.2 1.3,-1.97 2.7,-2.16l0 -2.75z"/>
  <path class="fil3" d="M14.59 7.53c-0.21,-2.79 -2.64,-4.87 -6.2,-4.94l0 2.74c1.62,0.05 2.97,0.86 3.19,2.2l3.01 0z"/>
  <path class="fil4" d="M7.5 10.47c-1.32,-0.18 -2.37,-0.88 -2.65,-1.96l-3.03 0c0.29,2.56 2.47,4.47 5.68,4.72l0 -2.76z"/>
  <path class="fil5" d="M8.39 13.25c3.48,-0.07 5.87,-2.05 6.18,-4.74l-3.03 0c-0.32,1.21 -1.61,1.95 -3.15,2.01l0 2.73z"/>
 </g>
</svg>
