<?xml version="1.0" encoding="UTF-8"?>
<!DOCTYPE svg PUBLIC "-//W3C//DTD SVG 1.1//EN" "http://www.w3.org/Graphics/SVG/1.1/DTD/svg11.dtd">
<!-- Creator: CorelDRAW -->
<svg xmlns="http://www.w3.org/2000/svg" xml:space="preserve" width="32px" height="32px" version="1.1" style="shape-rendering:geometricPrecision; text-rendering:geometricPrecision; image-rendering:optimizeQuality; fill-rule:evenodd; clip-rule:evenodd"
viewBox="0 0 31.97 31.97"
 xmlns:xlink="http://www.w3.org/1999/xlink"
 xmlns:xodm="http://www.corel.com/coreldraw/odm/2003">
 <defs>
  <style type="text/css">
   <![CDATA[
    .fil0 {fill:#002F5C}
    .fil1 {fill:#003D71}
    .fil2 {fill:#00ACB6}
    .fil4 {fill:#68C1C3}
    .fil5 {fill:#98D1D1}
    .fil3 {fill:#CAE7E8}
   ]]>
  </style>
 </defs>
 <g id="Layer_x0020_1">
  <metadata id="CorelCorpID_0Corel-Layer"/>
  <path class="fil0" d="M4.26 0l14.85 0 0 31.97 -14.85 0c-2.34,0 -4.26,-1.92 -4.26,-4.26l0 -23.44c0,-2.35 1.92,-4.27 4.26,-4.27z"/>
  <path class="fil1" d="M15.98 0l11.72 0c2.35,0 4.27,1.92 4.27,4.26l0 23.45c0,2.34 -1.92,4.26 -4.27,4.26l-11.72 0 0 -31.97z"/>
  <path class="fil2" d="M15.01 5.23c-6.6,0.5 -11.02,4.51 -11.41,9.82l6 0c0.4,-2.39 2.61,-3.93 5.41,-4.31l0 -5.51z"/>
  <path class="fil3" d="M29.17 15.05c-0.41,-5.58 -5.26,-9.72 -12.39,-9.87l0 5.47c3.25,0.12 5.94,1.73 6.39,4.4l6 0z"/>
  <path class="fil4" d="M15.01 20.94c-2.64,-0.36 -4.75,-1.76 -5.32,-3.91l-6.06 0c0.59,5.11 4.95,8.94 11.38,9.42l0 -5.51z"/>
  <path class="fil5" d="M16.78 26.5c6.95,-0.14 11.74,-4.09 12.35,-9.47l-6.05 0c-0.64,2.41 -3.22,3.89 -6.3,4l0 5.47z"/>
 </g>
</svg>
