<svg id="Capa_1" enable-background="new 0 0 510.916 510.916" height="512" viewBox="0 0 510.916 510.916" width="512" xmlns="http://www.w3.org/2000/svg"><path d="m503.755 123.244-27.135-16.634c-10.696-21.044-31.259-35.976-54.769-39.442l-6.379-.941-.142-36.839c-.027-7.157-5.107-13.297-12.132-14.666-7.026-1.371-14.037 2.416-16.75 9.04l-18.563 45.336c-.258.63-.455 1.276-.624 1.928-32.401 13.178-55.307 45.003-55.307 82.081v26.12c0 19.33-15.67 35-35 35h-10.018c-79.953 0-145 65.047-145 145v.694.039 66.509c0 14.875 4.654 28.656 12.565 39.996h-75.145c-16.187-.001-29.356-13.17-29.356-29.357 0-16.188 13.169-29.356 29.356-29.356h7.469c8.284 0 15-6.716 15-15s-6.716-15-15-15h-7.469c-32.729 0-59.356 26.627-59.356 59.356s26.627 59.355 59.356 59.355l276.989.01c1.124 0 2.231-.068 3.329-.17v-25.439c0-14.115-11.484-25.6-25.6-25.6h-22.462c-8.284 0-15-6.716-15-15v-61.484c0-34.373-27.964-62.337-62.337-62.337-8.284 0-15-6.716-15-15s6.716-15 15-15c50.915 0 92.337 41.422 92.337 92.337v46.484h7.462c30.657 0 55.6 24.941 55.6 55.6v2.543c.002-.005.004-.01.006-.015 6.376 13.624 20.199 23.066 36.234 23.069l20.007.003c16.568 0 30-13.431 30-30s-13.431-30-30-30v-69.73c26.637-33.988 41.262-76.255 41.262-119.495v-40.248l30.083-21.881c3.037-2.209 5.134-5.476 5.879-9.156l7.473-36.949c1.249-6.173-1.493-12.469-6.863-15.761zm-47.223 15.321c-2.8 2.79-6.66 4.391-10.61 4.391s-7.81-1.601-10.609-4.391c-2.79-2.8-4.391-6.659-4.391-10.609s1.601-7.811 4.391-10.61c2.8-2.79 6.659-4.39 10.609-4.39s7.811 1.6 10.61 4.39c2.79 2.8 4.39 6.66 4.39 10.61-.001 3.95-1.6 7.809-4.39 10.609z"/></svg>