<?xml version="1.0"?>
<svg xmlns="http://www.w3.org/2000/svg" id="Layer_1" data-name="Layer 1" viewBox="0 0 64 64" width="512" height="512"><circle cx="13.5" cy="9.5" r="5.5"/><circle cx="50" cy="52" r="8"/><path d="M56,30a6,6,0,0,1-5-2.75,19.5,19.5,0,0,1-2.5-.87A19.49,19.49,0,0,0,41,25a19.39,19.39,0,0,0-7.44,1.38A20,20,0,0,1,25.75,28H6.31a26,26,0,0,0,0,8H25.39a23.24,23.24,0,0,1,8.49,1.75,21.62,21.62,0,0,0,14.25,0A23.25,23.25,0,0,1,56.63,36h1.06A26.33,26.33,0,0,0,58,32c0-.78,0-1.55-.11-2.31A5.9,5.9,0,0,1,56,30ZM41,36c-5,0-9-1.79-9-4s4-4,9-4,9,1.79,9,4S46,36,41,36Z"/><path d="M21,10H45.85A26,26,0,0,0,20.92,8.48a5.7,5.7,0,0,1,.08,1A4.19,4.19,0,0,1,21,10Z"/><path d="M18.15,54A26,26,0,0,0,41,56.39,9.64,9.64,0,0,1,40.2,54Z"/><path d="M10.77,17H13.5a7.25,7.25,0,0,1-2.43-.41Z"/><path d="M32.77,24.54A21.56,21.56,0,0,1,41,23a23.38,23.38,0,0,1,9.07,1.87A6.29,6.29,0,0,1,52.69,19H41a1,1,0,0,1,0-2H53.23a26.4,26.4,0,0,0-4.77-5.13A.91.91,0,0,1,48,12H20.56a7.49,7.49,0,0,1-7.06,5H37a1,1,0,0,1,0,2H9.49A25.88,25.88,0,0,0,6.7,26H25.75A17.81,17.81,0,0,0,32.77,24.54Z"/><path d="M26,46a1,1,0,0,1,1-1H42.85A10,10,0,0,1,50,42a9.87,9.87,0,0,1,5.3,1.53,25.5,25.5,0,0,0,2-5.53h-.67a21.15,21.15,0,0,0-7.76,1.61A21.8,21.8,0,0,1,41,41a21.7,21.7,0,0,1-7.86-1.39A21.14,21.14,0,0,0,25.39,38H6.7c.09.37.18.73.29,1.09A5.58,5.58,0,0,1,8,39a6,6,0,0,1,6,6h9a1,1,0,0,1,0,2H13.65a5.88,5.88,0,0,1-1.25,2.06,25.07,25.07,0,0,0,3,2.93H40a9.93,9.93,0,0,1,1.34-5H27A1,1,0,0,1,26,46Z"/><circle cx="56" cy="24" r="4"/><circle cx="8" cy="45" r="4"/></svg>
