<svg id="Capa_1" enable-background="new 0 0 512 512" height="512" viewBox="0 0 512 512" width="512" xmlns="http://www.w3.org/2000/svg"><g><path d="m50.885 482.118c13.919 12.533 28.005 21.649 38.175 27.451 5.614 3.202 12.463 3.251 18.097.085 33.722-18.858 60.705-45.475 76.197-80.859 12.353-28.451 11.715-51.22 11.708-51.446-.01-.228-.012-.383-.012-.612 0-54.554-43.749-98.937-97.524-98.937-53.777 0-97.526 44.383-97.526 98.937 0 39.524 17.12 74.979 50.885 105.381zm46.65-159.759c31.429 0 56.999 25.94 56.999 57.825s-25.57 57.825-56.999 57.825-56.999-25.94-56.999-57.825 25.57-57.825 56.999-57.825z"/><circle cx="97.535" cy="378.721" r="26.999"/><path d="m512 244.32c0-41.523-10.303-81.456-29.674-116.905h-121.975c-26.445 0-47.96 21.515-47.96 47.959 0 26.445 21.515 47.96 47.96 47.96h21.311c8.284 0 15 6.716 15 15v6.378c0 53.238 41.124 97.047 93.273 101.343 14.443-31.512 22.065-66.035 22.065-101.735z"/><path d="m174.965 59.893v-41.478c-29.323 12.123-56.251 30.032-79.363 53.145-24.578 24.578-43.272 53.471-55.38 84.97h38.106c53.286 0 96.637-43.351 96.637-96.637z"/><path d="m441.123 417.081c13.127-13.127 24.571-27.489 34.235-42.817-58.597-10.686-103.793-60.274-107.734-120.929h-6.59c-42.987 0-77.96-34.973-77.96-77.959 0-42.987 34.973-77.96 77.96-77.96h102.586c-6.838-9.049-14.336-17.695-22.497-25.855-46.145-46.147-107.5-71.561-172.761-71.561-21.705 0-42.972 2.827-63.397 8.277v51.615c0 69.828-56.809 126.637-126.637 126.637h-47.434c-4.515 18.7-6.852 38.065-6.852 57.791 0 8.832.533 17.891 1.259 25.963 20.547-14.171 45.43-22.483 72.223-22.483 70.235 0 127.391 57.075 127.523 127.28.104 3.767.263 29.833-13.529 62.015-4.952 11.556-12.142 24.816-22.545 38.457 29.268 10.136 62.19 13.089 79.389 13.089 65.261 0 126.616-25.414 172.761-71.56z"/></g></svg>