<svg height="512" viewBox="0 0 441.98 512" width="512" xmlns="http://www.w3.org/2000/svg"><g id="Layer_2" data-name="Layer 2"><g id="Portable_Document_Format_File" data-name="Portable Document Format File"><path d="m395.42 101.83a7.38 7.38 0 0 0 -2.16-5.17l-94.2-94.54a7.23 7.23 0 0 0 -5.14-2.12h-240.35a7.31 7.31 0 0 0 -7.31 7.3v217.87h349.16z"/><path d="m110.14 309.45h-13.65v14.08 14.13c5.11 0 10.34-.05 13.58-.05 7.94 0 14.65-6.45 14.65-14.08s-6.64-14.08-14.58-14.08z"/><path d="m220.17 309.45h-14.17c0 12.52.05 29.41.05 36.41 0 8.3.05 24.51.08 36.56 5.51 0 11.22-.08 14.62-.14 18-.32 26-18.46 26-36.31.04-8.56-1.88-36.52-26.58-36.52z"/><path d="m427 255.17h-412a15 15 0 0 0 -15 15v158.3a15 15 0 0 0 15 15h412a15 15 0 0 0 15-15v-158.3a15 15 0 0 0 -15-15zm-316.86 112.44c-3.21 0-8.52 0-13.69.05v29.84a15 15 0 0 1 -30 0v-103c0-.19 0-.36 0-.55s0-.62 0-.93.09-.62.14-.93 0-.35.08-.52c.07-.38.17-.74.27-1.1 0-.11 0-.22.08-.32.12-.38.25-.75.4-1.12a2.77 2.77 0 0 1 .1-.26c.14-.36.31-.7.48-1 .05-.09.09-.2.14-.29.17-.32.36-.61.55-.91.07-.12.13-.24.21-.36s.39-.53.59-.79.19-.27.29-.39c.23-.28.47-.54.72-.8.09-.09.16-.19.25-.28.35-.35.71-.67 1.09-1l.2-.15c.32-.25.64-.5 1-.72l.21-.13c.34-.22.69-.44 1-.63l.13-.07c.39-.2.79-.39 1.2-.56h.06c.43-.17.87-.33 1.32-.47h.08c.44-.13.89-.25 1.34-.34h.31c.38-.07.76-.14 1.15-.18a14.78 14.78 0 0 1 1.5-.07h28.69c24.62 0 44.65 19.77 44.65 44.08s-19.92 43.9-44.54 43.9zm111.15 44.66c-8.33.15-29.16.23-30 .23h-.06a15 15 0 0 1 -14.94-13.92 14.65 14.65 0 0 1 -.26-2.75v-101.27-.07a15 15 0 0 1 15-15h29.18c17.61 0 32.92 7.5 43.11 21.13 8.84 11.83 13.51 27.52 13.51 45.39-.04 37.82-23.38 65.7-55.54 66.26zm135.63-82.27a15 15 0 1 1 0 30h-23.45v37.5a15 15 0 0 1 -30 0v-103a15 15 0 0 1 15-15h41.77a15 15 0 0 1 0 30h-26.77v20.5z"/><path d="m46.26 504.7a7.31 7.31 0 0 0 7.31 7.3h334.54a7.31 7.31 0 0 0 7.31-7.3v-31.23h-349.16z"/></g></g></svg>