<svg id="Capa_1" enable-background="new 0 0 574.908 574.908" height="512" viewBox="0 0 574.908 574.908" width="512" xmlns="http://www.w3.org/2000/svg"><g><g id="XMLID_1_"><path d="m507.72 349.07c83.41 145.98 82.5 111.84 32.92 198.61-9.61 16.8-27.59 27.23-46.93 27.23h-333.43c-39.48 0-76.19-21.3-95.78-55.58-78.56-137.47-83.65-119.45-23.83-203.21 11.36-15.92 29.83-25.42 49.39-25.42h151.14c34.74 88.75 159.61 92.29 198.84 4.77 28.33 8.37 52.67 27.37 67.68 53.6zm-25.9 137.09c11.88 0 11.89-17.97 0-17.97h-292.25c-19.79 0-38.06-10.75-47.67-28.05l-45.24-81.43c-5.77-10.4-21.48-1.66-15.71 8.73l45.24 81.43c12.78 23 37.07 37.29 63.38 37.29z"/><circle cx="341.62" cy="251.52" r="89.83"/><path d="m317.01 0c25.92 0 47.01 21.09 47.02 47.02 0 25.92-21.1 47.01-47.02 47.01-25.93 0-47.02-21.09-47.02-47.01 0-25.93 21.09-47.02 47.02-47.02z"/><path d="m203.37 96.37c28.27 28.26 28.27 74.09 0 102.35-28.26 28.27-74.09 28.27-102.35 0-28.26-28.26-28.26-74.09 0-102.35 28.26-28.27 74.09-28.27 102.35 0z"/></g></g></svg>