<?xml version='1.0' encoding='UTF-8'?>
<svg viewBox="0 -13.4325 32 32" xmlns="http://www.w3.org/2000/svg" xmlns:xlink="http://www.w3.org/1999/xlink">
  <defs tag="staticElement_id7935270">
    <style type="text/css">
    .fil0 {fill:#4B4B4D;fill-rule:nonzero}
   </style>
  </defs>
  <g transform="translate(0, 0.0004)">
    <g transform="matrix(1.1441, 0, 0, 1.1441, 0, 0)">
      <g transform="translate(-0.0239, -0.001)" style="shape-rendering:geometricPrecision;text-rendering:geometricPrecision;image-rendering:optimizeQuality;fill-rule:evenodd;clip-rule:evenodd" fill-rule="evenodd">
        <g transform="matrix(0.0142, 0, 0, 0.0142, 0, 0)">
          <g transform="matrix(0.74, 0, 0, 0.74, 1.6835, 0)">
            <g id="Layer_x0020_1">
              <path d="M133.25, 205.49C146.18, 205.49 157.23, 203.81 166.32, 200.53C175.41, 197.25 182.81, 192.75 188.63, 186.94C194.43, 181.13 198.65, 174.29 201.27, 166.51C203.9, 158.73 205.21, 150.39 205.21, 141.4C205.21, 123.41 199.4, 109.35 187.69, 99.23C175.97, 89.11 157.8, 84.05 133.25, 84.05L95.01, 84.05L95.01, 205.49L133.25, 205.49zM335.08, 422.51L249.06, 422.51C233.13, 422.51 221.7, 416.51 214.77, 404.52L146.74, 285.61C143.55, 280.55 139.99, 276.8 136.06, 274.46C132.12, 272.12 126.5, 270.99 119.19, 270.99L95.01, 270.99L95.01, 422.51L0, 422.51L0, 12.93L133.25, 12.93C162.86, 12.93 188.16, 15.93 209.05, 22.02C229.95, 28.11 247, 36.64 260.21, 47.51C273.43, 58.38 282.99, 71.22 288.98, 86.02C294.98, 100.83 297.98, 116.94 297.98, 134.37C297.98, 147.68 296.2, 160.23 292.64, 172.04C289.08, 183.85 283.83, 194.72 276.89, 204.74C269.96, 214.77 261.43, 223.76 251.22, 231.64C241.01, 239.51 229.2, 245.97 215.89, 251.03C222.08, 254.22 227.89, 258.15 233.32, 262.93C238.76, 267.71 243.63, 273.43 247.94, 279.99L335.08, 422.51zM444.72, 131L444.72, 422.51L357.57, 422.51L357.57, 131L444.72, 131zM453.71, 51.16C453.71, 58.1 452.31, 64.56 449.5, 70.65C446.69, 76.74 442.84, 82.09 437.97, 86.68C433.1, 91.27 427.48, 94.92 421.01, 97.64C414.55, 100.36 407.61, 101.76 400.3, 101.76C393.18, 101.76 386.53, 100.36 380.34, 97.64C374.16, 94.92 368.72, 91.27 363.95, 86.68C359.17, 82.09 355.42, 76.74 352.7, 70.65C349.98, 64.56 348.58, 58.1 348.58, 51.16C348.58, 44.04 349.98, 37.39 352.7, 31.2C355.42, 25.02 359.17, 19.58 363.95, 14.9C368.72, 10.21 374.16, 6.56 380.34, 3.94C386.53, 1.31 393.18, 0 400.3, 0C407.61, 0 414.55, 1.31 421.01, 3.94C427.48, 6.56 433.1, 10.21 437.97, 14.9C442.84, 19.58 446.69, 25.02 449.5, 31.2C452.31, 37.39 453.71, 44.04 453.71, 51.16zM722.46, 165.86C722.46, 171.85 721.42, 177.66 719.36, 183.29C717.3, 188.91 714.58, 193.5 711.21, 197.06L589.49, 357.86L719.64, 357.86L719.64, 422.51L489.13, 422.51L489.13, 387.09C489.13, 383.53 490.07, 379.03 491.94, 373.6C493.82, 368.16 496.63, 363.1 500.38, 358.42L623.22, 195.65L497, 195.65L497, 131L722.46, 131L722.46, 165.86zM897.31, 126.5C919.42, 126.5 939.57, 129.97 957.74, 136.9C975.92, 143.84 991.57, 153.77 1004.6, 166.7C1017.62, 179.63 1027.74, 195.28 1034.96, 213.74C1042.17, 232.2 1045.73, 253 1045.73, 276.05C1045.73, 299.29 1042.17, 320.19 1034.96, 338.83C1027.74, 357.48 1017.62, 373.32 1004.6, 386.34C991.57, 399.37 975.92, 409.39 957.74, 416.42C939.57, 423.45 919.42, 427.01 897.31, 427.01C875, 427.01 854.76, 423.45 836.49, 416.42C818.22, 409.39 802.48, 399.37 789.27, 386.34C776.05, 373.32 765.84, 357.48 758.62, 338.83C751.41, 320.19 747.76, 299.29 747.76, 276.05C747.76, 253 751.41, 232.2 758.62, 213.74C765.84, 195.28 776.05, 179.63 789.27, 166.7C802.48, 153.77 818.22, 143.84 836.49, 136.9C854.76, 129.97 875, 126.5 897.31, 126.5zM897.31, 362.35C917.36, 362.35 932.16, 355.23 941.63, 341.08C951.09, 326.93 955.78, 305.47 955.78, 276.61C955.78, 247.75 951.09, 226.29 941.63, 212.24C932.16, 198.18 917.36, 191.16 897.31, 191.16C876.69, 191.16 861.6, 198.18 852.05, 212.24C842.49, 226.29 837.71, 247.75 837.71, 276.61C837.71, 305.47 842.49, 326.93 852.05, 341.08C861.6, 355.23 876.69, 362.35 897.31, 362.35zM1169.98, 162.48C1175.61, 157.24 1181.42, 152.36 1187.41, 147.87C1193.41, 143.37 1199.88, 139.53 1206.72, 136.43C1213.56, 133.34 1220.96, 130.9 1228.92, 129.12C1236.89, 127.34 1245.51, 126.5 1254.88, 126.5C1270.81, 126.5 1284.96, 129.22 1297.23, 134.75C1309.51, 140.27 1319.82, 147.96 1328.25, 157.8C1336.68, 167.64 1343.06, 179.35 1347.37, 192.94C1351.68, 206.52 1353.83, 221.33 1353.83, 237.26L1353.83, 422.51L1266.69, 422.51L1266.69, 237.26C1266.69, 223.02 1263.41, 211.86 1256.85, 203.9C1250.29, 195.93 1240.64, 192 1227.89, 192C1218.34, 192 1209.43, 193.97 1201.09, 198C1192.75, 202.03 1184.6, 207.55 1176.73, 214.49L1176.73, 422.51L1089.59, 422.51L1089.59, 131L1143.56, 131C1154.43, 131 1161.55, 135.87 1164.92, 145.62L1169.98, 162.48zM1591.37, 241.76C1591.37, 234.82 1590.53, 228.08 1588.74, 221.52C1586.96, 214.96 1584.06, 209.05 1580.03, 203.9C1576, 198.75 1570.66, 194.62 1564.1, 191.44C1557.54, 188.25 1549.58, 186.66 1540.21, 186.66C1523.72, 186.66 1510.78, 191.34 1501.41, 200.81C1492.04, 210.27 1485.86, 223.95 1482.86, 241.76L1591.37, 241.76zM1481.74, 292.36C1484.55, 316.72 1491.95, 334.34 1503.94, 345.3C1515.94, 356.26 1531.4, 361.79 1550.33, 361.79C1560.45, 361.79 1569.16, 360.57 1576.47, 358.14C1583.78, 355.7 1590.34, 352.98 1596.06, 349.98C1601.77, 346.99 1607.02, 344.27 1611.8, 341.83C1616.58, 339.4 1621.54, 338.18 1626.79, 338.18C1633.72, 338.18 1638.97, 340.71 1642.53, 345.77L1667.83, 376.97C1658.84, 387.28 1649.18, 395.62 1638.78, 402.08C1628.38, 408.55 1617.7, 413.61 1606.74, 417.26C1595.77, 420.92 1584.81, 423.45 1573.85, 424.85C1562.88, 426.26 1552.39, 427.01 1542.46, 427.01C1522.03, 427.01 1502.91, 423.64 1485.02, 416.98C1467.12, 410.33 1451.47, 400.49 1438.07, 387.37C1424.67, 374.25 1414.08, 357.95 1406.3, 338.46C1398.53, 318.97 1394.59, 296.29 1394.59, 270.43C1394.59, 250.94 1397.96, 232.48 1404.62, 215.05C1411.27, 197.62 1420.83, 182.35 1433.29, 169.23C1445.75, 156.11 1460.84, 145.71 1478.55, 138.03C1496.26, 130.34 1516.22, 126.5 1538.52, 126.5C1557.82, 126.5 1575.53, 129.5 1591.56, 135.5C1607.58, 141.49 1621.35, 150.21 1632.88, 161.64C1644.4, 173.07 1653.4, 187.03 1659.87, 203.62C1666.33, 220.2 1669.52, 239.04 1669.52, 260.03C1669.52, 266.59 1669.24, 271.93 1668.68, 276.05C1668.11, 280.17 1667.08, 283.45 1665.58, 285.89C1664.08, 288.33 1662.12, 290.01 1659.58, 290.95C1657.06, 291.89 1653.78, 292.36 1649.84, 292.36L1481.74, 292.36zM1898.34, 194.81C1896.09, 198.37 1893.75, 200.9 1891.22, 202.4C1888.69, 203.9 1885.41, 204.65 1881.48, 204.65C1877.35, 204.65 1873.23, 203.71 1869.11, 201.93C1864.98, 200.15 1860.58, 198.28 1855.8, 196.22C1851.02, 194.15 1845.59, 192.19 1839.59, 190.41C1833.59, 188.63 1826.75, 187.78 1819.07, 187.78C1808.01, 187.78 1799.58, 189.84 1793.68, 194.06C1787.77, 198.28 1784.77, 204.18 1784.77, 211.68C1784.77, 217.11 1786.74, 221.61 1790.58, 225.17C1794.42, 228.73 1799.48, 231.82 1805.86, 234.54C1812.23, 237.26 1819.44, 239.88 1827.5, 242.32C1835.56, 244.75 1843.81, 247.47 1852.24, 250.47C1860.67, 253.47 1868.92, 256.94 1876.98, 260.97C1885.04, 264.99 1892.25, 269.96 1898.62, 275.86C1905, 281.77 1910.15, 288.98 1913.99, 297.42C1917.83, 305.85 1919.71, 315.97 1919.71, 327.78C1919.71, 342.21 1917.08, 355.51 1911.84, 367.69C1906.59, 379.88 1898.81, 390.37 1888.41, 399.18C1878.01, 407.99 1865.17, 414.83 1849.9, 419.7C1834.62, 424.57 1817.01, 427.01 1797.14, 427.01C1787.21, 427.01 1777.28, 426.07 1767.34, 424.2C1757.41, 422.32 1747.85, 419.79 1738.58, 416.61C1729.3, 413.42 1720.68, 409.58 1712.81, 405.18C1704.94, 400.77 1698.19, 396.09 1692.57, 391.03L1712.81, 358.98C1715.06, 355.23 1717.96, 352.23 1721.43, 350.08C1724.9, 347.92 1729.3, 346.89 1734.74, 346.89C1739.8, 346.89 1744.39, 348.02 1748.42, 350.26C1752.44, 352.51 1756.76, 354.95 1761.44, 357.57C1766.13, 360.2 1771.66, 362.63 1777.93, 364.88C1784.21, 367.13 1792.08, 368.26 1801.64, 368.26C1808.39, 368.26 1814.1, 367.51 1818.79, 366.1C1823.47, 364.7 1827.22, 362.82 1830.03, 360.38C1832.84, 357.95 1834.9, 355.23 1836.22, 352.23C1837.53, 349.23 1838.18, 346.14 1838.18, 342.96C1838.18, 337.15 1836.22, 332.37 1832.28, 328.62C1828.34, 324.87 1823.19, 321.59 1816.82, 318.87C1810.45, 316.16 1803.23, 313.63 1795.08, 311.28C1786.93, 308.94 1778.59, 306.32 1770.16, 303.32C1761.72, 300.32 1753.48, 296.67 1745.32, 292.45C1737.17, 288.23 1729.86, 282.89 1723.49, 276.43C1717.12, 269.96 1711.96, 262.09 1708.03, 252.72C1704.09, 243.35 1702.13, 232.01 1702.13, 218.7C1702.13, 206.34 1704.56, 194.53 1709.34, 183.38C1714.12, 172.23 1721.24, 162.48 1730.8, 154.05C1740.36, 145.62 1752.35, 138.87 1766.78, 133.9C1781.21, 128.94 1798.08, 126.5 1817.38, 126.5C1827.88, 126.5 1838.09, 127.44 1847.93, 129.31C1857.77, 131.19 1866.95, 133.81 1875.57, 137.18C1884.19, 140.56 1892.06, 144.49 1899.18, 149.08C1906.31, 153.67 1912.58, 158.73 1918.02, 164.17L1898.34, 194.81zM2097.93, 126.5C2120.05, 126.5 2140.19, 129.97 2158.37, 136.9C2176.55, 143.84 2192.2, 153.77 2205.22, 166.7C2218.25, 179.63 2228.37, 195.28 2235.58, 213.74C2242.8, 232.2 2246.36, 253 2246.36, 276.05C2246.36, 299.29 2242.8, 320.19 2235.58, 338.83C2228.37, 357.48 2218.25, 373.32 2205.22, 386.34C2192.2, 399.37 2176.55, 409.39 2158.37, 416.42C2140.19, 423.45 2120.05, 427.01 2097.93, 427.01C2075.63, 427.01 2055.39, 423.45 2037.12, 416.42C2018.85, 409.39 2003.1, 399.37 1989.89, 386.34C1976.68, 373.32 1966.47, 357.48 1959.25, 338.83C1952.03, 320.19 1948.38, 299.29 1948.38, 276.05C1948.38, 253 1952.03, 232.2 1959.25, 213.74C1966.47, 195.28 1976.68, 179.63 1989.89, 166.7C2003.1, 153.77 2018.85, 143.84 2037.12, 136.9C2055.39, 129.97 2075.63, 126.5 2097.93, 126.5zM2097.93, 362.35C2117.98, 362.35 2132.79, 355.23 2142.25, 341.08C2151.72, 326.93 2156.4, 305.47 2156.4, 276.61C2156.4, 247.75 2151.72, 226.29 2142.25, 212.24C2132.79, 198.18 2117.98, 191.16 2097.93, 191.16C2077.32, 191.16 2062.23, 198.18 2052.67, 212.24C2043.11, 226.29 2038.34, 247.75 2038.34, 276.61C2038.34, 305.47 2043.11, 326.93 2052.67, 341.08C2062.23, 355.23 2077.32, 362.35 2097.93, 362.35zM2581.72, 191.16L2581.72, 335.93C2581.72, 342.68 2583.41, 348.2 2586.69, 352.61C2589.97, 357.01 2594.65, 359.26 2600.84, 359.26C2604.03, 359.26 2606.74, 358.89 2608.9, 358.23C2611.05, 357.57 2612.93, 356.82 2614.52, 355.98C2616.11, 355.14 2617.61, 354.39 2619.02, 353.73C2620.42, 353.08 2622.02, 352.8 2623.89, 352.8C2626.51, 352.8 2628.67, 353.36 2630.26, 354.58C2631.86, 355.79 2633.45, 357.76 2635.13, 360.38L2661.56, 401.71C2650.31, 410.14 2637.67, 416.42 2623.61, 420.64C2609.55, 424.85 2595.03, 427.01 2580.04, 427.01C2566.17, 427.01 2553.99, 424.95 2543.4, 420.92C2532.81, 416.89 2523.91, 411.17 2516.69, 403.77C2509.48, 396.37 2503.95, 387.47 2500.2, 376.97C2496.45, 366.48 2494.58, 354.76 2494.58, 341.83L2494.58, 191.16L2390.85, 191.16L2390.85, 422.51L2303.71, 422.51L2303.71, 190.87L2284.59, 186.94C2278.03, 185.44 2272.78, 183.1 2268.75, 179.91C2264.73, 176.73 2262.66, 172.04 2262.66, 165.86L2262.66, 131.56L2303.71, 131.56L2303.71, 114.97C2303.71, 98.3 2306.42, 83.21 2311.76, 69.72C2317.11, 56.22 2324.79, 44.7 2334.81, 35.14C2344.84, 25.58 2357.02, 18.18 2371.45, 12.93C2385.88, 7.68 2402.28, 5.06 2420.65, 5.06C2427.77, 5.06 2434.33, 5.44 2440.33, 6.28C2446.32, 7.12 2452.6, 8.53 2459.16, 10.4L2457.47, 52.85C2457.29, 55.85 2456.54, 58.28 2455.22, 60.25C2453.91, 62.22 2452.23, 63.81 2450.07, 65.03C2447.91, 66.25 2445.57, 67.19 2443.14, 67.75C2440.7, 68.31 2438.26, 68.59 2435.83, 68.59C2428.14, 68.59 2421.3, 69.34 2415.31, 70.84C2409.31, 72.34 2404.34, 74.96 2400.31, 78.81C2396.28, 82.65 2393.19, 87.71 2391.13, 93.99C2389.07, 100.26 2388.04, 108.23 2388.04, 117.79L2388.04, 131.56L2499.64, 131.56L2517.07, 59.88C2519.32, 50.88 2525.69, 46.38 2536.18, 46.38L2581.72, 46.38L2581.72, 131.56L2653.97, 131.56L2653.97, 191.16L2581.72, 191.16z" fill="#727272" class="Black" fill-rule="evenodd" />
            </g>
          </g>
        </g>
      </g>
    </g>
  </g>
</svg>