<?xml version="1.0" encoding="UTF-8"?>
<!DOCTYPE svg PUBLIC "-//W3C//DTD SVG 1.1//EN" "http://www.w3.org/Graphics/SVG/1.1/DTD/svg11.dtd">
<!-- Creator: CorelDRAW -->
<svg xmlns="http://www.w3.org/2000/svg" xml:space="preserve" width="512px" height="512px" version="1.1" style="shape-rendering:geometricPrecision; text-rendering:geometricPrecision; image-rendering:optimizeQuality; fill-rule:evenodd; clip-rule:evenodd"
viewBox="0 0 511.44 511.56"
 xmlns:xlink="http://www.w3.org/1999/xlink"
 xmlns:xodm="http://www.corel.com/coreldraw/odm/2003">
 <defs>
  <style type="text/css">
   <![CDATA[
    .fil0 {fill:#005A9E}
    .fil1 {fill:#106EBE}
    .fil2 {fill:url(#id0);fill-rule:nonzero}
   ]]>
  </style>
  <linearGradient id="id0" gradientUnits="userSpaceOnUse" x1="82.3" y1="255.8" x2="429.21" y2="255.8">
   <stop offset="0" style="stop-opacity:1; stop-color:#C8EBFA"/>
   <stop offset="1" style="stop-opacity:1; stop-color:#FEFEFE"/>
  </linearGradient>
 </defs>
 <g id="Layer_x0020_1">
  <metadata id="CorelCorpID_0Corel-Layer"/>
  <path class="fil0" d="M68.2 0.05l237.53 0 0 511.51 -237.53 0c-37.51,0 -68.2,-30.69 -68.2,-68.2l0 -375.11c0,-37.51 30.69,-68.2 68.2,-68.2z"/>
  <path class="fil1" d="M255.76 0l187.48 0c37.51,0 68.2,30.69 68.2,68.2l0 375.11c0,37.51 -30.69,68.2 -68.2,68.2l-187.48 0 0 -511.51z"/>
  <polygon class="fil2" points="255.76,387.95 429.21,164.63 372.43,123.65 255.76,278.79 139.08,123.65 82.3,164.63 "/>
 </g>
</svg>
