<?xml version="1.0" encoding="UTF-8"?>
<!DOCTYPE svg PUBLIC "-//W3C//DTD SVG 1.1//EN" "http://www.w3.org/Graphics/SVG/1.1/DTD/svg11.dtd">
<!-- Creator: CorelDRAW -->
<svg xmlns="http://www.w3.org/2000/svg" xml:space="preserve" width="119px" height="134px" version="1.1" style="shape-rendering:geometricPrecision; text-rendering:geometricPrecision; image-rendering:optimizeQuality; fill-rule:evenodd; clip-rule:evenodd"
viewBox="0 0 92.65 104.26"
 xmlns:xlink="http://www.w3.org/1999/xlink"
 xmlns:xodm="http://www.corel.com/coreldraw/odm/2003">
 <defs>
  <style type="text/css">
   <![CDATA[
    .fil6 {fill:url(#id0)}
    .fil4 {fill:url(#id1)}
    .fil7 {fill:url(#id2)}
    .fil3 {fill:url(#id3)}
    .fil5 {fill:url(#id4)}
    .fil8 {fill:url(#id5)}
    .fil1 {fill:url(#id6)}
    .fil0 {fill:url(#id7)}
    .fil2 {fill:url(#id8)}
   ]]>
  </style>
  <linearGradient id="id0" gradientUnits="userSpaceOnUse" x1="19.47" y1="-64.06" x2="41.23" y2="6.58">
   <stop offset="0" style="stop-opacity:1; stop-color:#E73C25"/>
   <stop offset="1" style="stop-opacity:1; stop-color:#FAA21B"/>
  </linearGradient>
  <linearGradient id="id1" gradientUnits="userSpaceOnUse" x1="3.31" y1="-78.62" x2="100.28" y2="-78.62">
   <stop offset="0" style="stop-opacity:1; stop-color:#F47920"/>
   <stop offset="1" style="stop-opacity:1; stop-color:#E93825"/>
  </linearGradient>
  <linearGradient id="id2" gradientUnits="userSpaceOnUse" x1="-111.43" y1="-46.82" x2="167.54" y2="-46.82">
   <stop offset="0" style="stop-opacity:1; stop-color:#FDBA12"/>
   <stop offset="1" style="stop-opacity:1; stop-color:#F7921E"/>
  </linearGradient>
  <linearGradient id="id3" gradientUnits="userSpaceOnUse" x1="46.47" y1="-61.41" x2="16.62" y2="-14.15">
   <stop offset="0" style="stop-opacity:1; stop-color:#EA4425"/>
   <stop offset="1" style="stop-opacity:1; stop-color:#FDBB27"/>
  </linearGradient>
  <linearGradient id="id4" gradientUnits="userSpaceOnUse" x1="-51.15" y1="-90.86" x2="153.46" y2="-90.86">
   <stop offset="0" style="stop-opacity:1; stop-color:#FDCA0B"/>
   <stop offset="1" style="stop-opacity:1; stop-color:#F5841F"/>
  </linearGradient>
  <linearGradient id="id5" gradientUnits="userSpaceOnUse" x1="0" y1="-68.93" x2="9.74" y2="-66.5">
   <stop offset="0" style="stop-opacity:1; stop-color:#FEBE2D"/>
   <stop offset="1" style="stop-opacity:1; stop-color:#F04E23"/>
  </linearGradient>
  <linearGradient id="id6" gradientUnits="userSpaceOnUse" x1="36.54" y1="-32.4" x2="41.41" y2="-44.58">
   <stop offset="0" style="stop-opacity:1; stop-color:#F78D1E"/>
   <stop offset="1" style="stop-opacity:1; stop-color:#F37121"/>
  </linearGradient>
  <linearGradient id="id7" gradientUnits="userSpaceOnUse" x1="40.36" y1="-93.29" x2="87.21" y2="-93.29">
   <stop offset="0" style="stop-opacity:1; stop-color:#FBAA19"/>
   <stop offset="1" style="stop-opacity:1; stop-color:#EF3E23"/>
  </linearGradient>
  <linearGradient id="id8" gradientUnits="userSpaceOnUse" xlink:href="#id5" x1="7.32" y1="-29.96" x2="65.5" y2="-93.29">
  </linearGradient>
 </defs>
 <g id="Layer_x0020_1">
  <metadata id="CorelCorpID_0Corel-Layer"/>
  <path class="fil0" d="M51.15 16.56l24.12 13.16 -22.17 -29.72c-3.65,4.87 -4.38,11.21 -1.95,16.56z"/>
  <path class="fil1" d="M40.19 65.04c2.92,0 5.36,2.43 5.36,5.6 0,2.92 -2.44,5.36 -5.6,5.36 -2.92,0 -5.36,-2.44 -5.36,-5.36 0.24,-2.92 2.68,-5.6 5.6,-5.6 0,0 0,0 0,0z"/>
  <path class="fil2" d="M23.63 4.39l67.23 36.53c1.7,0.73 2.19,2.68 1.46,4.39 -0.25,0.73 -0.73,1.22 -1.46,1.46 -5.12,3.17 -10.72,5.36 -16.57,6.33l-14.13 28.75c0,0 -4.38,9.98 -16.56,6.09 5.12,-5.12 11.21,-9.75 11.21,-17.54 0,-8.28 -6.58,-14.86 -14.86,-14.86 -8.29,0 -14.86,6.58 -14.86,14.86l0 0c0,10.23 10.23,14.61 15.83,21.68 2.44,3.65 2.19,8.52 -0.73,11.69 -6.82,-6.82 -20.22,-18.51 -25.82,-26.07 -2.92,-3.89 -4.63,-8.52 -4.87,-13.39 0.49,-10.72 7.79,-19.98 18.02,-23.14 3.17,-0.98 6.34,-1.22 9.5,-1.22 4.39,0.24 8.77,1.7 12.67,3.9 6.09,3.41 8.77,2.68 12.91,-0.98 2.44,-1.95 5.12,-8.52 0.97,-9.98 -1.46,-0.49 -2.67,-0.74 -4.14,-0.98 -7.55,-1.46 -20.94,-2.92 -25.82,-5.6 -7.79,-4.39 -13.15,-13.4 -9.98,-21.92z"/>
  <path class="fil3" d="M54.81 71.61l0 0zm0 -0.97c3.16,-16.32 -13.4,-31.91 -26.31,-29.72l0.97 -0.24c-0.73,0.24 -1.46,0.24 -1.95,0.49 -10.23,3.16 -17.53,12.42 -18.02,23.14 0,4.87 1.7,9.74 4.87,13.39 5.6,7.55 19,19.25 26.06,26.31 2.93,-3.17 3.41,-8.04 0.74,-11.69 -5.85,-7.07 -15.84,-11.45 -15.84,-21.68 0,-8.28 6.58,-14.86 14.86,-14.86 8.28,0 14.86,6.58 14.62,14.86l0 0z"/>
  <path class="fil4" d="M23.63 4.39l51.15 27.76 0 0 1.46 0.74c1.22,0.97 2.44,2.92 0.98,6.33 -2.44,5.11 -12.18,10.23 -23.39,6.33 3.41,0.98 5.85,-0.24 9.02,-2.68 2.43,-1.95 5.11,-8.52 0.97,-9.98 -1.46,-0.49 -2.68,-0.74 -4.14,-0.98 -7.55,-1.46 -20.95,-2.92 -25.82,-5.6 -8.04,-4.39 -13.4,-13.4 -10.23,-21.92z"/>
  <path class="fil5" d="M23.63 4.39c5.36,19.48 37.51,21.19 53.59,29.23l-53.59 -29.23z"/>
  <path class="fil6" d="M41.17 92.32c-5.61,-7.06 -15.84,-11.45 -15.84,-21.68 0,-7.55 5.6,-13.64 12.91,-14.61 -11.69,0 -21.19,9.49 -21.19,21.43 0,1.46 0.25,2.92 0.49,4.39 4.63,5.35 11.45,11.44 17.05,16.8 2.19,1.95 4.38,4.14 5.85,5.61 1.46,-1.71 2.19,-3.66 2.43,-5.85l0 0c0.24,-2.19 -0.49,-4.39 -1.7,-6.09z"/>
  <path class="fil7" d="M54.81 72.35c0,-0.49 0,-1.22 0,-1.71 3.16,-16.32 -13.64,-31.91 -26.31,-29.72 2.68,-0.73 5.6,-0.97 8.28,-0.73 16.81,0.49 21.68,18.51 18.03,32.16z"/>
  <path class="fil8" d="M5.6 36.05l0 0c2.93,0 5.6,2.44 5.6,5.6l0 5.61 -5.6 0c-2.92,0 -5.6,-2.44 -5.6,-5.61 0,0 0,0 0,0l0 0c0,-2.92 2.44,-5.6 5.6,-5.6z"/>
 </g>
</svg>
