<svg id="Capa_1" enable-background="new 0 0 511.92 511.92" height="512" viewBox="0 0 511.92 511.92" width="512" xmlns="http://www.w3.org/2000/svg"><g><path d="m94.207 270.961h-94.207c2.964 51.719 21.223 100.544 52.607 141.224 17.651-9.969 37.467-18.517 58.874-25.488-10.186-35.589-16.108-74.886-17.274-115.736z"/><path d="m94.207 240.961c1.166-40.851 7.088-80.148 17.275-115.739-21.408-6.97-41.223-15.518-58.874-25.488-31.385 40.681-49.644 89.507-52.608 141.227z"/><path d="m165.225 71.19c-5.696 10.518-10.839 21.798-15.411 33.713 28.49 6.809 59.317 10.875 91.148 11.848v-115.477c-28.023 6.409-54.482 30.665-75.737 69.916z"/><path d="m270.961 1.274v115.476c31.829-.973 62.656-5.04 91.146-11.848-4.573-11.914-9.716-23.195-15.411-33.713-21.255-39.249-47.714-63.505-75.735-69.915z"/><path d="m371.611 133.412c-31.512 7.743-65.581 12.331-100.65 13.35v94.198h116.738c-1.148-38.116-6.656-74.635-16.088-107.548z"/><path d="m120.837 415.148c-17.338 5.647-33.482 12.407-48.072 20.185.631.644 1.25 1.296 1.888 1.934 26.686 26.686 58.224 46.748 92.617 59.399-10.249-11.767-19.783-25.69-28.426-41.65-6.719-12.408-12.727-25.759-18.007-39.868z"/><path d="m391.083 96.772c17.338-5.647 33.482-12.407 48.072-20.184-.631-.644-1.25-1.296-1.888-1.934-26.686-26.686-58.224-46.748-92.617-59.399 10.249 11.767 19.783 25.69 28.426 41.65 6.719 12.407 12.727 25.758 18.007 39.867z"/><path d="m417.714 270.961c-1.166 40.85-7.089 80.147-17.275 115.737 21.408 6.97 41.223 15.518 58.874 25.488 31.385-40.68 49.643-89.505 52.607-141.224h-94.206z"/><path d="m391.083 415.148c-5.28 14.109-11.288 27.459-18.008 39.867-8.642 15.96-18.177 29.883-28.426 41.65 34.393-12.651 65.931-32.713 92.617-59.399.638-.638 1.257-1.29 1.887-1.934-14.589-7.776-30.732-14.537-48.07-20.184z"/><path d="m120.837 96.772c5.28-14.109 11.288-27.459 18.008-39.867 8.642-15.96 18.177-29.883 28.426-41.65-34.393 12.651-65.931 32.713-92.617 59.399-.638.638-1.257 1.29-1.887 1.934 14.589 7.777 30.732 14.537 48.07 20.184z"/><path d="m400.438 125.222c10.187 35.591 16.109 74.888 17.275 115.739h94.207c-2.964-51.72-21.223-100.546-52.607-141.226-17.652 9.969-37.467 18.517-58.875 25.487z"/><path d="m240.961 240.961v-94.198c-35.069-1.019-69.139-5.608-100.652-13.35-9.432 32.912-14.941 69.431-16.088 107.549h116.74z"/><path d="m270.961 270.961v94.196c35.068 1.02 69.138 5.608 100.65 13.35 9.432-32.912 14.94-69.43 16.088-107.547h-116.738z"/><path d="m346.695 440.731c5.696-10.518 10.839-21.798 15.411-33.713-28.49-6.809-59.316-10.875-91.146-11.848v115.476c28.022-6.41 54.481-30.666 75.735-69.915z"/><path d="m240.961 510.646v-115.476c-31.83.973-62.657 5.039-91.148 11.848 4.573 11.914 9.716 23.195 15.412 33.713 21.255 39.25 47.714 63.506 75.736 69.915z"/><path d="m240.961 270.961h-116.74c1.148 38.117 6.656 74.635 16.088 107.547 31.512-7.743 65.582-12.331 100.652-13.35z"/></g></svg>