<svg width="500" height="115" xmlns="http://www.w3.org/2000/svg">
  <g transform="matrix(0.176723, 0, 0, 0.176723, -4727, -3239.52)" id="svg_6">
    <metadata id="svg_8"/>
    <g id="svg_7">
     <path fill="#fff" id="svg_10" d="m27183.777875,18415.315137l-94.23,-54.34c-6.26,-3.61 -12.94,-6.44 -19.89,-8.36c-6.92,-1.9 -14.06,-2.98 -21.24,-2.98c-7.17,0 -14.31,1.08 -21.22,2.98c-6.99,1.93 -13.69,4.78 -19.97,8.4l-92.7,53.52l-1.47,0.78l-94.11,54.34c-6.23,3.6 -12,7.96 -17.11,13.01c-4.65,4.59 -8.72,9.73 -12.14,15.32l-1.05,1.68c-3.62,6.26 -6.33,12.97 -8.14,19.96c-1.82,6.97 -2.79,14.14 -2.79,21.35l0,217.38c0,7.21 0.97,14.38 2.79,21.35c1.8,6.98 4.54,13.64 8.14,19.87c3.62,6.26 8.05,12.02 13.19,17.09c5.13,5.06 10.92,9.37 17.14,12.97l92.76,53.55l1.34,0.84l94.12,54.34c6.26,3.61 12.94,6.43 19.86,8.32l0.14,0.03c6.91,1.91 14.05,2.99 21.22,2.99c7.22,0 14.38,-1.07 21.33,-2.99c6.97,-1.91 13.62,-4.79 19.88,-8.4l92.69,-53.51l1.46,-0.78l94.1,-54.39c6.22,-3.59 12.02,-7.91 17.14,-12.96c5.14,-5.08 9.56,-10.84 13.18,-17.1c3.6,-6.23 6.35,-12.9 8.15,-19.87c1.82,-6.97 2.79,-14.14 2.79,-21.35l0,-217.38c0,-7.2 -0.97,-14.38 -2.79,-21.35c-1.81,-6.99 -4.56,-13.69 -8.2,-19.94c-3.62,-6.22 -8.01,-11.97 -13.13,-17.02c-5.13,-5.05 -10.92,-9.37 -17.14,-12.96l-92.76,-53.55l-1.34,-0.84zm81.51,109.82c1.21,2.21 2.16,4.55 2.8,6.99c0.75,2.87 1.01,5.9 1.01,8.86l0,91.18l-133.11,-75.44c-3.78,-2.14 -8.02,-3.26 -12.32,-3.33l-75.25,0c-13.8,0 -25,11.21 -25,25.01c0,13.81 11.2,25.01 25,25.01l68.81,0l151.86,86.07l0,68.88c0,2.96 -0.27,5.99 -1.01,8.86c-0.69,2.64 -1.7,5.2 -3.07,7.57c-1.35,2.33 -3.06,4.46 -4.97,6.35c-2.11,2.08 -4.49,3.89 -7.06,5.38l-0.47,0.27l-0.11,0l-93.61,54.04l-1.43,0.91l-92.74,53.47c-2.57,1.48 -5.32,2.67 -8.18,3.46c-2.61,0.72 -5.34,1.02 -8.05,1.02c-2.7,0 -5.44,-0.29 -8.04,-1.02c-2.86,-0.8 -5.61,-1.98 -8.17,-3.46l-94.09,-54.32l-1.55,-0.84l-92.61,-53.53c-2.59,-1.5 -5.04,-3.29 -7.17,-5.39c-1.91,-1.89 -3.63,-4.01 -4.97,-6.34c-1.37,-2.37 -2.38,-4.93 -3.07,-7.57c-0.74,-2.87 -1.01,-5.9 -1.01,-8.86l0,-91.18l133.11,75.44c3.79,2.14 8.01,3.27 12.32,3.33l75.23,0c13.81,0 25.02,-11.19 25.02,-25c0,-13.82 -11.21,-25.02 -25.02,-25.02l-68.79,0l-151.86,-86.07l0,-68.88c0,-2.96 0.26,-5.99 1.01,-8.86c0.69,-2.61 1.72,-5.12 3.05,-7.42l0.66,-1.2c1.23,-1.92 2.71,-3.69 4.33,-5.29c2.13,-2.11 4.57,-3.89 7.17,-5.39l94.06,-54.31l1.45,-0.9l92.74,-53.47c2.53,-1.46 5.25,-2.69 8.07,-3.46c2.64,-0.73 5.41,-1.02 8.14,-1.02c2.74,0 5.51,0.29 8.16,1.02c2.84,0.78 5.56,1.97 8.07,3.46l95.63,55.15l92.61,53.53c2.6,1.5 5.04,3.28 7.17,5.39c1.91,1.89 3.63,4.01 4.97,6.34l0.27,0.47l0,0.11l0.01,0z" class="fil4"/>
     <path fill="#fff" id="svg_11" d="m27567.187875,18778.385137c-15.69,0 -30.35,-1.17 -43.95,-3.5c-13.6,-2.33 -25.31,-5.7 -35.13,-10.11l0,-50.39c10.8,4.66 22.74,8.46 35.87,11.41c13.12,2.94 25.56,4.41 37.33,4.41c14.71,0 25.68,-1.35 32.92,-4.05c7.24,-2.69 10.85,-8.58 10.85,-17.65c0,-6.13 -1.78,-11.03 -5.33,-14.7c-3.56,-3.68 -9.32,-6.93 -17.28,-9.75c-7.98,-2.82 -18.82,-6.2 -32.55,-10.12c-16.18,-4.91 -29.06,-10.36 -38.63,-16.36c-9.56,-6.01 -16.42,-13.31 -20.59,-21.88c-4.17,-8.59 -6.25,-19.13 -6.25,-31.63c0,-22.56 8.09,-39.85 24.27,-51.86c16.18,-12.02 40.09,-18.02 71.71,-18.02c13.73,0 27.1,1.04 40.1,3.13c13,2.08 23.53,4.47 31.63,7.17l0,50.76c-10.55,-4.17 -21.15,-7.24 -31.82,-9.2c-10.67,-1.97 -21.02,-2.95 -31.08,-2.95c-13.24,0 -23.96,1.23 -32.18,3.68c-8.22,2.46 -12.33,8.1 -12.33,16.92c0,5.15 1.48,9.26 4.42,12.32c2.94,3.07 8.03,5.83 15.26,8.28c7.23,2.45 17.1,5.4 29.61,8.83c19.36,5.15 34.2,11.35 44.49,18.57c10.31,7.24 17.41,15.57 21.33,25.01c3.93,9.44 5.89,20.04 5.89,31.81c0,20.84 -8.09,37.71 -24.27,50.57c-16.18,12.88 -40.94,19.31 -74.29,19.31l0,-0.01zm179.59,0.01c-11.04,0 -21.27,-1.96 -30.72,-5.89c-9.44,-3.92 -16.97,-9.99 -22.61,-18.2c-5.64,-8.22 -8.46,-18.45 -8.46,-30.71c0,-17.9 6.07,-31.94 18.2,-42.11c12.14,-10.18 30.34,-15.26 54.61,-15.26l48.55,0l0,-4.04c0,-8.83 -2.94,-15.14 -8.83,-18.94c-5.89,-3.8 -16.92,-5.7 -33.1,-5.7c-19.86,0 -39.36,3.06 -58.48,9.19l0,-38.25c8.58,-3.43 19.06,-6.25 31.44,-8.46c12.39,-2.21 25.44,-3.31 39.18,-3.31c26.97,0 48.11,5.52 63.44,16.54c15.32,11.04 22.99,28.57 22.99,52.6l0,108.86l-51.86,0l-2.94,-14.71c-6.38,5.89 -14.52,10.43 -24.46,13.61c-9.93,3.18 -22.25,4.78 -36.96,4.78l0.01,0zm18.75,-36.41c9.32,0 17.4,-1.6 24.27,-4.79c6.87,-3.19 12.39,-7.23 16.55,-12.14l0,-24.64l-41.92,0c-17.41,0 -26.12,6.99 -26.12,20.96c0,6.38 2.21,11.41 6.63,15.08c4.41,3.68 11.28,5.52 20.59,5.52l0,0.01zm195.03,36.41c-20.59,0 -36.65,-5.83 -48.17,-17.47c-11.53,-11.65 -17.28,-28.62 -17.28,-50.93l0,-109.6l59.21,0l0,106.28c0,9.82 2.39,16.98 7.17,21.52c4.79,4.54 11.96,6.8 21.52,6.8c7.11,0 13.85,-1.47 20.22,-4.41c6.38,-2.94 11.65,-6.62 15.81,-11.04l0,-119.16l59.22,0l0,174.33l-55.17,0l-1.84,-14.71c-7.11,5.4 -15.69,9.81 -25.74,13.25c-10.06,3.43 -21.7,5.15 -34.95,5.15l0,-0.01zm228.88,0c-21.58,0 -37.46,-5.52 -47.63,-16.55c-10.18,-11.03 -15.26,-26.23 -15.26,-45.6l0,-70.98l-23.53,0l0,-44.86l23.53,0l0,-36.42l59.22,-15.81l0,52.23l42.29,0l-2.58,44.86l-39.72,0l0,66.94c0,8.34 2.08,14.16 6.25,17.47c4.17,3.31 10.43,4.97 18.76,4.97c7.11,0 14.34,-1.23 21.69,-3.68l0,40.09c-11.52,4.91 -25.86,7.36 -43.02,7.36l0,-0.02zm79.55,-205.59l0,-44.5l64.36,0l0,44.5l-64.36,0zm4.78,201.92l0,-130.56l-25.74,0l5.15,-43.76l79.81,0l0,174.33l-59.22,0l0,-0.01zm99.04,0l0,-174.33l55.17,0l1.84,15.07c7.11,-4.9 16.06,-9.26 26.85,-13.06c10.79,-3.8 22.31,-5.7 34.57,-5.7c22.56,0 38.99,5.39 49.29,16.18c10.3,10.79 15.44,27.46 15.44,50.01l0,111.81l-59.22,0l0,-107.02c0,-9.82 -2.08,-16.8 -6.25,-20.97c-4.17,-4.17 -11.65,-6.25 -22.43,-6.25c-6.38,0 -12.88,1.47 -19.49,4.41c-6.63,2.95 -12.15,6.63 -16.55,11.04l0,118.8l-59.22,0l0,0.01zm296.18,3.68c-15.69,0 -30.35,-1.17 -43.95,-3.5c-13.6,-2.33 -25.31,-5.7 -35.13,-10.11l0,-50.39c10.8,4.66 22.74,8.46 35.87,11.41c13.12,2.94 25.56,4.41 37.33,4.41c14.71,0 25.68,-1.35 32.92,-4.05c7.24,-2.69 10.85,-8.58 10.85,-17.65c0,-6.13 -1.78,-11.03 -5.33,-14.7c-3.56,-3.68 -9.32,-6.93 -17.28,-9.75c-7.98,-2.82 -18.82,-6.2 -32.55,-10.12c-16.18,-4.91 -29.06,-10.36 -38.63,-16.36c-9.56,-6.01 -16.42,-13.31 -20.59,-21.88c-4.17,-8.59 -6.25,-19.13 -6.25,-31.63c0,-22.56 8.09,-39.85 24.27,-51.86c16.18,-12.02 40.09,-18.02 71.71,-18.02c13.73,0 27.1,1.04 40.1,3.13c13,2.08 23.53,4.47 31.63,7.17l0,50.76c-10.55,-4.17 -21.15,-7.24 -31.82,-9.2c-10.67,-1.97 -21.02,-2.95 -31.08,-2.95c-13.24,0 -23.96,1.23 -32.18,3.68c-8.22,2.46 -12.33,8.1 -12.33,16.92c0,5.15 1.48,9.26 4.42,12.32c2.94,3.07 8.03,5.83 15.26,8.28c7.23,2.45 17.1,5.4 29.61,8.83c19.36,5.15 34.2,11.35 44.49,18.57c10.31,7.24 17.41,15.57 21.33,25.01c3.93,9.44 5.89,20.04 5.89,31.81c0,20.84 -8.09,37.71 -24.27,50.57c-16.18,12.88 -40.94,19.31 -74.29,19.31l0,-0.01zm221.52,0c-33.59,0 -58.36,-7.79 -74.29,-23.35c-15.93,-15.57 -23.9,-38.07 -23.9,-67.5c0,-29.18 8.03,-51.61 24.08,-67.31c16.06,-15.68 40.76,-23.53 74.11,-23.53c33.59,0 58.42,7.85 74.47,23.53c16.06,15.69 24.09,38.13 24.09,67.31c0,29.43 -7.97,51.92 -23.9,67.5c-15.94,15.56 -40.82,23.35 -74.66,23.35zm0,-46.34c13.73,0 23.54,-3.43 29.42,-10.3c5.89,-6.87 8.83,-18.26 8.83,-34.21c0,-15.93 -2.94,-27.34 -8.83,-34.2c-5.88,-6.87 -15.68,-10.31 -29.42,-10.31c-13.49,0 -23.17,3.44 -29.06,10.31c-5.88,6.86 -8.83,18.26 -8.83,34.2c0,15.94 2.95,27.34 8.83,34.21c5.89,6.87 15.57,10.3 29.06,10.3zm138.77,42.66l0,-129.46l-23.17,0l0,-44.86l23.17,0l0,-14.34c0,-18.88 5.39,-34.45 16.18,-46.71c10.79,-12.26 26.84,-18.38 48.17,-18.38c8.83,0 16.67,0.67 23.54,2.02c6.87,1.35 13.37,3.25 19.49,5.7l0,39.73c-3.68,-1.23 -7.23,-2.21 -10.67,-2.95c-3.43,-0.73 -7.23,-1.1 -11.4,-1.1c-9.57,0 -16.31,1.78 -20.23,5.33c-3.92,3.56 -5.89,9.39 -5.89,17.47l0,13.25l43.03,0l-2.58,44.86l-40.46,0l0,129.46l-59.21,0l0.03,-0.02zm192.46,3.68c-21.58,0 -37.46,-5.52 -47.63,-16.55c-10.18,-11.03 -15.26,-26.23 -15.26,-45.6l0,-70.98l-23.53,0l0,-44.86l23.53,0l0,-36.42l59.22,-15.81l0,52.23l42.29,0l-2.58,44.86l-39.72,0l0,66.94c0,8.34 2.08,14.16 6.25,17.47c4.17,3.31 10.43,4.97 18.76,4.97c7.11,0 14.34,-1.23 21.69,-3.68l0,40.09c-11.52,4.91 -25.86,7.36 -43.02,7.36l0,-0.02z" class="fil3"/>
    </g>
   </g>
</svg>