<?xml version="1.0" encoding="utf-8"?>
<!-- Generator: Adobe Illustrator 23.0.3, SVG Export Plug-In . SVG Version: 6.00 Build 0)  -->
<svg version="1.1" id="Layer_1" xmlns="http://www.w3.org/2000/svg" xmlns:xlink="http://www.w3.org/1999/xlink" x="0px" y="0px"
	 viewBox="0 0 32 32" style="enable-background:new 0 0 32 32;" xml:space="preserve">
<style type="text/css">
	.Blue{fill:#1177D7;}
	.Black{fill:#727272;}
</style>
<path class="Blue" d="M32,24c0,4.4-3.6,8-8,8s-8-3.6-8-8s3.6-8,8-8S32,19.6,32,24z M30,24c0-3.3-2.7-6-6-6s-6,2.7-6,6s2.7,6,6,6
	S30,27.3,30,24z"/>
<path class="Black" d="M28,24v2h-4h-2v-2v-4h2v4H28z"/>
<path class="Black" d="M14.8,28H6V4h14v5c0,0.6,0.4,1,1,1h5v4.2c0.7,0.1,1.4,0.4,2,0.6V9l-7-7H5C4.4,2,4,2.4,4,3v26c0,0.6,0.4,1,1,1
	h11C15.5,29.4,15.2,28.7,14.8,28z"/>
<rect x="8" y="8" class="Black" width="10" height="2"/>
<rect x="8" y="12" class="Black" width="16" height="2"/>
<rect x="8" y="16" class="Black" width="8" height="2"/>
<rect x="8" y="20" class="Black" width="6" height="2"/>
</svg>
