<svg id="Icons" height="512" viewBox="0 0 60 60" width="512" xmlns="http://www.w3.org/2000/svg"><path d="m59 30a29.008 29.008 0 0 1 -42.56 25.64 33.559 33.559 0 0 1 -9.02 3.32 1.651 1.651 0 0 1 -1.89-2.23 36.552 36.552 0 0 0 2.18-8.17 29 29 0 1 1 51.29-18.56z" fill="#219cf7"/><g fill="#fff"><path d="m35.215 44.405 1.1.367a1 1 0 0 1 .684.949v1.279a1 1 0 0 1 -1 1h-11.999a1 1 0 0 1 -1-1v-1.279a1 1 0 0 1 .684-.949l1.085-.362a1.8 1.8 0 0 0 1.231-1.71v-14.4a1.8 1.8 0 0 0 -1.231-1.708l-1.085-.362a1 1 0 0 1 -.684-.951v-1.279a1 1 0 0 1 1-1h9a1 1 0 0 1 1 1v18.72a1.776 1.776 0 0 0 1.215 1.685z"/><circle cx="30" cy="14" r="4"/></g></svg>