<?xml version="1.0" encoding="UTF-8"?>
<!DOCTYPE svg PUBLIC "-//W3C//DTD SVG 1.1//EN" "http://www.w3.org/Graphics/SVG/1.1/DTD/svg11.dtd">
<!-- Creator: CorelDRAW -->
<svg xmlns="http://www.w3.org/2000/svg" xml:space="preserve" width="1378px" height="1378px" version="1.1" style="shape-rendering:geometricPrecision; text-rendering:geometricPrecision; image-rendering:optimizeQuality; fill-rule:evenodd; clip-rule:evenodd"
viewBox="0 0 1282.27 1282.27"
 xmlns:xlink="http://www.w3.org/1999/xlink"
 xmlns:xodm="http://www.corel.com/coreldraw/odm/2003">
 <defs>
  <style type="text/css">
   <![CDATA[
    .fil0 {fill:#1177D7;fill-rule:nonzero}
    .fil3 {fill:#727272;fill-rule:nonzero}
    .fil4 {fill:#D11C1C;fill-rule:nonzero}
    .fil1 {fill:#FFB115;fill-rule:nonzero}
    .fil2 {fill:white;fill-rule:nonzero}
   ]]>
  </style>
 </defs>
 <g id="Layer_x0020_1">
  <metadata id="CorelCorpID_0Corel-Layer"/>
  <path class="fil0" d="M1249.01 1249.01c-43.57,44.34 -114.94,44.34 -159.28,0l-203.95 -203.93 4.52 -154.78 154.78 -4.52 203.93 203.95c44.34,44.32 44.34,115.71 0,159.28z"/>
  <path class="fil1" d="M1045.08 885.78l-79.65 79.65 0.01 0.01 -79.66 79.64 -163.04 -163.05c-14.27,-14.28 -14.27,-38.32 0,-52.59l106.7 -106.7c14.27,-14.27 38.31,-14.27 52.59,0l163.05 163.04z"/>
  <path class="fil0" d="M833.19 833.19c-190.85,190.85 -498.91,191.61 -689.77,0 -190.85,-190.85 -191.6,-498.91 0,-689.77 190.86,-190.85 498.92,-191.6 689.77,0 190.85,190.86 191.61,498.92 0,689.77z"/>
  <path class="fil2" d="M780.6 780.6c-161.55,161.55 -423.02,161.55 -584.59,0 -161.53,-161.55 -161.53,-423.02 0,-584.59 161.57,-161.55 423.04,-161.55 584.59,0 161.55,161.57 161.55,423.04 0,584.59z"/>
  <path class="fil3" d="M413.16 300.47c-62.14,0 -112.69,-50.57 -112.69,-112.72 0,-20.76 16.8,-37.57 37.57,-37.57 20.76,0 37.57,16.81 37.57,37.57 0,20.74 16.84,37.57 37.55,37.57 20.77,0 37.57,16.81 37.57,37.58 0,20.76 -16.8,37.57 -37.57,37.57zm150.29 0c-20.77,0 -37.58,-16.81 -37.58,-37.57 0,-20.77 16.81,-37.58 37.58,-37.58 20.73,0 37.57,-16.83 37.57,-37.57 0,-20.76 16.8,-37.57 37.57,-37.57 20.76,0 37.57,16.81 37.57,37.57 0,62.15 -50.57,112.72 -112.71,112.72zm-112.72 150.26l-51.83 0 -27.24 -20.79 -0.02 0.03c-9.25,18.44 -31.68,26.11 -50.41,16.8l-83.06 -41.52c-5.84,-2.99 -12.85,1.25 -12.85,7.91 0,20.77 -16.8,37.57 -37.57,37.57 -20.76,0 -37.57,-16.8 -37.57,-37.57 0,-62.59 65.92,-103.02 121.56,-75.12l39.62 19.79 17.66 -28.81 121.71 121.71zm-262.98 225.43c-20.76,0 -37.57,-16.81 -37.57,-37.57 0,-62.15 50.57,-112.72 112.72,-112.72l75.14 0c20.76,0 37.57,16.81 37.57,37.58 0,20.76 -16.81,37.57 -37.57,37.57l-75.14 0c-20.74,0 -37.58,16.84 -37.58,37.57 0,20.76 -16.8,37.57 -37.57,37.57zm150.29 150.26c-20.77,0 -37.57,-16.8 -37.57,-37.55l0 -7.93c0,-55.77 30.99,-105.92 80.85,-130.88 18.57,-9.21 41.13,-1.75 50.41,16.8 9.29,18.57 1.77,41.14 -16.8,50.42 -24.25,12.11 -39.32,36.51 -39.32,63.66l0 7.93c0,20.75 -16.81,37.55 -37.57,37.55zm300.55 0c-20.77,0 -37.57,-16.8 -37.57,-37.55l0 -7.93c0,-27.15 -15.08,-51.55 -39.34,-63.66 -18.55,-9.28 -26.08,-31.85 -16.8,-50.42 9.32,-18.55 31.93,-26.01 50.41,-16.8 49.86,24.96 80.87,75.11 80.87,130.88l0 7.93c0,20.75 -16.81,37.55 -37.57,37.55zm150.28 -150.26c-20.77,0 -37.57,-16.81 -37.57,-37.57 0,-20.73 -16.86,-37.57 -37.57,-37.57l-75.14 0c-20.77,0 -37.57,-16.81 -37.57,-37.57 0,-20.77 16.8,-37.58 37.57,-37.58l75.14 0c62.14,0 112.69,50.57 112.69,112.72 0,20.76 -16.8,37.57 -37.55,37.57zm-183.89 -246.19c-9.28,-18.56 -1.77,-41.12 16.8,-50.42l83.07 -41.51c55.83,-28.13 121.57,12.79 121.57,75.12 0,20.77 -16.8,37.57 -37.55,37.57 -20.77,0 -37.57,-16.8 -37.57,-37.57 0,-6.3 -6.4,-10.87 -12.89,-7.91l-83.02 41.52c-18.76,9.31 -41.17,1.63 -50.41,-16.8z"/>
  <path class="fil3" d="M676.16 375.61l-98.44 75.12 -178.82 0 -98.43 -75.12 28.55 -46.59 50.33 -82.67c6.76,-12.75 19.53,-21.03 33.81,-21.03l150.29 0c14.27,0 27.04,8.28 33.81,21.03l78.9 129.26z"/>
  <path class="fil4" d="M676.16 375.61l0 187.84c0,33.05 -8.27,63.85 -22.55,90.16 -32.31,58.61 -94.66,97.69 -165.31,97.69 -103.68,0 -187.83,-84.16 -187.83,-187.85l0 -187.84 75.14 0 300.55 0z"/>
 </g>
</svg>
