<svg id="Layer_1" enable-background="new 0 0 512 512" height="512" viewBox="0 0 512 512" width="512" xmlns="http://www.w3.org/2000/svg"><g><path d="m437.018 39.687c-5.859-5.859-15.355-5.857-21.214 0-5.857 5.858-5.857 15.355.001 21.213 42.687 42.685 66.195 99.439 66.195 159.807 0 8.284 6.717 15 15 15 8.285 0 15-6.716 15-15 0-68.382-26.629-132.669-74.982-181.02z"/><path d="m96.193 39.688c-5.859-5.859-15.355-5.857-21.214 0-48.35 48.354-74.979 112.64-74.979 181.019 0 8.284 6.716 15 15 15s15-6.716 15-15c0-60.365 23.508-117.119 66.193-159.806 5.858-5.858 5.858-15.355 0-21.213z"/><path d="m370.357 85.126c-5.857 5.858-5.857 15.355.001 21.214 30.55 30.547 47.374 71.163 47.374 114.367 0 8.284 6.717 15 15 15 8.285 0 15-6.716 15-15 0-51.218-19.945-99.368-56.161-135.582-5.858-5.857-15.356-5.856-21.214.001z"/><path d="m141.634 85.133c-5.858-5.857-15.355-5.856-21.213.001-36.212 36.216-56.155 84.363-56.155 135.573 0 8.284 6.717 15 15 15 8.285 0 15-6.716 15-15 0-43.197 16.823-83.812 47.369-114.36 5.857-5.859 5.857-15.357-.001-21.214z"/><path d="m383.467 329.633v-76.793c0-28.01-8.918-54.589-25.789-76.864-14.102-18.616-33.333-33.16-54.939-41.718-3.009-23.112-22.821-41.018-46.739-41.018s-43.732 17.906-46.739 41.018c-21.606 8.558-40.837 23.102-54.938 41.718-16.872 22.275-25.79 48.854-25.79 76.864v76.793l-30.549 61.099c-2.324 4.649-2.076 10.172.656 14.594 2.733 4.423 7.562 7.114 12.76 7.114h289.2c5.199 0 10.027-2.691 12.76-7.114 2.733-4.422 2.982-9.944.657-14.594z"/><path d="m256 476.707c27.005 0 50.886-13.584 65.204-34.268h-130.409c14.319 20.684 38.2 34.268 65.205 34.268z"/></g></svg>