<svg id="Layer_1" enable-background="new 0 0 512 512" height="512" viewBox="0 0 512 512" width="512" xmlns="http://www.w3.org/2000/svg"><g id="_x32_1.BringForword"><path id="_x3C_Path_x3E__4_" d="m306 6h-250c-27.614 0-50 22.386-50 50v250c0 27.614 22.386 50 50 50h250c27.614 0 50-22.386 50-50v-250c0-27.614-22.386-50-50-50z"/><path id="_x3C_Path_x3E__3_" d="m456 156h-52.257c-8.284 0-15 6.716-15 15v27.75c0 8.284 6.716 15 15 15h44.507v234.5h-234.5v-44.507c0-8.284-6.716-15-15-15h-27.75c-8.284 0-15 6.716-15 15v52.257c0 27.614 22.386 50 50 50h250c27.614 0 50-22.386 50-50v-250c0-27.614-22.386-50-50-50z"/></g></svg>