<svg height="512" viewBox="0 0 64 64" width="512" xmlns="http://www.w3.org/2000/svg"><g id="Skeleton"><path d="m44.37091 22.74615c.04663-1.74615 1.07809-2.39563 1.2829-3.84875a12.93327 12.93327 0 0 0 -4.76508-11.45453 13.46615 13.46615 0 0 0 -8.88873-2.47418 13.46615 13.46615 0 0 0 -8.88873 2.47418 12.93327 12.93327 0 0 0 -4.76508 11.45453c.20477 1.45312 1.23627 2.1026 1.2829 3.84875.05957 2.23017-2.03577 2.87171-1.83276 4.85676a3.68224 3.68224 0 0 0 1.92437 2.84069c1.5279.72608 3.81873-1.35254 4.799 3.89515a2.211 2.211 0 0 0 1.09321 1.5418 12.1273 12.1273 0 0 0 6.38709 1.4358 12.1273 12.1273 0 0 0 6.38708-1.4358 2.211 2.211 0 0 0 1.09321-1.5418c.98028-5.24769 3.27111-3.16907 4.799-3.89515a3.68224 3.68224 0 0 0 1.92437-2.84069c.20302-1.98505-1.89232-2.62659-1.83275-4.85676zm-17.21338 3.826c-.69873.12751-2.90344.43415-4.12091-.74224-1.40472-1.35743-1.0191-4.30018.05121-5.27283 1.008-.916 2.76288-.68115 3.89056-.51184a3.77327 3.77327 0 0 1 3.07154 1.74048c.58868 1.04943-.16626 2.57183-.23041 2.71313a3.40763 3.40763 0 0 1 -2.66199 2.07329zm7.03113 6.37708c-.49176.29938-1.46863.00757-2.19226-.70374-.72357.71131-1.6933 1.00312-2.18506.70374-.59131-.36-.559-1.49042-.33331-2.037a18.58456 18.58456 0 0 1 1.676-3.17133c.25238-.35534.493-.31945.846-.06945.353-.25.59363-.28589.846.06945a18.58456 18.58456 0 0 1 1.676 3.17133c.22559.54657.25797 1.677-.33337 2.03699zm6.77472-7.11932c-1.21747 1.17639-3.42218.86975-4.12091.74224a3.40763 3.40763 0 0 1 -2.662-2.0733c-.06415-.1413-.81909-1.6637-.23041-2.71313a3.77327 3.77327 0 0 1 3.07154-1.74048c1.12768-.16931 2.88256-.40418 3.89056.51184 1.07032.97264 1.45594 3.91539.05122 5.27282z"/><path d="m25.4 47.89c1.55.72 2.94 1.37 4.2 1.95-7.08 3.27-7.9 3.68-8.61 5.46a11.2651 11.2651 0 0 1 -1.46 2.97 2.62362 2.62362 0 0 1 -4.36-1.04 5.13132 5.13132 0 0 1 .02-2.33.376.376 0 0 0 -.21-.49c-3.18-1.25-2.67-4.81-.26-5.44 1.47-.38 3.09.73 4.64.81 1.07.05 3.33-.74 6.04-1.89z"/><path d="m48.94 44.58c-2.1.14-2.55-1-4.7-.91a7.33367 7.33367 0 0 0 -2.68.6c-1.06.5-2.06.98-3.01 1.42-1.36-.6-2.82-1.27-4.23-1.93 1.77-.86005 3.41-1.67 4.75-2.31a13.80436 13.80436 0 0 0 3.2-2.15c1.15-1.5.73-3.43 2.58-4.51 1.34-.79 4.64-.38 3.85 3.64a.75061.75061 0 0 0 .48.87 3.48716 3.48716 0 0 1 2.02 2.15 2.76216 2.76216 0 0 1 -2.26 3.13z"/><path d="m49.02 54.41a.376.376 0 0 0 -.21.49 5.13132 5.13132 0 0 1 .02 2.33 2.62362 2.62362 0 0 1 -4.36 1.04 11.2651 11.2651 0 0 1 -1.46-2.97c-.99258-2.4941-2.23988-2.32311-20.57-11.03a7.33367 7.33367 0 0 0 -2.68-.6c-2.15-.09-2.6 1.05-4.7.91a2.76216 2.76216 0 0 1 -2.26-3.13 3.48716 3.48716 0 0 1 2.02-2.15.75061.75061 0 0 0 .48-.87c-.79-4.02 2.51-4.43 3.85-3.64 1.85 1.08 1.43 3.01 2.58 4.51 1.15257 1.53667 19.946 10.60977 22.91 10.48 1.55-.08 3.17-1.19 4.64-.81 2.41.63 2.92 4.19-.26 5.44z"/></g></svg>