<svg height="512" viewBox="0 0 64 64" width="512" xmlns="http://www.w3.org/2000/svg"><g id="Skull"><path d="m52.83441 34.71167c.07855-2.9408 1.81574-4.03467 2.16065-6.48181a21.78177 21.78177 0 0 0 -8.02515-19.29114c-6.18897-4.74103-13.06653-4.16693-14.96991-4.16693s-8.78094-.5741-14.96991 4.16693a21.78177 21.78177 0 0 0 -8.02515 19.29114c.34491 2.44714 2.0821 3.541 2.16065 6.48181.10034 3.75586-3.42853 4.83636-3.08661 8.17944a6.20145 6.20145 0 0 0 3.24091 4.78418c2.57318 1.22284 6.43127-2.27789 8.08227 6.55994a3.72367 3.72367 0 0 0 1.841 2.59662c3.5669 1.96454 6.71302 2.41815 10.75684 2.41815s7.18994-.45361 10.75684-2.41815a3.72367 3.72367 0 0 0 1.841-2.59662c1.651-8.83783 5.50909-5.3371 8.08227-6.55994a6.20145 6.20145 0 0 0 3.24089-4.78418c.34194-3.34311-3.18693-4.42358-3.08659-8.17944zm-36.51208 5.57233c-2.57587-2.489-1.86872-7.88507.09387-9.66858 1.84839-1.67969 5.06622-1.249 7.134-.93866 5.0457.75752 7.36576 3.41834 5.20972 8.16656a6.24814 6.24814 0 0 1 -4.88117 3.8017c-1.28128.23376-5.32394.79608-7.55642-1.36102zm19.36367 11.61114c-.82818.50415-2.47338.0127-3.692-1.18518-1.21863 1.19788-2.85175 1.68933-3.67993 1.18518-.99591-.60626-.94135-2.51013-.56141-3.43078a31.3019 31.3019 0 0 1 2.82251-5.34095c.42511-.59845.83039-.538 1.42487-.11694.59448-.421.99976-.48151 1.42487.11694a31.3019 31.3019 0 0 1 2.82251 5.34095c.3799.92064.43446 2.82452-.56142 3.43078zm11.99167-11.61114c-2.23248 2.1571-6.27514 1.59478-7.55645 1.361a6.24814 6.24814 0 0 1 -4.88122-3.80168c-2.15569-4.74745.16293-7.40887 5.20972-8.16656 2.06781-.31037 5.28564-.741 7.134.93866 1.96267 1.78351 2.66982 7.17958.09395 9.66858z"/></g></svg>