<svg height="512" viewBox="0 0 24 24" width="512" xmlns="http://www.w3.org/2000/svg"><g id="Layer_2" data-name="Layer 2"><circle cx="21.245" cy="15.841" r="1"/><circle cx="19.064" cy="19.062" r="1"/><circle cx="21.997" cy="12.004" r="1"/><circle cx="15.825" cy="21.247" r="1"/><path d="m12 21a9 9 0 1 1 5.646-16h-1.646a1 1 0 0 0 0 2h4a1 1 0 0 0 1-1v-4a1 1 0 0 0 -2 0v1.531a10.995 10.995 0 1 0 -7 19.469 1 1 0 0 0 0-2z"/><path d="m15.707 15.707a1 1 0 0 0 0-1.414l-2.707-2.707v-5.586a1 1 0 0 0 -2 0v6a1 1 0 0 0 .293.707l3 3a1 1 0 0 0 1.414 0z"/></g></svg>