<?xml version='1.0' encoding='UTF-8'?>
<svg viewBox="-8.165 -2.0025 32 32" xmlns="http://www.w3.org/2000/svg" xmlns:xlink="http://www.w3.org/1999/xlink">
  <g transform="translate(-6.7245, -0.5626)">
    <g transform="matrix(0.0569, 0, 0, 0.0569, 0, 0)">
      <g transform="matrix(0.9846, 0, 0, 0.9846, 0, 0)">
        <g id="_x31_438_x2C__Arrow_x2C__Compress_x2C__Interaction_x2C__Interface_x2C__User">
          <g>
            <path d="M160, 250L360, 250C382.056, 250 400, 232.056 400, 210C400, 187.944 382.056, 170 360, 170L160, 170C137.944, 170 120, 187.944 120, 210C120, 232.056 137.944, 250 160, 250zM160, 190L360, 190C371.028, 190 380, 198.972 380, 210C380, 221.028 371.028, 230 360, 230L160, 230C148.972, 230 140, 221.028 140, 210C140, 198.972 148.973, 190 160, 190z" fill="#FFB115" class="Yellow" />
          </g>
        </g>
      </g>
    </g>
  </g>
  <g transform="translate(-6.7245, -0.5626)">
    <g transform="matrix(0.0569, 0, 0, 0.0569, 0, 0)">
      <g transform="matrix(0.9846, 0, 0, 0.9846, 0, 0)">
        <g id="_x31_438_x2C__Arrow_x2C__Compress_x2C__Interaction_x2C__Interface_x2C__User">
          <g>
            <path d="M254.606, 148.412C255.664, 149.089 256.775, 149.553 258.032, 149.804C258.11, 149.82 258.19, 149.826 258.269, 149.84C259.435, 150.045 260.425, 150.067 261.728, 149.84C261.807, 149.826 261.888, 149.819 261.967, 149.803C263.184, 149.559 264.395, 149.08 265.56, 148.31C266.778, 147.491 264.644, 149.484 307.071, 107.07C310.976, 103.165 310.976, 96.833 307.071, 92.927C303.165, 89.022 296.835, 89.022 292.928, 92.927L270, 115.858L270, 20C270, 14.477 265.522, 10 260, 10C254.477, 10 250, 14.477 250, 20L250, 115.858L227.072, 92.929C223.167, 89.024 216.835, 89.024 212.93, 92.929C209.025, 96.834 209.024, 103.166 212.93, 107.071C255.426, 149.544 253.156, 147.472 254.606, 148.412z" />
          </g>
        </g>
      </g>
    </g>
  </g>
  <g transform="translate(-6.7245, -0.5626)">
    <g transform="matrix(0.0569, 0, 0, 0.0569, 0, 0)">
      <g transform="matrix(0.9846, 0, 0, 0.9846, 0, 0)">
        <g id="_x31_438_x2C__Arrow_x2C__Compress_x2C__Interaction_x2C__Interface_x2C__User">
          <g>
            <path d="M360, 270L160, 270C137.944, 270 120, 287.944 120, 310C120, 332.056 137.944, 350 160, 350L360, 350C382.056, 350 400, 332.056 400, 310C400, 287.944 382.056, 270 360, 270zM360, 330L160, 330C148.972, 330 140, 321.028 140, 310C140, 298.972 148.972, 290 160, 290L360, 290C371.028, 290 380, 298.972 380, 310C380, 321.028 371.028, 330 360, 330z" fill="#FFB115" class="Yellow" />
          </g>
        </g>
      </g>
    </g>
  </g>
  <g transform="translate(-6.7245, -0.5626)">
    <g transform="matrix(0.0569, 0, 0, 0.0569, 0, 0)">
      <g transform="matrix(0.9846, 0, 0, 0.9846, 0, 0)">
        <g id="_x31_438_x2C__Arrow_x2C__Compress_x2C__Interaction_x2C__Interface_x2C__User">
          <g>
            <path d="M265.356, 371.565C262.15, 369.527 257.971, 369.435 254.642, 371.566C253.284, 372.413 255.985, 369.885 212.929, 412.928C209.024, 416.833 209.024, 423.165 212.929, 427.071C216.834, 430.975 223.166, 430.975 227.071, 427.071L250, 404.143L250, 500C250, 505.522 254.477, 510 260, 510C265.522, 510 270, 505.522 270, 500L270, 404.143L292.929, 427.072C296.836, 430.977 303.165, 430.976 307.072, 427.072C310.977, 423.167 310.977, 416.835 307.072, 412.929C264.645, 370.519 266.75, 372.454 265.356, 371.565z" />
          </g>
        </g>
      </g>
    </g>
  </g>
</svg>