<?xml version='1.0' encoding='UTF-8'?>
<svg viewBox="-1.8 -2 32 32" xmlns="http://www.w3.org/2000/svg" xmlns:xlink="http://www.w3.org/1999/xlink">
  <g id="Layer_1" transform="translate(-1.8, -2)" style="enable-background:new 0 0 32 32">
    <g id="World_1_">
      <path d="M15.8, 2C8.1, 2 1.8, 8.3 1.8, 16C1.8, 23.7 8.1, 30 15.8, 30C23.5, 30 29.8, 23.7 29.8, 16C29.8, 8.3 23.6, 2 15.8, 2zM20.1, 19.1C19.6, 19.2 19.6, 18.8 20, 18.7C20.1, 18.9 20.2, 18.8 20.1, 19.1zM8.4, 13.3C8.4, 13.2 8.4, 13.2 8.4, 13.1C8.4, 13.2 8.4, 13.3 8.4, 13.3zM22.1, 21.9C22.1, 21.8 22, 21.8 22, 21.8C22.1, 22.1 21.9, 22.7 21.9, 23C21.8, 23.4 21.5, 24.3 21.2, 24.3C21.2, 24.5 20.8, 24.3 20.9, 24.5C20.4, 24.6 20.1, 25 20.1, 25.3C20.1, 25.4 19.8, 26.4 19.7, 26.4C19.7, 26.3 19.8, 26.2 19.8, 26.1C19.8, 26.2 19.7, 26.2 19.7, 26.1C19.7, 26.3 19.4, 26.9 19.3, 27C19.2, 27.1 19, 27.3 18.8, 27.2C18.7, 27.2 18.5, 27 18.5, 26.8C18.5, 27.1 18.7, 27.4 18.7, 27.6C17.8, 27.8 16.9, 27.9 16, 27.9C15.9, 27.9 15.8, 27.9 15.7, 27.9C15.8, 27.6 15.8, 27.4 15.9, 27.1C16.1, 26.4 16.1, 25.6 16.2, 24.9C16.3, 24.5 16.5, 23.4 16.3, 23C16.2, 22.8 16, 22.8 15.8, 22.6C15.2, 22.2 15.2, 21.9 15, 21.3C14.9, 20.9 14.7, 20.8 14.5, 20.4C14.4, 20.2 14.3, 20.2 14.3, 19.9C14.3, 19.7 14.5, 19.5 14.5, 19.3C14.5, 19.3 14.4, 19.4 14.4, 19.4C14.4, 19.4 14.3, 19.3 14.3, 19.3C14.3, 19.2 14.3, 18.9 14.4, 18.9C14.4, 18.7 14.5, 18.2 14.7, 18.2C14.7, 17.9 14.9, 17.9 14.8, 17.7C15.1, 17.5 14.8, 16.8 14.8, 16.7C14.6, 16.7 14.7, 16.6 14.5, 16.5C14.5, 16.6 14.3, 16.6 14.3, 16.7C14.3, 16.8 14.4, 16.7 14.4, 16.8C14.1, 16.8 14, 16.6 13.8, 16.5C13.8, 16.7 13.7, 16.3 13.5, 16.2C13.6, 16.4 13.3, 16 13.3, 15.9C13.2, 15.7 13.1, 15.6 13.1, 15.4C12.6, 15.4 12.5, 15.3 12.1, 15C11.7, 14.7 11.4, 14.9 10.9, 14.7C10.6, 14.6 10.2, 14.4 10, 14.2C9.6, 13.9 9.7, 13.6 9.5, 13.2C9.4, 12.9 8.8, 12.5 8.9, 12.2C8.3, 12.2 8.4, 10.9 7.8, 10.9C7.8, 11.1 8.4, 12.4 8.6, 12.9C8.4, 12.5 7.8, 12.3 7.7, 11.9C8.2, 11.9 7.5, 11.1 7.3, 10.9C7.1, 10.6 7.1, 10.3 6.6, 10.3C6.6, 10.1 6.4, 9.9 6.4, 9.6C6.3, 9.6 6.2, 9.5 6.2, 9.4C6.2, 9.4 6.3, 9.4 6.3, 9.4C6.3, 9.3 6.2, 9.3 6.3, 9.2C6.2, 9.2 6.3, 9.2 6.2, 9.2C6.2, 9.2 6.2, 9.2 6.2, 9.3C6, 9.5 5.9, 9.3 5.8, 9.2C6.9, 7.6 8.4, 6.2 10.2, 5.3C10.3, 5.4 10.3, 5.6 10.4, 5.6C10.4, 5.5 10.4, 5.4 10.4, 5.3C11.1, 4.9 11.9, 4.6 12.8, 4.4C12.9, 4.4 12.9, 4.5 13, 4.5C13.2, 4.6 13.4, 4.6 13.6, 4.7C13.8, 4.8 13.7, 4.8 13.8, 5.1C13.8, 5.2 13.9, 5.3 13.9, 5.4C14, 5.4 14, 5.4 14.1, 5.4C14.1, 5.5 14, 5.5 14, 5.4C14, 5.7 14.2, 6 14.4, 5.6C14.5, 5.4 14.2, 5.2 14.3, 4.9C14.4, 4.7 14.8, 4.5 14.8, 4.3C14.8, 4.3 14.8, 4.3 14.8, 4.3C14.8, 4.2 14.8, 4.1 14.7, 4C15, 4 15.4, 4 15.7, 4C16.4, 4 17, 4.1 17.7, 4.2C17.7, 4.2 17.7, 4.2 17.7, 4.3C17.7, 4.3 17.6, 4.3 17.5, 4.3C17.5, 4.3 17.5, 4.5 17.5, 4.4C17.6, 4.4 17.9, 4.6 17.8, 4.8C17.9, 4.8 17.9, 4.9 18, 4.9C18, 4.7 18.3, 5.2 18.3, 4.9C18.2, 4.9 18.4, 5 18.4, 5C18.4, 5.1 17.9, 5.3 17.8, 5.3C17.8, 5.6 18.6, 4.8 18.6, 5.3C18.6, 5.3 18.6, 5.3 18.7, 5.2C18.7, 5.8 17.9, 6.1 17.6, 6.1C17.4, 6.1 17, 6.1 16.8, 6.1C16.6, 6.2 16.4, 6.7 16.1, 6.7C16.1, 7 16, 7 15.9, 7.1C15.9, 7.1 17.2, 5.8 17.2, 6.5C17.2, 6.5 17.1, 6.7 16.9, 6.8C16.9, 6.8 16.9, 6.7 16.9, 6.7C16.8, 6.8 16.9, 6.8 16.9, 6.9C17, 6.9 17.1, 6.8 17.1, 6.8C17.1, 6.9 17.1, 7 17, 7C17, 7 17.1, 7 17.1, 7C17.1, 7.1 17, 7.3 17.2, 7.3C17.2, 7.3 17.2, 7.3 17.2, 7.3C17.2, 7.3 17.2, 7.4 17.1, 7.4C17.1, 7.4 17.1, 7.4 17.1, 7.4C17.3, 7.4 17.3, 7.4 17.5, 7.4C17.5, 7.7 17.5, 7.4 17.6, 7.6C17.5, 7.6 17.2, 7.9 17.2, 7.9C17.2, 7.9 17.2, 7.8 17.1, 7.8C17.1, 7.8 16.9, 8.1 16.9, 8.1C16.9, 8.1 16.9, 8.1 16.9, 8C16.2, 8 17.2, 7.5 17.2, 7.5C16.7, 7.5 17, 7.6 17, 7.3C17, 7.3 16.9, 7.3 16.9, 7.3C16.9, 7.4 16.8, 7.5 16.7, 7.5C16.7, 7.5 16.7, 7.4 16.7, 7.4C16.6, 7.5 16.6, 7.5 16.7, 7.5C16.6, 7.6 16.6, 7.5 16.5, 7.5C16.4, 7.6 16.6, 7.9 16.3, 7.7C16.3, 7.8 16.3, 7.7 16.3, 7.8C16.2, 7.8 16.3, 7.7 16.2, 7.7C16.2, 8 15.6, 7.9 15.9, 8.4C15.8, 8.4 15.8, 8.4 15.7, 8.4C15.7, 8.5 15.7, 8.5 15.7, 8.5C15.6, 8.5 15.5, 8.6 15.4, 8.7C15.5, 8.7 15.7, 8.7 15.6, 8.7C15.6, 8.8 15.4, 8.8 15.3, 8.8C15.3, 9 15.2, 9.2 15, 9.1C15, 9.3 15.1, 9.4 14.9, 9.6C14.9, 9.7 14.9, 9.2 14.9, 9.1C14.8, 9.2 14.6, 9.5 14.7, 9.5C14.7, 9.7 14.8, 9.6 14.8, 9.7C14.6, 9.7 14.8, 9.9 14.9, 10C14.8, 10 14.8, 10 14.8, 10.1C14.9, 10.1 15, 10.2 15, 10.2C14.9, 10.2 14.9, 10.2 14.8, 10.2C14.8, 10.7 13.9, 10.9 14, 11.6C14, 11.9 14.4, 12.6 14.1, 12.8C14.1, 12.5 13.8, 12.4 13.8, 12.1C13.7, 12.1 13.8, 12.2 13.7, 12.2C13.6, 12.1 13.7, 11.9 13.6, 11.7C13.5, 11.6 13.4, 11.7 13.2, 11.6C13.1, 11.6 12.7, 11.4 12.7, 11.4C12.6, 11.4 12.4, 11.4 12.3, 11.5C12.4, 11.7 12.5, 11.5 12.4, 11.7C12.5, 11.7 12.5, 11.7 12.5, 11.8C12.4, 11.8 12.3, 11.7 12.2, 11.6C12.2, 11.7 12.2, 11.7 12.2, 11.7C12.1, 11.7 12.1, 11.7 12, 11.7C12, 11.6 12, 11.6 12, 11.6C12, 11.6 11.3, 11.6 11.3, 11.6C11.3, 11.8 10.9, 12.1 10.8, 12.4C10.7, 12.7 10.8, 13.3 10.8, 13.7C10.9, 13.7 11, 14.1 11.2, 14.3C11.4, 14.4 11.9, 14.5 12.1, 14.4C12.3, 14.2 12.3, 13.6 12.7, 13.6C13.1, 13.6 12.7, 14.1 12.8, 14.5C12.7, 14.5 12.7, 14.4 12.7, 14.4C12.7, 14.6 12.6, 14.9 12.6, 15.1C13, 15.1 13.5, 14.9 13.7, 15.3C13.8, 15.5 13.5, 15.8 13.6, 16.1C13.6, 16.3 13.8, 16.6 14, 16.6C14.2, 16.7 14.2, 16.5 14.3, 16.5C14.5, 16.5 14.5, 16.6 14.7, 16.6C14.8, 16.6 14.8, 16.8 14.9, 16.8C15, 16.3 15.2, 16.1 15.6, 15.9C15.9, 15.8 15.8, 15.6 15.7, 16C15.9, 16 15.6, 16.5 15.8, 16.5C15.8, 16.3 15.8, 16 16.1, 15.9C16.1, 15.8 16, 15.9 16, 15.8C16.1, 15.7 16.5, 16.1 16.4, 16.1C16.4, 16.2 17.3, 16.2 17.3, 16.1C17.3, 16.1 17.6, 16.1 17.6, 16.1C17.6, 16.2 17.6, 16.1 17.5, 16.2C17.5, 16.3 17.8, 16.4 17.8, 16.3C17.7, 16.6 17.7, 16.4 17.5, 16.7C18.1, 16.7 18.1, 16.5 18.2, 17.1C18.3, 17.1 18.2, 17.1 18.3, 17.1C18.3, 16.8 18.6, 17 18.6, 17.2C18.6, 17.2 19.1, 17 19.1, 17.2C19.7, 17.2 19.5, 17.9 19.8, 18.1C19.9, 18.1 19.7, 18.1 19.9, 18.1C19.9, 18.1 19.8, 18.4 19.8, 18.4C19.9, 18.4 19.8, 18.3 19.9, 18.3C19.9, 18.4 19.9, 18.4 19.9, 18.4C19.9, 18.4 19.9, 18.4 19.9, 18.5C19.9, 18.5 19.9, 18.5 19.9, 18.5C19.7, 18.5 19.8, 18.5 19.8, 18.4C19.8, 18.4 19.3, 18.9 19, 19.1C19.2, 19 19.3, 18.9 19.6, 18.9C19.6, 19.2 19.6, 19 19.6, 19.2C19.7, 19.2 19.6, 18.9 19.8, 18.9C19.8, 19.3 20.2, 19 20.3, 19C20.3, 19 20.9, 18.7 20.8, 19.1C21, 19.1 20.9, 19.4 21.1, 19.4C21.4, 19.1 22.3, 19.7 22.6, 19.9C23.2, 20.7 22.4, 21.1 22.1, 21.9zM17.5, 7.3L17.4, 7.2C17.3, 7.2 17, 7.1 17.3, 7L17.4, 7.2C17.4, 7.2 17.5, 7.2 17.5, 7.2C17.4, 7.3 17.4, 7.3 17.5, 7.3zM17.1, 6.2C17.2, 6.2 17.5, 6.3 17.6, 6.4C17.6, 6.4 17.6, 6.4 17.6, 6.5C17.5, 6.5 17.1, 6.3 17.1, 6.2zM12.3, 11.8C12.2, 11.8 12.2, 11.7 12.3, 11.8C12.3, 11.7 12.3, 11.7 12.3, 11.8zM19.6, 18.9C19.6, 18.9 19.5, 19 19.6, 18.9L19.6, 18.9zM19.5, 19C19.6, 19 19.5, 19.1 19.5, 19L19.5, 19z" fill="#1177D7" class="Blue" />
    </g>
  </g>
</svg>