<?xml version='1.0' encoding='UTF-8'?>
<svg viewBox="-4.0075 -2 32 32" xmlns="http://www.w3.org/2000/svg" xmlns:xlink="http://www.w3.org/1999/xlink">
  <defs tag="staticElement_id1412808">
    <style type="text/css">
    .fil0 {fill:black;fill-rule:nonzero}
   </style>
  </defs>
  <g transform="translate(-0.0039, 0)" style="shape-rendering:geometricPrecision;text-rendering:geometricPrecision;image-rendering:optimizeQuality;fill-rule:evenodd;clip-rule:evenodd" fill-rule="evenodd">
    <g transform="matrix(0.0175, 0, 0, 0.0175, 0, 0)">
      <g transform="matrix(1.2616, 0, 0, 1.2616, 0.1263, 0)">
        <g id="Layer_x0020_1">
          <polygon points="642.84,0 87.74,0 87.74,131.75 306.53,131.75 168,238.02 168,350.97 371.07,195.18 371.07,131.75 1077.9,131.75 1077.9,78.13 " fill="#727272" class="Black" fill-rule="evenodd" />
        </g>
      </g>
    </g>
  </g>
  <g transform="translate(-0.0039, 0)" style="shape-rendering:geometricPrecision;text-rendering:geometricPrecision;image-rendering:optimizeQuality;fill-rule:evenodd;clip-rule:evenodd" fill-rule="evenodd">
    <g transform="matrix(0.0175, 0, 0, 0.0175, 0, 0)">
      <g transform="matrix(1.2616, 0, 0, 1.2616, 0.1263, 0)">
        <g id="Layer_x0020_1">
          <polygon points="371.07,284.11 168,439.9 168,552.85 371.07,397.05 " fill="#727272" class="Black" fill-rule="evenodd" />
        </g>
      </g>
    </g>
  </g>
  <g transform="translate(-0.0039, 0)" style="shape-rendering:geometricPrecision;text-rendering:geometricPrecision;image-rendering:optimizeQuality;fill-rule:evenodd;clip-rule:evenodd" fill-rule="evenodd">
    <g transform="matrix(0.0175, 0, 0, 0.0175, 0, 0)">
      <g transform="matrix(1.2616, 0, 0, 1.2616, 0.1263, 0)">
        <g id="Layer_x0020_1">
          <polygon points="168,754.72 371.07,598.93 371.07,485.99 168,641.78 " fill="#727272" class="Black" fill-rule="evenodd" />
        </g>
      </g>
    </g>
  </g>
  <g transform="translate(-0.0039, 0)" style="shape-rendering:geometricPrecision;text-rendering:geometricPrecision;image-rendering:optimizeQuality;fill-rule:evenodd;clip-rule:evenodd" fill-rule="evenodd">
    <g transform="matrix(0.0175, 0, 0, 0.0175, 0, 0)">
      <g transform="matrix(1.2616, 0, 0, 1.2616, 0.1263, 0)">
        <g id="Layer_x0020_1">
          <path d="M371.07, 800.81L371.07, 687.86L168, 843.66L168, 903.83L87.74, 903.83L87.74, 1035.58L213.29, 1035.58L213.29, 1125.43L140.49, 1125.43C127.46, 1102.95 103.16, 1087.81 75.3, 1087.81C33.71, 1087.8 0, 1121.52 0, 1163.1C0, 1204.69 33.71, 1238.41 75.3, 1238.41C103.16, 1238.41 127.46, 1223.27 140.49, 1200.78L213.29, 1200.78L213.29, 1268.26L325.79, 1268.26L325.79, 1200.78L398.59, 1200.78C411.62, 1223.27 435.92, 1238.41 463.78, 1238.41C505.37, 1238.41 539.08, 1204.69 539.08, 1163.1C539.08, 1121.52 505.37, 1087.81 463.78, 1087.81C435.92, 1087.81 411.62, 1102.95 398.59, 1125.43L325.79, 1125.43L325.79, 1035.58L642.84, 1035.58L1077.9, 957.45L1077.9, 903.83L236.79, 903.83L371.07, 800.81z" fill="#727272" class="Black" fill-rule="evenodd" />
        </g>
      </g>
    </g>
  </g>
  <g transform="translate(-0.0039, 0)" style="shape-rendering:geometricPrecision;text-rendering:geometricPrecision;image-rendering:optimizeQuality;fill-rule:evenodd;clip-rule:evenodd" fill-rule="evenodd">
    <g transform="matrix(0.0175, 0, 0, 0.0175, 0, 0)">
      <g transform="matrix(1.2616, 0, 0, 1.2616, 0.1263, 0)">
        <g id="Layer_x0020_1">
          <g id="_1738559007680">
            <g>
              <path d="M674.31, 610.27C667.84, 610.27 663.48, 610.9 661.24, 611.53L661.24, 652.92C663.91, 653.56 667.24, 653.73 671.85, 653.73C688.68, 653.73 699.04, 645.23 699.04, 630.86C699.04, 618 690.12, 610.27 674.31, 610.27L674.31, 610.27zM796.82, 610.69C789.79, 610.69 785.23, 611.32 782.52, 611.96L782.52, 703.66C785.23, 704.29 789.58, 704.29 793.52, 704.29C822.22, 704.5 840.91, 688.69 840.91, 655.24C841.13, 626.08 824.08, 610.69 796.82, 610.69z" fill="#D11C1C" class="Red" fill-rule="evenodd" />
            </g>
          </g>
        </g>
      </g>
    </g>
  </g>
  <g transform="translate(-0.0039, 0)" style="shape-rendering:geometricPrecision;text-rendering:geometricPrecision;image-rendering:optimizeQuality;fill-rule:evenodd;clip-rule:evenodd" fill-rule="evenodd">
    <g transform="matrix(0.0175, 0, 0, 0.0175, 0, 0)">
      <g transform="matrix(1.2616, 0, 0, 1.2616, 0.1263, 0)">
        <g id="Layer_x0020_1">
          <g id="_1738559007680">
            <g>
              <path d="M875.73, 164.76L594.66, 164.76C576.02, 164.76 558.14, 172.16 544.97, 185.34C531.79, 198.52 524.39, 216.39 524.39, 235.02L524.39, 797.18C524.39, 815.81 531.79, 833.69 544.97, 846.87C558.15, 860.05 576.02, 867.45 594.66, 867.45L1016.27, 867.45C1034.91, 867.45 1052.78, 860.04 1065.96, 846.87C1079.14, 833.69 1086.54, 815.81 1086.54, 797.18L1086.54, 375.56L875.73, 164.76zM717.56, 663.32C706.7, 673.5 690.68, 678.07 672.02, 678.07C668.4, 678.11 664.79, 677.9 661.2, 677.44L661.2, 727.54L629.79, 727.54L629.79, 589.25C643.97, 587.14 658.29, 586.17 672.62, 586.37C692.19, 586.37 706.1, 590.1 715.48, 597.58C724.41, 604.68 730.45, 616.31 730.45, 630.01C730.42, 643.78 725.85, 655.41 717.56, 663.32L717.56, 663.32zM851.31, 710.92C836.56, 723.18 814.11, 729.02 786.67, 729.02C770.22, 729.02 758.59, 727.96 750.69, 726.91L750.69, 589.29C764.87, 587.22 779.19, 586.24 793.52, 586.37C820.11, 586.37 837.4, 591.15 850.89, 601.34C865.47, 612.16 874.61, 629.41 874.61, 654.18C874.61, 680.99 864.81, 699.5 851.31, 710.92L851.31, 710.92zM981.14, 613.42L927.31, 613.42L927.31, 645.43L977.62, 645.43L977.62, 671.22L927.31, 671.22L927.31, 727.58L895.48, 727.58L895.48, 587.42L981.14, 587.42L981.14, 613.42zM875.73, 410.7L840.6, 410.7L840.6, 235.02L1016.27, 410.7L875.73, 410.7z" fill="#D11C1C" class="Red" fill-rule="evenodd" />
            </g>
          </g>
        </g>
      </g>
    </g>
  </g>
</svg>