<?xml version='1.0' encoding='UTF-8'?>
<svg viewBox="-2 -2.07 32 32" xmlns="http://www.w3.org/2000/svg" xmlns:xlink="http://www.w3.org/1999/xlink">
  <g id="Capa_1" transform="translate(0, -0.0701)">
    <g transform="matrix(0.0547, 0, 0, 0.0547, 0, 0)">
      <g>
        <path d="M94.207, 270.961L0, 270.961C2.964, 322.68 21.223, 371.505 52.607, 412.185C70.258, 402.216 90.074, 393.668 111.481, 386.697C101.295, 351.108 95.373, 311.811 94.207, 270.961z" fill="#1177D7" class="Blue" />
      </g>
    </g>
  </g>
  <g id="Capa_1" transform="translate(0, -0.0701)">
    <g transform="matrix(0.0547, 0, 0, 0.0547, 0, 0)">
      <g>
        <path d="M94.207, 240.961C95.373, 200.11 101.295, 160.813 111.482, 125.222C90.074, 118.252 70.259, 109.704 52.608, 99.734C21.223, 140.415 2.964, 189.241 0, 240.961z" fill="#1177D7" class="Blue" />
      </g>
    </g>
  </g>
  <g id="Capa_1" transform="translate(0, -0.0701)">
    <g transform="matrix(0.0547, 0, 0, 0.0547, 0, 0)">
      <g>
        <path d="M165.225, 71.19C159.529, 81.708 154.386, 92.988 149.814, 104.903C178.304, 111.712 209.131, 115.778 240.962, 116.751L240.962, 1.274C212.939, 7.683 186.48, 31.939 165.225, 71.19z" fill="#1177D7" class="Blue" />
      </g>
    </g>
  </g>
  <g id="Capa_1" transform="translate(0, -0.0701)">
    <g transform="matrix(0.0547, 0, 0, 0.0547, 0, 0)">
      <g>
        <path d="M270.961, 1.274L270.961, 116.75C302.79, 115.777 333.617, 111.71 362.107, 104.902C357.534, 92.988 352.391, 81.707 346.696, 71.189C325.441, 31.94 298.982, 7.684 270.961, 1.274z" fill="#1177D7" class="Blue" />
      </g>
    </g>
  </g>
  <g id="Capa_1" transform="translate(0, -0.0701)">
    <g transform="matrix(0.0547, 0, 0, 0.0547, 0, 0)">
      <g>
        <path d="M371.611, 133.412C340.099, 141.155 306.03, 145.743 270.961, 146.762L270.961, 240.96L387.699, 240.96C386.551, 202.844 381.043, 166.325 371.611, 133.412z" fill="#1177D7" class="Blue" />
      </g>
    </g>
  </g>
  <g id="Capa_1" transform="translate(0, -0.0701)">
    <g transform="matrix(0.0547, 0, 0, 0.0547, 0, 0)">
      <g>
        <path d="M120.837, 415.148C103.499, 420.795 87.355, 427.555 72.765, 435.333C73.396, 435.977 74.015, 436.629 74.653, 437.267C101.339, 463.953 132.877, 484.015 167.27, 496.666C157.021, 484.899 147.487, 470.976 138.844, 455.016C132.125, 442.608 126.117, 429.257 120.837, 415.148z" fill="#1177D7" class="Blue" />
      </g>
    </g>
  </g>
  <g id="Capa_1" transform="translate(0, -0.0701)">
    <g transform="matrix(0.0547, 0, 0, 0.0547, 0, 0)">
      <g>
        <path d="M391.083, 96.772C408.421, 91.125 424.565, 84.365 439.155, 76.588C438.524, 75.944 437.905, 75.292 437.267, 74.654C410.581, 47.968 379.043, 27.906 344.65, 15.255C354.899, 27.022 364.433, 40.945 373.076, 56.905C379.795, 69.312 385.803, 82.663 391.083, 96.772z" fill="#1177D7" class="Blue" />
      </g>
    </g>
  </g>
  <g id="Capa_1" transform="translate(0, -0.0701)">
    <g transform="matrix(0.0547, 0, 0, 0.0547, 0, 0)">
      <g>
        <path d="M417.714, 270.961C416.548, 311.811 410.625, 351.108 400.439, 386.698C421.847, 393.668 441.662, 402.216 459.313, 412.186C490.698, 371.506 508.956, 322.681 511.92, 270.962L417.714, 270.962z" fill="#1177D7" class="Blue" />
      </g>
    </g>
  </g>
  <g id="Capa_1" transform="translate(0, -0.0701)">
    <g transform="matrix(0.0547, 0, 0, 0.0547, 0, 0)">
      <g>
        <path d="M391.083, 415.148C385.803, 429.257 379.795, 442.607 373.075, 455.015C364.433, 470.975 354.898, 484.898 344.649, 496.665C379.042, 484.014 410.58, 463.952 437.266, 437.266C437.904, 436.628 438.523, 435.976 439.153, 435.332C424.564, 427.556 408.421, 420.795 391.083, 415.148z" fill="#1177D7" class="Blue" />
      </g>
    </g>
  </g>
  <g id="Capa_1" transform="translate(0, -0.0701)">
    <g transform="matrix(0.0547, 0, 0, 0.0547, 0, 0)">
      <g>
        <path d="M120.837, 96.772C126.117, 82.663 132.125, 69.313 138.845, 56.905C147.487, 40.945 157.022, 27.022 167.271, 15.255C132.878, 27.906 101.34, 47.968 74.654, 74.654C74.016, 75.292 73.397, 75.944 72.767, 76.588C87.356, 84.365 103.499, 91.125 120.837, 96.772z" fill="#1177D7" class="Blue" />
      </g>
    </g>
  </g>
  <g id="Capa_1" transform="translate(0, -0.0701)">
    <g transform="matrix(0.0547, 0, 0, 0.0547, 0, 0)">
      <g>
        <path d="M400.438, 125.222C410.625, 160.813 416.547, 200.11 417.713, 240.961L511.92, 240.961C508.956, 189.241 490.697, 140.415 459.313, 99.735C441.661, 109.704 421.846, 118.252 400.438, 125.222z" fill="#1177D7" class="Blue" />
      </g>
    </g>
  </g>
  <g id="Capa_1" transform="translate(0, -0.0701)">
    <g transform="matrix(0.0547, 0, 0, 0.0547, 0, 0)">
      <g>
        <path d="M240.961, 240.961L240.961, 146.763C205.892, 145.744 171.822, 141.155 140.309, 133.413C130.877, 166.325 125.368, 202.844 124.221, 240.962L240.961, 240.962z" fill="#1177D7" class="Blue" />
      </g>
    </g>
  </g>
  <g id="Capa_1" transform="translate(0, -0.0701)">
    <g transform="matrix(0.0547, 0, 0, 0.0547, 0, 0)">
      <g>
        <path d="M270.961, 270.961L270.961, 365.157C306.029, 366.177 340.099, 370.765 371.611, 378.507C381.043, 345.595 386.551, 309.077 387.699, 270.96L270.961, 270.96z" fill="#1177D7" class="Blue" />
      </g>
    </g>
  </g>
  <g id="Capa_1" transform="translate(0, -0.0701)">
    <g transform="matrix(0.0547, 0, 0, 0.0547, 0, 0)">
      <g>
        <path d="M346.695, 440.731C352.391, 430.213 357.534, 418.933 362.106, 407.018C333.616, 400.209 302.79, 396.143 270.96, 395.17L270.96, 510.646C298.982, 504.236 325.441, 479.98 346.695, 440.731z" fill="#1177D7" class="Blue" />
      </g>
    </g>
  </g>
  <g id="Capa_1" transform="translate(0, -0.0701)">
    <g transform="matrix(0.0547, 0, 0, 0.0547, 0, 0)">
      <g>
        <path d="M240.961, 510.646L240.961, 395.17C209.131, 396.143 178.304, 400.209 149.813, 407.018C154.386, 418.932 159.529, 430.213 165.225, 440.731C186.48, 479.981 212.939, 504.237 240.961, 510.646z" fill="#1177D7" class="Blue" />
      </g>
    </g>
  </g>
  <g id="Capa_1" transform="translate(0, -0.0701)">
    <g transform="matrix(0.0547, 0, 0, 0.0547, 0, 0)">
      <g>
        <path d="M240.961, 270.961L124.221, 270.961C125.369, 309.078 130.877, 345.596 140.309, 378.508C171.821, 370.765 205.891, 366.177 240.961, 365.158z" fill="#1177D7" class="Blue" />
      </g>
    </g>
  </g>
  <g id="Layer_1" transform="translate(14, 13.93)" style="enable-background:new 0 0 16 16">
    <g id="Settings">
      <path d="M16, 9L16, 7L13.5, 6.4C13.4, 6 13.2, 5.6 13, 5.2L14.5, 3.1L12.9, 1.5L10.8, 3C10.4, 2.8 10, 2.6 9.6, 2.5L9, 0L7, 0L6.4, 2.5C6, 2.6 5.6, 2.8 5.2, 3L3.2, 1.5L1.5, 3.2L3, 5.2C2.8, 5.6 2.6, 6 2.5, 6.4L0, 7L0, 9L2.5, 9.6C2.6, 10 2.8, 10.4 3, 10.8L1.5, 12.9L3.1, 14.5L5.2, 13C5.6, 13.2 6, 13.4 6.4, 13.5L7, 16L9, 16L9.6, 13.5C10, 13.4 10.4, 13.2 10.8, 13L12.9, 14.5L14.5, 12.9L13, 10.8C13.2, 10.4 13.4, 10 13.5, 9.6L16, 9z" fill="#FFB115" class="Yellow" />
    </g>
  </g>
  <g id="Layer_1" transform="translate(14, 13.93)" style="enable-background:new 0 0 16 16">
    <g id="Settings">
      <circle cx="8" cy="8" r="2" fill="#FFFFFF" class="White" />
    </g>
  </g>
</svg>