<?xml version="1.0" encoding="UTF-8"?>
<!DOCTYPE svg PUBLIC "-//W3C//DTD SVG 1.1//EN" "http://www.w3.org/Graphics/SVG/1.1/DTD/svg11.dtd">
<!-- Creator: CorelDRAW -->
<svg xmlns="http://www.w3.org/2000/svg" xml:space="preserve" width="64px" height="64px" version="1.1" style="shape-rendering:geometricPrecision; text-rendering:geometricPrecision; image-rendering:optimizeQuality; fill-rule:evenodd; clip-rule:evenodd"
viewBox="0 0 63.94 63.94"
 xmlns:xlink="http://www.w3.org/1999/xlink"
 xmlns:xodm="http://www.corel.com/coreldraw/odm/2003">
 <defs>
  <style type="text/css">
   <![CDATA[
    .fil2 {fill:#165358}
    .fil0 {fill:url(#id0)}
    .fil1 {fill:url(#id1);fill-rule:nonzero}
   ]]>
  </style>
  <linearGradient id="id0" gradientUnits="userSpaceOnUse" x1="31.97" y1="63.94" x2="31.97" y2="0">
   <stop offset="0" style="stop-opacity:1; stop-color:#00656C"/>
   <stop offset="1" style="stop-opacity:1; stop-color:#0BACB6"/>
  </linearGradient>
  <linearGradient id="id1" gradientUnits="userSpaceOnUse" x1="31.97" y1="48.49" x2="31.97" y2="15.45">
   <stop offset="0" style="stop-opacity:1; stop-color:#CAE7E8"/>
   <stop offset="1" style="stop-opacity:1; stop-color:#FEFEFE"/>
  </linearGradient>
 </defs>
 <g id="Layer_x0020_1">
  <metadata id="CorelCorpID_0Corel-Layer"/>
  <rect class="fil0" width="63.94" height="63.94" rx="8.29" ry="8.53"/>
  <path class="fil1" d="M46.71 48.49l6.94 -5.12 -21.68 -27.92 -21.68 27.92 6.94 5.12 4.29 -5.71 20.9 0 4.29 5.71zm-9.87 -13.14l-9.74 0 4.87 -6.45 4.87 6.45z"/>
  <g>
   <path id="_1" class="fil2" d="M46.71 48.49l6.94 -5.12 -21.68 -27.92 -21.68 27.92 6.94 5.12 4.29 -5.71 20.9 0 4.29 5.71zm-9.87 -13.14l-9.74 0 4.87 -6.45 4.87 6.45zm16.94 8.19l-6.94 5.12 -0.17 0.12 -0.13 -0.16 -4.22 -5.63 -20.7 0 -4.22 5.63 -0.13 0.16 -0.17 -0.12 -6.94 -5.12 -0.17 -0.13 0.13 -0.17 21.68 -27.92 0.17 -0.22 0.17 0.22 21.68 27.92 0.13 0.17 -0.17 0.13zm-26.26 -8.4l8.9 0 -4.45 -5.89 -4.45 5.89z"/>
  </g>
 </g>
</svg>
