<?xml version="1.0" encoding="UTF-8"?>
<!DOCTYPE svg PUBLIC "-//W3C//DTD SVG 1.1//EN" "http://www.w3.org/Graphics/SVG/1.1/DTD/svg11.dtd">
<!-- Creator: CorelDRAW -->
<svg xmlns="http://www.w3.org/2000/svg" xml:space="preserve" width="64px" height="64px" version="1.1" style="shape-rendering:geometricPrecision; text-rendering:geometricPrecision; image-rendering:optimizeQuality; fill-rule:evenodd; clip-rule:evenodd"
viewBox="0 0 63.94 63.94"
 xmlns:xlink="http://www.w3.org/1999/xlink"
 xmlns:xodm="http://www.corel.com/coreldraw/odm/2003">
 <defs>
  <style type="text/css">
   <![CDATA[
    .fil2 {fill:#784C31}
    .fil0 {fill:url(#id0)}
    .fil1 {fill:url(#id1);fill-rule:nonzero}
   ]]>
  </style>
  <linearGradient id="id0" gradientUnits="userSpaceOnUse" x1="31.97" y1="63.94" x2="31.97" y2="0">
   <stop offset="0" style="stop-opacity:1; stop-color:#EA7737"/>
   <stop offset="1" style="stop-opacity:1; stop-color:#F4A832"/>
  </linearGradient>
  <linearGradient id="id1" gradientUnits="userSpaceOnUse" x1="31.96" y1="51.49" x2="31.96" y2="27.95">
   <stop offset="0" style="stop-opacity:1; stop-color:#FEEBD2"/>
   <stop offset="1" style="stop-opacity:1; stop-color:white"/>
  </linearGradient>
 </defs>
 <g id="Layer_x0020_1">
  <metadata id="CorelCorpID_0Corel-Layer"/>
  <rect class="fil0" width="63.94" height="63.94" rx="8.29" ry="8.53"/>
  <g>
   <path class="fil1" d="M37.32 32.95c-1.45,-1.37 -3.37,-2.14 -5.36,-2.14 -1.99,0 -3.91,0.77 -5.36,2.14l-6.47 6.11c-3.7,3.37 -1.03,9.81 3.97,9.56 2.72,-0.07 4.92,-1.46 7.85,-1.41 3.04,-0.05 5.3,1.17 8.02,1.41 4.92,0.11 7.46,-6.26 3.81,-9.56l-6.46 -6.11zm11.13 -8.99c-2.53,-0.49 -4.46,2.32 -4.96,4.74 -1.51,7.5 5.75,8.93 7.45,1.65 0.7,-3.11 -0.4,-5.92 -2.49,-6.39zm-10.71 4.05c2.51,0 4.55,-2.86 4.55,-6.36 -0.25,-8.45 -8.86,-8.45 -9.11,0 0,3.5 2.05,6.36 4.56,6.36zm-17.31 0.69c-0.49,-2.42 -2.43,-5.23 -4.96,-4.74 -4.69,1.19 -2.7,11.17 1.88,11.2 2.59,-0.09 3.79,-3.1 3.08,-6.46zm5.75 -0.69c2.51,0 4.55,-2.86 4.55,-6.36 -0.24,-8.45 -8.86,-8.45 -9.11,0 0,3.5 2.05,6.36 4.56,6.36z"/>
   <path id="_1" class="fil2" d="M37.32 32.95c-1.45,-1.37 -3.37,-2.14 -5.36,-2.14 -1.99,0 -3.91,0.77 -5.36,2.14l-6.47 6.11c-3.7,3.37 -1.03,9.81 3.97,9.56 2.72,-0.07 4.92,-1.46 7.85,-1.41 3.04,-0.05 5.3,1.17 8.02,1.41 4.92,0.11 7.46,-6.26 3.81,-9.56l-6.46 -6.11zm11.13 -8.99c-2.53,-0.49 -4.46,2.32 -4.96,4.74 -1.51,7.5 5.75,8.93 7.45,1.65 0.7,-3.11 -0.4,-5.92 -2.49,-6.39zm-10.71 4.05c2.51,0 4.55,-2.86 4.55,-6.36 -0.25,-8.45 -8.86,-8.45 -9.11,0 0,3.5 2.05,6.36 4.56,6.36zm-17.31 0.69c-0.49,-2.42 -2.43,-5.23 -4.96,-4.74 -4.69,1.19 -2.7,11.17 1.88,11.2 2.59,-0.09 3.79,-3.1 3.08,-6.46zm5.75 -0.69c2.51,0 4.55,-2.86 4.55,-6.36 -0.24,-8.45 -8.86,-8.45 -9.11,0 0,3.5 2.05,6.36 4.56,6.36zm8.74 3.16c0.94,0.37 1.8,0.92 2.54,1.62l0.01 0 6.45 6.12 0 0c1.29,1.16 1.83,2.68 1.8,4.19 -0.02,0.72 -0.17,1.43 -0.43,2.1 -0.27,0.67 -0.65,1.29 -1.13,1.82 -1.02,1.12 -2.46,1.85 -4.19,1.81l-0.02 0c-1.18,-0.1 -2.27,-0.39 -3.37,-0.68 -1.45,-0.37 -2.92,-0.76 -4.62,-0.73l-0.01 0c-1.52,-0.03 -2.86,0.35 -4.17,0.71 -1.19,0.34 -2.37,0.66 -3.67,0.7l0 0c-1.79,0.09 -3.3,-0.65 -4.34,-1.8 -0.47,-0.51 -0.85,-1.11 -1.11,-1.75 -0.27,-0.64 -0.43,-1.33 -0.46,-2.02 -0.08,-1.55 0.46,-3.14 1.79,-4.35l0 0 6.46 -6.11 0 -0.01c0.75,-0.7 1.61,-1.25 2.55,-1.62 0.93,-0.37 1.94,-0.57 2.96,-0.57 1.02,0 2.03,0.2 2.96,0.57zm10.4 -6.35c0.87,-0.83 1.95,-1.31 3.17,-1.07l0.01 0.01 0 0 0 0c1.12,0.25 1.96,1.11 2.44,2.32 0.46,1.19 0.57,2.71 0.21,4.31l0 0.01 0 0c-0.63,2.69 -2.01,4.23 -3.45,4.74 -0.59,0.21 -1.19,0.25 -1.75,0.13 -0.56,-0.12 -1.09,-0.4 -1.54,-0.84 -1.08,-1.06 -1.69,-3.02 -1.13,-5.77l0 0c0.28,-1.37 1.01,-2.86 2.04,-3.84zm-4.19 1.45c-0.86,1.21 -2.06,1.96 -3.39,1.96 -1.33,0 -2.53,-0.75 -3.39,-1.96 -0.85,-1.19 -1.38,-2.83 -1.38,-4.62l0 -0.01c0.09,-3.07 1.27,-5.07 2.77,-5.97 0.63,-0.38 1.31,-0.57 2,-0.57 0.68,0 1.36,0.19 1.99,0.57 1.5,0.9 2.69,2.9 2.78,5.97l0 0.01c0,1.8 -0.53,3.43 -1.38,4.62zm-22.53 -1.45c1.03,0.98 1.76,2.47 2.04,3.84l0 0c0.12,0.55 0.18,1.1 0.2,1.62 0.04,1.26 -0.19,2.4 -0.68,3.28 -0.49,0.9 -1.24,1.54 -2.22,1.74 -0.19,0.04 -0.38,0.06 -0.59,0.07l0 0c-1.61,-0.01 -2.91,-1.16 -3.74,-2.75 -0.47,-0.89 -0.8,-1.92 -0.95,-2.96 -0.14,-1.04 -0.11,-2.09 0.13,-3.01 0.36,-1.42 1.2,-2.53 2.63,-2.89l0.01 -0.01c1.22,-0.24 2.3,0.24 3.17,1.07zm10.97 1.45c-0.86,1.21 -2.06,1.96 -3.39,1.96 -1.33,0 -2.53,-0.75 -3.39,-1.96 -0.85,-1.19 -1.38,-2.82 -1.38,-4.62l0 -0.01c0.09,-3.07 1.28,-5.07 2.78,-5.97 0.63,-0.38 1.31,-0.57 1.99,-0.57 0.69,0 1.37,0.19 2,0.57 1.5,0.9 2.68,2.9 2.77,5.97l0 0.01c0,1.79 -0.53,3.43 -1.38,4.62z"/>
  </g>
 </g>
</svg>
