<?xml version="1.0" encoding="UTF-8"?>
<!DOCTYPE svg PUBLIC "-//W3C//DTD SVG 1.1//EN" "http://www.w3.org/Graphics/SVG/1.1/DTD/svg11.dtd">
<!-- Creator: CorelDRAW -->
<svg xmlns="http://www.w3.org/2000/svg" xml:space="preserve" width="64px" height="64px" version="1.1" style="shape-rendering:geometricPrecision; text-rendering:geometricPrecision; image-rendering:optimizeQuality; fill-rule:evenodd; clip-rule:evenodd"
viewBox="0 0 63.94 63.94"
 xmlns:xlink="http://www.w3.org/1999/xlink"
 xmlns:xodm="http://www.corel.com/coreldraw/odm/2003">
 <defs>
  <style type="text/css">
   <![CDATA[
    .fil2 {fill:#784C31}
    .fil0 {fill:url(#id0)}
    .fil1 {fill:url(#id1);fill-rule:nonzero}
   ]]>
  </style>
  <linearGradient id="id0" gradientUnits="userSpaceOnUse" x1="31.97" y1="63.94" x2="31.97" y2="0">
   <stop offset="0" style="stop-opacity:1; stop-color:#EA7737"/>
   <stop offset="1" style="stop-opacity:1; stop-color:#E4D132"/>
  </linearGradient>
  <linearGradient id="id1" gradientUnits="userSpaceOnUse" x1="31.97" y1="47.9" x2="31.97" y2="16.04">
   <stop offset="0" style="stop-opacity:1; stop-color:#FEEBD2"/>
   <stop offset="1" style="stop-opacity:1; stop-color:#FEFEFE"/>
  </linearGradient>
 </defs>
 <g id="Layer_x0020_1">
  <metadata id="CorelCorpID_0Corel-Layer"/>
  <rect class="fil0" width="63.94" height="63.94" rx="8.29" ry="8.53"/>
  <path class="fil1" d="M42.46 47.9l7.06 -5.32 -6.51 -6.64c4.83,-2.11 7.13,-5.44 7.13,-9.15 0,-5.59 -5.03,-10.75 -21.13,-10.75 -5.46,0 -10.81,0.27 -15.21,0.58l0 29.72 9.36 0 0 -8.33c2.02,0.12 4.29,0.2 6.59,0.2 1.28,0 2.53,-0.04 3.7,-0.12l9.01 9.81zm-13.3 -17.32c-2.26,0 -4.29,-0.08 -6,-0.15l0 -6.22c1.71,-0.08 3.74,-0.16 6,-0.16 8.62,0 11.23,1.57 11.23,3.25 0,1.68 -2.61,3.28 -11.23,3.28z"/>
  <g>
   <path id="_1" class="fil2" d="M42.46 47.9l7.06 -5.32 -6.51 -6.64c4.83,-2.11 7.13,-5.44 7.13,-9.15 0,-5.59 -5.03,-10.75 -21.13,-10.75 -5.46,0 -10.81,0.27 -15.21,0.58l0 29.72 9.36 0 0 -8.33c2.02,0.12 4.29,0.2 6.59,0.2 1.28,0 2.53,-0.04 3.7,-0.12l9.01 9.81zm-13.3 -17.32c-2.26,0 -4.29,-0.08 -6,-0.15l0 -6.22c1.71,-0.08 3.74,-0.16 6,-0.16 8.62,0 11.23,1.57 11.23,3.25 0,1.68 -2.61,3.28 -11.23,3.28zm20.49 12.17l-7.06 5.32 -0.16 0.12 -0.13 -0.14 -8.94 -9.74c-0.54,0.03 -1.12,0.06 -1.71,0.08 -0.63,0.02 -1.27,0.03 -1.9,0.03 -1.09,0 -2.18,-0.02 -3.26,-0.05 -1.08,-0.03 -2.13,-0.08 -3.12,-0.13l0 8.1 0 0.21 -0.21 0 -9.36 0 -0.22 0 0 -0.21 0 -29.72 0 -0.19 0.2 -0.02c2.2,-0.15 4.64,-0.3 7.22,-0.41 2.58,-0.11 5.28,-0.18 8.01,-0.18 7.34,0 12.41,1.08 15.75,2.78 4.06,2.07 5.59,5.06 5.59,8.19 0,1.95 -0.61,3.79 -1.88,5.42 -1.15,1.48 -2.85,2.77 -5.1,3.8l6.3 6.43 0.17 0.17 -0.19 0.14zm-23.69 -12.43c0.99,0.03 2.05,0.05 3.2,0.05 3.87,0 6.52,-0.32 8.26,-0.83 2.01,-0.59 2.76,-1.41 2.76,-2.24 0,-1.57 -2.56,-3.03 -11.02,-3.03 -1.15,0 -2.21,0.01 -3.2,0.04 -0.92,0.03 -1.79,0.07 -2.59,0.1l0 5.81c0.8,0.04 1.67,0.07 2.59,0.1z"/>
  </g>
 </g>
</svg>
