<?xml version="1.0" encoding="UTF-8"?>
<!DOCTYPE svg PUBLIC "-//W3C//DTD SVG 1.1//EN" "http://www.w3.org/Graphics/SVG/1.1/DTD/svg11.dtd">
<!-- Creator: CorelDRAW -->
<svg xmlns="http://www.w3.org/2000/svg" xml:space="preserve" width="80px" height="80px" version="1.1" style="shape-rendering:geometricPrecision; text-rendering:geometricPrecision; image-rendering:optimizeQuality; fill-rule:evenodd; clip-rule:evenodd"
viewBox="0 0 79.92 79.92"
 xmlns:xlink="http://www.w3.org/1999/xlink"
 xmlns:xodm="http://www.corel.com/coreldraw/odm/2003">
 <defs>
  <style type="text/css">
   <![CDATA[
    .fil0 {fill:url(#id0)}
    .fil1 {fill:url(#id1);fill-rule:nonzero}
   ]]>
  </style>
  <linearGradient id="id0" gradientUnits="userSpaceOnUse" x1="39.96" y1="79.92" x2="39.96" y2="0">
   <stop offset="0" style="stop-opacity:1; stop-color:#AE3335"/>
   <stop offset="1" style="stop-opacity:1; stop-color:#E13338"/>
  </linearGradient>
  <linearGradient id="id1" gradientUnits="userSpaceOnUse" x1="39.96" y1="59.51" x2="39.96" y2="20.41">
   <stop offset="0" style="stop-opacity:1; stop-color:#FBD9C9"/>
   <stop offset="1" style="stop-opacity:1; stop-color:#FEFEFE"/>
  </linearGradient>
 </defs>
 <g id="Layer_x0020_1">
  <metadata id="CorelCorpID_0Corel-Layer"/>
  <g id="_2494523132512">
   <rect class="fil0" width="79.92" height="79.92" rx="10.36" ry="10.66"/>
   <path class="fil1" d="M17.27 54.53c4.97,2.34 12.24,4.98 23.4,4.98 12.82,0 21.98,-4.2 21.98,-12.8 0,-9.24 -11.31,-11.24 -25.93,-12.08 -4.09,-0.24 -6.39,-0.58 -6.39,-1.95 0,-1.91 4.54,-2.49 9.36,-2.49 6.34,0 12.34,1.27 16.38,2.93l3.85 -8.94c-4.97,-2.15 -11.84,-3.77 -19.49,-3.77 -11.66,0 -21.79,3.47 -21.79,12.86 0,8.01 7.75,10.85 24.51,11.92 4.54,0.29 7.8,0.54 7.8,2.05 0,1.91 -5.16,2.5 -9.7,2.5 -8.43,0 -14.96,-1.91 -19.74,-4.16l-4.24 8.95z"/>
  </g>
 </g>
</svg>
