<?xml version="1.0" encoding="UTF-8"?>
<!DOCTYPE svg PUBLIC "-//W3C//DTD SVG 1.1//EN" "http://www.w3.org/Graphics/SVG/1.1/DTD/svg11.dtd">
<!-- Creator: CorelDRAW -->
<svg xmlns="http://www.w3.org/2000/svg" xml:space="preserve" width="64px" height="64px" version="1.1" style="shape-rendering:geometricPrecision; text-rendering:geometricPrecision; image-rendering:optimizeQuality; fill-rule:evenodd; clip-rule:evenodd"
viewBox="0 0 63.94 63.94"
 xmlns:xlink="http://www.w3.org/1999/xlink"
 xmlns:xodm="http://www.corel.com/coreldraw/odm/2003">
 <defs>
  <style type="text/css">
   <![CDATA[
    .fil2 {fill:#165358}
    .fil0 {fill:url(#id0)}
    .fil1 {fill:url(#id1);fill-rule:nonzero}
   ]]>
  </style>
  <linearGradient id="id0" gradientUnits="userSpaceOnUse" x1="31.97" y1="63.94" x2="31.97" y2="0">
   <stop offset="0" style="stop-opacity:1; stop-color:#00656C"/>
   <stop offset="1" style="stop-opacity:1; stop-color:#0BACB6"/>
  </linearGradient>
  <linearGradient id="id1" gradientUnits="userSpaceOnUse" x1="31.97" y1="47.61" x2="31.97" y2="16.33">
   <stop offset="0" style="stop-opacity:1; stop-color:#CAE7E8"/>
   <stop offset="1" style="stop-opacity:1; stop-color:#FEFEFE"/>
  </linearGradient>
 </defs>
 <g id="Layer_x0020_1">
  <metadata id="CorelCorpID_0Corel-Layer"/>
  <rect class="fil0" width="63.94" height="63.94" rx="8.29" ry="8.53"/>
  <path class="fil1" d="M13.82 43.62c3.97,1.88 9.78,3.99 18.72,3.99 10.25,0 17.58,-3.36 17.58,-10.24 0,-7.39 -9.04,-9 -20.74,-9.66 -3.28,-0.2 -5.11,-0.47 -5.11,-1.57 0,-1.52 3.62,-1.99 7.49,-1.99 5.06,0 9.86,1.02 13.1,2.35l3.08 -7.16c-3.98,-1.72 -9.48,-3.01 -15.6,-3.01 -9.32,0 -17.43,2.78 -17.43,10.28 0,6.42 6.2,8.68 19.61,9.54 3.63,0.24 6.24,0.43 6.24,1.65 0,1.52 -4.13,1.99 -7.76,1.99 -6.74,0 -11.97,-1.53 -15.79,-3.32l-3.39 7.15z"/>
  <g>
   <path id="_1" class="fil2" d="M13.82 43.62c3.97,1.88 9.78,3.99 18.72,3.99 10.25,0 17.58,-3.36 17.58,-10.24 0,-7.39 -9.04,-9 -20.74,-9.66 -3.28,-0.2 -5.11,-0.47 -5.11,-1.57 0,-1.52 3.62,-1.99 7.49,-1.99 5.06,0 9.86,1.02 13.1,2.35l3.08 -7.16c-3.98,-1.72 -9.48,-3.01 -15.6,-3.01 -9.32,0 -17.43,2.78 -17.43,10.28 0,6.42 6.2,8.68 19.61,9.54 3.63,0.24 6.24,0.43 6.24,1.65 0,1.52 -4.13,1.99 -7.76,1.99 -6.74,0 -11.97,-1.53 -15.79,-3.32l-3.39 7.15zm7.45 2.9c-3.09,-0.76 -5.54,-1.76 -7.54,-2.71l-0.2 -0.09 0.09 -0.19 3.4 -7.15 0.09 -0.2 0.19 0.09c1.9,0.9 4.15,1.72 6.76,2.32 2.61,0.61 5.59,0.99 8.94,0.99 2.01,0 4.18,-0.15 5.69,-0.54 1.12,-0.28 1.86,-0.69 1.86,-1.24 0,-0.48 -0.59,-0.78 -1.59,-0.98 -1.09,-0.23 -2.64,-0.34 -4.45,-0.45 -6.73,-0.44 -11.66,-1.22 -14.91,-2.71 -3.31,-1.52 -4.9,-3.75 -4.9,-7.05 0,-3.55 1.77,-6.07 4.61,-7.75 3.28,-1.93 7.98,-2.74 13.03,-2.74 2.91,0 5.68,0.29 8.22,0.78 2.82,0.54 5.35,1.33 7.46,2.25l0.2 0.08 -0.09 0.2 -3.08 7.15 -0.08 0.19 -0.19 -0.08c-1.68,-0.69 -3.79,-1.29 -6.14,-1.72 -2.14,-0.38 -4.48,-0.61 -6.88,-0.61 -2.1,0 -4.13,0.14 -5.52,0.51 -1.08,0.29 -1.76,0.7 -1.76,1.27 0,0.43 0.4,0.72 1.17,0.92 0.85,0.22 2.11,0.34 3.74,0.44l0 0c5.87,0.33 11.07,0.9 14.82,2.32 3.81,1.44 6.13,3.74 6.13,7.55 0,3.4 -1.75,5.96 -4.73,7.7 -3.17,1.84 -7.73,2.75 -13.07,2.75 -4.49,0 -8.19,-0.53 -11.27,-1.3z"/>
  </g>
 </g>
</svg>
