<?xml version="1.0" encoding="UTF-8"?>
<!DOCTYPE svg PUBLIC "-//W3C//DTD SVG 1.1//EN" "http://www.w3.org/Graphics/SVG/1.1/DTD/svg11.dtd">
<!-- Creator: CorelDRAW -->
<svg xmlns="http://www.w3.org/2000/svg" xml:space="preserve" width="64px" height="64px" version="1.1" style="shape-rendering:geometricPrecision; text-rendering:geometricPrecision; image-rendering:optimizeQuality; fill-rule:evenodd; clip-rule:evenodd"
viewBox="0 0 63.94 63.94"
 xmlns:xlink="http://www.w3.org/1999/xlink"
 xmlns:xodm="http://www.corel.com/coreldraw/odm/2003">
 <defs>
  <style type="text/css">
   <![CDATA[
    .fil2 {fill:#784C31}
    .fil0 {fill:url(#id0)}
    .fil1 {fill:url(#id1);fill-rule:nonzero}
   ]]>
  </style>
  <linearGradient id="id0" gradientUnits="userSpaceOnUse" x1="31.97" y1="63.94" x2="31.97" y2="0">
   <stop offset="0" style="stop-opacity:1; stop-color:#EA7737"/>
   <stop offset="1" style="stop-opacity:1; stop-color:#F4A832"/>
  </linearGradient>
  <linearGradient id="id1" gradientUnits="userSpaceOnUse" x1="31.97" y1="53.28" x2="31.97" y2="10.66">
   <stop offset="0" style="stop-opacity:1; stop-color:#FEEBD2"/>
   <stop offset="1" style="stop-opacity:1; stop-color:white"/>
  </linearGradient>
 </defs>
 <g id="Layer_x0020_1">
  <metadata id="CorelCorpID_0Corel-Layer"/>
  <rect class="fil0" width="63.94" height="63.94" rx="8.29" ry="8.53"/>
  <g>
   <path class="fil1" d="M30.19 42.63c0,0.98 0.8,1.77 1.78,1.77 0.98,0 1.78,-0.79 1.78,-1.77l0 -21.32c0,-0.98 -0.8,-1.77 -1.78,-1.77 -0.98,0 -1.78,0.79 -1.78,1.77l0 21.32zm-17.76 -21.32c-0.98,0 -1.77,0.8 -1.77,1.78l0 17.76c0,0.98 0.79,1.78 1.77,1.78 0.98,0 1.78,-0.8 1.78,-1.78l0 -17.76c0,-0.98 -0.8,-1.78 -1.78,-1.78zm15.1 17.76l0 -14.2c0,-0.99 -0.8,-1.78 -1.78,-1.78 -0.98,0 -1.77,0.79 -1.77,1.78l0 14.2c0,0.98 0.79,1.78 1.77,1.78 0.98,0 1.78,-0.8 1.78,-1.78zm-7.99 -1.77c0.98,0 1.77,-0.8 1.77,-1.78l0 -7.1c0,-0.98 -0.79,-1.78 -1.77,-1.78 -0.98,0 -1.78,0.8 -1.78,1.78l0 7.1c0,0.98 0.8,1.78 1.78,1.78zm20.42 1.77l0 -14.2c0,-0.99 -0.79,-1.78 -1.77,-1.78 -0.98,0 -1.78,0.79 -1.78,1.78l0 14.2c0,0.98 0.8,1.78 1.78,1.78 0.98,0 1.77,-0.8 1.77,-1.78zm11.55 -17.76c-0.98,0 -1.78,0.8 -1.78,1.78l0 17.76c0,0.98 0.8,1.78 1.78,1.78 0.98,0 1.77,-0.8 1.77,-1.78l0 -17.76c0,-0.98 -0.79,-1.78 -1.77,-1.78zm-7.11 5.33c-0.98,0 -1.77,0.8 -1.77,1.78l0 7.1c0,0.98 0.79,1.78 1.77,1.78 0.98,0 1.78,-0.8 1.78,-1.78l0 -7.1c0,-0.98 -0.8,-1.78 -1.78,-1.78zm-14.21 24.87c0,0.98 0.8,1.77 1.78,1.77 0.98,0 1.78,-0.79 1.78,-1.77l0 -1.78c0,-0.98 -0.8,-1.78 -1.78,-1.78 -0.98,0 -1.78,0.8 -1.78,1.78l0 1.78zm1.78 -35.53c0.98,0 1.78,-0.79 1.78,-1.77l0 -1.78c0,-0.98 -0.8,-1.77 -1.78,-1.77 -0.98,0 -1.78,0.79 -1.78,1.77l0 1.78c0,0.98 0.8,1.77 1.78,1.77z"/>
   <path id="_1" class="fil2" d="M30.19 42.63c0,0.98 0.8,1.77 1.78,1.77 0.98,0 1.78,-0.79 1.78,-1.77l0 -21.32c0,-0.98 -0.8,-1.77 -1.78,-1.77 -0.98,0 -1.78,0.79 -1.78,1.77l0 21.32zm-17.76 -21.32c-0.98,0 -1.77,0.8 -1.77,1.78l0 17.76c0,0.98 0.79,1.78 1.77,1.78 0.98,0 1.78,-0.8 1.78,-1.78l0 -17.76c0,-0.98 -0.8,-1.78 -1.78,-1.78zm15.1 17.76l0 -14.2c0,-0.99 -0.8,-1.78 -1.78,-1.78 -0.98,0 -1.77,0.79 -1.77,1.78l0 14.2c0,0.98 0.79,1.78 1.77,1.78 0.98,0 1.78,-0.8 1.78,-1.78zm-7.99 -1.77c0.98,0 1.77,-0.8 1.77,-1.78l0 -7.1c0,-0.98 -0.79,-1.78 -1.77,-1.78 -0.98,0 -1.78,0.8 -1.78,1.78l0 7.1c0,0.98 0.8,1.78 1.78,1.78zm20.42 1.77l0 -14.2c0,-0.99 -0.79,-1.78 -1.77,-1.78 -0.98,0 -1.78,0.79 -1.78,1.78l0 14.2c0,0.98 0.8,1.78 1.78,1.78 0.98,0 1.77,-0.8 1.77,-1.78zm11.55 -17.76c-0.98,0 -1.78,0.8 -1.78,1.78l0 17.76c0,0.98 0.8,1.78 1.78,1.78 0.98,0 1.77,-0.8 1.77,-1.78l0 -17.76c0,-0.98 -0.79,-1.78 -1.77,-1.78zm-7.11 5.33c-0.98,0 -1.77,0.8 -1.77,1.78l0 7.1c0,0.98 0.79,1.78 1.77,1.78 0.98,0 1.78,-0.8 1.78,-1.78l0 -7.1c0,-0.98 -0.8,-1.78 -1.78,-1.78zm-14.21 24.87c0,0.98 0.8,1.77 1.78,1.77 0.98,0 1.78,-0.79 1.78,-1.77l0 -1.78c0,-0.98 -0.8,-1.78 -1.78,-1.78 -0.98,0 -1.78,0.8 -1.78,1.78l0 1.78zm1.78 -35.53c0.98,0 1.78,-0.79 1.78,-1.77l0 -1.78c0,-0.98 -0.8,-1.77 -1.78,-1.77 -0.98,0 -1.78,0.79 -1.78,1.77l0 1.78c0,0.98 0.8,1.77 1.78,1.77zm-1.41 28.05c-0.36,-0.36 -0.58,-0.85 -0.58,-1.4l0 -21.32c0,-0.55 0.22,-1.04 0.58,-1.4 0.36,-0.36 0.86,-0.59 1.41,-0.59 0.55,0 1.05,0.23 1.41,0.59 0.36,0.36 0.58,0.85 0.58,1.4l0 21.32c0,0.55 -0.22,1.04 -0.58,1.4 -0.36,0.36 -0.86,0.59 -1.41,0.59 -0.55,0 -1.05,-0.23 -1.41,-0.59zm-19.53 -22.35c0.36,-0.36 0.85,-0.58 1.4,-0.58 0.55,0 1.05,0.22 1.41,0.58 0.36,0.36 0.58,0.86 0.58,1.41l0 17.76c0,0.55 -0.22,1.05 -0.58,1.41 -0.36,0.36 -0.86,0.58 -1.41,0.58 -0.55,0 -1.04,-0.22 -1.4,-0.58 -0.36,-0.36 -0.59,-0.86 -0.59,-1.41l0 -17.76c0,-0.55 0.23,-1.05 0.59,-1.41zm16.71 3.19l0 14.2c0,0.55 -0.22,1.05 -0.58,1.41 -0.36,0.36 -0.86,0.58 -1.41,0.58 -0.55,0 -1.04,-0.22 -1.4,-0.58 -0.36,-0.36 -0.59,-0.86 -0.59,-1.41l0 -14.2c0,-0.55 0.23,-1.05 0.59,-1.41 0.36,-0.36 0.85,-0.58 1.4,-0.58 0.55,0 1.05,0.22 1.41,0.58 0.36,0.36 0.58,0.86 0.58,1.41zm-6.8 12.06c-0.36,0.36 -0.85,0.58 -1.4,0.58 -0.55,0 -1.05,-0.22 -1.41,-0.58 -0.36,-0.36 -0.58,-0.86 -0.58,-1.41l0 -7.1c0,-0.55 0.22,-1.05 0.58,-1.41 0.36,-0.36 0.86,-0.58 1.41,-0.58 0.55,0 1.04,0.22 1.4,0.58 0.36,0.36 0.59,0.86 0.59,1.41l0 7.1c0,0.55 -0.23,1.05 -0.59,1.41zm19.24 -12.06l0 14.2c0,0.55 -0.23,1.05 -0.59,1.41 -0.36,0.36 -0.86,0.58 -1.4,0.58 -0.55,0 -1.05,-0.22 -1.41,-0.58 -0.36,-0.36 -0.58,-0.86 -0.58,-1.41l0 -14.2c0,-0.55 0.22,-1.05 0.58,-1.41 0.36,-0.36 0.86,-0.58 1.41,-0.58 0.54,0 1.04,0.22 1.4,0.58 0.36,0.36 0.59,0.86 0.59,1.41zm9.92 -3.19c0.36,-0.36 0.86,-0.58 1.41,-0.58 0.55,0 1.04,0.22 1.4,0.58 0.36,0.36 0.59,0.86 0.59,1.41l0 17.76c0,0.55 -0.23,1.05 -0.59,1.41 -0.36,0.36 -0.85,0.58 -1.4,0.58 -0.55,0 -1.05,-0.22 -1.41,-0.58 -0.36,-0.36 -0.58,-0.86 -0.58,-1.41l0 -17.76c0,-0.55 0.22,-1.05 0.58,-1.41zm-7.1 5.33c0.36,-0.36 0.85,-0.58 1.4,-0.58 0.55,0 1.05,0.22 1.41,0.58 0.36,0.36 0.58,0.86 0.58,1.41l0 7.1c0,0.55 -0.22,1.05 -0.58,1.41 -0.36,0.36 -0.86,0.58 -1.41,0.58 -0.55,0 -1.04,-0.22 -1.4,-0.58 -0.36,-0.36 -0.59,-0.86 -0.59,-1.41l0 -7.1c0,-0.55 0.23,-1.05 0.59,-1.41zm-12.44 25.9c-0.36,-0.36 -0.58,-0.85 -0.58,-1.4l0 -1.78c0,-0.55 0.22,-1.05 0.58,-1.41 0.36,-0.36 0.86,-0.58 1.41,-0.58 0.55,0 1.05,0.22 1.41,0.58 0.36,0.36 0.58,0.86 0.58,1.41l0 1.78c0,0.55 -0.22,1.04 -0.58,1.4 -0.36,0.36 -0.86,0.59 -1.41,0.59 -0.55,0 -1.05,-0.23 -1.41,-0.59zm2.82 -37.29c-0.36,0.36 -0.86,0.58 -1.41,0.58 -0.55,0 -1.05,-0.22 -1.41,-0.58 -0.36,-0.36 -0.58,-0.86 -0.58,-1.41l0 -1.78c0,-0.55 0.22,-1.04 0.58,-1.4 0.36,-0.36 0.86,-0.59 1.41,-0.59 0.55,0 1.05,0.23 1.41,0.59 0.36,0.36 0.58,0.85 0.58,1.4l0 1.78c0,0.55 -0.22,1.05 -0.58,1.41z"/>
  </g>
 </g>
</svg>
