<?xml version="1.0" encoding="UTF-8"?>
<!DOCTYPE svg PUBLIC "-//W3C//DTD SVG 1.1//EN" "http://www.w3.org/Graphics/SVG/1.1/DTD/svg11.dtd">
<!-- Creator: CorelDRAW -->
<svg xmlns="http://www.w3.org/2000/svg" xml:space="preserve" width="64px" height="64px" version="1.1" style="shape-rendering:geometricPrecision; text-rendering:geometricPrecision; image-rendering:optimizeQuality; fill-rule:evenodd; clip-rule:evenodd"
viewBox="0 0 63.94 63.94"
 xmlns:xlink="http://www.w3.org/1999/xlink"
 xmlns:xodm="http://www.corel.com/coreldraw/odm/2003">
 <defs>
  <style type="text/css">
   <![CDATA[
    .fil2 {fill:#46633C}
    .fil0 {fill:url(#id0)}
    .fil1 {fill:url(#id1);fill-rule:nonzero}
   ]]>
  </style>
  <linearGradient id="id0" gradientUnits="userSpaceOnUse" x1="31.97" y1="63.94" x2="31.97" y2="0">
   <stop offset="0" style="stop-opacity:1; stop-color:#0F824C"/>
   <stop offset="1" style="stop-opacity:1; stop-color:#0BACB6"/>
  </linearGradient>
  <linearGradient id="id1" gradientUnits="userSpaceOnUse" x1="31.97" y1="48.1" x2="31.97" y2="15.84">
   <stop offset="0" style="stop-opacity:1; stop-color:#CBE5D6"/>
   <stop offset="1" style="stop-opacity:1; stop-color:#FEFEFE"/>
  </linearGradient>
 </defs>
 <g id="Layer_x0020_1">
  <metadata id="CorelCorpID_0Corel-Layer"/>
  <rect class="fil0" width="63.94" height="63.94" rx="8.29" ry="8.53"/>
  <polygon class="fil1" points="41.87,48.1 58.88,20.18 51.39,15.84 41.84,31.83 31.97,15.84 22.1,31.83 12.55,15.84 5.06,20.18 22.06,48.1 31.97,32.07 "/>
  <g>
   <path id="_1" class="fil2" d="M41.87 48.1l17.01 -27.92 -7.49 -4.34 -9.55 15.99 -9.87 -15.99 -9.87 15.99 -9.55 -15.99 -7.49 4.34 17 27.92 9.91 -16.03 9.9 16.03zm17.19 -27.81l-17 27.92 -0.18 0.29 -0.19 -0.29 -9.72 -15.74 -9.72 15.74 -0.19 0.29 -0.18 -0.29 -17 -27.92 -0.11 -0.18 0.19 -0.11 7.48 -4.34 0.18 -0.11 0.11 0.18 9.38 15.69 9.68 -15.69 0.18 -0.29 0.18 0.29 9.68 15.69 9.38 -15.69 0.1 -0.18 0.19 0.11 7.48 4.34 0.19 0.11 -0.11 0.18z"/>
  </g>
 </g>
</svg>
