<?xml version="1.0" encoding="UTF-8"?>
<!DOCTYPE svg PUBLIC "-//W3C//DTD SVG 1.1//EN" "http://www.w3.org/Graphics/SVG/1.1/DTD/svg11.dtd">
<!-- Creator: CorelDRAW -->
<svg xmlns="http://www.w3.org/2000/svg" xml:space="preserve" width="64px" height="64px" version="1.1" style="shape-rendering:geometricPrecision; text-rendering:geometricPrecision; image-rendering:optimizeQuality; fill-rule:evenodd; clip-rule:evenodd"
viewBox="0 0 63.94 63.94"
 xmlns:xlink="http://www.w3.org/1999/xlink"
 xmlns:xodm="http://www.corel.com/coreldraw/odm/2003">
 <defs>
  <style type="text/css">
   <![CDATA[
    .fil2 {fill:#4E2B41}
    .fil0 {fill:url(#id0)}
    .fil1 {fill:url(#id1);fill-rule:nonzero}
   ]]>
  </style>
  <linearGradient id="id0" gradientUnits="userSpaceOnUse" x1="31.97" y1="63.94" x2="31.97" y2="0">
   <stop offset="0" style="stop-opacity:1; stop-color:#56397B"/>
   <stop offset="1" style="stop-opacity:1; stop-color:#9F367D"/>
  </linearGradient>
  <linearGradient id="id1" gradientUnits="userSpaceOnUse" x1="31.97" y1="47.41" x2="31.97" y2="16.53">
   <stop offset="0" style="stop-opacity:1; stop-color:#C6B9D8"/>
   <stop offset="1" style="stop-opacity:1; stop-color:#FEFEFE"/>
  </linearGradient>
 </defs>
 <g id="Layer_x0020_1">
  <metadata id="CorelCorpID_0Corel-Layer"/>
  <rect class="fil0" width="63.94" height="63.94" rx="8.29" ry="8.53"/>
  <polygon class="fil1" points="36.65,47.41 36.65,36.86 52.83,23.21 47.02,16.53 31.97,29.78 16.92,16.53 11.11,23.21 27.29,36.86 27.29,47.41 "/>
  <g>
   <path id="_1" class="fil2" d="M36.65 47.41l0 -10.55 16.18 -13.65 -5.81 -6.68 -15.05 13.25 -15.05 -13.25 -5.81 6.68 16.18 13.65 0 10.55 9.36 0zm0.21 -10.45l0 10.45 0 0.22 -0.21 0 -9.36 0 -0.21 0 0 -0.22 0 -10.45 -16.11 -13.59 -0.17 -0.13 0.15 -0.17 5.81 -6.68 0.14 -0.17 0.16 0.15 14.91 13.13 14.91 -13.13 0.16 -0.15 0.14 0.17 5.81 6.68 0.14 0.17 -0.16 0.13 -16.11 13.59z"/>
  </g>
 </g>
</svg>
