<?xml version='1.0' encoding='UTF-8'?>
<svg viewBox="-0.0025 0 32 32" xmlns="http://www.w3.org/2000/svg" xmlns:xlink="http://www.w3.org/1999/xlink">
  <defs tag="staticElement_id31192822">
    <style type="text/css">
    .fil0 {fill:#373833}
   </style>
  </defs>
  <g transform="translate(0.0018, 0)">
    <g transform="matrix(1.1421, 0, 0, 1.1421, 0, 0)">
      <g transform="translate(-0.0024, 0)" style="shape-rendering:geometricPrecision;text-rendering:geometricPrecision;image-rendering:optimizeQuality;fill-rule:evenodd;clip-rule:evenodd" fill-rule="evenodd">
        <g transform="matrix(0.0431, 0, 0, 0.0431, 0, 0)">
          <g transform="matrix(3.4717, 0, 0, 3.4717, 0, 0)">
            <g id="Layer_x0020_1">
              <path d="M145.03, 32.03C136.42, 27.8 130.11, 32.45 132.87, 40.95C133.83, 43.91 135.74, 46.77 138.12, 49.11C140.46, 51.49 143.32, 53.39 146.28, 54.36C154.77, 57.12 159.43, 50.81 155.19, 42.2C154.14, 40.06 152.64, 38.05 150.9, 36.32C149.18, 34.58 147.17, 33.08 145.03, 32.03z" fill="#1177D7" class="Blue" fill-rule="evenodd" />
            </g>
          </g>
        </g>
      </g>
    </g>
  </g>
  <g transform="translate(0.0018, 0)">
    <g transform="matrix(1.1421, 0, 0, 1.1421, 0, 0)">
      <g transform="translate(-0.0024, 0)" style="shape-rendering:geometricPrecision;text-rendering:geometricPrecision;image-rendering:optimizeQuality;fill-rule:evenodd;clip-rule:evenodd" fill-rule="evenodd">
        <g transform="matrix(0.0431, 0, 0, 0.0431, 0, 0)">
          <g transform="matrix(3.4717, 0, 0, 3.4717, 0, 0)">
            <g id="Layer_x0020_1">
              <path d="M153.59, 92.62L153.59, 92.62L153.47, 92.62C153.17, 92.61 152.86, 92.6 152.55, 92.58L152.55, 92.57L152.41, 92.57C152.17, 92.56 151.94, 92.54 151.7, 92.53L151.7, 92.53L151.69, 92.53C151.54, 92.51 151.39, 92.5 151.23, 92.49L151.23, 92.48L151.14, 92.48C151.01, 92.47 150.89, 92.46 150.76, 92.44L150.76, 92.43L150.65, 92.43C150.51, 92.42 150.38, 92.4 150.24, 92.39L150.24, 92.38L150.22, 92.38C149.87, 92.34 149.51, 92.3 149.16, 92.25L149.16, 92.24L149.11, 92.24C149.02, 92.23 148.92, 92.22 148.83, 92.2L148.83, 92.19L148.77, 92.19C148.68, 92.18 148.59, 92.16 148.5, 92.15L148.5, 92.15L148.47, 92.15C148.39, 92.13 148.3, 92.12 148.21, 92.1L148.21, 92.1L148.18, 92.1C147.91, 92.05 147.64, 92.01 147.37, 91.96L147.37, 91.96L147.36, 91.96C147.28, 91.94 147.21, 91.93 147.13, 91.91L147.13, 91.91L147.11, 91.91L146.89, 91.87L146.89, 91.86L146.85, 91.86C146.79, 91.85 146.72, 91.84 146.66, 91.82L146.66, 91.81L146.6, 91.81C146.54, 91.8 146.48, 91.79 146.42, 91.78L146.42, 91.77L146.38, 91.77C146.31, 91.75 146.25, 91.74 146.19, 91.73L146.19, 91.72L146.16, 91.72L145.95, 91.68L145.95, 91.67L145.94, 91.67C145.86, 91.66 145.79, 91.64 145.72, 91.63L145.72, 91.62L145.71, 91.62C145.51, 91.58 145.31, 91.53 145.1, 91.48L145.1, 91.48L145.1, 91.48L144.91, 91.44L144.91, 91.43L144.9, 91.43L144.73, 91.39L144.73, 91.39L144.7, 91.39C144.64, 91.37 144.59, 91.36 144.54, 91.35L144.54, 91.34L144.5, 91.34L144.35, 91.3L144.35, 91.29L144.31, 91.29C144.26, 91.28 144.21, 91.27 144.16, 91.25L144.16, 91.24L144.13, 91.24L143.97, 91.2L143.97, 91.2L143.95, 91.2L143.78, 91.15L143.78, 91.15L143.77, 91.15L143.59, 91.1L143.59, 91.1L143.59, 91.1C143.42, 91.06 143.25, 91.01 143.08, 90.96L143.08, 90.96L143.07, 90.96C142.96, 90.93 142.85, 90.9 142.75, 90.87L142.75, 90.87L142.74, 90.87L142.6, 90.83L142.6, 90.82L142.58, 90.82L142.42, 90.77L142.42, 90.77L142.41, 90.77L142.27, 90.73L142.27, 90.72L142.25, 90.72L142.13, 90.69L142.13, 90.68L142.09, 90.68C142.04, 90.66 141.99, 90.64 141.94, 90.63L141.94, 90.63L141.94, 90.63L141.8, 90.58L141.8, 90.58L141.79, 90.58L141.66, 90.54L141.66, 90.53L141.64, 90.53C141.35, 90.44 141.06, 90.35 140.77, 90.25L140.77, 90.25L140.75, 90.25L140.62, 90.2L140.62, 90.2L140.61, 90.2L140.48, 90.16L140.48, 90.15L140.47, 90.15L140.34, 90.11L140.34, 90.11L140.33, 90.11L140.2, 90.06L140.2, 90.06L140.19, 90.06L140.06, 90.01L140.06, 90.01L140.05, 90.01L139.92, 89.96L139.92, 89.96L139.91, 89.96C139.84, 89.94 139.76, 89.91 139.68, 89.88L139.68, 89.87L139.65, 89.87L139.54, 89.83L139.54, 89.82L139.52, 89.82L139.4, 89.78L139.4, 89.77L139.39, 89.77C139.1, 89.67 138.8, 89.56 138.5, 89.44L138.5, 89.44L138.5, 89.44L138.27, 89.35L138.27, 89.35L138.25, 89.35L138.03, 89.26L138.03, 89.25L138.01, 89.25L137.89, 89.21L137.89, 89.2L137.88, 89.2C137.81, 89.17 137.73, 89.15 137.65, 89.11L137.65, 89.11L137.64, 89.11C137.57, 89.08 137.49, 89.05 137.42, 89.02L137.42, 89.01L137.41, 89.01C137.34, 88.98 137.26, 88.95 137.18, 88.92L137.18, 88.92L137.18, 88.92C136.88, 88.8 136.59, 88.67 136.29, 88.54L136.29, 88.54L136.28, 88.54C136.17, 88.49 136.06, 88.45 135.96, 88.4L135.96, 88.4L135.95, 88.4L135.86, 88.36L135.86, 88.35L135.84, 88.35C135.74, 88.3 135.64, 88.26 135.53, 88.21L135.53, 88.21L135.52, 88.21L135.44, 88.17L135.44, 88.16L135.41, 88.16C135.31, 88.12 135.21, 88.07 135.11, 88.02L135.11, 88.02L135.1, 88.02L135.01, 87.98L135.01, 87.97L135, 87.97C134.5, 87.74 134, 87.51 133.51, 87.26L133.51, 87.26L133.5, 87.26L133.41, 87.21L133.41, 87.21L133.41, 87.21L133.32, 87.17L133.32, 87.16L133.31, 87.16L133.22, 87.12L133.22, 87.12L133.21, 87.12L133.13, 87.08L133.13, 87.07L133.12, 87.07L133.03, 87.03L133.03, 87.02L133.03, 87.02L132.94, 86.98L132.94, 86.97L132.93, 86.97L132.85, 86.93L132.85, 86.93L132.84, 86.93L132.75, 86.88L132.75, 86.88L132.75, 86.88L132.66, 86.83L132.66, 86.83L132.65, 86.83L132.56, 86.79L132.56, 86.78L132.56, 86.78C132.23, 86.62 131.9, 86.44 131.57, 86.27L131.57, 86.26L131.57, 86.26C131.43, 86.19 131.29, 86.11 131.15, 86.04L131.15, 86.03L131.13, 86.03L131.05, 85.99L131.05, 85.98L131.04, 85.98L130.96, 85.94L130.96, 85.93L130.95, 85.93L130.87, 85.88L130.87, 85.88L130.86, 85.88C130.79, 85.84 130.71, 85.79 130.63, 85.75L130.63, 85.74L130.61, 85.74L130.54, 85.7L130.54, 85.69L130.53, 85.69C130.39, 85.62 130.25, 85.54 130.11, 85.46L130.11, 85.46L130.11, 85.46C129.89, 85.33 129.67, 85.2 129.45, 85.08L129.45, 85.08L129.45, 85.08C129.37, 85.03 129.29, 84.98 129.22, 84.94L129.22, 84.93L129.21, 84.93L128.98, 84.8L128.98, 84.79L128.97, 84.79C128.89, 84.75 128.82, 84.7 128.74, 84.66L128.74, 84.65L128.73, 84.65L128.65, 84.6L128.65, 84.6L128.65, 84.6L128.51, 84.52L128.51, 84.51L128.49, 84.51C128.42, 84.46 128.35, 84.42 128.27, 84.37L128.27, 84.36L128.26, 84.36L128.04, 84.23L128.04, 84.22L128.03, 84.22C127.61, 83.96 127.19, 83.69 126.76, 83.42L126.76, 83.42L126.76, 83.42L126.62, 83.33L126.62, 83.32L126.61, 83.32L126.48, 83.24L126.48, 83.23L126.47, 83.23C126.42, 83.2 126.38, 83.17 126.34, 83.14L126.34, 83.13L126.32, 83.13C126.28, 83.1 126.24, 83.08 126.2, 83.05L126.2, 83.04L126.18, 83.04C125.76, 82.76 125.34, 82.47 124.93, 82.18L124.93, 82.18L124.92, 82.18C124.81, 82.11 124.71, 82.03 124.6, 81.95L124.6, 81.94L124.59, 81.94L124.45, 81.85L124.45, 81.85L124.45, 81.85C124.39, 81.81 124.33, 81.76 124.27, 81.72L124.27, 81.71L124.25, 81.71C124.21, 81.68 124.17, 81.65 124.12, 81.62L124.12, 81.61L124.11, 81.61L123.98, 81.52L123.98, 81.52L123.98, 81.52C123.92, 81.47 123.86, 81.43 123.8, 81.38L123.8, 81.38L123.79, 81.38C123.68, 81.3 123.57, 81.22 123.46, 81.14L123.46, 81.14L123.46, 81.14C123.23, 80.97 122.99, 80.79 122.76, 80.62L122.76, 80.62L122.76, 80.62C122.69, 80.57 122.63, 80.52 122.57, 80.47L122.57, 80.47L122.57, 80.47C122.43, 80.37 122.29, 80.26 122.15, 80.15L122.15, 80.14L122.13, 80.14C122.07, 80.1 122.01, 80.05 121.96, 80.01L121.96, 80L121.94, 80L121.77, 79.86L121.77, 79.86L121.76, 79.86C121.68, 79.8 121.61, 79.74 121.53, 79.68L121.53, 79.67L121.52, 79.67L121.34, 79.53L121.34, 79.52L121.34, 79.52C120.95, 79.22 120.56, 78.9 120.17, 78.58L120.17, 78.58L120.16, 78.58C120.07, 78.5 119.98, 78.42 119.88, 78.35L119.88, 78.34L119.87, 78.34C119.8, 78.28 119.72, 78.22 119.65, 78.15L119.65, 78.15L119.64, 78.15L119.6, 78.11L119.6, 78.1L119.58, 78.1C119.51, 78.04 119.44, 77.98 119.36, 77.91L119.36, 77.91L119.36, 77.91L119.32, 77.87L119.32, 77.86L119.31, 77.86C119.21, 77.79 119.12, 77.71 119.03, 77.63L119.03, 77.63L119.03, 77.63C118.94, 77.55 118.84, 77.47 118.75, 77.39L118.75, 77.39L118.75, 77.39C118.64, 77.3 118.53, 77.2 118.42, 77.11L118.42, 77.1L118.42, 77.1C118.28, 76.98 118.14, 76.86 118, 76.73L118, 76.73L117.99, 76.73C117.87, 76.62 117.74, 76.51 117.62, 76.4L117.62, 76.39L117.62, 76.39L117.57, 76.35L117.57, 76.35L117.56, 76.35L117.53, 76.31L117.53, 76.3L117.51, 76.3C117.39, 76.19 117.27, 76.08 117.15, 75.97L117.15, 75.97L117.14, 75.97L117.1, 75.93L117.1, 75.92L117.09, 75.92L117.05, 75.88L117.05, 75.87L117.04, 75.87C116.9, 75.75 116.77, 75.62 116.63, 75.49L116.63, 75.49L116.63, 75.49C116.41, 75.29 116.19, 75.08 115.97, 74.88L115.92, 74.83L115.92, 74.83L115.92, 74.83L115.88, 74.78L115.88, 74.78L115.87, 74.78L115.83, 74.74L115.83, 74.73L115.82, 74.73C115.44, 74.38 115.07, 74.01 114.7, 73.64L114.7, 73.64L114.7, 73.64L114.65, 73.6L114.65, 73.59L114.65, 73.59L114.6, 73.55L114.6, 73.55L114.6, 73.55L114.56, 73.5L114.56, 73.5L114.55, 73.5L114.51, 73.46L114.51, 73.45L114.5, 73.45L114.46, 73.41L114.46, 73.4L114.46, 73.4L114.41, 73.36L114.41, 73.36L114.41, 73.36C114.32, 73.27 114.23, 73.18 114.14, 73.09C114.04, 72.99 113.94, 72.9 113.85, 72.8L113.85, 72.79L113.84, 72.79L113.8, 72.75L113.8, 72.74L113.79, 72.74L113.75, 72.71L113.75, 72.69L113.74, 72.69L113.71, 72.66L113.71, 72.64L113.69, 72.64L113.66, 72.61L113.66, 72.6L113.65, 72.6L113.61, 72.56L113.61, 72.55L113.6, 72.55L113.57, 72.51L113.57, 72.5L113.55, 72.5L113.52, 72.47L113.52, 72.45L113.51, 72.45L113.47, 72.42L113.47, 72.41L113.46, 72.41L113.42, 72.37L113.42, 72.36L113.41, 72.36L113.38, 72.32L113.38, 72.31L113.37, 72.31L113.33, 72.28L113.33, 72.27L113.32, 72.27L113.28, 72.23L113.28, 72.22L113.27, 72.22L113.24, 72.18L113.24, 72.17L113.23, 72.17L113.19, 72.13L113.19, 72.12L113.18, 72.12L113.14, 72.08L113.14, 72.08L113.13, 72.08L113.09, 72.03L113.09, 72.03L113.09, 72.03L113.05, 71.99L113.05, 71.98L113.04, 71.98L113, 71.94L113, 71.93L113, 71.93L112.95, 71.89L112.95, 71.89L112.95, 71.89L112.91, 71.84L112.91, 71.84L112.9, 71.84C112.75, 71.67 112.59, 71.51 112.43, 71.35L112.43, 71.32L112.4, 71.32L112.39, 71.3L112.39, 71.27L112.36, 71.27L112.34, 71.25L112.34, 71.22L112.31, 71.22L112.29, 71.2L112.29, 71.17L112.27, 71.17L112.25, 71.15L112.25, 71.13L112.23, 71.13L112.2, 71.1L112.2, 71.08L112.18, 71.08L112.15, 71.05L112.15, 71.03L112.14, 71.03L112.1, 71L112.1, 70.98L112.09, 70.98L112.06, 70.95L112.06, 70.94L112.05, 70.94L112.01, 70.9L112.01, 70.89L112, 70.89L111.96, 70.85L111.96, 70.84L111.96, 70.84L111.92, 70.8L111.92, 70.79L111.91, 70.79C111.72, 70.59 111.54, 70.39 111.35, 70.18L111.35, 70.18L111.35, 70.18L111.3, 70.13L111.3, 70.13L111.3, 70.13C111.19, 70.01 111.08, 69.89 110.97, 69.77L110.97, 69.75L110.96, 69.75L110.93, 69.71L110.93, 69.7L110.92, 69.7L110.88, 69.66L110.88, 69.66L110.87, 69.66L110.83, 69.61L110.83, 69.61L110.83, 69.61L110.64, 69.4L110.64, 69.37L110.62, 69.37L110.6, 69.34L110.6, 69.32L110.58, 69.32L110.55, 69.29L110.55, 69.28L110.54, 69.28L110.5, 69.24L110.5, 69.23L110.49, 69.23L110.45, 69.18L110.45, 69.18L110.45, 69.18L110.31, 69.02L110.31, 68.99L110.28, 68.99L110.27, 68.97L110.27, 68.94L110.24, 68.94L110.22, 68.92L110.22, 68.9L110.2, 68.9L110.17, 68.86L110.17, 68.85L110.16, 68.85L110.12, 68.81L110.12, 68.8L110.12, 68.8L109.98, 68.64L109.98, 68.61L109.95, 68.61L109.94, 68.59L109.94, 68.56L109.91, 68.56L109.89, 68.54L109.89, 68.52L109.87, 68.52L109.84, 68.48L109.84, 68.47L109.83, 68.47L109.79, 68.43L109.79, 68.42L109.79, 68.42L109.61, 68.21L109.61, 68.18L109.59, 68.18L109.56, 68.15L109.56, 68.14L109.55, 68.14L109.51, 68.09L109.51, 68.09L109.51, 68.09L109.28, 67.82L109.28, 67.81L109.27, 67.81L109.23, 67.76L109.23, 67.76L109.23, 67.76C109.07, 67.57 108.91, 67.38 108.76, 67.19L108.76, 67.19L108.75, 67.19L108.57, 66.96L108.57, 66.95L108.56, 66.95L108.52, 66.91L108.52, 66.9L108.52, 66.9L108.38, 66.73L108.38, 66.71L108.36, 66.71L108.33, 66.67L108.33, 66.67L108.33, 66.67L108.19, 66.5L108.19, 66.48L108.17, 66.48L108.14, 66.44L108.14, 66.43L108.14, 66.43L108, 66.26L108, 66.24L107.98, 66.24L107.96, 66.2L107.96, 66.19L107.95, 66.19L107.91, 66.14L107.91, 66.14L107.91, 66.14L107.81, 66.03L107.81, 66L107.8, 66L107.77, 65.97L107.77, 65.95L107.76, 65.95L107.67, 65.85L107.67, 65.81L107.65, 65.81L107.63, 65.79L107.63, 65.76L107.61, 65.76L107.58, 65.73L107.58, 65.72L107.57, 65.72L107.48, 65.61L107.48, 65.57L107.46, 65.57L107.44, 65.55L107.44, 65.53L107.42, 65.53L107.39, 65.48L107.39, 65.48L107.39, 65.48L107.3, 65.36L107.3, 65.34L107.28, 65.34L107.25, 65.3L107.25, 65.29L107.24, 65.29L107.11, 65.12L107.11, 65.1L107.09, 65.1L107.06, 65.06L107.06, 65.05L107.06, 65.05L106.92, 64.87L106.92, 64.86L106.91, 64.86C106.77, 64.68 106.63, 64.49 106.49, 64.31L106.49, 64.29L106.48, 64.29L106.35, 64.12L106.35, 64.1L106.34, 64.1L106.21, 63.93L106.21, 63.91L106.2, 63.91L106.12, 63.8L106.12, 63.77L106.1, 63.77L106.07, 63.73L106.07, 63.72L106.06, 63.72L105.98, 63.6L105.98, 63.58L105.96, 63.58L105.93, 63.54L105.93, 63.53L105.93, 63.53L105.88, 63.47L105.88, 63.44L105.86, 63.44L105.83, 63.41L105.83, 63.39L105.82, 63.39L105.74, 63.28L105.74, 63.25L105.72, 63.25L105.69, 63.21L105.69, 63.2L105.69, 63.2L105.6, 63.08L105.6, 63.06L105.58, 63.06L105.55, 63.01L105.55, 63.01L105.55, 63.01L105.5, 62.95L105.5, 62.92L105.48, 62.92L105.46, 62.88L105.46, 62.87L105.45, 62.87L105.36, 62.75L105.36, 62.73L105.35, 62.73L105.32, 62.68L105.32, 62.68L105.31, 62.68L105.27, 62.61L105.27, 62.59L105.25, 62.59L105.22, 62.55L105.22, 62.54L105.21, 62.54L105.13, 62.41L105.13, 62.4L105.12, 62.4L104.99, 62.21L104.99, 62.21L104.98, 62.21L104.89, 62.07L104.89, 62.06L104.89, 62.06L104.67, 61.75C104.63, 61.7 104.6, 61.66 104.57, 61.61C103.53, 60.12 101.77, 59.62 100.13, 59.88C94.95, 60.91 90.25, 62.6 85.54, 64.74C85.55, 64.75 85.56, 64.76 85.56, 64.77C85.33, 64.85 85.09, 64.95 84.84, 65.06C84.74, 65.11 84.63, 65.15 84.53, 65.2L84.53, 65.2L84.53, 65.2C84.46, 65.23 84.38, 65.26 84.31, 65.29L84.29, 65.29L84.29, 65.3L84.2, 65.34L84.2, 65.34L84.2, 65.34L83.98, 65.43L83.96, 65.43L83.96, 65.44L83.87, 65.48L83.87, 65.48L83.87, 65.48L83.76, 65.53L83.72, 65.53L83.72, 65.54L83.64, 65.57L83.63, 65.57L83.63, 65.58L83.52, 65.62L83.49, 65.62L83.49, 65.64L83.41, 65.67L83.39, 65.67L83.39, 65.68C83.32, 65.71 83.25, 65.74 83.18, 65.76L83.16, 65.76L83.16, 65.77C83.08, 65.8 83.01, 65.83 82.93, 65.86L82.92, 65.86L82.92, 65.86C82.85, 65.89 82.77, 65.92 82.69, 65.95L82.69, 65.95L82.69, 65.96C82.56, 66 82.44, 66.05 82.31, 66.1L82.31, 66.1L82.31, 66.1L82.19, 66.14L82.17, 66.14L82.17, 66.15L82.06, 66.19L82.03, 66.19L82.03, 66.2L81.92, 66.24L81.89, 66.24L81.89, 66.25L81.79, 66.29L81.74, 66.29L81.74, 66.3L81.66, 66.33L81.6, 66.33L81.6, 66.35L81.52, 66.38L81.51, 66.38L81.51, 66.39L81.38, 66.43L81.37, 66.43L81.37, 66.43L81.24, 66.48L81.23, 66.48L81.23, 66.48L81.1, 66.52L81.08, 66.52L81.08, 66.53L80.95, 66.57L80.94, 66.57L80.94, 66.57L80.8, 66.62L80.8, 66.62L80.8, 66.62C80.65, 66.67 80.5, 66.72 80.34, 66.76L80.33, 66.76L80.33, 66.77C80.23, 66.8 80.13, 66.83 80.02, 66.86L80, 66.86L80, 66.86C79.95, 66.88 79.9, 66.89 79.85, 66.9L79.81, 66.9L79.81, 66.92L79.68, 66.95L79.62, 66.95L79.62, 66.97C79.59, 66.98 79.55, 66.99 79.51, 67L79.43, 67L79.43, 67.02L79.33, 67.05L79.29, 67.05L79.29, 67.05L79.14, 67.09L79.1, 67.09L79.1, 67.1L78.95, 67.14L78.92, 67.14L78.92, 67.15C78.86, 67.16 78.8, 67.17 78.74, 67.19L78.73, 67.19L78.73, 67.19C78.67, 67.21 78.6, 67.22 78.54, 67.24L78.54, 67.24L78.54, 67.24C78.46, 67.25 78.39, 67.27 78.32, 67.28L78.3, 67.28L78.3, 67.29C78.23, 67.3 78.16, 67.32 78.09, 67.33L78.02, 67.33L78.02, 67.35C77.96, 67.36 77.9, 67.37 77.84, 67.38L77.74, 67.38L77.74, 67.4C77.69, 67.41 77.64, 67.42 77.59, 67.43L77.45, 67.43L77.45, 67.45L77.3, 67.47L77.22, 67.47L77.22, 67.49C77.14, 67.5 77.06, 67.51 76.99, 67.52L76.94, 67.52L76.94, 67.53C76.69, 67.56 76.44, 67.59 76.2, 67.62L75.95, 67.62L75.95, 67.64C75.82, 67.65 75.7, 67.66 75.57, 67.66L75.24, 67.66L75.24, 67.68C74.94, 67.69 74.64, 67.69 74.34, 67.68L74.34, 67.66L73.92, 67.66C73.79, 67.65 73.67, 67.65 73.54, 67.63L73.54, 67.62L73.36, 67.62C73.25, 67.6 73.14, 67.59 73.02, 67.57L73.02, 67.57L72.98, 67.57C72.92, 67.56 72.85, 67.55 72.79, 67.54L72.79, 67.52L72.67, 67.52L72.55, 67.5L72.55, 67.47L72.4, 67.47C72.36, 67.46 72.31, 67.45 72.27, 67.44L72.27, 67.43L72.18, 67.43C72.13, 67.41 72.08, 67.4 72.03, 67.39L72.03, 67.38L71.96, 67.38C71.91, 67.36 71.85, 67.35 71.8, 67.34L71.8, 67.33L71.78, 67.33C71.63, 67.29 71.48, 67.25 71.33, 67.2L71.33, 67.19L71.28, 67.19L71.18, 67.16L71.18, 67.14L71.13, 67.14L71.04, 67.11L71.04, 67.09L70.99, 67.09C70.96, 67.08 70.93, 67.07 70.9, 67.06L70.9, 67.05L70.85, 67.05L70.81, 67.03L70.81, 67L70.73, 67L70.67, 66.97L70.67, 66.95L70.6, 66.95C70.58, 66.94 70.55, 66.93 70.52, 66.92L70.52, 66.9L70.48, 66.9C70.45, 66.89 70.42, 66.88 70.38, 66.86L70.38, 66.86L70.37, 66.86C70.26, 66.81 70.16, 66.76 70.05, 66.72L70.05, 66.71L70.05, 66.71L69.96, 66.67L69.96, 66.67L69.95, 66.67L69.86, 66.63L69.86, 66.62L69.85, 66.62L69.77, 66.58L69.77, 66.57L69.76, 66.57C69.73, 66.56 69.7, 66.54 69.68, 66.53L69.68, 66.52L69.66, 66.52L69.63, 66.51L69.63, 66.48L69.57, 66.48L69.53, 66.46L69.53, 66.43L69.48, 66.43L69.44, 66.41L69.44, 66.38L69.4, 66.38L69.35, 66.35L69.35, 66.33L69.32, 66.33L69.25, 66.3L69.25, 66.29L69.23, 66.29C69.21, 66.27 69.18, 66.26 69.16, 66.24L69.16, 66.24L69.15, 66.24L69.11, 66.21L69.11, 66.19L69.07, 66.19L69.02, 66.16L69.02, 66.14L69, 66.14C68.88, 66.07 68.76, 65.99 68.64, 65.91L68.64, 65.91L68.64, 65.91C68.57, 65.86 68.51, 65.82 68.45, 65.78L68.45, 65.76L68.43, 65.76L68.4, 65.74L68.4, 65.72L68.37, 65.72L68.31, 65.67L68.31, 65.67L68.3, 65.67L68.26, 65.64L68.26, 65.62L68.24, 65.62L68.21, 65.6L68.21, 65.57L68.18, 65.57L68.12, 65.53L68.12, 65.53L68.11, 65.53L68.07, 65.49L68.07, 65.48L68.05, 65.48L68.03, 65.46L68.03, 65.43L68, 65.43C67.96, 65.4 67.92, 65.37 67.88, 65.34L67.88, 65.34L67.88, 65.34L67.84, 65.31L67.84, 65.29L67.82, 65.29L67.79, 65.27L67.79, 65.24L67.76, 65.24C67.71, 65.2 67.66, 65.15 67.6, 65.1L67.6, 65.1L67.6, 65.1C67.42, 64.95 67.25, 64.78 67.08, 64.61L67.08, 64.58L67.05, 64.58L67.04, 64.57L67.04, 64.53L67, 64.53L66.99, 64.52L66.99, 64.48L66.95, 64.48L66.94, 64.47L66.94, 64.44L66.91, 64.44L66.89, 64.42L66.89, 64.39L66.86, 64.39L66.85, 64.37L66.85, 64.34L66.82, 64.34L66.8, 64.32L66.8, 64.29L66.77, 64.29L66.75, 64.27L66.75, 64.25L66.73, 64.25L66.71, 64.22L66.71, 64.2L66.69, 64.2L66.66, 64.17L66.66, 64.15L66.64, 64.15L66.61, 64.12L66.61, 64.1L66.6, 64.1L66.56, 64.06L66.56, 64.06L66.56, 64.06L66.52, 64.01L66.52, 64.01L66.52, 64.01C66.42, 63.9 66.33, 63.79 66.23, 63.68L66.23, 63.68L66.23, 63.68C66.19, 63.62 66.14, 63.56 66.09, 63.5L66.09, 63.49L66.08, 63.49L66.05, 63.44L66.05, 63.44L66.04, 63.44C66.01, 63.4 65.98, 63.36 65.95, 63.32L65.95, 63.3L65.93, 63.3L65.9, 63.26L65.9, 63.25L65.9, 63.25C65.87, 63.21 65.84, 63.18 65.81, 63.14L65.81, 63.11L65.79, 63.11L65.76, 63.07L65.76, 63.06L65.75, 63.06L65.72, 63.01L65.72, 62.97L65.69, 62.97L65.67, 62.94L65.67, 62.92L65.65, 62.92L65.62, 62.88L65.62, 62.87L65.62, 62.87L65.57, 62.81L65.57, 62.78L65.55, 62.78L65.53, 62.74L65.53, 62.73L65.52, 62.73C65.49, 62.69 65.46, 62.65 65.43, 62.61L65.43, 62.59L65.42, 62.59C65.38, 62.52 65.33, 62.46 65.29, 62.4L65.29, 62.4L65.29, 62.4C65.24, 62.32 65.2, 62.25 65.15, 62.18L65.15, 62.16L65.14, 62.16C65.11, 62.11 65.08, 62.07 65.06, 62.03L65.06, 62.02L65.05, 62.02L65.01, 61.95L65.01, 61.92L64.99, 61.92L64.96, 61.87L64.96, 61.87L64.96, 61.87L64.91, 61.8L64.91, 61.78L64.9, 61.78L64.87, 61.72L64.87, 61.68L64.85, 61.68L64.82, 61.64L64.82, 61.64L64.82, 61.64C64.8, 61.61 64.79, 61.59 64.77, 61.56L64.77, 61.54L64.76, 61.54L64.73, 61.48L64.73, 61.45L64.71, 61.45L64.68, 61.39L64.68, 61.35L64.66, 61.35L64.63, 61.31L64.63, 61.3L64.63, 61.3L64.58, 61.23L64.58, 61.21L64.58, 61.21L64.54, 61.14L64.54, 61.11L64.52, 61.11C64.48, 61.04 64.44, 60.96 64.4, 60.88L64.4, 60.88L64.4, 60.88L64.35, 60.79L64.35, 60.78L64.34, 60.78C64.28, 60.66 64.22, 60.54 64.16, 60.42L64.16, 60.4L64.15, 60.4L64.11, 60.33L64.11, 60.31L64.1, 60.31L64.07, 60.24L64.07, 60.21L64.06, 60.21L64.02, 60.14L64.02, 60.12L64.01, 60.12L63.97, 60.04L63.97, 60.02L63.97, 60.02L63.92, 59.94L63.92, 59.93L63.92, 59.93L63.88, 59.84L63.88, 59.83L63.87, 59.83L63.83, 59.74L63.83, 59.69L63.81, 59.69L63.78, 59.63L63.78, 59.6L63.77, 59.6L63.74, 59.53L63.74, 59.5L63.72, 59.5L63.69, 59.42L63.69, 59.41L63.68, 59.41L63.64, 59.32L63.64, 59.31L63.64, 59.31C63.61, 59.24 63.58, 59.17 63.55, 59.1L63.55, 59.07L63.54, 59.07L63.5, 58.99L63.5, 58.98L63.5, 58.98C63.45, 58.87 63.4, 58.76 63.36, 58.65L63.36, 58.65L63.36, 58.65C63.33, 58.57 63.3, 58.49 63.26, 58.42L63.26, 58.41L63.26, 58.41L63.22, 58.3L63.22, 58.27L63.2, 58.27L63.17, 58.18L63.17, 58.17L63.17, 58.17L63.12, 58.05L63.12, 58.03L63.11, 58.03L63.08, 57.93L63.08, 57.89L63.06, 57.89L63.03, 57.81L63.03, 57.79L63.02, 57.79L62.98, 57.68L62.98, 57.65L62.97, 57.65L62.93, 57.55L62.93, 57.51L62.92, 57.51L62.89, 57.42L62.89, 57.37L62.87, 57.37L62.84, 57.29L62.84, 57.27L62.83, 57.27L62.79, 57.16L62.79, 57.13L62.78, 57.13L62.75, 57.02L62.75, 56.99L62.74, 56.99C62.64, 56.72 62.55, 56.44 62.46, 56.16L62.46, 56.13L62.45, 56.13L62.42, 56.02L62.42, 55.99L62.41, 55.99L62.37, 55.86L62.37, 55.85L62.36, 55.85L62.32, 55.71L62.32, 55.66L62.31, 55.66L62.27, 55.55L62.27, 55.52L62.26, 55.52L62.23, 55.4L62.23, 55.37L62.22, 55.37L62.18, 55.23L62.18, 55.18L62.17, 55.18L62.13, 55.07L62.13, 55.04L62.13, 55.04L62.09, 54.91L62.09, 54.85L62.07, 54.85L62.04, 54.74L62.04, 54.71L62.03, 54.71C62, 54.6 61.97, 54.5 61.94, 54.39L61.94, 54.38L61.94, 54.38C61.92, 54.31 61.9, 54.24 61.88, 54.17C61.79, 53.8 61.7, 53.43 61.61, 53.07L61.61, 53.05L61.61, 53.05C61.6, 52.99 61.58, 52.93 61.57, 52.87L61.57, 52.86L61.56, 52.86L61.52, 52.68L61.52, 52.67L61.52, 52.67C61.42, 52.24 61.33, 51.82 61.24, 51.4L61.24, 51.39L61.23, 51.39L61.19, 51.18L61.19, 51.15L61.19, 51.15C61.09, 50.68 60.99, 50.21 60.91, 49.74L60.91, 49.73L60.91, 49.73C60.87, 49.55 60.84, 49.38 60.81, 49.21L60.81, 49.2L60.81, 49.2C60.73, 48.73 60.65, 48.26 60.58, 47.79L60.58, 47.78L60.58, 47.78C60.55, 47.58 60.51, 47.38 60.48, 47.18L60.48, 47.16L60.48, 47.16C60.47, 47.05 60.45, 46.94 60.44, 46.83L60.44, 46.83L60.44, 46.83C60.39, 46.47 60.34, 46.12 60.29, 45.76L60.29, 45.74L60.29, 45.74C60.28, 45.6 60.26, 45.47 60.25, 45.33L60.25, 45.31L60.25, 45.31C60.21, 45.03 60.18, 44.75 60.15, 44.46L60.15, 44.46L60.15, 44.46C60.12, 44.1 60.09, 43.74 60.06, 43.38L60.06, 43.37L60.06, 43.37C60.02, 42.91 59.99, 42.45 59.96, 41.99L59.96, 41.95L59.96, 41.95C59.87, 40.3 59.86, 38.68 59.92, 37.11L59.92, 37.11L59.92, 37.1C59.94, 36.51 59.97, 35.93 60.01, 35.35L60.01, 35.35L60.01, 35.32C60.03, 35.14 60.04, 34.96 60.06, 34.78L60.06, 34.78L60.06, 34.76C60.1, 34.29 60.15, 33.82 60.2, 33.36L60.2, 33.36L60.2, 33.34C60.22, 33.2 60.23, 33.06 60.25, 32.93L60.25, 32.93L60.25, 32.92C60.4, 31.66 60.61, 30.43 60.86, 29.23L60.86, 29.23L60.86, 29.22C60.93, 28.88 61.01, 28.53 61.09, 28.18L61.1, 28.18L61.1, 28.17C61.17, 27.86 61.25, 27.55 61.33, 27.24L61.33, 27.24L61.33, 27.23C61.48, 26.67 61.63, 26.12 61.8, 25.58L61.8, 25.58L61.8, 25.57C61.98, 24.99 62.17, 24.43 62.37, 23.87L62.37, 23.87L62.37, 23.87C62.53, 23.4 62.71, 22.94 62.89, 22.49L62.89, 22.49L62.89, 22.49C63.07, 22.04 63.26, 21.6 63.45, 21.16L63.45, 21.16L63.45, 21.16C63.87, 20.22 64.33, 19.3 64.82, 18.41L64.82, 18.41L64.82, 18.41C65.49, 17.19 66.23, 16.02 67.04, 14.9L67.04, 14.9L67.04, 14.9C73.66, 5.68 84.57, 0.12 98.55, 0L99.74, 0C100.58, 0.01 101.44, 0.04 102.3, 0.09L102.3, 0.09L102.33, 0.09C102.78, 0.12 103.22, 0.15 103.67, 0.19L103.67, 0.19L103.68, 0.19C104.45, 0.25 105.23, 0.33 106.02, 0.43L106.02, 0.43L106.03, 0.43C106.15, 0.44 106.27, 0.46 106.4, 0.47L106.4, 0.47L106.41, 0.47C106.97, 0.55 107.53, 0.62 108.1, 0.71L108.1, 0.71L108.11, 0.71C108.76, 0.81 109.42, 0.92 110.08, 1.04L110.08, 1.04L110.09, 1.04C110.57, 1.13 111.05, 1.23 111.54, 1.33L111.54, 1.33L111.55, 1.33L111.77, 1.37L111.77, 1.38L111.78, 1.38C112.48, 1.52 113.19, 1.68 113.9, 1.85L113.9, 1.85L113.9, 1.85L114.08, 1.89L114.08, 1.9L114.1, 1.9C114.6, 2.02 115.09, 2.14 115.59, 2.27L115.59, 2.28L115.61, 2.28L115.78, 2.32L115.78, 2.33L115.79, 2.33C115.96, 2.37 116.13, 2.42 116.3, 2.46L116.3, 2.47L116.32, 2.47C116.81, 2.6 117.31, 2.74 117.81, 2.89L117.81, 2.89L117.82, 2.89L118.14, 2.99L118.14, 2.99L118.14, 2.99C118.3, 3.04 118.45, 3.08 118.61, 3.13L118.61, 3.13L118.62, 3.13C119.07, 3.27 119.52, 3.41 119.98, 3.56L119.98, 3.56L119.98, 3.56L120.12, 3.6L120.12, 3.61L120.13, 3.61L120.26, 3.65L120.26, 3.65L120.27, 3.65L120.4, 3.7L120.4, 3.7L120.42, 3.7C120.88, 3.85 121.35, 4.01 121.82, 4.17L121.82, 4.18L121.82, 4.18L121.96, 4.22L121.96, 4.22L121.96, 4.22C122.18, 4.3 122.4, 4.38 122.62, 4.45L122.62, 4.46L122.63, 4.46L122.76, 4.51L122.76, 4.51L122.76, 4.51C123.23, 4.68 123.7, 4.85 124.17, 5.03L124.17, 5.03L124.18, 5.03L124.55, 5.17L124.55, 5.17L124.56, 5.17L124.93, 5.31L124.93, 5.31L124.93, 5.31L125.16, 5.41L125.16, 5.41L125.17, 5.41C125.45, 5.52 125.73, 5.63 126.01, 5.74L126.01, 5.74L126.01, 5.74L126.25, 5.84L126.25, 5.84L126.25, 5.84L126.48, 5.93L126.48, 5.93L126.48, 5.93C126.67, 6.01 126.86, 6.09 127.05, 6.16L127.05, 6.17L127.06, 6.17L127.28, 6.26L127.28, 6.26L127.29, 6.26C127.69, 6.43 128.1, 6.6 128.51, 6.78L128.51, 6.79L128.52, 6.79L128.84, 6.92L128.84, 6.93L128.85, 6.93L129.17, 7.07L129.17, 7.07L129.17, 7.07L129.26, 7.11L129.26, 7.12L129.28, 7.12L129.59, 7.26L129.59, 7.26L129.6, 7.26C129.88, 7.38 130.16, 7.51 130.44, 7.64L130.44, 7.64L130.44, 7.64C130.62, 7.72 130.79, 7.8 130.96, 7.88L130.96, 7.88L130.96, 7.88L131.05, 7.92L131.05, 7.92L131.06, 7.92C131.27, 8.02 131.47, 8.11 131.67, 8.21L131.67, 8.21L131.67, 8.21L131.76, 8.25L131.76, 8.26L131.77, 8.26C132.04, 8.38 132.3, 8.51 132.57, 8.63C129.26, 7.15 126.03, 5.97 122.9, 5.08L122.9, 5.08L122.9, 5.08C111.91, 1.94 102.09, 2.31 94.38, 5.55L94.38, 5.55L94.38, 5.55C90.67, 7.11 87.44, 9.33 84.81, 12.15L84.81, 12.15L84.81, 12.15C82.57, 14.54 80.76, 17.35 79.43, 20.55C79.34, 20.78 79.24, 21.02 79.15, 21.26L79.15, 21.26L79.15, 21.26C76.59, 27.91 76.08, 36.15 78.17, 45.6C78.67, 47.6 79.75, 48.75 81.89, 47.82C81.91, 47.81 81.92, 47.81 81.93, 47.8L82.34, 47.64L82.36, 47.64L82.36, 47.63L82.57, 47.54L82.59, 47.54L82.59, 47.54L82.81, 47.45L82.83, 47.45L82.83, 47.44L83.05, 47.35L83.06, 47.35L83.06, 47.35L83.17, 47.31L83.21, 47.31L83.21, 47.29L83.29, 47.26L83.3, 47.26L83.3, 47.25L83.41, 47.21L83.44, 47.21L83.44, 47.2L83.53, 47.16L83.54, 47.16L83.54, 47.16L83.65, 47.12L83.68, 47.12L83.68, 47.11L83.77, 47.07L83.82, 47.07L83.82, 47.05L83.9, 47.02L83.91, 47.02L83.91, 47.02L84.02, 46.97L84.05, 46.97L84.05, 46.96L84.14, 46.93L84.15, 46.93L84.15, 46.92L84.27, 46.88L84.29, 46.88L84.29, 46.87L84.52, 46.79L84.53, 46.79L84.53, 46.78L84.64, 46.74L84.67, 46.74L84.67, 46.73L84.9, 46.64L84.9, 46.64L84.9, 46.64C85.25, 46.51 85.59, 46.39 85.93, 46.26L85.94, 46.26L85.94, 46.26L86.07, 46.22L86.08, 46.22L86.08, 46.21L86.2, 46.17L86.22, 46.17L86.22, 46.16L86.33, 46.12L86.36, 46.12L86.36, 46.11L86.47, 46.07L86.51, 46.07L86.51, 46.06L86.6, 46.03L86.65, 46.03L86.65, 46.01L86.74, 45.98L86.79, 45.98L86.79, 45.96L86.88, 45.93L86.93, 45.93L86.93, 45.91L87.02, 45.88L87.07, 45.88L87.07, 45.86L87.15, 45.84L87.21, 45.84L87.21, 45.82L87.29, 45.79L87.35, 45.79L87.35, 45.77L87.43, 45.74L87.45, 45.74L87.45, 45.74L87.58, 45.69L87.59, 45.69L87.59, 45.69L87.72, 45.65L87.73, 45.65L87.73, 45.64L87.86, 45.6L87.87, 45.6L87.87, 45.59L88, 45.55L88.01, 45.55L88.01, 45.55L88.15, 45.5L88.16, 45.5L88.16, 45.5L88.3, 45.46L88.3, 45.46L88.3, 45.46C88.54, 45.38 88.79, 45.3 89.04, 45.22L89.05, 45.22L89.05, 45.21L89.19, 45.17L89.19, 45.17L89.19, 45.17L89.34, 45.12L89.38, 45.12L89.38, 45.11L89.5, 45.08L89.52, 45.08L89.52, 45.07L89.65, 45.03L89.66, 45.03L89.66, 45.03L89.81, 44.98L89.85, 44.98L89.85, 44.97L89.96, 44.93L89.99, 44.93L89.99, 44.93L90.12, 44.89L90.18, 44.89L90.18, 44.87L90.28, 44.84L90.32, 44.84L90.32, 44.83L90.44, 44.79L90.51, 44.79L90.51, 44.77L90.61, 44.74L90.65, 44.74L90.65, 44.73L90.77, 44.7L90.84, 44.7L90.84, 44.68L90.93, 44.65L90.98, 44.65L90.98, 44.64L91.1, 44.6L91.17, 44.6L91.17, 44.58L91.27, 44.56L91.31, 44.56L91.31, 44.54L91.44, 44.51L91.46, 44.51L91.46, 44.5L91.61, 44.46L91.64, 44.46L91.64, 44.45L91.78, 44.41L91.79, 44.41L91.79, 44.41L91.96, 44.37L91.97, 44.37L91.97, 44.36C92.14, 44.31 92.32, 44.27 92.49, 44.22L92.49, 44.22L92.49, 44.22L92.67, 44.18L92.68, 44.18L92.68, 44.17L92.85, 44.13L92.87, 44.13L92.87, 44.12L93.04, 44.08L93.06, 44.08L93.06, 44.07L93.22, 44.03L93.29, 44.03L93.29, 44.02L93.41, 43.99L93.48, 43.99L93.48, 43.97L93.6, 43.94L93.67, 43.94L93.67, 43.92L93.8, 43.89L93.86, 43.89L93.86, 43.88L93.99, 43.84L94.1, 43.84L94.1, 43.82L94.19, 43.8L94.28, 43.8L94.28, 43.77L94.39, 43.75L94.47, 43.75L94.47, 43.73L94.59, 43.7L94.66, 43.7L94.66, 43.69L94.8, 43.65L94.85, 43.65L94.85, 43.64L95.01, 43.61L95.09, 43.61L95.09, 43.59L95.22, 43.56L95.27, 43.56L95.27, 43.55L95.43, 43.51L95.46, 43.51L95.46, 43.5L95.87, 43.42L95.89, 43.42L95.89, 43.41L96.06, 43.38C96.06, 43.37 96.06, 43.37 96.06, 43.37C96.73, 43.22 97.45, 43.05 98.2, 42.89L98.2, 42.89L98.2, 42.89C98.66, 42.8 99.13, 42.7 99.61, 42.61L99.61, 42.61L99.61, 42.61C100.44, 42.45 101.3, 42.32 102.18, 42.23L102.2, 42.23L102.2, 42.23C102.37, 42.21 102.54, 42.2 102.71, 42.18L102.72, 42.18L102.72, 42.18C102.97, 42.16 103.22, 42.15 103.47, 42.13L103.48, 42.13L103.48, 42.13C104.05, 42.11 104.64, 42.11 105.22, 42.13L105.22, 42.13L105.25, 42.13C105.48, 42.15 105.7, 42.16 105.93, 42.18L105.93, 42.18L105.94, 42.18C106.31, 42.22 106.69, 42.26 107.06, 42.32L107.06, 42.32L107.07, 42.32C107.57, 42.41 108.07, 42.52 108.57, 42.65L108.57, 42.66L108.58, 42.66C108.68, 42.69 108.79, 42.72 108.9, 42.75L108.9, 42.75L108.9, 42.75C109.09, 42.81 109.28, 42.87 109.46, 42.94L109.46, 42.94L109.48, 42.94L109.61, 42.99L109.61, 42.99L109.61, 42.99C109.84, 43.08 110.08, 43.17 110.31, 43.27L110.31, 43.27L110.31, 43.27C110.49, 43.35 110.66, 43.43 110.83, 43.51L110.93, 43.56L110.93, 43.56L110.93, 43.56C111.37, 43.78 111.81, 44.03 112.25, 44.31L112.25, 44.32L112.25, 44.32C112.3, 44.35 112.34, 44.38 112.39, 44.41L112.39, 44.41L112.39, 44.41C112.49, 44.47 112.58, 44.54 112.67, 44.6L112.67, 44.6L112.67, 44.6C113.02, 44.85 113.37, 45.12 113.71, 45.41L113.71, 45.41L113.71, 45.41C113.83, 45.52 113.96, 45.63 114.08, 45.74L114.08, 45.74L114.09, 45.74C114.47, 46.09 114.84, 46.47 115.22, 46.88L115.22, 46.88L115.22, 46.88C115.33, 47 115.44, 47.13 115.55, 47.25L115.55, 47.26L115.55, 47.26C116.01, 47.8 116.47, 48.4 116.91, 49.06L116.91, 49.06L116.92, 49.06L117.01, 49.2L117.01, 49.2L117.01, 49.2C117.04, 49.25 117.07, 49.3 117.1, 49.34L117.1, 49.35L117.1, 49.35C117.13, 49.39 117.16, 49.44 117.2, 49.49L117.2, 49.49L117.2, 49.49C117.27, 49.61 117.35, 49.74 117.43, 49.86L117.43, 49.87L117.43, 49.87C117.58, 50.1 117.72, 50.34 117.87, 50.59C117.87, 50.59 117.87, 50.59 117.87, 50.59C120.1, 54.31 122.9, 57.9 126.1, 61.13C138.67, 73.59 156.15, 79.48 165.51, 71.23L165.52, 71.22C165.62, 71.12 165.73, 71.03 165.84, 70.94L165.85, 70.94L165.85, 70.93C166.07, 70.75 166.3, 70.6 166.55, 70.46L166.55, 70.46L166.55, 70.46C166.58, 70.44 166.61, 70.43 166.63, 70.41L166.65, 70.41L166.65, 70.41C166.81, 70.32 166.98, 70.24 167.16, 70.18L167.17, 70.18L167.17, 70.17C167.36, 70.1 167.56, 70.04 167.77, 69.99L167.78, 69.99L167.78, 69.99C167.93, 69.95 168.09, 69.92 168.25, 69.89L168.25, 69.89L168.25, 69.89C168.4, 69.87 168.54, 69.86 168.69, 69.85L168.77, 69.85L168.77, 69.84C169, 69.83 169.24, 69.83 169.48, 69.84L169.48, 69.85L169.54, 69.85C169.69, 69.86 169.84, 69.87 169.99, 69.89L169.99, 69.89L170, 69.89C170.17, 69.92 170.34, 69.95 170.51, 69.98L170.51, 69.99L170.54, 69.99C170.72, 70.03 170.9, 70.08 171.08, 70.13L171.08, 70.13L171.08, 70.13C171.13, 70.14 171.17, 70.16 171.22, 70.17L171.22, 70.18L171.23, 70.18C171.32, 70.21 171.41, 70.24 171.5, 70.27L171.5, 70.27L171.5, 70.27C172.01, 70.46 172.5, 70.69 172.96, 70.98L172.96, 70.98L172.97, 70.98C173.54, 71.34 174.08, 71.77 174.57, 72.26L174.57, 72.27L174.57, 72.27C174.93, 72.64 175.27, 73.05 175.56, 73.5L175.56, 73.5L175.56, 73.5C175.66, 73.65 175.75, 73.81 175.84, 73.96L175.84, 73.97L175.84, 73.97C175.96, 74.19 176.07, 74.41 176.17, 74.63L176.17, 74.64L176.17, 74.64C176.24, 74.79 176.3, 74.95 176.36, 75.11L176.36, 75.11L176.36, 75.11C176.38, 75.15 176.39, 75.2 176.41, 75.24L176.41, 75.25L176.41, 75.25C176.46, 75.4 176.51, 75.56 176.55, 75.71L176.55, 75.73L176.55, 75.73C176.57, 75.78 176.58, 75.84 176.59, 75.9L176.59, 75.92L176.6, 75.92C176.61, 75.98 176.63, 76.04 176.64, 76.11L176.64, 76.11L176.64, 76.11C176.68, 76.29 176.71, 76.48 176.74, 76.66L176.74, 76.68L176.74, 76.68C176.76, 76.82 176.77, 76.97 176.78, 77.12L176.78, 77.2L176.79, 77.2C176.81, 77.54 176.81, 77.89 176.78, 78.24L176.78, 78.24L176.78, 78.26C176.77, 78.4 176.76, 78.53 176.74, 78.67L176.74, 78.67L176.74, 78.73C176.71, 78.91 176.68, 79.1 176.64, 79.29L176.64, 79.29L176.64, 79.3C176.61, 79.44 176.58, 79.57 176.55, 79.71L176.55, 79.71L176.55, 79.72C176.53, 79.78 176.52, 79.84 176.5, 79.9L176.5, 79.9L176.5, 79.91C176.46, 80.06 176.41, 80.22 176.36, 80.38L176.36, 80.38C176.34, 80.43 176.33, 80.47 176.31, 80.52L176.31, 80.52L176.31, 80.52C176.27, 80.65 176.22, 80.77 176.17, 80.9L176.17, 80.9L176.17, 80.91C176.14, 80.99 176.11, 81.06 176.08, 81.14L176.08, 81.14L176.08, 81.15C175.92, 81.51 175.75, 81.88 175.54, 82.26C175.47, 82.38 175.39, 82.49 175.32, 82.61L175.32, 82.61L175.32, 82.61L175.23, 82.75L175.23, 82.75L175.23, 82.76C175.2, 82.8 175.17, 82.85 175.14, 82.89L175.13, 82.89L175.13, 82.91C175.1, 82.95 175.08, 82.99 175.05, 83.04L175.04, 83.04L175.04, 83.05C175.01, 83.09 174.98, 83.14 174.95, 83.18L174.94, 83.18L174.94, 83.18C174.79, 83.41 174.64, 83.63 174.48, 83.84L174.47, 83.84L174.47, 83.85C174.43, 83.91 174.38, 83.97 174.33, 84.03L174.33, 84.03L174.29, 84.08L174.28, 84.08L174.28, 84.09C174.24, 84.15 174.2, 84.21 174.15, 84.27L174.14, 84.27L174.14, 84.28L174.11, 84.32L174.1, 84.32L174.1, 84.34C174.05, 84.4 174.01, 84.45 173.96, 84.51L173.95, 84.51L173.95, 84.52L173.92, 84.55L173.91, 84.55L173.91, 84.57C173.85, 84.65 173.78, 84.72 173.72, 84.79L173.72, 84.79L173.72, 84.8C173.64, 84.89 173.56, 84.99 173.48, 85.08L173.48, 85.08L173.48, 85.08C173.31, 85.27 173.14, 85.46 172.96, 85.65L172.96, 85.65L172.96, 85.65L172.92, 85.69L172.92, 85.69L172.92, 85.7C172.9, 85.71 172.89, 85.73 172.87, 85.74L172.87, 85.74L172.87, 85.74L172.83, 85.79L172.82, 85.79L172.82, 85.79L172.78, 85.84L172.78, 85.84L172.78, 85.84L172.73, 85.88L172.73, 85.88L172.73, 85.89L172.68, 85.93L172.68, 85.93L172.68, 85.93L172.64, 85.98L172.63, 85.98L172.63, 85.98L172.59, 86.03L172.59, 86.03L172.59, 86.03L172.54, 86.07L172.54, 86.07L172.54, 86.08L172.5, 86.12L172.49, 86.12L172.49, 86.12L172.45, 86.17L172.45, 86.17L172.45, 86.17C172.4, 86.22 172.35, 86.26 172.31, 86.31L172.3, 86.31L172.3, 86.31C172.17, 86.44 172.03, 86.56 171.89, 86.69L171.88, 86.69L171.88, 86.7L171.84, 86.74L171.83, 86.74L171.83, 86.75L171.79, 86.78L171.79, 86.78L171.79, 86.79C171.77, 86.8 171.76, 86.82 171.74, 86.83L171.74, 86.83L171.74, 86.83C171.67, 86.9 171.59, 86.96 171.52, 87.02L171.5, 87.02L171.5, 87.04L171.46, 87.07L171.46, 87.07L171.46, 87.08C171.35, 87.17 171.24, 87.26 171.13, 87.35L171.13, 87.35L171.13, 87.36C171.05, 87.42 170.97, 87.48 170.89, 87.54L170.89, 87.54L170.89, 87.54C170.83, 87.59 170.77, 87.64 170.71, 87.69L170.7, 87.69L170.7, 87.69C170.64, 87.74 170.58, 87.78 170.52, 87.83L170.51, 87.83L170.51, 87.84C170.45, 87.88 170.4, 87.93 170.34, 87.97L170.32, 87.97L170.32, 87.98C170.28, 88.01 170.24, 88.04 170.2, 88.07L170.18, 88.07L170.18, 88.08L170.14, 88.11L170.14, 88.11L170.14, 88.11L170, 88.21L169.99, 88.21L169.99, 88.22C169.84, 88.33 169.68, 88.43 169.52, 88.54L169.52, 88.54L169.52, 88.54C169.4, 88.62 169.28, 88.7 169.16, 88.78L169.15, 88.78L169.15, 88.79C169.1, 88.82 169.06, 88.84 169.02, 88.87L169, 88.87L169, 88.88L168.94, 88.92L168.91, 88.92L168.91, 88.94C168.87, 88.96 168.82, 88.99 168.78, 89.01L168.77, 89.01L168.77, 89.02C168.69, 89.07 168.62, 89.11 168.54, 89.16L168.53, 89.16L168.53, 89.16C168.32, 89.29 168.1, 89.42 167.88, 89.54L167.87, 89.54L167.87, 89.54L167.79, 89.58L167.78, 89.58L167.78, 89.59L167.7, 89.63L167.68, 89.63L167.68, 89.64L167.61, 89.68L167.59, 89.68L167.59, 89.69C167.57, 89.7 167.55, 89.72 167.53, 89.73L167.5, 89.73L167.5, 89.74C167.09, 89.96 166.67, 90.15 166.24, 90.34L166.22, 90.34L166.22, 90.35L166.14, 90.39L166.13, 90.39L166.13, 90.4C166.06, 90.42 165.99, 90.46 165.93, 90.49L165.89, 90.49L165.89, 90.5C165.87, 90.51 165.84, 90.52 165.81, 90.53L165.8, 90.53L165.8, 90.54C165.73, 90.57 165.65, 90.6 165.58, 90.63L165.56, 90.63L165.56, 90.63C165.28, 90.75 165, 90.86 164.72, 90.96L164.71, 90.96L164.71, 90.96L164.59, 91.01L164.57, 91.01L164.57, 91.01C164.53, 91.03 164.5, 91.04 164.46, 91.05L164.43, 91.05L164.43, 91.06C164.4, 91.08 164.36, 91.09 164.33, 91.1L164.29, 91.1L164.29, 91.12L164.19, 91.15L164.15, 91.15L164.15, 91.16C164.11, 91.18 164.08, 91.19 164.04, 91.2L164.01, 91.2L164.01, 91.21L163.89, 91.24L163.87, 91.24L163.87, 91.25C163.62, 91.33 163.38, 91.41 163.13, 91.48L163.11, 91.48L163.11, 91.49C163.01, 91.52 162.9, 91.55 162.79, 91.58L162.78, 91.58L162.78, 91.58C162.73, 91.59 162.68, 91.61 162.63, 91.62L162.59, 91.62L162.59, 91.63L162.45, 91.67L162.4, 91.67L162.4, 91.68C162.1, 91.76 161.79, 91.84 161.47, 91.91L161.46, 91.91L161.46, 91.91C161.39, 91.93 161.32, 91.94 161.25, 91.96L161.23, 91.96L161.23, 91.96L161.03, 92L160.99, 92L160.99, 92.01C160.93, 92.02 160.87, 92.04 160.8, 92.05L160.75, 92.05L160.75, 92.06C160.69, 92.07 160.62, 92.09 160.56, 92.1L160.52, 92.1L160.52, 92.11C160.44, 92.12 160.37, 92.13 160.29, 92.15L160.28, 92.15L160.28, 92.15C160, 92.2 159.71, 92.25 159.43, 92.29L159.39, 92.29L159.39, 92.29C159.29, 92.31 159.2, 92.32 159.1, 92.34L159.06, 92.34L159.06, 92.34C158.96, 92.36 158.86, 92.37 158.76, 92.38L158.68, 92.38L158.68, 92.39C158.57, 92.41 158.45, 92.42 158.34, 92.43L158.3, 92.43L158.3, 92.44C157.99, 92.47 157.68, 92.5 157.36, 92.53L157.27, 92.53L157.27, 92.53C157.09, 92.55 156.91, 92.56 156.72, 92.57L156.56, 92.57L156.56, 92.58C156.28, 92.6 156, 92.61 155.72, 92.62L155.43, 92.62L155.43, 92.63C154.82, 92.64 154.21, 92.64 153.59, 92.62z" fill="#1177D7" class="Blue" fill-rule="evenodd" />
            </g>
          </g>
        </g>
      </g>
    </g>
  </g>
  <g transform="translate(0.0018, 0)">
    <g transform="matrix(1.1421, 0, 0, 1.1421, 0, 0)">
      <g transform="translate(-0.0024, 0)" style="shape-rendering:geometricPrecision;text-rendering:geometricPrecision;image-rendering:optimizeQuality;fill-rule:evenodd;clip-rule:evenodd" fill-rule="evenodd">
        <g transform="matrix(0.0431, 0, 0, 0.0431, 0, 0)">
          <g transform="matrix(3.4717, 0, 0, 3.4717, 0, 0)">
            <g id="Layer_x0020_1">
              <path d="M94.96, 78.64C87.15, 71.09 73.7, 80.43 82.07, 91.94C92.4, 102.89 105.66, 90.65 96.62, 80.62C96.6, 80.6 96.59, 80.58 96.57, 80.56C96.03, 79.93 95.49, 79.29 94.96, 78.64z" fill="#1177D7" class="Blue" fill-rule="evenodd" />
            </g>
          </g>
        </g>
      </g>
    </g>
  </g>
  <g transform="translate(0.0018, 0)">
    <g transform="matrix(1.1421, 0, 0, 1.1421, 0, 0)">
      <g transform="translate(-0.0024, 0)" style="shape-rendering:geometricPrecision;text-rendering:geometricPrecision;image-rendering:optimizeQuality;fill-rule:evenodd;clip-rule:evenodd" fill-rule="evenodd">
        <g transform="matrix(0.0431, 0, 0, 0.0431, 0, 0)">
          <g transform="matrix(3.4717, 0, 0, 3.4717, 0, 0)">
            <g id="Layer_x0020_1">
              <path d="M95.45, 25.23C93.32, 36.29 110.18, 35.91 112.95, 27.33C113, 27.19 113.04, 27.05 113.09, 26.91C113.09, 26.89 113.1, 26.87 113.1, 26.85C113.1, 26.85 113.11, 26.85 113.11, 26.85C113.7, 25.09 114.57, 23.46 115.77, 22C124.12, 11.84 143.26, 16.83 156.84, 30.38C164.52, 38.08 169.44, 47.55 170.43, 55.83C170.48, 55.9 170.59, 57.97 170.6, 58.07C171.81, 64.46 179.05, 68.35 178.45, 63.19C176.5, 49.89 168.7, 37.45 159.2, 28.02C149.62, 18.37 137.49, 11 124.89, 8.91C108.34, 6.15 98.31, 13.53 95.45, 25.23z" fill="#1177D7" class="Blue" fill-rule="evenodd" />
            </g>
          </g>
        </g>
      </g>
    </g>
  </g>
  <g transform="translate(0.0018, 0)">
    <g transform="matrix(1.1421, 0, 0, 1.1421, 0, 0)">
      <g transform="translate(-0.0024, 0)" style="shape-rendering:geometricPrecision;text-rendering:geometricPrecision;image-rendering:optimizeQuality;fill-rule:evenodd;clip-rule:evenodd" fill-rule="evenodd">
        <g transform="matrix(0.0431, 0, 0, 0.0431, 0, 0)">
          <g transform="matrix(3.4717, 0, 0, 3.4717, 0, 0)">
            <g id="Layer_x0020_1">
              <path d="M139.65, 108.59C132.2, 106.68 124.85, 103.36 117.95, 99.01C117.94, 99.01 117.93, 99.01 117.93, 99C117.8, 98.92 117.68, 98.85 117.56, 98.77C117.34, 98.63 117.12, 98.49 116.91, 98.35C107.27, 92.87 94.88, 105.74 105.98, 113.07C106.54, 113.43 107.1, 113.8 107.67, 114.15C161.77, 147.86 206.71, 113.1 178.59, 54.66C194.69, 90.58 175.29, 117.7 139.65, 108.59z" fill="#1177D7" class="Blue" fill-rule="evenodd" />
            </g>
          </g>
        </g>
      </g>
    </g>
  </g>
  <g transform="translate(0.0018, 0)">
    <g transform="matrix(1.1421, 0, 0, 1.1421, 0, 0)">
      <g transform="translate(-0.0024, 0)" style="shape-rendering:geometricPrecision;text-rendering:geometricPrecision;image-rendering:optimizeQuality;fill-rule:evenodd;clip-rule:evenodd" fill-rule="evenodd">
        <g transform="matrix(0.0431, 0, 0, 0.0431, 0, 0)">
          <g transform="matrix(3.4717, 0, 0, 3.4717, 0, 0)">
            <g id="Layer_x0020_1">
              <path d="M24.39, 90.42C21.44, 84.01 12.15, 87.69 13.34, 94.86C13.5, 95.41 13.68, 95.95 13.85, 96.49C16.99, 103.95 27.58, 100.02 24.86, 91.73C24.85, 91.7 24.85, 91.68 24.84, 91.66C24.69, 91.25 24.54, 90.83 24.39, 90.42z" fill="#1177D7" class="Blue" fill-rule="evenodd" />
            </g>
          </g>
        </g>
      </g>
    </g>
  </g>
  <g transform="translate(0.0018, 0)">
    <g transform="matrix(1.1421, 0, 0, 1.1421, 0, 0)">
      <g transform="translate(-0.0024, 0)" style="shape-rendering:geometricPrecision;text-rendering:geometricPrecision;image-rendering:optimizeQuality;fill-rule:evenodd;clip-rule:evenodd" fill-rule="evenodd">
        <g transform="matrix(0.0431, 0, 0, 0.0431, 0, 0)">
          <g transform="matrix(3.4717, 0, 0, 3.4717, 0, 0)">
            <g id="Layer_x0020_1">
              <path d="M16.23, 125.36C16.23, 125.36 16.23, 125.36 16.23, 125.36C19.03, 124.99 21.72, 124.41 24.22, 123.78C24.22, 123.78 24.22, 123.78 24.22, 123.78C25.71, 123.41 27.26, 124.18 28.14, 125.49C28.15, 125.49 28.16, 125.49 28.16, 125.5C32.6, 132.05 37.68, 138.25 43.28, 143.96C46.98, 147.59 50.9, 151.01 54.98, 154.18C63.43, 160.69 72.06, 150.44 63.03, 143.98C63.03, 143.97 63.03, 143.97 63.04, 143.97C59.39, 141.11 55.86, 138.04 52.48, 134.75C47.05, 129.17 42.19, 123.18 37.96, 116.94C37.96, 116.94 37.96, 116.94 37.95, 116.94C37.94, 116.91 37.92, 116.89 37.91, 116.86C37.61, 116.43 37.32, 115.99 37.04, 115.55C32.79, 109.74 27.08, 110.15 20.16, 111.92C20.16, 111.92 20.16, 111.92 20.16, 111.92C18.4, 112.45 16.54, 112.96 14.65, 113.35C12.93, 113.63 10.53, 113.14 9.28, 110.36C1.88, 90.61 0.94, 70.12 8.52, 53.1C4.4, 62.06 1.58, 70.89 0.49, 80.07C0.49, 80.07 0.49, 80.07 0.49, 80.08C-0.15, 85.55 -0.18, 91.15 0.5, 96.97C0.72, 99.96 1.02, 102.8 1.35, 105.36C2.01, 110.32 3.05, 114.74 4.17, 118.56C6.65, 126.13 13.37, 125.65 16.23, 125.37C16.23, 125.37 16.23, 125.37 16.23, 125.36z" fill="#1177D7" class="Blue" fill-rule="evenodd" />
            </g>
          </g>
        </g>
      </g>
    </g>
  </g>
  <g transform="translate(0.0018, 0)">
    <g transform="matrix(1.1421, 0, 0, 1.1421, 0, 0)">
      <g transform="translate(-0.0024, 0)" style="shape-rendering:geometricPrecision;text-rendering:geometricPrecision;image-rendering:optimizeQuality;fill-rule:evenodd;clip-rule:evenodd" fill-rule="evenodd">
        <g transform="matrix(0.0431, 0, 0, 0.0431, 0, 0)">
          <g transform="matrix(3.4717, 0, 0, 3.4717, 0, 0)">
            <g id="Layer_x0020_1">
              <path d="M35.76, 151.47C31.73, 147.36 28.03, 142.99 24.67, 138.45C24.66, 138.44 24.66, 138.44 24.65, 138.44C19.96, 131.42 11.45, 136.49 14.69, 142.02C15.03, 142.57 15.39, 143.17 15.79, 143.83C19.43, 149.39 23.62, 154.47 28.21, 159.02C32.77, 163.61 37.84, 167.8 43.4, 171.44C50.64, 175.83 50.78, 175.91 54.78, 177.8C58.47, 179.39 68.16, 184.06 81.87, 185.89C84.43, 186.21 87.27, 186.51 90.26, 186.73C96.08, 187.41 101.68, 187.39 107.15, 186.74C107.15, 186.74 107.16, 186.74 107.16, 186.74C116.34, 185.66 125.17, 182.84 134.12, 178.71C104.44, 191.94 64.15, 179.29 35.76, 151.47z" fill="#1177D7" class="Blue" fill-rule="evenodd" />
            </g>
          </g>
        </g>
      </g>
    </g>
  </g>
  <g transform="translate(0.0018, 0)">
    <g transform="matrix(1.1421, 0, 0, 1.1421, 0, 0)">
      <g transform="translate(-0.0024, 0)" style="shape-rendering:geometricPrecision;text-rendering:geometricPrecision;image-rendering:optimizeQuality;fill-rule:evenodd;clip-rule:evenodd" fill-rule="evenodd">
        <g transform="matrix(0.0431, 0, 0, 0.0431, 0, 0)">
          <g transform="matrix(3.4717, 0, 0, 3.4717, 0, 0)">
            <g id="Layer_x0020_1">
              <path d="M19.62, 71.48C19.62, 71.47 19.62, 71.47 19.62, 71.47C16.69, 50.79 21.68, 31.45 36.68, 18.76C23.66, 28.89 15.07, 38.16 11.3, 54.73C9.78, 61.45 9.31, 68.33 9.75, 75.23C10.72, 83.22 20.84, 78.18 19.62, 71.48z" fill="#1177D7" class="Blue" fill-rule="evenodd" />
            </g>
          </g>
        </g>
      </g>
    </g>
  </g>
  <g transform="translate(0.0018, 0)">
    <g transform="matrix(1.1421, 0, 0, 1.1421, 0, 0)">
      <g transform="translate(-0.0024, 0)" style="shape-rendering:geometricPrecision;text-rendering:geometricPrecision;image-rendering:optimizeQuality;fill-rule:evenodd;clip-rule:evenodd" fill-rule="evenodd">
        <g transform="matrix(0.0431, 0, 0, 0.0431, 0, 0)">
          <g transform="matrix(3.4717, 0, 0, 3.4717, 0, 0)">
            <g id="Layer_x0020_1">
              <path d="M95.35, 162.31C97.57, 158.34 99.6, 154.2 101.36, 149.8C103.48, 144.54 108.34, 135.32 96.46, 128.22C96.47, 128.22 96.47, 128.22 96.47, 128.21C89.08, 123.6 82.01, 118.01 75.57, 111.66C68.9, 104.9 63.05, 97.43 58.31, 89.63C52.21, 79.6 48.17, 69.49 46.08, 59.85C46.08, 59.85 46.08, 59.85 46.08, 59.85C43.76, 50.07 30.53, 54.77 31.52, 64.71C34.98, 85.38 46.77, 106.7 63.47, 123.76C69.9, 130.05 76.94, 135.64 84.31, 140.36C84.32, 140.36 84.32, 140.37 84.32, 140.37C86.42, 141.73 86.47, 142.18 85.87, 143.81C84.25, 147.77 82.25, 151.47 79.97, 155.2C79.97, 155.21 79.97, 155.21 79.97, 155.21C77.49, 159.13 74.69, 166.69 84.27, 171.08C100.06, 177.33 116.7, 179.52 132.5, 175.93C149.07, 172.17 158.34, 163.57 168.46, 150.56C151.65, 170.43 123.16, 172.73 95.35, 162.31z" fill="#1177D7" class="Blue" fill-rule="evenodd" />
            </g>
          </g>
        </g>
      </g>
    </g>
  </g>
  <g transform="translate(0.0018, 0)">
    <g transform="matrix(1.1421, 0, 0, 1.1421, 0, 0)">
      <g transform="translate(-0.0024, 0)" style="shape-rendering:geometricPrecision;text-rendering:geometricPrecision;image-rendering:optimizeQuality;fill-rule:evenodd;clip-rule:evenodd" fill-rule="evenodd">
        <g transform="matrix(0.0431, 0, 0, 0.0431, 0, 0)">
          <g transform="matrix(3.4717, 0, 0, 3.4717, 0, 0)">
            <g id="Layer_x0020_1">
              <path d="M155.92, 141.22C155.92, 141.22 155.92, 141.22 155.91, 141.23C155.88, 141.23 155.85, 141.24 155.81, 141.25C155.45, 141.34 155.1, 141.42 154.74, 141.5C145.87, 144.03 144.82, 156.08 154.9, 153.4C175.31, 146.08 183.5, 128.59 186.52, 106.89C183.74, 125.5 172.01, 137.17 155.92, 141.22z" fill="#1177D7" class="Blue" fill-rule="evenodd" />
            </g>
          </g>
        </g>
      </g>
    </g>
  </g>
  <g transform="translate(0.0018, 0)">
    <g transform="matrix(1.1421, 0, 0, 1.1421, 0, 0)">
      <g transform="translate(-0.0024, 0)" style="shape-rendering:geometricPrecision;text-rendering:geometricPrecision;image-rendering:optimizeQuality;fill-rule:evenodd;clip-rule:evenodd" fill-rule="evenodd">
        <g transform="matrix(0.0431, 0, 0, 0.0431, 0, 0)">
          <g transform="matrix(3.4717, 0, 0, 3.4717, 0, 0)">
            <g id="Layer_x0020_1">
              <path d="M45.25, 34.87C45.25, 34.87 45.25, 34.87 45.25, 34.87C48.41, 16.96 60.38, 3.69 80.34, 0.7C57.86, 3.83 39.9, 12.51 33.08, 34.58C30.87, 43.05 43.95, 42.18 45.25, 34.87z" fill="#1177D7" class="Blue" fill-rule="evenodd" />
            </g>
          </g>
        </g>
      </g>
    </g>
  </g>
  <g transform="translate(0.0018, 0)">
    <g transform="matrix(1.1421, 0, 0, 1.1421, 0, 0)">
      <g transform="translate(-0.0024, 0)" style="shape-rendering:geometricPrecision;text-rendering:geometricPrecision;image-rendering:optimizeQuality;fill-rule:evenodd;clip-rule:evenodd" fill-rule="evenodd">
        <g transform="matrix(0.0431, 0, 0, 0.0431, 0, 0)">
          <g transform="matrix(3.4717, 0, 0, 3.4717, 0, 0)">
            <g id="Layer_x0020_1">
              <path d="M128.99, 141.48C128.96, 141.48 128.93, 141.47 128.89, 141.47C118.54, 140.12 112.54, 153.78 123.4, 155.85C123.47, 155.86 123.55, 155.87 123.63, 155.88C134.48, 156.91 140.34, 144.23 130.61, 141.78C130.07, 141.69 129.53, 141.59 128.99, 141.48z" fill="#1177D7" class="Blue" fill-rule="evenodd" />
            </g>
          </g>
        </g>
      </g>
    </g>
  </g>
</svg>