<?xml version="1.0" encoding="UTF-8"?>
<!DOCTYPE svg PUBLIC "-//W3C//DTD SVG 1.1//EN" "http://www.w3.org/Graphics/SVG/1.1/DTD/svg11.dtd">
<!-- Creator: CorelDRAW -->
<svg xmlns="http://www.w3.org/2000/svg" xml:space="preserve" width="650px" height="650px" version="1.1" style="shape-rendering:geometricPrecision; text-rendering:geometricPrecision; image-rendering:optimizeQuality; fill-rule:evenodd; clip-rule:evenodd"
viewBox="0 0 187.23 187.23"
 xmlns:xlink="http://www.w3.org/1999/xlink"
 xmlns:xodm="http://www.corel.com/coreldraw/odm/2003">
 <defs>
  <style type="text/css">
   <![CDATA[
    .fil0 {fill:#373833}
   ]]>
  </style>
 </defs>
 <g id="Layer_x0020_1">
  <metadata id="CorelCorpID_0Corel-Layer"/>
  <path class="fil0" d="M145.03 32.03c-8.61,-4.23 -14.92,0.42 -12.16,8.92 0.96,2.96 2.87,5.82 5.25,8.16 2.34,2.38 5.2,4.28 8.16,5.25 8.49,2.76 13.15,-3.55 8.91,-12.16 -1.05,-2.14 -2.55,-4.15 -4.29,-5.88 -1.72,-1.74 -3.73,-3.24 -5.87,-4.29z"/>
  <path class="fil0" d="M153.59 92.62l0 0 -0.12 0c-0.3,-0.01 -0.61,-0.02 -0.92,-0.04l0 -0.01 -0.14 0c-0.24,-0.01 -0.47,-0.03 -0.71,-0.04l0 0 -0.01 0c-0.15,-0.02 -0.3,-0.03 -0.46,-0.04l0 -0.01 -0.09 0c-0.13,-0.01 -0.25,-0.02 -0.38,-0.04l0 -0.01 -0.11 0c-0.14,-0.01 -0.27,-0.03 -0.41,-0.04l0 -0.01 -0.02 0c-0.35,-0.04 -0.71,-0.08 -1.06,-0.13l0 -0.01 -0.05 0c-0.09,-0.01 -0.19,-0.02 -0.28,-0.04l0 -0.01 -0.06 0c-0.09,-0.01 -0.18,-0.03 -0.27,-0.04l0 0 -0.03 0c-0.08,-0.02 -0.17,-0.03 -0.26,-0.05l0 0 -0.03 0c-0.27,-0.05 -0.54,-0.09 -0.81,-0.14l0 0 -0.01 0c-0.08,-0.02 -0.15,-0.03 -0.23,-0.05l0 0 -0.02 0 -0.22 -0.04 0 -0.01 -0.04 0c-0.06,-0.01 -0.13,-0.02 -0.19,-0.04l0 -0.01 -0.06 0c-0.06,-0.01 -0.12,-0.02 -0.18,-0.03l0 -0.01 -0.04 0c-0.07,-0.02 -0.13,-0.03 -0.19,-0.04l0 -0.01 -0.03 0 -0.21 -0.04 0 -0.01 -0.01 0c-0.08,-0.01 -0.15,-0.03 -0.22,-0.04l0 -0.01 -0.01 0c-0.2,-0.04 -0.4,-0.09 -0.61,-0.14l0 0 0 0 -0.19 -0.04 0 -0.01 -0.01 0 -0.17 -0.04 0 0 -0.03 0c-0.06,-0.02 -0.11,-0.03 -0.16,-0.04l0 -0.01 -0.04 0 -0.15 -0.04 0 -0.01 -0.04 0c-0.05,-0.01 -0.1,-0.02 -0.15,-0.04l0 -0.01 -0.03 0 -0.16 -0.04 0 0 -0.02 0 -0.17 -0.05 0 0 -0.01 0 -0.18 -0.05 0 0 0 0c-0.17,-0.04 -0.34,-0.09 -0.51,-0.14l0 0 -0.01 0c-0.11,-0.03 -0.22,-0.06 -0.32,-0.09l0 0 -0.01 0 -0.14 -0.04 0 -0.01 -0.02 0 -0.16 -0.05 0 0 -0.01 0 -0.14 -0.04 0 -0.01 -0.02 0 -0.12 -0.03 0 -0.01 -0.04 0c-0.05,-0.02 -0.1,-0.04 -0.15,-0.05l0 0 0 0 -0.14 -0.05 0 0 -0.01 0 -0.13 -0.04 0 -0.01 -0.02 0c-0.29,-0.09 -0.58,-0.18 -0.87,-0.28l0 0 -0.02 0 -0.13 -0.05 0 0 -0.01 0 -0.13 -0.04 0 -0.01 -0.01 0 -0.13 -0.04 0 0 -0.01 0 -0.13 -0.05 0 0 -0.01 0 -0.13 -0.05 0 0 -0.01 0 -0.13 -0.05 0 0 -0.01 0c-0.07,-0.02 -0.15,-0.05 -0.23,-0.08l0 -0.01 -0.03 0 -0.11 -0.04 0 -0.01 -0.02 0 -0.12 -0.04 0 -0.01 -0.01 0c-0.29,-0.1 -0.59,-0.21 -0.89,-0.33l0 0 0 0 -0.23 -0.09 0 0 -0.02 0 -0.22 -0.09 0 -0.01 -0.02 0 -0.12 -0.04 0 -0.01 -0.01 0c-0.07,-0.03 -0.15,-0.05 -0.23,-0.09l0 0 -0.01 0c-0.07,-0.03 -0.15,-0.06 -0.22,-0.09l0 -0.01 -0.01 0c-0.07,-0.03 -0.15,-0.06 -0.23,-0.09l0 0 0 0c-0.3,-0.12 -0.59,-0.25 -0.89,-0.38l0 0 -0.01 0c-0.11,-0.05 -0.22,-0.09 -0.32,-0.14l0 0 -0.01 0 -0.09 -0.04 0 -0.01 -0.02 0c-0.1,-0.05 -0.2,-0.09 -0.31,-0.14l0 0 -0.01 0 -0.08 -0.04 0 -0.01 -0.03 0c-0.1,-0.04 -0.2,-0.09 -0.3,-0.14l0 0 -0.01 0 -0.09 -0.04 0 -0.01 -0.01 0c-0.5,-0.23 -1,-0.46 -1.49,-0.71l0 0 -0.01 0 -0.09 -0.05 0 0 0 0 -0.09 -0.04 0 -0.01 -0.01 0 -0.09 -0.04 0 0 -0.01 0 -0.08 -0.04 0 -0.01 -0.01 0 -0.09 -0.04 0 -0.01 0 0 -0.09 -0.04 0 -0.01 -0.01 0 -0.08 -0.04 0 0 -0.01 0 -0.09 -0.05 0 0 0 0 -0.09 -0.05 0 0 -0.01 0 -0.09 -0.04 0 -0.01 0 0c-0.33,-0.16 -0.66,-0.34 -0.99,-0.51l0 -0.01 0 0c-0.14,-0.07 -0.28,-0.15 -0.42,-0.22l0 -0.01 -0.02 0 -0.08 -0.04 0 -0.01 -0.01 0 -0.08 -0.04 0 -0.01 -0.01 0 -0.08 -0.05 0 0 -0.01 0c-0.07,-0.04 -0.15,-0.09 -0.23,-0.13l0 -0.01 -0.02 0 -0.07 -0.04 0 -0.01 -0.01 0c-0.14,-0.07 -0.28,-0.15 -0.42,-0.23l0 0 0 0c-0.22,-0.13 -0.44,-0.26 -0.66,-0.38l0 0 0 0c-0.08,-0.05 -0.16,-0.1 -0.23,-0.14l0 -0.01 -0.01 0 -0.23 -0.13 0 -0.01 -0.01 0c-0.08,-0.04 -0.15,-0.09 -0.23,-0.13l0 -0.01 -0.01 0 -0.08 -0.05 0 0 0 0 -0.14 -0.08 0 -0.01 -0.02 0c-0.07,-0.05 -0.14,-0.09 -0.22,-0.14l0 -0.01 -0.01 0 -0.22 -0.13 0 -0.01 -0.01 0c-0.42,-0.26 -0.84,-0.53 -1.27,-0.8l0 0 0 0 -0.14 -0.09 0 -0.01 -0.01 0 -0.13 -0.08 0 -0.01 -0.01 0c-0.05,-0.03 -0.09,-0.06 -0.13,-0.09l0 -0.01 -0.02 0c-0.04,-0.03 -0.08,-0.05 -0.12,-0.08l0 -0.01 -0.02 0c-0.42,-0.28 -0.84,-0.57 -1.25,-0.86l0 0 -0.01 0c-0.11,-0.07 -0.21,-0.15 -0.32,-0.23l0 -0.01 -0.01 0 -0.14 -0.09 0 0 0 0c-0.06,-0.04 -0.12,-0.09 -0.18,-0.13l0 -0.01 -0.02 0c-0.04,-0.03 -0.08,-0.06 -0.13,-0.09l0 -0.01 -0.01 0 -0.13 -0.09 0 0 0 0c-0.06,-0.05 -0.12,-0.09 -0.18,-0.14l0 0 -0.01 0c-0.11,-0.08 -0.22,-0.16 -0.33,-0.24l0 0 0 0c-0.23,-0.17 -0.47,-0.35 -0.7,-0.52l0 0 0 0c-0.07,-0.05 -0.13,-0.1 -0.19,-0.15l0 0 0 0c-0.14,-0.1 -0.28,-0.21 -0.42,-0.32l0 -0.01 -0.02 0c-0.06,-0.04 -0.12,-0.09 -0.17,-0.13l0 -0.01 -0.02 0 -0.17 -0.14 0 0 -0.01 0c-0.08,-0.06 -0.15,-0.12 -0.23,-0.18l0 -0.01 -0.01 0 -0.18 -0.14 0 -0.01 0 0c-0.39,-0.3 -0.78,-0.62 -1.17,-0.94l0 0 -0.01 0c-0.09,-0.08 -0.18,-0.16 -0.28,-0.23l0 -0.01 -0.01 0c-0.07,-0.06 -0.15,-0.12 -0.22,-0.19l0 0 -0.01 0 -0.04 -0.04 0 -0.01 -0.02 0c-0.07,-0.06 -0.14,-0.12 -0.22,-0.19l0 0 0 0 -0.04 -0.04 0 -0.01 -0.01 0c-0.1,-0.07 -0.19,-0.15 -0.28,-0.23l0 0 0 0c-0.09,-0.08 -0.19,-0.16 -0.28,-0.24l0 0 0 0c-0.11,-0.09 -0.22,-0.19 -0.33,-0.28l0 -0.01 0 0c-0.14,-0.12 -0.28,-0.24 -0.42,-0.37l0 0 -0.01 0c-0.12,-0.11 -0.25,-0.22 -0.37,-0.33l0 -0.01 0 0 -0.05 -0.04 0 0 -0.01 0 -0.03 -0.04 0 -0.01 -0.02 0c-0.12,-0.11 -0.24,-0.22 -0.36,-0.33l0 0 -0.01 0 -0.04 -0.04 0 -0.01 -0.01 0 -0.04 -0.04 0 -0.01 -0.01 0c-0.14,-0.12 -0.27,-0.25 -0.41,-0.38l0 0 0 0c-0.22,-0.2 -0.44,-0.41 -0.66,-0.61l-0.05 -0.05 0 0 0 0 -0.04 -0.05 0 0 -0.01 0 -0.04 -0.04 0 -0.01 -0.01 0c-0.38,-0.35 -0.75,-0.72 -1.12,-1.09l0 0 0 0 -0.05 -0.04 0 -0.01 0 0 -0.05 -0.04 0 0 0 0 -0.04 -0.05 0 0 -0.01 0 -0.04 -0.04 0 -0.01 -0.01 0 -0.04 -0.04 0 -0.01 0 0 -0.05 -0.04 0 0 0 0c-0.09,-0.09 -0.18,-0.18 -0.27,-0.27 -0.1,-0.1 -0.2,-0.19 -0.29,-0.29l0 -0.01 -0.01 0 -0.04 -0.04 0 -0.01 -0.01 0 -0.04 -0.03 0 -0.02 -0.01 0 -0.03 -0.03 0 -0.02 -0.02 0 -0.03 -0.03 0 -0.01 -0.01 0 -0.04 -0.04 0 -0.01 -0.01 0 -0.03 -0.04 0 -0.01 -0.02 0 -0.03 -0.03 0 -0.02 -0.01 0 -0.04 -0.03 0 -0.01 -0.01 0 -0.04 -0.04 0 -0.01 -0.01 0 -0.03 -0.04 0 -0.01 -0.01 0 -0.04 -0.03 0 -0.01 -0.01 0 -0.04 -0.04 0 -0.01 -0.01 0 -0.03 -0.04 0 -0.01 -0.01 0 -0.04 -0.04 0 -0.01 -0.01 0 -0.04 -0.04 0 0 -0.01 0 -0.04 -0.05 0 0 0 0 -0.04 -0.04 0 -0.01 -0.01 0 -0.04 -0.04 0 -0.01 0 0 -0.05 -0.04 0 0 0 0 -0.04 -0.05 0 0 -0.01 0c-0.15,-0.17 -0.31,-0.33 -0.47,-0.49l0 -0.03 -0.03 0 -0.01 -0.02 0 -0.03 -0.03 0 -0.02 -0.02 0 -0.03 -0.03 0 -0.02 -0.02 0 -0.03 -0.02 0 -0.02 -0.02 0 -0.02 -0.02 0 -0.03 -0.03 0 -0.02 -0.02 0 -0.03 -0.03 0 -0.02 -0.01 0 -0.04 -0.03 0 -0.02 -0.01 0 -0.03 -0.03 0 -0.01 -0.01 0 -0.04 -0.04 0 -0.01 -0.01 0 -0.04 -0.04 0 -0.01 0 0 -0.04 -0.04 0 -0.01 -0.01 0c-0.19,-0.2 -0.37,-0.4 -0.56,-0.61l0 0 0 0 -0.05 -0.05 0 0 0 0c-0.11,-0.12 -0.22,-0.24 -0.33,-0.36l0 -0.02 -0.01 0 -0.03 -0.04 0 -0.01 -0.01 0 -0.04 -0.04 0 0 -0.01 0 -0.04 -0.05 0 0 0 0 -0.19 -0.21 0 -0.03 -0.02 0 -0.02 -0.03 0 -0.02 -0.02 0 -0.03 -0.03 0 -0.01 -0.01 0 -0.04 -0.04 0 -0.01 -0.01 0 -0.04 -0.05 0 0 0 0 -0.14 -0.16 0 -0.03 -0.03 0 -0.01 -0.02 0 -0.03 -0.03 0 -0.02 -0.02 0 -0.02 -0.02 0 -0.03 -0.04 0 -0.01 -0.01 0 -0.04 -0.04 0 -0.01 0 0 -0.14 -0.16 0 -0.03 -0.03 0 -0.01 -0.02 0 -0.03 -0.03 0 -0.02 -0.02 0 -0.02 -0.02 0 -0.03 -0.04 0 -0.01 -0.01 0 -0.04 -0.04 0 -0.01 0 0 -0.18 -0.21 0 -0.03 -0.02 0 -0.03 -0.03 0 -0.01 -0.01 0 -0.04 -0.05 0 0 0 0 -0.23 -0.27 0 -0.01 -0.01 0 -0.04 -0.05 0 0 0 0c-0.16,-0.19 -0.32,-0.38 -0.47,-0.57l0 0 -0.01 0 -0.18 -0.23 0 -0.01 -0.01 0 -0.04 -0.04 0 -0.01 0 0 -0.14 -0.17 0 -0.02 -0.02 0 -0.03 -0.04 0 0 0 0 -0.14 -0.17 0 -0.02 -0.02 0 -0.03 -0.04 0 -0.01 0 0 -0.14 -0.17 0 -0.02 -0.02 0 -0.02 -0.04 0 -0.01 -0.01 0 -0.04 -0.05 0 0 0 0 -0.1 -0.11 0 -0.03 -0.01 0 -0.03 -0.03 0 -0.02 -0.01 0 -0.09 -0.1 0 -0.04 -0.02 0 -0.02 -0.02 0 -0.03 -0.02 0 -0.03 -0.03 0 -0.01 -0.01 0 -0.09 -0.11 0 -0.04 -0.02 0 -0.02 -0.02 0 -0.02 -0.02 0 -0.03 -0.05 0 0 0 0 -0.09 -0.12 0 -0.02 -0.02 0 -0.03 -0.04 0 -0.01 -0.01 0 -0.13 -0.17 0 -0.02 -0.02 0 -0.03 -0.04 0 -0.01 0 0 -0.14 -0.18 0 -0.01 -0.01 0c-0.14,-0.18 -0.28,-0.37 -0.42,-0.55l0 -0.02 -0.01 0 -0.13 -0.17 0 -0.02 -0.01 0 -0.13 -0.17 0 -0.02 -0.01 0 -0.08 -0.11 0 -0.03 -0.02 0 -0.03 -0.04 0 -0.01 -0.01 0 -0.08 -0.12 0 -0.02 -0.02 0 -0.03 -0.04 0 -0.01 0 0 -0.05 -0.06 0 -0.03 -0.02 0 -0.03 -0.03 0 -0.02 -0.01 0 -0.08 -0.11 0 -0.03 -0.02 0 -0.03 -0.04 0 -0.01 0 0 -0.09 -0.12 0 -0.02 -0.02 0 -0.03 -0.05 0 0 0 0 -0.05 -0.06 0 -0.03 -0.02 0 -0.02 -0.04 0 -0.01 -0.01 0 -0.09 -0.12 0 -0.02 -0.01 0 -0.03 -0.05 0 0 -0.01 0 -0.04 -0.07 0 -0.02 -0.02 0 -0.03 -0.04 0 -0.01 -0.01 0 -0.08 -0.13 0 -0.01 -0.01 0 -0.13 -0.19 0 0 -0.01 0 -0.09 -0.14 0 -0.01 0 0 -0.22 -0.31c-0.04,-0.05 -0.07,-0.09 -0.1,-0.14 -1.04,-1.49 -2.8,-1.99 -4.44,-1.73 -5.18,1.03 -9.88,2.72 -14.59,4.86 0.01,0.01 0.02,0.02 0.02,0.03 -0.23,0.08 -0.47,0.18 -0.72,0.29 -0.1,0.05 -0.21,0.09 -0.31,0.14l0 0 0 0c-0.07,0.03 -0.15,0.06 -0.22,0.09l-0.02 0 0 0.01 -0.09 0.04 0 0 0 0 -0.22 0.09 -0.02 0 0 0.01 -0.09 0.04 0 0 0 0 -0.11 0.05 -0.04 0 0 0.01 -0.08 0.03 -0.01 0 0 0.01 -0.11 0.04 -0.03 0 0 0.02 -0.08 0.03 -0.02 0 0 0.01c-0.07,0.03 -0.14,0.06 -0.21,0.08l-0.02 0 0 0.01c-0.08,0.03 -0.15,0.06 -0.23,0.09l-0.01 0 0 0c-0.07,0.03 -0.15,0.06 -0.23,0.09l0 0 0 0.01c-0.13,0.04 -0.25,0.09 -0.38,0.14l0 0 0 0 -0.12 0.04 -0.02 0 0 0.01 -0.11 0.04 -0.03 0 0 0.01 -0.11 0.04 -0.03 0 0 0.01 -0.1 0.04 -0.05 0 0 0.01 -0.08 0.03 -0.06 0 0 0.02 -0.08 0.03 -0.01 0 0 0.01 -0.13 0.04 -0.01 0 0 0 -0.13 0.05 -0.01 0 0 0 -0.13 0.04 -0.02 0 0 0.01 -0.13 0.04 -0.01 0 0 0 -0.14 0.05 0 0 0 0c-0.15,0.05 -0.3,0.1 -0.46,0.14l-0.01 0 0 0.01c-0.1,0.03 -0.2,0.06 -0.31,0.09l-0.02 0 0 0c-0.05,0.02 -0.1,0.03 -0.15,0.04l-0.04 0 0 0.02 -0.13 0.03 -0.06 0 0 0.02c-0.03,0.01 -0.07,0.02 -0.11,0.03l-0.08 0 0 0.02 -0.1 0.03 -0.04 0 0 0 -0.15 0.04 -0.04 0 0 0.01 -0.15 0.04 -0.03 0 0 0.01c-0.06,0.01 -0.12,0.02 -0.18,0.04l-0.01 0 0 0c-0.06,0.02 -0.13,0.03 -0.19,0.05l0 0 0 0c-0.08,0.01 -0.15,0.03 -0.22,0.04l-0.02 0 0 0.01c-0.07,0.01 -0.14,0.03 -0.21,0.04l-0.07 0 0 0.02c-0.06,0.01 -0.12,0.02 -0.18,0.03l-0.1 0 0 0.02c-0.05,0.01 -0.1,0.02 -0.15,0.03l-0.14 0 0 0.02 -0.15 0.02 -0.08 0 0 0.02c-0.08,0.01 -0.16,0.02 -0.23,0.03l-0.05 0 0 0.01c-0.25,0.03 -0.5,0.06 -0.74,0.09l-0.25 0 0 0.02c-0.13,0.01 -0.25,0.02 -0.38,0.02l-0.33 0 0 0.02c-0.3,0.01 -0.6,0.01 -0.9,0l0 -0.02 -0.42 0c-0.13,-0.01 -0.25,-0.01 -0.38,-0.03l0 -0.01 -0.18 0c-0.11,-0.02 -0.22,-0.03 -0.34,-0.05l0 0 -0.04 0c-0.06,-0.01 -0.13,-0.02 -0.19,-0.03l0 -0.02 -0.12 0 -0.12 -0.02 0 -0.03 -0.15 0c-0.04,-0.01 -0.09,-0.02 -0.13,-0.03l0 -0.01 -0.09 0c-0.05,-0.02 -0.1,-0.03 -0.15,-0.04l0 -0.01 -0.07 0c-0.05,-0.02 -0.11,-0.03 -0.16,-0.04l0 -0.01 -0.02 0c-0.15,-0.04 -0.3,-0.08 -0.45,-0.13l0 -0.01 -0.05 0 -0.1 -0.03 0 -0.02 -0.05 0 -0.09 -0.03 0 -0.02 -0.05 0c-0.03,-0.01 -0.06,-0.02 -0.09,-0.03l0 -0.01 -0.05 0 -0.04 -0.02 0 -0.03 -0.08 0 -0.06 -0.03 0 -0.02 -0.07 0c-0.02,-0.01 -0.05,-0.02 -0.08,-0.03l0 -0.02 -0.04 0c-0.03,-0.01 -0.06,-0.02 -0.1,-0.04l0 0 -0.01 0c-0.11,-0.05 -0.21,-0.1 -0.32,-0.14l0 -0.01 0 0 -0.09 -0.04 0 0 -0.01 0 -0.09 -0.04 0 -0.01 -0.01 0 -0.08 -0.04 0 -0.01 -0.01 0c-0.03,-0.01 -0.06,-0.03 -0.08,-0.04l0 -0.01 -0.02 0 -0.03 -0.01 0 -0.03 -0.06 0 -0.04 -0.02 0 -0.03 -0.05 0 -0.04 -0.02 0 -0.03 -0.04 0 -0.05 -0.03 0 -0.02 -0.03 0 -0.07 -0.03 0 -0.01 -0.02 0c-0.02,-0.02 -0.05,-0.03 -0.07,-0.05l0 0 -0.01 0 -0.04 -0.03 0 -0.02 -0.04 0 -0.05 -0.03 0 -0.02 -0.02 0c-0.12,-0.07 -0.24,-0.15 -0.36,-0.23l0 0 0 0c-0.07,-0.05 -0.13,-0.09 -0.19,-0.13l0 -0.02 -0.02 0 -0.03 -0.02 0 -0.02 -0.03 0 -0.06 -0.05 0 0 -0.01 0 -0.04 -0.03 0 -0.02 -0.02 0 -0.03 -0.02 0 -0.03 -0.03 0 -0.06 -0.04 0 0 -0.01 0 -0.04 -0.04 0 -0.01 -0.02 0 -0.02 -0.02 0 -0.03 -0.03 0c-0.04,-0.03 -0.08,-0.06 -0.12,-0.09l0 0 0 0 -0.04 -0.03 0 -0.02 -0.02 0 -0.03 -0.02 0 -0.03 -0.03 0c-0.05,-0.04 -0.1,-0.09 -0.16,-0.14l0 0 0 0c-0.18,-0.15 -0.35,-0.32 -0.52,-0.49l0 -0.03 -0.03 0 -0.01 -0.01 0 -0.04 -0.04 0 -0.01 -0.01 0 -0.04 -0.04 0 -0.01 -0.01 0 -0.03 -0.03 0 -0.02 -0.02 0 -0.03 -0.03 0 -0.01 -0.02 0 -0.03 -0.03 0 -0.02 -0.02 0 -0.03 -0.03 0 -0.02 -0.02 0 -0.02 -0.02 0 -0.02 -0.03 0 -0.02 -0.02 0 -0.03 -0.03 0 -0.02 -0.02 0 -0.03 -0.03 0 -0.02 -0.01 0 -0.04 -0.04 0 0 0 0 -0.04 -0.05 0 0 0 0c-0.1,-0.11 -0.19,-0.22 -0.29,-0.33l0 0 0 0c-0.04,-0.06 -0.09,-0.12 -0.14,-0.18l0 -0.01 -0.01 0 -0.03 -0.05 0 0 -0.01 0c-0.03,-0.04 -0.06,-0.08 -0.09,-0.12l0 -0.02 -0.02 0 -0.03 -0.04 0 -0.01 0 0c-0.03,-0.04 -0.06,-0.07 -0.09,-0.11l0 -0.03 -0.02 0 -0.03 -0.04 0 -0.01 -0.01 0 -0.03 -0.05 0 -0.04 -0.03 0 -0.02 -0.03 0 -0.02 -0.02 0 -0.03 -0.04 0 -0.01 0 0 -0.05 -0.06 0 -0.03 -0.02 0 -0.02 -0.04 0 -0.01 -0.01 0c-0.03,-0.04 -0.06,-0.08 -0.09,-0.12l0 -0.02 -0.01 0c-0.04,-0.07 -0.09,-0.13 -0.13,-0.19l0 0 0 0c-0.05,-0.08 -0.09,-0.15 -0.14,-0.22l0 -0.02 -0.01 0c-0.03,-0.05 -0.06,-0.09 -0.08,-0.13l0 -0.01 -0.01 0 -0.04 -0.07 0 -0.03 -0.02 0 -0.03 -0.05 0 0 0 0 -0.05 -0.07 0 -0.02 -0.01 0 -0.03 -0.06 0 -0.04 -0.02 0 -0.03 -0.04 0 0 0 0c-0.02,-0.03 -0.03,-0.05 -0.05,-0.08l0 -0.02 -0.01 0 -0.03 -0.06 0 -0.03 -0.02 0 -0.03 -0.06 0 -0.04 -0.02 0 -0.03 -0.04 0 -0.01 0 0 -0.05 -0.07 0 -0.02 0 0 -0.04 -0.07 0 -0.03 -0.02 0c-0.04,-0.07 -0.08,-0.15 -0.12,-0.23l0 0 0 0 -0.05 -0.09 0 -0.01 -0.01 0c-0.06,-0.12 -0.12,-0.24 -0.18,-0.36l0 -0.02 -0.01 0 -0.04 -0.07 0 -0.02 -0.01 0 -0.03 -0.07 0 -0.03 -0.01 0 -0.04 -0.07 0 -0.02 -0.01 0 -0.04 -0.08 0 -0.02 0 0 -0.05 -0.08 0 -0.01 0 0 -0.04 -0.09 0 -0.01 -0.01 0 -0.04 -0.09 0 -0.05 -0.02 0 -0.03 -0.06 0 -0.03 -0.01 0 -0.03 -0.07 0 -0.03 -0.02 0 -0.03 -0.08 0 -0.01 -0.01 0 -0.04 -0.09 0 -0.01 0 0c-0.03,-0.07 -0.06,-0.14 -0.09,-0.21l0 -0.03 -0.01 0 -0.04 -0.08 0 -0.01 0 0c-0.05,-0.11 -0.1,-0.22 -0.14,-0.33l0 0 0 0c-0.03,-0.08 -0.06,-0.16 -0.1,-0.23l0 -0.01 0 0 -0.04 -0.11 0 -0.03 -0.02 0 -0.03 -0.09 0 -0.01 0 0 -0.05 -0.12 0 -0.02 -0.01 0 -0.03 -0.1 0 -0.04 -0.02 0 -0.03 -0.08 0 -0.02 -0.01 0 -0.04 -0.11 0 -0.03 -0.01 0 -0.04 -0.1 0 -0.04 -0.01 0 -0.03 -0.09 0 -0.05 -0.02 0 -0.03 -0.08 0 -0.02 -0.01 0 -0.04 -0.11 0 -0.03 -0.01 0 -0.03 -0.11 0 -0.03 -0.01 0c-0.1,-0.27 -0.19,-0.55 -0.28,-0.83l0 -0.03 -0.01 0 -0.03 -0.11 0 -0.03 -0.01 0 -0.04 -0.13 0 -0.01 -0.01 0 -0.04 -0.14 0 -0.05 -0.01 0 -0.04 -0.11 0 -0.03 -0.01 0 -0.03 -0.12 0 -0.03 -0.01 0 -0.04 -0.14 0 -0.05 -0.01 0 -0.04 -0.11 0 -0.03 0 0 -0.04 -0.13 0 -0.06 -0.02 0 -0.03 -0.11 0 -0.03 -0.01 0c-0.03,-0.11 -0.06,-0.21 -0.09,-0.32l0 -0.01 0 0c-0.02,-0.07 -0.04,-0.14 -0.06,-0.21 -0.09,-0.37 -0.18,-0.74 -0.27,-1.1l0 -0.02 0 0c-0.01,-0.06 -0.03,-0.12 -0.04,-0.18l0 -0.01 -0.01 0 -0.04 -0.18 0 -0.01 0 0c-0.1,-0.43 -0.19,-0.85 -0.28,-1.27l0 -0.01 -0.01 0 -0.04 -0.21 0 -0.03 0 0c-0.1,-0.47 -0.2,-0.94 -0.28,-1.41l0 -0.01 0 0c-0.04,-0.18 -0.07,-0.35 -0.1,-0.52l0 -0.01 0 0c-0.08,-0.47 -0.16,-0.94 -0.23,-1.41l0 -0.01 0 0c-0.03,-0.2 -0.07,-0.4 -0.1,-0.6l0 -0.02 0 0c-0.01,-0.11 -0.03,-0.22 -0.04,-0.33l0 0 0 0c-0.05,-0.36 -0.1,-0.71 -0.15,-1.07l0 -0.02 0 0c-0.01,-0.14 -0.03,-0.27 -0.04,-0.41l0 -0.02 0 0c-0.04,-0.28 -0.07,-0.56 -0.1,-0.85l0 0 0 0c-0.03,-0.36 -0.06,-0.72 -0.09,-1.08l0 -0.01 0 0c-0.04,-0.46 -0.07,-0.92 -0.1,-1.38l0 -0.04 0 0c-0.09,-1.65 -0.1,-3.27 -0.04,-4.84l0 0 0 -0.01c0.02,-0.59 0.05,-1.17 0.09,-1.75l0 0 0 -0.03c0.02,-0.18 0.03,-0.36 0.05,-0.54l0 0 0 -0.02c0.04,-0.47 0.09,-0.94 0.14,-1.4l0 0 0 -0.02c0.02,-0.14 0.03,-0.28 0.05,-0.41l0 0 0 -0.01c0.15,-1.26 0.36,-2.49 0.61,-3.69l0 0 0 -0.01c0.07,-0.34 0.15,-0.69 0.23,-1.04l0.01 0 0 -0.01c0.07,-0.31 0.15,-0.62 0.23,-0.93l0 0 0 -0.01c0.15,-0.56 0.3,-1.11 0.47,-1.65l0 0 0 -0.01c0.18,-0.58 0.37,-1.14 0.57,-1.7l0 0 0 0c0.16,-0.47 0.34,-0.93 0.52,-1.38l0 0 0 0c0.18,-0.45 0.37,-0.89 0.56,-1.33l0 0 0 0c0.42,-0.94 0.88,-1.86 1.37,-2.75l0 0 0 0c0.67,-1.22 1.41,-2.39 2.22,-3.51l0 0 0 0c6.62,-9.22 17.53,-14.78 31.51,-14.9l1.19 0c0.84,0.01 1.7,0.04 2.56,0.09l0 0 0.03 0c0.45,0.03 0.89,0.06 1.34,0.1l0 0 0.01 0c0.77,0.06 1.55,0.14 2.34,0.24l0 0 0.01 0c0.12,0.01 0.24,0.03 0.37,0.04l0 0 0.01 0c0.56,0.08 1.12,0.15 1.69,0.24l0 0 0.01 0c0.65,0.1 1.31,0.21 1.97,0.33l0 0 0.01 0c0.48,0.09 0.96,0.19 1.45,0.29l0 0 0.01 0 0.22 0.04 0 0.01 0.01 0c0.7,0.14 1.41,0.3 2.12,0.47l0 0 0 0 0.18 0.04 0 0.01 0.02 0c0.5,0.12 0.99,0.24 1.49,0.37l0 0.01 0.02 0 0.17 0.04 0 0.01 0.01 0c0.17,0.04 0.34,0.09 0.51,0.13l0 0.01 0.02 0c0.49,0.13 0.99,0.27 1.49,0.42l0 0 0.01 0 0.32 0.1 0 0 0 0c0.16,0.05 0.31,0.09 0.47,0.14l0 0 0.01 0c0.45,0.14 0.9,0.28 1.36,0.43l0 0 0 0 0.14 0.04 0 0.01 0.01 0 0.13 0.04 0 0 0.01 0 0.13 0.05 0 0 0.02 0c0.46,0.15 0.93,0.31 1.4,0.47l0 0.01 0 0 0.14 0.04 0 0 0 0c0.22,0.08 0.44,0.16 0.66,0.23l0 0.01 0.01 0 0.13 0.05 0 0 0 0c0.47,0.17 0.94,0.34 1.41,0.52l0 0 0.01 0 0.37 0.14 0 0 0.01 0 0.37 0.14 0 0 0 0 0.23 0.1 0 0 0.01 0c0.28,0.11 0.56,0.22 0.84,0.33l0 0 0 0 0.24 0.1 0 0 0 0 0.23 0.09 0 0 0 0c0.19,0.08 0.38,0.16 0.57,0.23l0 0.01 0.01 0 0.22 0.09 0 0 0.01 0c0.4,0.17 0.81,0.34 1.22,0.52l0 0.01 0.01 0 0.32 0.13 0 0.01 0.01 0 0.32 0.14 0 0 0 0 0.09 0.04 0 0.01 0.02 0 0.31 0.14 0 0 0.01 0c0.28,0.12 0.56,0.25 0.84,0.38l0 0 0 0c0.18,0.08 0.35,0.16 0.52,0.24l0 0 0 0 0.09 0.04 0 0 0.01 0c0.21,0.1 0.41,0.19 0.61,0.29l0 0 0 0 0.09 0.04 0 0.01 0.01 0c0.27,0.12 0.53,0.25 0.8,0.37 -3.31,-1.48 -6.54,-2.66 -9.67,-3.55l0 0 0 0c-10.99,-3.14 -20.81,-2.77 -28.52,0.47l0 0 0 0c-3.71,1.56 -6.94,3.78 -9.57,6.6l0 0 0 0c-2.24,2.39 -4.05,5.2 -5.38,8.4 -0.09,0.23 -0.19,0.47 -0.28,0.71l0 0 0 0c-2.56,6.65 -3.07,14.89 -0.98,24.34 0.5,2 1.58,3.15 3.72,2.22 0.02,-0.01 0.03,-0.01 0.04,-0.02l0.41 -0.16 0.02 0 0 -0.01 0.21 -0.09 0.02 0 0 0 0.22 -0.09 0.02 0 0 -0.01 0.22 -0.09 0.01 0 0 0 0.11 -0.04 0.04 0 0 -0.02 0.08 -0.03 0.01 0 0 -0.01 0.11 -0.04 0.03 0 0 -0.01 0.09 -0.04 0.01 0 0 0 0.11 -0.04 0.03 0 0 -0.01 0.09 -0.04 0.05 0 0 -0.02 0.08 -0.03 0.01 0 0 0 0.11 -0.05 0.03 0 0 -0.01 0.09 -0.03 0.01 0 0 -0.01 0.12 -0.04 0.02 0 0 -0.01 0.23 -0.08 0.01 0 0 -0.01 0.11 -0.04 0.03 0 0 -0.01 0.23 -0.09 0 0 0 0c0.35,-0.13 0.69,-0.25 1.03,-0.38l0.01 0 0 0 0.13 -0.04 0.01 0 0 -0.01 0.12 -0.04 0.02 0 0 -0.01 0.11 -0.04 0.03 0 0 -0.01 0.11 -0.04 0.04 0 0 -0.01 0.09 -0.03 0.05 0 0 -0.02 0.09 -0.03 0.05 0 0 -0.02 0.09 -0.03 0.05 0 0 -0.02 0.09 -0.03 0.05 0 0 -0.02 0.08 -0.02 0.06 0 0 -0.02 0.08 -0.03 0.06 0 0 -0.02 0.08 -0.03 0.02 0 0 0 0.13 -0.05 0.01 0 0 0 0.13 -0.04 0.01 0 0 -0.01 0.13 -0.04 0.01 0 0 -0.01 0.13 -0.04 0.01 0 0 0 0.14 -0.05 0.01 0 0 0 0.14 -0.04 0 0 0 0c0.24,-0.08 0.49,-0.16 0.74,-0.24l0.01 0 0 -0.01 0.14 -0.04 0 0 0 0 0.15 -0.05 0.04 0 0 -0.01 0.12 -0.03 0.02 0 0 -0.01 0.13 -0.04 0.01 0 0 0 0.15 -0.05 0.04 0 0 -0.01 0.11 -0.04 0.03 0 0 0 0.13 -0.04 0.06 0 0 -0.02 0.1 -0.03 0.04 0 0 -0.01 0.12 -0.04 0.07 0 0 -0.02 0.1 -0.03 0.04 0 0 -0.01 0.12 -0.03 0.07 0 0 -0.02 0.09 -0.03 0.05 0 0 -0.01 0.12 -0.04 0.07 0 0 -0.02 0.1 -0.02 0.04 0 0 -0.02 0.13 -0.03 0.02 0 0 -0.01 0.15 -0.04 0.03 0 0 -0.01 0.14 -0.04 0.01 0 0 0 0.17 -0.04 0.01 0 0 -0.01c0.17,-0.05 0.35,-0.09 0.52,-0.14l0 0 0 0 0.18 -0.04 0.01 0 0 -0.01 0.17 -0.04 0.02 0 0 -0.01 0.17 -0.04 0.02 0 0 -0.01 0.16 -0.04 0.07 0 0 -0.01 0.12 -0.03 0.07 0 0 -0.02 0.12 -0.03 0.07 0 0 -0.02 0.13 -0.03 0.06 0 0 -0.01 0.13 -0.04 0.11 0 0 -0.02 0.09 -0.02 0.09 0 0 -0.03 0.11 -0.02 0.08 0 0 -0.02 0.12 -0.03 0.07 0 0 -0.01 0.14 -0.04 0.05 0 0 -0.01 0.16 -0.03 0.08 0 0 -0.02 0.13 -0.03 0.05 0 0 -0.01 0.16 -0.04 0.03 0 0 -0.01 0.41 -0.08 0.02 0 0 -0.01 0.17 -0.03c0,-0.01 0,-0.01 0,-0.01 0.67,-0.15 1.39,-0.32 2.14,-0.48l0 0 0 0c0.46,-0.09 0.93,-0.19 1.41,-0.28l0 0 0 0c0.83,-0.16 1.69,-0.29 2.57,-0.38l0.02 0 0 0c0.17,-0.02 0.34,-0.03 0.51,-0.05l0.01 0 0 0c0.25,-0.02 0.5,-0.03 0.75,-0.05l0.01 0 0 0c0.57,-0.02 1.16,-0.02 1.74,0l0 0 0.03 0c0.23,0.02 0.45,0.03 0.68,0.05l0 0 0.01 0c0.37,0.04 0.75,0.08 1.12,0.14l0 0 0.01 0c0.5,0.09 1,0.2 1.5,0.33l0 0.01 0.01 0c0.1,0.03 0.21,0.06 0.32,0.09l0 0 0 0c0.19,0.06 0.38,0.12 0.56,0.19l0 0 0.02 0 0.13 0.05 0 0 0 0c0.23,0.09 0.47,0.18 0.7,0.28l0 0 0 0c0.18,0.08 0.35,0.16 0.52,0.24l0.1 0.05 0 0 0 0c0.44,0.22 0.88,0.47 1.32,0.75l0 0.01 0 0c0.05,0.03 0.09,0.06 0.14,0.09l0 0 0 0c0.1,0.06 0.19,0.13 0.28,0.19l0 0 0 0c0.35,0.25 0.7,0.52 1.04,0.81l0 0 0 0c0.12,0.11 0.25,0.22 0.37,0.33l0 0 0.01 0c0.38,0.35 0.75,0.73 1.13,1.14l0 0 0 0c0.11,0.12 0.22,0.25 0.33,0.37l0 0.01 0 0c0.46,0.54 0.92,1.14 1.36,1.8l0 0 0.01 0 0.09 0.14 0 0 0 0c0.03,0.05 0.06,0.1 0.09,0.14l0 0.01 0 0c0.03,0.04 0.06,0.09 0.1,0.14l0 0 0 0c0.07,0.12 0.15,0.25 0.23,0.37l0 0.01 0 0c0.15,0.23 0.29,0.47 0.44,0.72 0,0 0,0 0,0 2.23,3.72 5.03,7.31 8.23,10.54 12.57,12.46 30.05,18.35 39.41,10.1l0.01 -0.01c0.1,-0.1 0.21,-0.19 0.32,-0.28l0.01 0 0 -0.01c0.22,-0.18 0.45,-0.33 0.7,-0.47l0 0 0 0c0.03,-0.02 0.06,-0.03 0.08,-0.05l0.02 0 0 0c0.16,-0.09 0.33,-0.17 0.51,-0.23l0.01 0 0 -0.01c0.19,-0.07 0.39,-0.13 0.6,-0.18l0.01 0 0 0c0.15,-0.04 0.31,-0.07 0.47,-0.1l0 0 0 0c0.15,-0.02 0.29,-0.03 0.44,-0.04l0.08 0 0 -0.01c0.23,-0.01 0.47,-0.01 0.71,0l0 0.01 0.06 0c0.15,0.01 0.3,0.02 0.45,0.04l0 0 0.01 0c0.17,0.03 0.34,0.06 0.51,0.09l0 0.01 0.03 0c0.18,0.04 0.36,0.09 0.54,0.14l0 0 0 0c0.05,0.01 0.09,0.03 0.14,0.04l0 0.01 0.01 0c0.09,0.03 0.18,0.06 0.27,0.09l0 0 0 0c0.51,0.19 1,0.42 1.46,0.71l0 0 0.01 0c0.57,0.36 1.11,0.79 1.6,1.28l0 0.01 0 0c0.36,0.37 0.7,0.78 0.99,1.23l0 0 0 0c0.1,0.15 0.19,0.31 0.28,0.46l0 0.01 0 0c0.12,0.22 0.23,0.44 0.33,0.66l0 0.01 0 0c0.07,0.15 0.13,0.31 0.19,0.47l0 0 0 0c0.02,0.04 0.03,0.09 0.05,0.13l0 0.01 0 0c0.05,0.15 0.1,0.31 0.14,0.46l0 0.02 0 0c0.02,0.05 0.03,0.11 0.04,0.17l0 0.02 0.01 0c0.01,0.06 0.03,0.12 0.04,0.19l0 0 0 0c0.04,0.18 0.07,0.37 0.1,0.55l0 0.02 0 0c0.02,0.14 0.03,0.29 0.04,0.44l0 0.08 0.01 0c0.02,0.34 0.02,0.69 -0.01,1.04l0 0 0 0.02c-0.01,0.14 -0.02,0.27 -0.04,0.41l0 0 0 0.06c-0.03,0.18 -0.06,0.37 -0.1,0.56l0 0 0 0.01c-0.03,0.14 -0.06,0.27 -0.09,0.41l0 0 0 0.01c-0.02,0.06 -0.03,0.12 -0.05,0.18l0 0 0 0.01c-0.04,0.15 -0.09,0.31 -0.14,0.47l0 0c-0.02,0.05 -0.03,0.09 -0.05,0.14l0 0 0 0c-0.04,0.13 -0.09,0.25 -0.14,0.38l0 0 0 0.01c-0.03,0.08 -0.06,0.15 -0.09,0.23l0 0 0 0.01c-0.16,0.36 -0.33,0.73 -0.54,1.11 -0.07,0.12 -0.15,0.23 -0.22,0.35l0 0 0 0 -0.09 0.14 0 0 0 0.01c-0.03,0.04 -0.06,0.09 -0.09,0.13l-0.01 0 0 0.02c-0.03,0.04 -0.05,0.08 -0.08,0.13l-0.01 0 0 0.01c-0.03,0.04 -0.06,0.09 -0.09,0.13l-0.01 0 0 0c-0.15,0.23 -0.3,0.45 -0.46,0.66l-0.01 0 0 0.01c-0.04,0.06 -0.09,0.12 -0.14,0.18l0 0 -0.04 0.05 -0.01 0 0 0.01c-0.04,0.06 -0.08,0.12 -0.13,0.18l-0.01 0 0 0.01 -0.03 0.04 -0.01 0 0 0.02c-0.05,0.06 -0.09,0.11 -0.14,0.17l-0.01 0 0 0.01 -0.03 0.03 -0.01 0 0 0.02c-0.06,0.08 -0.13,0.15 -0.19,0.22l0 0 0 0.01c-0.08,0.09 -0.16,0.19 -0.24,0.28l0 0 0 0c-0.17,0.19 -0.34,0.38 -0.52,0.57l0 0 0 0 -0.04 0.04 0 0 0 0.01c-0.02,0.01 -0.03,0.03 -0.05,0.04l0 0 0 0 -0.04 0.05 -0.01 0 0 0 -0.04 0.05 0 0 0 0 -0.05 0.04 0 0 0 0.01 -0.05 0.04 0 0 0 0 -0.04 0.05 -0.01 0 0 0 -0.04 0.05 0 0 0 0 -0.05 0.04 0 0 0 0.01 -0.04 0.04 -0.01 0 0 0 -0.04 0.05 0 0 0 0c-0.05,0.05 -0.1,0.09 -0.14,0.14l-0.01 0 0 0c-0.13,0.13 -0.27,0.25 -0.41,0.38l-0.01 0 0 0.01 -0.04 0.04 -0.01 0 0 0.01 -0.04 0.03 0 0 0 0.01c-0.02,0.01 -0.03,0.03 -0.05,0.04l0 0 0 0c-0.07,0.07 -0.15,0.13 -0.22,0.19l-0.02 0 0 0.02 -0.04 0.03 0 0 0 0.01c-0.11,0.09 -0.22,0.18 -0.33,0.27l0 0 0 0.01c-0.08,0.06 -0.16,0.12 -0.24,0.18l0 0 0 0c-0.06,0.05 -0.12,0.1 -0.18,0.15l-0.01 0 0 0c-0.06,0.05 -0.12,0.09 -0.18,0.14l-0.01 0 0 0.01c-0.06,0.04 -0.11,0.09 -0.17,0.13l-0.02 0 0 0.01c-0.04,0.03 -0.08,0.06 -0.12,0.09l-0.02 0 0 0.01 -0.04 0.03 0 0 0 0 -0.14 0.1 -0.01 0 0 0.01c-0.15,0.11 -0.31,0.21 -0.47,0.32l0 0 0 0c-0.12,0.08 -0.24,0.16 -0.36,0.24l-0.01 0 0 0.01c-0.05,0.03 -0.09,0.05 -0.13,0.08l-0.02 0 0 0.01 -0.06 0.04 -0.03 0 0 0.02c-0.04,0.02 -0.09,0.05 -0.13,0.07l-0.01 0 0 0.01c-0.08,0.05 -0.15,0.09 -0.23,0.14l-0.01 0 0 0c-0.21,0.13 -0.43,0.26 -0.65,0.38l-0.01 0 0 0 -0.08 0.04 -0.01 0 0 0.01 -0.08 0.04 -0.02 0 0 0.01 -0.07 0.04 -0.02 0 0 0.01c-0.02,0.01 -0.04,0.03 -0.06,0.04l-0.03 0 0 0.01c-0.41,0.22 -0.83,0.41 -1.26,0.6l-0.02 0 0 0.01 -0.08 0.04 -0.01 0 0 0.01c-0.07,0.02 -0.14,0.06 -0.2,0.09l-0.04 0 0 0.01c-0.02,0.01 -0.05,0.02 -0.08,0.03l-0.01 0 0 0.01c-0.07,0.03 -0.15,0.06 -0.22,0.09l-0.02 0 0 0c-0.28,0.12 -0.56,0.23 -0.84,0.33l-0.01 0 0 0 -0.12 0.05 -0.02 0 0 0c-0.04,0.02 -0.07,0.03 -0.11,0.04l-0.03 0 0 0.01c-0.03,0.02 -0.07,0.03 -0.1,0.04l-0.04 0 0 0.02 -0.1 0.03 -0.04 0 0 0.01c-0.04,0.02 -0.07,0.03 -0.11,0.04l-0.03 0 0 0.01 -0.12 0.03 -0.02 0 0 0.01c-0.25,0.08 -0.49,0.16 -0.74,0.23l-0.02 0 0 0.01c-0.1,0.03 -0.21,0.06 -0.32,0.09l-0.01 0 0 0c-0.05,0.01 -0.1,0.03 -0.15,0.04l-0.04 0 0 0.01 -0.14 0.04 -0.05 0 0 0.01c-0.3,0.08 -0.61,0.16 -0.93,0.23l-0.01 0 0 0c-0.07,0.02 -0.14,0.03 -0.21,0.05l-0.02 0 0 0 -0.2 0.04 -0.04 0 0 0.01c-0.06,0.01 -0.12,0.03 -0.19,0.04l-0.05 0 0 0.01c-0.06,0.01 -0.13,0.03 -0.19,0.04l-0.04 0 0 0.01c-0.08,0.01 -0.15,0.02 -0.23,0.04l-0.01 0 0 0c-0.28,0.05 -0.57,0.1 -0.85,0.14l-0.04 0 0 0c-0.1,0.02 -0.19,0.03 -0.29,0.05l-0.04 0 0 0c-0.1,0.02 -0.2,0.03 -0.3,0.04l-0.08 0 0 0.01c-0.11,0.02 -0.23,0.03 -0.34,0.04l-0.04 0 0 0.01c-0.31,0.03 -0.62,0.06 -0.94,0.09l-0.09 0 0 0c-0.18,0.02 -0.36,0.03 -0.55,0.04l-0.16 0 0 0.01c-0.28,0.02 -0.56,0.03 -0.84,0.04l-0.29 0 0 0.01c-0.61,0.01 -1.22,0.01 -1.84,-0.01z"/>
  <path class="fil0" d="M94.96 78.64c-7.81,-7.55 -21.26,1.79 -12.89,13.3 10.33,10.95 23.59,-1.29 14.55,-11.32 -0.02,-0.02 -0.03,-0.04 -0.05,-0.06 -0.54,-0.63 -1.08,-1.27 -1.61,-1.92z"/>
  <path class="fil0" d="M95.45 25.23c-2.13,11.06 14.73,10.68 17.5,2.1 0.05,-0.14 0.09,-0.28 0.14,-0.42 0,-0.02 0.01,-0.04 0.01,-0.06 0,0 0.01,0 0.01,0 0.59,-1.76 1.46,-3.39 2.66,-4.85 8.35,-10.16 27.49,-5.17 41.07,8.38 7.68,7.7 12.6,17.17 13.59,25.45 0.05,0.07 0.16,2.14 0.17,2.24 1.21,6.39 8.45,10.28 7.85,5.12 -1.95,-13.3 -9.75,-25.74 -19.25,-35.17 -9.58,-9.65 -21.71,-17.02 -34.31,-19.11 -16.55,-2.76 -26.58,4.62 -29.44,16.32z"/>
  <path class="fil0" d="M139.65 108.59c-7.45,-1.91 -14.8,-5.23 -21.7,-9.58 -0.01,0 -0.02,0 -0.02,-0.01 -0.13,-0.08 -0.25,-0.15 -0.37,-0.23 -0.22,-0.14 -0.44,-0.28 -0.65,-0.42 -9.64,-5.48 -22.03,7.39 -10.93,14.72 0.56,0.36 1.12,0.73 1.69,1.08 54.1,33.71 99.04,-1.05 70.92,-59.49 16.1,35.92 -3.3,63.04 -38.94,53.93z"/>
  <path class="fil0" d="M24.39 90.42c-2.95,-6.41 -12.24,-2.73 -11.05,4.44 0.16,0.55 0.34,1.09 0.51,1.63 3.14,7.46 13.73,3.53 11.01,-4.76 -0.01,-0.03 -0.01,-0.05 -0.02,-0.07 -0.15,-0.41 -0.3,-0.83 -0.45,-1.24z"/>
  <path class="fil0" d="M0.49 80.07c0,0 0,0 0,0 0,0 0,0 0,-0.01 0,0.01 0,0.01 0,0.01z"/>
  <path class="fil0" d="M16.23 125.36c0,0 0,0 0,0 2.8,-0.37 5.49,-0.95 7.99,-1.58 0,0 0,0 0,0 1.49,-0.37 3.04,0.4 3.92,1.71 0.01,0 0.02,0 0.02,0.01 4.44,6.55 9.52,12.75 15.12,18.46 3.7,3.63 7.62,7.05 11.7,10.22 8.45,6.51 17.08,-3.74 8.05,-10.2 0,-0.01 0,-0.01 0.01,-0.01 -3.65,-2.86 -7.18,-5.93 -10.56,-9.22 -5.43,-5.58 -10.29,-11.57 -14.52,-17.81 0,0 0,0 -0.01,0 -0.01,-0.03 -0.03,-0.05 -0.04,-0.08 -0.3,-0.43 -0.59,-0.87 -0.87,-1.31 -4.25,-5.81 -9.96,-5.4 -16.88,-3.63 0,0 0,0 0,0 -1.76,0.53 -3.62,1.04 -5.51,1.43 -1.72,0.28 -4.12,-0.21 -5.37,-2.99 -7.4,-19.75 -8.34,-40.24 -0.76,-57.26 -4.12,8.96 -6.94,17.79 -8.03,26.97 0,0 0,0 0,0.01 -0.64,5.47 -0.67,11.07 0.01,16.89 0.22,2.99 0.52,5.83 0.85,8.39 0.66,4.96 1.7,9.38 2.82,13.2 2.48,7.57 9.2,7.09 12.06,6.81 0,0 0,0 0,-0.01z"/>
  <path class="fil0" d="M35.76 151.47c-4.03,-4.11 -7.73,-8.48 -11.09,-13.02 -0.01,-0.01 -0.01,-0.01 -0.02,-0.01 -4.69,-7.02 -13.2,-1.95 -9.96,3.58 0.34,0.55 0.7,1.15 1.1,1.81 3.64,5.56 7.83,10.64 12.42,15.19 4.56,4.59 9.63,8.78 15.19,12.42 7.24,4.39 7.38,4.47 11.38,6.36 3.69,1.59 13.38,6.26 27.09,8.09 2.56,0.32 5.4,0.62 8.39,0.84 5.82,0.68 11.42,0.66 16.89,0.01 0,0 0.01,0 0.01,0 9.18,-1.08 18.01,-3.9 26.96,-8.03 -29.68,13.23 -69.97,0.58 -98.36,-27.24z"/>
  <path class="fil0" d="M19.62 71.48c0,-0.01 0,-0.01 0,-0.01 -2.93,-20.68 2.06,-40.02 17.06,-52.71 -13.02,10.13 -21.61,19.4 -25.38,35.97 -1.52,6.72 -1.99,13.6 -1.55,20.5 0.97,7.99 11.09,2.95 9.87,-3.75z"/>
  <path class="fil0" d="M95.35 162.31c2.22,-3.97 4.25,-8.11 6.01,-12.51 2.12,-5.26 6.98,-14.48 -4.9,-21.58 0.01,0 0.01,0 0.01,-0.01 -7.39,-4.61 -14.46,-10.2 -20.9,-16.55 -6.67,-6.76 -12.52,-14.23 -17.26,-22.03 -6.1,-10.03 -10.14,-20.14 -12.23,-29.78 0,0 0,0 0,0 -2.32,-9.78 -15.55,-5.08 -14.56,4.86 3.46,20.67 15.25,41.99 31.95,59.05 6.43,6.29 13.47,11.88 20.84,16.6 0.01,0 0.01,0.01 0.01,0.01 2.1,1.36 2.15,1.81 1.55,3.44 -1.62,3.96 -3.62,7.66 -5.9,11.39 0,0.01 0,0.01 0,0.01 -2.48,3.92 -5.28,11.48 4.3,15.87 15.79,6.25 32.43,8.44 48.23,4.85 16.57,-3.76 25.84,-12.36 35.96,-25.37 -16.81,19.87 -45.3,22.17 -73.11,11.75z"/>
  <path class="fil0" d="M155.92 141.22c0,0 0,0 -0.01,0.01 -0.03,0 -0.06,0.01 -0.1,0.02 -0.36,0.09 -0.71,0.17 -1.07,0.25 -8.87,2.53 -9.92,14.58 0.16,11.9 20.41,-7.32 28.6,-24.81 31.62,-46.51 -2.78,18.61 -14.51,30.28 -30.6,34.33z"/>
  <path class="fil0" d="M45.25 34.87c0,0 0,0 0,0 3.16,-17.91 15.13,-31.18 35.09,-34.17 -22.48,3.13 -40.44,11.81 -47.26,33.88 -2.21,8.47 10.87,7.6 12.17,0.29z"/>
  <path class="fil0" d="M128.99 141.48c-0.03,0 -0.06,-0.01 -0.1,-0.01 -10.35,-1.35 -16.35,12.31 -5.49,14.38 0.07,0.01 0.15,0.02 0.23,0.03 10.85,1.03 16.71,-11.65 6.98,-14.1 -0.54,-0.09 -1.08,-0.19 -1.62,-0.3z"/>
 </g>
</svg>
