<?xml version="1.0" encoding="UTF-8"?>
<!DOCTYPE svg PUBLIC "-//W3C//DTD SVG 1.1//EN" "http://www.w3.org/Graphics/SVG/1.1/DTD/svg11.dtd">
<!-- Creator: CorelDRAW -->
<svg xmlns="http://www.w3.org/2000/svg" xml:space="preserve" width="201px" height="46px" version="1.1" style="shape-rendering:geometricPrecision; text-rendering:geometricPrecision; image-rendering:optimizeQuality; fill-rule:evenodd; clip-rule:evenodd"
viewBox="0 0 185.47 42.51"
 xmlns:xlink="http://www.w3.org/1999/xlink"
 xmlns:xodm="http://www.corel.com/coreldraw/odm/2003">
 <defs>
  <style type="text/css">
   <![CDATA[
    .fil0 {fill:#EEEEEE}
   ]]>
  </style>
 </defs>
 <g id="Layer_x0020_1">
  <metadata id="CorelCorpID_0Corel-Layer"/>
  <g>
   <path class="fil0" d="M32.93 7.27c-1.95,-0.96 -3.39,0.1 -2.76,2.03 0.22,0.67 0.65,1.32 1.19,1.85 0.53,0.54 1.18,0.97 1.85,1.19 1.93,0.63 2.99,-0.8 2.03,-2.76 -0.24,-0.48 -0.58,-0.94 -0.98,-1.33 -0.39,-0.4 -0.84,-0.74 -1.33,-0.98zm-32.82 10.91c0,0 0,0 0,0l0 0 0.01 -0.1 0 0 0.02 -0.1 0 0 0.01 -0.09 0 0 0.01 -0.1 0 0 0.02 -0.1 0 0 0.01 -0.09 0 0 0.02 -0.1 0 0 0.01 -0.1 0 0c0.01,-0.06 0.02,-0.13 0.04,-0.19l0 0 0.01 -0.1 0 0c0.02,-0.1 0.04,-0.19 0.06,-0.29l0 0 0.02 -0.09 0 0c0.02,-0.1 0.04,-0.2 0.06,-0.29l0 0c0.02,-0.07 0.03,-0.13 0.05,-0.19l0 0c0.01,-0.07 0.03,-0.13 0.04,-0.2l0 0c0.02,-0.06 0.03,-0.12 0.05,-0.19l0 0 0.03 -0.09 0 0 0.02 -0.1 0 0 0.03 -0.09 0 0c0.02,-0.1 0.05,-0.19 0.08,-0.29l0 0 0.03 -0.09 0 -0.01c0.01,-0.06 0.03,-0.12 0.05,-0.19l0 0 0.03 -0.09 0 0 0.03 -0.1 0 0 0.03 -0.09 0 0 0.07 -0.19 0 0 0.03 -0.1 0 0 0.03 -0.09 0 0 0.03 -0.1 0 0 0.04 -0.09 0 0 0.03 -0.1 0 0 0.04 -0.09 0 0 0.03 -0.1 0 0 0.04 -0.09 0 0 0.03 -0.1 0 0 0.04 -0.09 0 0 0.04 -0.1 0 0 0.03 -0.09 0 0 0.04 -0.1 0 0 0.04 -0.09 0 0 0.04 -0.1 0 0 0.04 -0.09 0 0 0.04 -0.1 0 0 0.04 -0.09 0.04 -0.1 0 0 0.04 -0.09 0 0 0.04 -0.1 0.04 -0.09 0.05 -0.1 0.04 -0.09 0.04 -0.1 0.04 -0.09c-1.72,3.86 -1.5,8.51 0.18,13 0.28,0.63 0.83,0.74 1.22,0.68 0.43,-0.09 0.85,-0.21 1.25,-0.33 0,0 0,0 0,0 1.57,-0.4 2.87,-0.49 3.83,0.83 0.06,0.1 0.13,0.2 0.2,0.3 0,0 0,0.01 0.01,0.01 0,0 0,0 0,0 0.96,1.42 2.06,2.78 3.3,4.05 0.76,0.74 1.57,1.44 2.39,2.09 0,0 0,0 0,0 2.05,1.47 0.09,3.8 -1.83,2.32 -0.92,-0.72 -1.81,-1.5 -2.65,-2.32 -1.27,-1.3 -2.43,-2.71 -3.44,-4.19 0,-0.01 0,-0.01 0,-0.01 -0.2,-0.29 -0.55,-0.47 -0.89,-0.39 0,0 0,0 0,0 -0.57,0.15 -1.18,0.28 -1.82,0.36 0,0 0,0.01 0,0.01 0,0 0,0 0,0 -0.64,0.06 -2.17,0.17 -2.73,-1.55 -0.26,-0.87 -0.49,-1.87 -0.64,-3 -0.08,-0.58 -0.15,-1.22 -0.2,-1.9 -0.15,-1.32 -0.14,-2.6 0,-3.84l0 0zm0 0l0 0 0 0 0 0zm34.76 2.85l0 0 -0.02 0c-0.07,0 -0.14,0 -0.21,-0.01l0 0 -0.03 0c-0.06,0 -0.11,-0.01 -0.16,-0.01l0 0 -0.01 0c-0.03,0 -0.07,-0.01 -0.1,-0.01l0 0 -0.02 0c-0.03,0 -0.06,-0.01 -0.09,-0.01l0 0 -0.02 0c-0.03,-0.01 -0.07,-0.01 -0.1,-0.01l0 0 0 0c-0.08,-0.01 -0.16,-0.02 -0.24,-0.03l0 -0.01 -0.01 0c-0.02,0 -0.05,0 -0.07,0l0 -0.01 -0.01 0c-0.02,0 -0.04,0 -0.06,-0.01l0 0 -0.01 0c-0.02,0 -0.04,0 -0.06,-0.01l0 0 0 0c-0.07,-0.01 -0.13,-0.02 -0.19,-0.03l0 0 0 0c-0.02,0 -0.04,-0.01 -0.05,-0.01l0 0 -0.01 0 -0.05 -0.01 0 0 -0.01 0c-0.01,0 -0.02,-0.01 -0.04,-0.01l0 0 -0.01 0c-0.02,-0.01 -0.03,-0.01 -0.04,-0.01l0 0 -0.01 0c-0.02,-0.01 -0.03,-0.01 -0.05,-0.01l0 0 0 0 -0.05 -0.01 0 0 0 0c-0.02,-0.01 -0.04,-0.01 -0.05,-0.02l0 0 0 0c-0.05,-0.01 -0.1,-0.02 -0.14,-0.03l0 0 0 0 -0.05 -0.01 0 0 0 0 -0.04 -0.01 0 0 0 0c-0.02,0 -0.03,-0.01 -0.04,-0.01l0 0 -0.01 0 -0.03 -0.01 0 0 -0.01 0c-0.01,0 -0.03,-0.01 -0.04,-0.01l0 0 0 0 -0.04 -0.01 0 0 0 0 -0.04 -0.01 0 0 -0.01 0 -0.04 -0.01 0 0 0 0c-0.04,-0.01 -0.07,-0.03 -0.11,-0.04l0 0 0 0c-0.03,0 -0.05,-0.01 -0.08,-0.02l0 0 0 0 -0.03 -0.01 0 0 -0.01 0 -0.03 -0.01 0 0 0 0 -0.04 -0.01 0 0 0 0 -0.03 -0.01 0 0 -0.01 0c-0.01,0 -0.02,-0.01 -0.03,-0.01l0 0 0 0 -0.03 -0.01 0 0 -0.01 0 -0.02 -0.01 0 0 -0.01 0c-0.07,-0.02 -0.13,-0.05 -0.2,-0.07l0 0 0 0 -0.03 -0.01 0 0 0 0 -0.03 -0.01 0 0 0 0 -0.03 -0.01 0 0 -0.01 0 -0.03 -0.01 0 0 0 0 -0.03 -0.01 0 0 0 0 -0.03 -0.01 0 0 0 0c-0.02,-0.01 -0.04,-0.02 -0.05,-0.02l0 0 -0.01 0 -0.03 -0.01 0 0 0 0 -0.03 -0.02 0 0 0 0c-0.07,-0.02 -0.13,-0.04 -0.2,-0.07l0 0 0 0 -0.05 -0.02 0 0 -0.01 0 -0.05 -0.02 0 0 0 0 -0.03 -0.01 0 -0.01 0 0c-0.02,0 -0.04,-0.01 -0.05,-0.02l0 0 -0.01 0c-0.01,0 -0.03,-0.01 -0.05,-0.02l0 0 0 0c-0.02,-0.01 -0.03,-0.01 -0.05,-0.02l0 0c-0.07,-0.03 -0.14,-0.06 -0.2,-0.09l0 0 -0.01 0c-0.02,-0.01 -0.05,-0.02 -0.07,-0.03l0 0 0 0 -0.02 -0.01 0 0 0 0c-0.03,-0.01 -0.05,-0.02 -0.08,-0.03l0 0 0 0 -0.02 -0.01 0 0 0 0c-0.03,-0.01 -0.05,-0.02 -0.07,-0.03l0 0 0 0 -0.02 -0.01 0 -0.01 -0.01 0c-0.11,-0.05 -0.22,-0.1 -0.34,-0.16l0 0 0 0 -0.02 -0.01 0 0 0 0 -0.02 -0.01 0 0 0 0 -0.02 -0.01 0 0 0 0 -0.02 -0.01 0 0 0 0 -0.02 -0.01 0 0 -0.01 0 -0.01 -0.01 0 0 -0.01 0 -0.02 -0.01 0 0 0 0 -0.02 -0.01 0 0 0 0 -0.02 -0.01 0 0 0 0 -0.02 -0.01 0 0 0 0c-0.08,-0.04 -0.15,-0.08 -0.22,-0.12l0 0 -0.01 0c-0.03,-0.02 -0.06,-0.04 -0.09,-0.05l0 -0.01 -0.01 0 -0.01 -0.01 0 0 -0.01 0 -0.01 -0.01 0 0 -0.01 0 -0.02 -0.01 0 0 0 0c-0.01,-0.01 -0.03,-0.02 -0.05,-0.03l0 0 0 0 -0.02 -0.01 0 0 0 0c-0.03,-0.02 -0.07,-0.04 -0.1,-0.06l0 0 0 0c-0.05,-0.02 -0.1,-0.05 -0.15,-0.08l0 0 0 0c-0.01,-0.01 -0.03,-0.02 -0.05,-0.03l0 0 0 0 -0.05 -0.04 0 0 -0.01 0c-0.01,-0.01 -0.03,-0.02 -0.05,-0.03l0 0 0 0 -0.02 -0.01 0 0 0 0 -0.03 -0.02 0 0 0 0c-0.02,-0.01 -0.04,-0.02 -0.05,-0.03l0 0 -0.01 0 -0.05 -0.04 0 0 0 0c-0.09,-0.06 -0.19,-0.12 -0.29,-0.18l0 0 0 0 -0.03 -0.02 0 0 0 0 -0.03 -0.02 0 0 0 0c-0.01,-0.01 -0.02,-0.01 -0.03,-0.02l0 0 -0.01 0c-0.01,-0.01 -0.02,-0.02 -0.03,-0.02l0 -0.01 0 0c-0.09,-0.06 -0.19,-0.12 -0.28,-0.19l0 0 0 0c-0.03,-0.02 -0.05,-0.03 -0.08,-0.05l0 0 0 0 -0.03 -0.02 0 -0.01 0 0c-0.02,0 -0.03,-0.01 -0.04,-0.02l0 -0.01 -0.01 0c-0.01,0 -0.02,-0.01 -0.03,-0.02l0 0 0 0 -0.03 -0.02 0 0 0 0c-0.01,-0.01 -0.03,-0.02 -0.04,-0.03l0 0 0 0c-0.03,-0.02 -0.05,-0.04 -0.08,-0.06l0 0 0 0c-0.05,-0.04 -0.1,-0.07 -0.16,-0.11l0 -0.01 0 0c-0.01,-0.01 -0.03,-0.02 -0.04,-0.03l0 0 0 0c-0.03,-0.02 -0.06,-0.05 -0.1,-0.07l0 0 0 0c-0.01,-0.01 -0.03,-0.02 -0.04,-0.03l0 -0.01 0 0 -0.04 -0.03 0 0 0 0c-0.02,-0.01 -0.04,-0.02 -0.05,-0.04l0 0 -0.01 0 -0.04 -0.03 0 0 0 0c-0.09,-0.07 -0.18,-0.14 -0.27,-0.22l0 0 0 0c-0.02,-0.02 -0.04,-0.03 -0.06,-0.05l0 0 0 0c-0.02,-0.02 -0.04,-0.03 -0.05,-0.04l0 -0.01 0 0 -0.01 0 0 -0.01 -0.01 0c-0.01,-0.01 -0.03,-0.02 -0.05,-0.04l0 0 0 0 -0.01 -0.01 0 0 0 0c-0.02,-0.02 -0.04,-0.04 -0.06,-0.05l0 0 0 0c-0.02,-0.02 -0.05,-0.04 -0.07,-0.06 -0.02,-0.02 -0.05,-0.04 -0.07,-0.06l0 0 0 0c-0.03,-0.03 -0.07,-0.06 -0.1,-0.09l0 0 0 0c-0.03,-0.02 -0.06,-0.05 -0.08,-0.07l0 0 0 0 -0.01 -0.01 0 0 -0.01 0 0 -0.01 0 -0.01 -0.01 0c-0.03,-0.02 -0.05,-0.05 -0.08,-0.07l0 0 0 0 -0.01 -0.01 0 0 0 0 -0.01 -0.01 0 0 0 0c-0.04,-0.03 -0.07,-0.06 -0.1,-0.09l0 0 0 0c-0.05,-0.04 -0.1,-0.09 -0.15,-0.14l-0.01 -0.01 0 0 0 0 -0.01 -0.01 0 0 0 0 -0.01 -0.01 0 0 0 0c-0.09,-0.08 -0.17,-0.17 -0.26,-0.25l0 0 0 0 -0.01 -0.01 0 0 0 0 -0.01 -0.01 0 0 0 0 -0.01 -0.01 0 0 0 0 -0.01 -0.01 0 0 0 0 -0.01 -0.01 0 0 0 0 -0.01 -0.01 0 0 0 0c-0.02,-0.02 -0.04,-0.04 -0.06,-0.06 -0.03,-0.03 -0.05,-0.05 -0.07,-0.07l0 0 0 0 -0.01 -0.01 0 0 0 0 -0.01 -0.01 0 0 0 0 -0.01 -0.01 0 -0.01 0 0 -0.01 0 0 -0.01 -0.01 0 0 0 0 -0.01 -0.01 0 0 0 0 -0.01 -0.01 0 0 -0.01 0 0 -0.01 0 -0.01 -0.01 0 0 0 0 -0.01 -0.01 0 0 0 0 -0.01 -0.01 0 0 0 0 -0.01 -0.01 0 0 0 0 -0.01 -0.01 0 0 0 0 -0.01 -0.01 0 0 0 0 -0.01 -0.01 0 0 0 0 -0.01 -0.01 0 0 0 0 -0.01 -0.01 0 -0.01 0 0 -0.01 0 0 -0.01 0 0 -0.01 -0.01 0 0 0 0 -0.01 -0.01 0 0 0 0 -0.01 -0.01 0 0 0 0c-0.04,-0.04 -0.08,-0.07 -0.11,-0.11l0 -0.01 -0.01 0 0 0 0 -0.01 -0.01 0 0 0 0 -0.01 -0.01 0 0 0 0 -0.01 -0.01 0 0 -0.01 0 0 -0.01 0 0 -0.01 0 0 -0.01 0 -0.01 -0.01 0 0 0 0 -0.01 -0.01 0 0 0 0 -0.01 -0.01 0 0 0 0 -0.01 -0.01 0 0 0 0 -0.01 -0.01 0 0 0 0 -0.01 -0.02 0 0 0 0c-0.04,-0.04 -0.08,-0.09 -0.13,-0.13l0 -0.01 0 0 -0.01 -0.01 0 0c-0.02,-0.02 -0.05,-0.05 -0.07,-0.08l0 0 -0.01 0 0 -0.01 0 0 -0.01 0 0 -0.01 0 0 -0.01 0 0 -0.01 0 0 0 0 -0.05 -0.05 0 -0.01 0 0 -0.01 0 0 -0.01 0 0 -0.01 -0.01 0 0 0 0 -0.01 -0.01 0 0 0 0 -0.01 -0.01 0 0 0 0 -0.03 -0.04 0 0 -0.01 0 0 -0.01 0 -0.01 -0.01 0 0 0 0 -0.01 -0.01 0 0 0 0 -0.01 -0.01 0 -0.01 -0.01 0 0 0 0 -0.03 -0.03 0 -0.01 0 0 -0.01 -0.01 0 0 0 0 -0.01 -0.01 0 0 0 0 -0.01 -0.01 0 0 0 0 -0.01 -0.01 0 0 0 0 -0.04 -0.05 0 -0.01 -0.01 0 0 -0.01 0 0 -0.01 0 0 -0.01 0 0 -0.01 0 -0.05 -0.06 0 0 0 0 -0.01 -0.01 0 0 0 0c-0.03,-0.05 -0.07,-0.09 -0.11,-0.13l0 0 0 0 -0.04 -0.06 0 0 0 0 -0.01 -0.01 0 0 0 0 -0.03 -0.04 0 0 0 0 -0.01 -0.01 0 0 0 0 -0.03 -0.04 0 -0.01 -0.01 0 0 0 0 -0.01 -0.01 0 -0.03 -0.03 0 -0.01 0 0 -0.01 -0.01 0 0 0 0 -0.01 -0.01 0 0 -0.02 -0.03 0 0 0 0 -0.01 -0.01 0 0 0 0 -0.02 -0.03 0 -0.01 -0.01 0 0 0 0 -0.01 -0.01 0 0 -0.01 0 0 0 0 -0.02 -0.02 0 -0.01 -0.01 0 -0.01 -0.01 0 0 0 0 -0.01 -0.01 0 0 0 0 -0.02 -0.03 0 0 0 0 -0.01 -0.01 0 -0.01 0 0 -0.03 -0.03 0 -0.01 0 0 -0.01 -0.01 0 0 0 0 -0.03 -0.04 0 0 0 0c-0.04,-0.04 -0.07,-0.09 -0.1,-0.13l0 0 0 0 -0.03 -0.04 0 0 0 0 -0.03 -0.04 0 -0.01 -0.01 0 -0.02 -0.02 0 -0.01 0 0 -0.01 -0.01 0 0 0 0 -0.02 -0.03 0 0 0 0 -0.01 -0.01 0 0 0 0 -0.01 -0.02 0 -0.01 0 0 -0.01 0 0 -0.01 0 0 -0.02 -0.02 0 -0.01 -0.01 0 0 -0.01 0 0 0 0 -0.02 -0.03 0 0 -0.01 0 0 -0.01 0 0 0 0 -0.01 -0.02 0 0 -0.01 0 0 -0.01 0 0 -0.01 0 -0.02 -0.03 0 -0.01 0 0 -0.01 -0.01 0 0 0 0 -0.01 -0.01 0 -0.01 0 0 -0.01 -0.01 0 0 0 0 -0.02 -0.03 0 0 0 0 -0.03 -0.04 0 -0.01 0 0 -0.02 -0.03 0 0 0 0 -0.05 -0.07c-0.01,-0.01 -0.02,-0.02 -0.03,-0.03 -0.23,-0.34 -0.63,-0.45 -1.01,-0.39 -1.17,0.23 -2.24,0.62 -3.31,1.1 0.01,0 0.01,0 0.01,0.01 -0.06,0.02 -0.11,0.04 -0.17,0.06 -0.02,0.01 -0.04,0.02 -0.07,0.03l0 0 0 0c-0.01,0.01 -0.03,0.02 -0.05,0.02l0 0 0 0.01 -0.02 0.01 0 0 0 0 -0.05 0.02 -0.01 0 0 0 -0.02 0.01 0 0 0 0 -0.02 0.01 -0.01 0 0 0 -0.02 0.01 0 0 0 0 -0.02 0.01 -0.01 0 0 0 -0.02 0.01 0 0 0 0c-0.02,0.01 -0.04,0.02 -0.05,0.02l-0.01 0 0 0c-0.02,0.01 -0.03,0.02 -0.05,0.02l0 0 0 0.01c-0.02,0 -0.04,0.01 -0.05,0.02l0 0 0 0c-0.03,0.01 -0.06,0.02 -0.09,0.03l0 0 0 0 -0.03 0.01 0 0 0 0 -0.03 0.01 0 0 0 0 -0.03 0.01 -0.01 0 0 0 -0.02 0.01 -0.01 0 0 0 -0.02 0.01 -0.01 0 0 0.01 -0.02 0 0 0 0 0 -0.03 0.01 0 0 0 0 -0.03 0.01 -0.01 0 0 0.01 -0.03 0.01 0 0 0 0 -0.03 0.01 0 0 0 0 -0.03 0.01 0 0 0 0c-0.04,0.01 -0.07,0.02 -0.11,0.03l0 0 0 0c-0.02,0.01 -0.05,0.01 -0.07,0.02l-0.01 0 0 0c-0.01,0.01 -0.02,0.01 -0.03,0.01l-0.01 0 0 0 -0.03 0.01 -0.01 0 0 0.01c-0.01,0 -0.02,0 -0.03,0l-0.01 0 0 0.01 -0.03 0 -0.01 0 0 0.01 -0.03 0 -0.01 0 0 0.01 -0.03 0.01 -0.01 0 0 0c-0.01,0 -0.03,0 -0.04,0.01l0 0 0 0c-0.02,0 -0.03,0 -0.05,0.01l0 0 0 0c-0.01,0 -0.03,0 -0.05,0.01l0 0 0 0c-0.02,0 -0.03,0 -0.05,0.01l-0.01 0 0 0c-0.02,0 -0.03,0.01 -0.05,0.01l-0.02 0 0 0c-0.01,0.01 -0.02,0.01 -0.03,0.01l-0.03 0 0 0 -0.04 0.01 -0.02 0 0 0c-0.01,0.01 -0.03,0.01 -0.05,0.01l-0.01 0 0 0c-0.06,0.01 -0.11,0.02 -0.17,0.02l-0.06 0 0 0.01c-0.02,0 -0.05,0 -0.08,0l-0.08 0 0 0.01c-0.07,0 -0.13,0 -0.2,0l0 -0.01 -0.1 0c-0.02,0 -0.05,0 -0.08,0l0 -0.01 -0.04 0c-0.03,0 -0.05,0 -0.08,-0.01l0 0 -0.01 0c-0.01,0 -0.03,0 -0.04,0l0 -0.01 -0.03 0 -0.03 0 0 -0.01 -0.03 0c-0.01,0 -0.02,0 -0.03,-0.01l0 0 -0.02 0c-0.01,0 -0.02,0 -0.03,-0.01l0 0 -0.02 0c-0.01,0 -0.03,-0.01 -0.04,-0.01l0 0 0 0c-0.04,-0.01 -0.07,-0.02 -0.1,-0.03l0 0 -0.02 0 -0.02 -0.01 0 0 -0.01 0 -0.02 -0.01 0 -0.01 -0.01 0c-0.01,0 -0.01,0 -0.02,0l0 -0.01 -0.01 0 -0.01 0 0 -0.01 -0.02 0 -0.01 0 0 -0.01 -0.02 0c0,0 -0.01,0 -0.02,0l0 -0.01 -0.01 0c0,0 -0.01,-0.01 -0.02,-0.01l0 0 0 0c-0.03,-0.01 -0.05,-0.02 -0.07,-0.03l0 0 0 0 -0.03 -0.01 0 0 0 0 -0.02 -0.01 0 0 0 0 -0.02 -0.01 0 0 0 0c-0.01,-0.01 -0.01,-0.01 -0.02,-0.01l0 0 0 0 -0.01 -0.01 0 -0.01 -0.01 0 -0.01 0 0 -0.01 -0.01 0 -0.01 0 0 -0.01 -0.01 0 -0.01 0 0 -0.01 -0.01 0 -0.02 -0.01 0 0 0 0c-0.01,0 -0.01,-0.01 -0.02,-0.01l0 0 0 0 -0.01 -0.01 0 0 -0.01 0 -0.01 -0.01 0 0 0 0c-0.03,-0.02 -0.06,-0.04 -0.08,-0.05l0 -0.01 -0.01 0c-0.01,0 -0.02,-0.01 -0.04,-0.02l0 -0.01 0 0 -0.01 0 0 -0.01 -0.01 0 -0.01 -0.01 0 0 0 0 -0.01 -0.01 0 0 -0.01 0 0 0 0 -0.01 -0.01 0 -0.01 -0.01 0 0 0 0 -0.01 -0.01 0 0 -0.01 0 0 -0.01 0 0 -0.01 0c-0.01,-0.01 -0.02,-0.02 -0.03,-0.02l0 0 0 0 -0.01 -0.01 0 -0.01 0 0 -0.01 0 0 -0.01 0 0c-0.02,-0.01 -0.03,-0.02 -0.04,-0.03l0 0 0 0c-0.04,-0.03 -0.08,-0.07 -0.12,-0.11l0 -0.01 -0.01 0 0 0 0 -0.01 -0.01 0 0 0 0 -0.01 -0.01 0 0 0 0 -0.01 -0.01 0 0 0 0 -0.01 -0.01 0 0 0 0 -0.01 -0.01 0 0 0 0 -0.01 -0.01 0 0 -0.01 0 0 -0.01 0 0 -0.01 0 0 -0.01 0 0 -0.01 0 0 -0.01 0 -0.01 -0.01 0 0 0 0 -0.01 -0.01 0 -0.01 0 0 -0.01 -0.01 0 0 0 0c-0.02,-0.02 -0.04,-0.05 -0.06,-0.07l0 0 0 0c-0.01,-0.01 -0.02,-0.03 -0.03,-0.04l0 0 -0.01 0 0 -0.01 0 -0.01 0 0c-0.01,0 -0.02,-0.01 -0.02,-0.02l0 -0.01 -0.01 0 -0.01 -0.01 0 0 0 0c0,-0.01 -0.01,-0.02 -0.02,-0.02l0 -0.01 0 0 -0.01 -0.01 0 0 0 0 -0.01 -0.01 0 -0.01 -0.01 0 0 -0.01 0 0 0 0 -0.01 -0.01 0 0 0 0 -0.01 -0.02 0 -0.01 -0.01 0 0 0 0 -0.01 0 0c-0.01,-0.01 -0.02,-0.02 -0.02,-0.02l0 -0.01 -0.01 0c-0.01,-0.01 -0.02,-0.03 -0.02,-0.04l0 0c-0.02,-0.02 -0.03,-0.04 -0.04,-0.05l0 -0.01 0 0c-0.01,-0.01 -0.01,-0.02 -0.02,-0.03l0 0 0 0 -0.01 -0.01 0 -0.01 0 0 -0.01 -0.01 -0.01 -0.02 0 0 0 0 -0.01 -0.02 0 0 -0.01 0 0 -0.01 0 0 0 0c-0.01,-0.01 -0.01,-0.02 -0.01,-0.02l0 -0.01 0 0 -0.01 -0.01 0 -0.01 -0.01 0 0 -0.01 0 -0.01 -0.01 0 0 -0.01 0 0 -0.01 0 -0.01 -0.02 0 0 0 0 -0.01 -0.02 0 0 0 0c-0.01,-0.02 -0.02,-0.04 -0.03,-0.06l0 0 0 0 -0.01 -0.02 0 0 0 0c-0.01,-0.03 -0.03,-0.05 -0.04,-0.08l0 0 0 0 -0.01 -0.02 0 -0.01 0 0 -0.01 -0.01 0 -0.01 -0.01 0 0 -0.02 0 0 -0.01 0 0 -0.02 0 0 -0.01 0 -0.01 -0.02 0 0 0 0 -0.01 -0.02 0 0 0 0 -0.01 -0.03 0 -0.01 0 0 -0.01 -0.01 0 -0.01 0 0 -0.01 -0.01 0 -0.01 0 0 -0.01 -0.02 0 0 0 0 -0.01 -0.02 0 0 0 0c-0.01,-0.02 -0.01,-0.03 -0.02,-0.05l0 -0.01 0 0 -0.01 -0.02 0 0 0 0c-0.01,-0.02 -0.02,-0.05 -0.03,-0.07l0 0 0 0c-0.01,-0.02 -0.02,-0.04 -0.03,-0.06l0 0 0 0 -0.01 -0.02 0 -0.01 0 0 -0.01 -0.02 0 0 0 0 -0.01 -0.03 0 0 0 0 -0.01 -0.03 0 -0.01 0 0 -0.01 -0.01 0 -0.01 0 0 -0.01 -0.02 0 -0.01 0 0 -0.01 -0.02 0 -0.01 0 0 -0.01 -0.02 0 -0.01 0 0 -0.01 -0.02 0 -0.01 0 0 -0.01 -0.02 0 -0.01 0 0 -0.01 -0.02 0 -0.01 -0.01 0c-0.02,-0.06 -0.04,-0.12 -0.06,-0.19l0 0 0 0 -0.01 -0.03 0 -0.01 0 0 -0.01 -0.03 0 0 0 0 -0.01 -0.03 0 -0.01 0 0 -0.01 -0.03 0 0 0 0 -0.01 -0.03 0 -0.01 0 0 -0.01 -0.03 0 -0.01 0 0 -0.01 -0.03 0 0 0 0 -0.01 -0.03 0 -0.02 -0.01 0 0 -0.02 0 -0.01 -0.01 0c0,-0.02 -0.01,-0.05 -0.01,-0.07l0 0 -0.01 0c0,-0.02 0,-0.03 -0.01,-0.05 -0.02,-0.08 -0.04,-0.17 -0.06,-0.25l0 0 0 0c0,-0.02 -0.01,-0.03 -0.01,-0.04l0 -0.01 0 0 -0.01 -0.04 0 0 0 0c-0.02,-0.1 -0.05,-0.19 -0.07,-0.29l0 0 0 0 -0.01 -0.05 0 -0.01 0 0c-0.02,-0.1 -0.04,-0.21 -0.06,-0.32l0 0 0 0c-0.01,-0.04 -0.01,-0.08 -0.02,-0.12l0 0 0 0c-0.02,-0.11 -0.04,-0.21 -0.06,-0.32l0 0 0 0c0,-0.05 -0.01,-0.09 -0.02,-0.14l0 0 0 0c0,-0.03 0,-0.05 -0.01,-0.08l0 0 0 0c-0.01,-0.08 -0.02,-0.16 -0.03,-0.24l0 0 0 0c0,-0.04 -0.01,-0.07 -0.01,-0.1l0 0 0 0c-0.01,-0.07 -0.02,-0.13 -0.02,-0.19l0 0 0 0c-0.01,-0.09 -0.02,-0.17 -0.02,-0.25l0 0 0 0c-0.01,-0.11 -0.02,-0.21 -0.02,-0.32l0 -0.01 -0.01 0c-0.02,-0.37 -0.02,-0.74 -0.01,-1.09l0 0 0 -0.01c0.01,-0.13 0.02,-0.26 0.03,-0.39l0 0 0 -0.01c0,-0.04 0,-0.08 0.01,-0.12l0 0 0 -0.01c0.01,-0.11 0.02,-0.21 0.03,-0.32l0 0 0 0c0,-0.03 0.01,-0.06 0.01,-0.09l0 0 0 0c0.04,-0.29 0.08,-0.57 0.14,-0.84l0 0 0 0c0.02,-0.08 0.03,-0.16 0.05,-0.24l0 0 0 0c0.02,-0.07 0.04,-0.15 0.06,-0.22l0 0 0 0c0.03,-0.12 0.06,-0.25 0.1,-0.37l0 0 0 0c0.04,-0.13 0.09,-0.26 0.13,-0.39l0 0c0.04,-0.11 0.08,-0.21 0.12,-0.31l0 0 0 0c0.04,-0.11 0.08,-0.21 0.13,-0.3l0 0 0 -0.01c0.09,-0.21 0.2,-0.42 0.31,-0.62l0 0 0 0c0.15,-0.28 0.32,-0.54 0.5,-0.8l0 0 0 0c1.5,-2.09 3.98,-3.35 7.16,-3.38l0.27 0c0.19,0 0.38,0.01 0.58,0.02l0 0 0.01 0c0.1,0.01 0.2,0.01 0.3,0.02l0 0 0 0c0.18,0.02 0.35,0.04 0.53,0.06l0 0 0 0c0.03,0 0.06,0 0.09,0.01l0 0 0 0c0.13,0.01 0.26,0.03 0.38,0.05l0 0 0.01 0c0.15,0.02 0.29,0.05 0.44,0.08l0 0 0.01 0c0.11,0.02 0.22,0.04 0.33,0.06l0 0 0 0 0.05 0.01 0 0 0 0c0.16,0.04 0.32,0.07 0.48,0.11l0 0 0 0 0.04 0.01 0 0 0.01 0c0.11,0.03 0.22,0.06 0.34,0.09l0 0 0 0 0.04 0.01 0 0 0 0c0.04,0.01 0.08,0.02 0.12,0.03l0 0 0 0c0.11,0.03 0.23,0.06 0.34,0.1l0 0 0 0 0.07 0.02 0 0 0.01 0c0.03,0.01 0.07,0.02 0.1,0.03l0 0 0 0c0.11,0.03 0.21,0.06 0.31,0.1l0 0 0 0 0.03 0.01 0 0 0.01 0 0.03 0.01 0 0 0 0 0.03 0.01 0 0 0 0c0.11,0.03 0.21,0.07 0.32,0.11l0 0 0 0 0.03 0.01 0 0 0 0c0.05,0.02 0.1,0.03 0.15,0.05l0 0 0.01 0 0.02 0.01 0 0 0 0c0.11,0.04 0.22,0.08 0.32,0.12l0 0 0.01 0 0.08 0.03 0 0 0 0 0.09 0.04 0.05 0.02 0 0 0 0c0.06,0.02 0.13,0.05 0.19,0.07l0 0 0 0 0.06 0.03 0 0 0 0 0.05 0.02 0 0c0.04,0.01 0.08,0.03 0.13,0.05l0 0 0 0 0.05 0.02 0 0 0 0c0.09,0.04 0.19,0.08 0.28,0.12l0 0 0 0 0.07 0.03 0 0 0.01 0 0.07 0.03 0 0.01 0 0 0.02 0 0 0.01 0 0 0.08 0.03 0 0 0 0c0.06,0.03 0.12,0.06 0.19,0.08l0 0 0 0c0.04,0.02 0.08,0.04 0.12,0.06l0 0 0 0 0.02 0.01 0 0 0 0c0.05,0.02 0.09,0.04 0.14,0.06l0 0 0 0 0.02 0.01 0 0 0 0c0.06,0.03 0.12,0.06 0.18,0.09 -0.75,-0.34 -1.48,-0.6 -2.19,-0.81l0 0c-2.5,-0.71 -4.73,-0.62 -6.48,0.11 -0.84,0.35 -1.57,0.86 -2.17,1.5 -0.51,0.54 -0.92,1.18 -1.22,1.91 -0.03,0.05 -0.05,0.1 -0.07,0.16l0 0 0 0c-0.58,1.51 -0.7,3.38 -0.22,5.52 0.11,0.46 0.36,0.72 0.84,0.51 0.01,0 0.01,0 0.01,-0.01l0.1 -0.03 0 0 0 0 0.05 -0.02 0 0 0 -0.01 0.05 -0.02 0.01 0 0 0 0.05 -0.02 0 0 0 0 0.02 -0.01 0.01 0 0 0 0.02 -0.01 0 0 0 0 0.03 -0.01 0.01 0 0 0 0.02 -0.01 0 0 0 0 0.02 -0.01 0.01 0 0 0 0.02 -0.01 0.01 0 0 -0.01 0.02 0 0 0 0 0 0.03 -0.01 0.01 0 0 -0.01 0.02 0 0 0 0 -0.01 0.02 -0.01 0.01 0 0 0 0.05 -0.02 0 0 0 0 0.03 -0.01 0 0 0 0 0.06 -0.02 0 0 0 0c0.08,-0.03 0.15,-0.06 0.23,-0.09l0 0 0 0 0.03 -0.01 0.01 0 0 0 0.02 -0.01 0.01 0 0 0 0.02 -0.01 0.01 0 0 0 0.02 -0.01 0.01 0 0 0 0.02 -0.01 0.01 0 0 0 0.03 -0.01 0.01 0 0 0 0.02 -0.01 0.01 0 0 0 0.02 -0.01 0.01 0 0 -0.01 0.02 0 0.01 0 0 -0.01 0.02 0 0.01 0 0 -0.01 0.02 0 0.01 0 0 -0.01 0.03 0 0 0 0 -0.01 0.03 -0.01 0 0 0 0 0.03 -0.01 0 0 0 0 0.03 -0.01 0 0 0 0 0.04 -0.01 0 0 0 0 0.03 -0.01 0 0 0 0c0.05,-0.02 0.11,-0.03 0.17,-0.05l0 0 0 0 0.03 -0.01 0 0 0 0 0.04 -0.01 0 0 0 -0.01 0.03 0 0.01 0 0 -0.01 0.03 -0.01 0 0 0 0 0.03 -0.01 0.01 0 0 0 0.03 -0.01 0 0 0 0 0.03 -0.01 0.02 0 0 0 0.02 -0.01 0.01 0 0 0 0.03 -0.01 0.01 0 0 0 0.02 -0.01 0.01 0 0 0 0.03 -0.01 0.02 0 0 -0.01 0.02 0 0.01 0 0 -0.01 0.03 0 0.01 0 0 -0.01 0.02 0 0.01 0 0 -0.01 0.03 0 0.01 0 0 -0.01 0.03 0 0.01 0 0 -0.01 0.03 -0.01 0 0 0 0 0.04 -0.01 0 0 0 0c0.04,-0.01 0.08,-0.02 0.12,-0.03l0 0 0 0 0.04 -0.01 0 0 0 0 0.04 -0.01 0.01 0 0 0 0.03 -0.01 0.01 0 0 0 0.04 -0.01 0.01 0 0 -0.01 0.03 0 0.02 0 0 -0.01 0.02 0 0.02 0 0 -0.01 0.03 0 0.01 0 0 -0.01 0.03 0 0.03 0 0 -0.01 0.02 -0.01 0.02 0 0 0 0.02 -0.01 0.02 0 0 0 0.03 -0.01 0.01 0 0 0 0.04 -0.01 0.01 0 0 0 0.03 -0.01 0.02 0 0 0 0.03 -0.01 0.01 0 0 0 0.04 -0.01 0.01 0 0 0 0.09 -0.02 0 0 0 0 0.04 -0.01c0,0 0,0 0,0 0.15,-0.04 0.32,-0.07 0.49,-0.11l0 0c0.1,-0.02 0.21,-0.04 0.32,-0.07l0 0 0 0c0.19,-0.03 0.38,-0.06 0.58,-0.08l0.01 0 0 0c0.03,-0.01 0.07,-0.01 0.11,-0.01l0 0 0 0c0.06,-0.01 0.12,-0.01 0.17,-0.01l0.01 0c0.13,-0.01 0.26,-0.01 0.39,0l0 0 0.01 0c0.05,0 0.1,0 0.15,0.01l0 0 0 0c0.09,0.01 0.17,0.02 0.26,0.03l0 0 0 0c0.11,0.02 0.23,0.04 0.34,0.08l0 0 0 0c0.03,0 0.05,0.01 0.08,0.02l0 0 0 0c0.04,0.01 0.08,0.02 0.12,0.04l0 0 0.01 0 0.03 0.01c0.05,0.02 0.1,0.04 0.16,0.07l0 0 0 0c0.04,0.01 0.08,0.03 0.12,0.05l0.02 0.01 0 0 0 0c0.1,0.05 0.2,0.11 0.3,0.17l0 0 0 0c0.01,0.01 0.02,0.02 0.03,0.02l0 0 0 0c0.02,0.02 0.04,0.03 0.06,0.05l0 0 0 0c0.08,0.05 0.16,0.11 0.24,0.18l0 0 0 0c0.03,0.02 0.06,0.05 0.08,0.08l0 0 0 0c0.09,0.08 0.18,0.16 0.26,0.25l0 0 0 0c0.03,0.03 0.05,0.06 0.08,0.09l0 0 0 0c0.1,0.12 0.21,0.26 0.31,0.41l0 0 0 0 0.02 0.03 0 0 0 0c0.01,0.01 0.01,0.02 0.02,0.03l0 0 0 0c0.01,0.02 0.01,0.03 0.02,0.04l0 0 0 0c0.02,0.02 0.04,0.05 0.05,0.08l0 0 0 0c0.04,0.06 0.07,0.11 0.1,0.17 0,0 0,0 0,0 0.51,0.84 1.15,1.66 1.87,2.39 2.86,2.83 6.83,4.17 8.95,2.29l0 0c0.03,-0.02 0.05,-0.04 0.08,-0.06l0 0 0 0c0.05,-0.04 0.1,-0.08 0.16,-0.11l0 0 0 0c0,0 0.01,-0.01 0.02,-0.01l0 0 0 0c0.04,-0.02 0.08,-0.04 0.11,-0.06l0.01 0 0 0c0.04,-0.01 0.09,-0.03 0.13,-0.04l0.01 0 0 0c0.03,-0.01 0.07,-0.01 0.1,-0.02l0 0c0.04,-0.01 0.07,-0.01 0.1,-0.01l0.02 0 0 0c0.05,-0.01 0.11,0 0.16,0l0 0 0.02 0c0.03,0 0.06,0 0.1,0.01l0 0 0 0c0.04,0.01 0.08,0.01 0.12,0.02l0 0 0 0c0.04,0.01 0.08,0.02 0.13,0.03l0 0 0 0c0.01,0.01 0.02,0.01 0.03,0.01l0 0 0 0c0.02,0.01 0.04,0.02 0.06,0.03l0 0 0 0c0.12,0.04 0.23,0.09 0.33,0.16l0 0 0 0c0.13,0.08 0.26,0.18 0.37,0.29l0 0 0 0c0.08,0.08 0.16,0.18 0.22,0.28l0 0 0 0c0.02,0.03 0.05,0.07 0.07,0.1l0 0.01 0 0c0.02,0.04 0.05,0.09 0.07,0.15l0 0 0 0c0.02,0.03 0.03,0.07 0.04,0.1l0 0.01 0 0c0.01,0 0.01,0.01 0.01,0.02l0 0.01 0.01 0c0.01,0.03 0.02,0.07 0.03,0.1l0 0.01 0 0c0,0.01 0,0.02 0.01,0.03l0 0.01 0 0c0,0.01 0.01,0.03 0.01,0.04l0 0c0.01,0.04 0.01,0.08 0.02,0.13l0 0 0 0c0,0.03 0.01,0.07 0.01,0.1l0 0.02 0 0c0.01,0.08 0.01,0.16 0,0.24l0 0 0 0c0,0.03 0,0.06 -0.01,0.09l0 0 0 0.02c-0.01,0.04 -0.01,0.08 -0.02,0.12l0 0 0 0.01c-0.01,0.03 -0.01,0.06 -0.02,0.09l0 0 0 0c-0.01,0.02 -0.01,0.03 -0.01,0.04l0 0 0 0c-0.01,0.04 -0.02,0.07 -0.04,0.11 0,0.01 0,0.02 -0.01,0.03l0 0 0 0c-0.01,0.03 -0.02,0.06 -0.03,0.09l0 0 0 0c-0.01,0.02 -0.01,0.04 -0.02,0.05l0 0 0 0c-0.03,0.09 -0.07,0.17 -0.12,0.26 -0.02,0.03 -0.03,0.05 -0.05,0.08l0 0 -0.02 0.03 0 0 0 0c-0.01,0.01 -0.02,0.02 -0.02,0.03l0 0 0 0c-0.01,0.01 -0.02,0.02 -0.02,0.03l-0.01 0 0 0.01c0,0.01 -0.01,0.02 -0.02,0.03l0 0 0 0c-0.03,0.05 -0.07,0.1 -0.1,0.15l0 0 0 0c-0.01,0.01 -0.03,0.03 -0.04,0.04l0 0 0 0.01 -0.01 0 0 0c-0.01,0.02 -0.02,0.03 -0.03,0.04l0 0 0 0.01 -0.01 0.01 0 0 0 0c-0.01,0.01 -0.02,0.03 -0.03,0.04l0 0 0 0 -0.01 0.01 0 0 0 0c-0.02,0.02 -0.03,0.04 -0.04,0.05l-0.01 0 0 0c-0.01,0.03 -0.03,0.05 -0.05,0.07l0 0c-0.04,0.04 -0.08,0.08 -0.12,0.13l0 0 0 0 -0.01 0.01 0 0 0 0c0,0 0,0 -0.01,0.01l0 0 0 0 -0.01 0.01 0 0 0 0 -0.01 0.01 0 0 0 0 -0.01 0.01 0 0 0 0 -0.01 0.01 0 0 0 0 -0.01 0.01 0 0 0 0 -0.01 0.01 0 0 0 0 -0.01 0.01 0 0 0 0 -0.01 0.01 0 0 0 0.01 -0.01 0.01 0 0 0 0c-0.02,0.01 -0.03,0.02 -0.04,0.03l0 0 0 0c-0.03,0.03 -0.06,0.06 -0.09,0.08l0 0 0 0.01 -0.01 0 0 0 0 0.01 -0.01 0.01 0 0 0 0c-0.01,0 -0.01,0 -0.01,0.01l0 0 0 0c-0.02,0.01 -0.04,0.03 -0.05,0.04l-0.01 0 0 0 -0.01 0.01 0 0 0 0c-0.02,0.02 -0.05,0.04 -0.07,0.06l0 0 0 0.01c-0.02,0.01 -0.04,0.02 -0.06,0.04l0 0c-0.01,0.01 -0.03,0.02 -0.04,0.03l0 0 0 0c-0.01,0.01 -0.03,0.02 -0.04,0.03l0 0 0 0c-0.02,0.01 -0.03,0.02 -0.04,0.03l-0.01 0 0 0.01c-0.01,0 -0.01,0.01 -0.02,0.02l-0.01 0 0 0 -0.01 0.01 0 0 0 0 -0.03 0.02 0 0 0 0c-0.04,0.03 -0.07,0.05 -0.11,0.07l0 0 0 0c-0.03,0.02 -0.05,0.04 -0.08,0.06l0 0 0 0c-0.01,0.01 -0.02,0.01 -0.03,0.02l-0.01 0 0 0 -0.01 0.01 -0.01 0 0 0c-0.01,0.01 -0.02,0.02 -0.03,0.02l0 0 0 0c-0.02,0.01 -0.03,0.02 -0.05,0.03l0 0 0 0.01c-0.05,0.02 -0.1,0.05 -0.15,0.08l0 0 0 0 -0.02 0.01 0 0 0 0 -0.02 0.01 -0.01 0 0 0 -0.01 0.01 -0.01 0 0 0.01c0,0 -0.01,0 -0.01,0l-0.01 0 0 0.01c-0.09,0.05 -0.19,0.09 -0.28,0.13l-0.01 0 0 0.01 -0.02 0 0 0 0 0.01c-0.01,0 -0.03,0.01 -0.04,0.02l-0.01 0 0 0c-0.01,0 -0.01,0 -0.02,0.01l0 0 0 0c-0.02,0 -0.04,0.01 -0.05,0.02l-0.01 0 0 0c-0.06,0.03 -0.12,0.05 -0.19,0.07l0 0 0 0 -0.03 0.01 0 0 0 0.01c-0.01,0 -0.02,0 -0.03,0.01l0 0 0 0c-0.01,0 -0.02,0 -0.03,0.01l-0.01 0 0 0 -0.02 0.01 -0.01 0 0 0c-0.01,0 -0.01,0 -0.02,0.01l-0.01 0 0 0 -0.03 0.01 0 0 0 0c-0.06,0.02 -0.11,0.04 -0.17,0.05l0 0 0 0c-0.03,0.01 -0.05,0.02 -0.08,0.02l0 0 0 0c-0.01,0.01 -0.02,0.01 -0.03,0.01l-0.01 0 0 0.01 -0.03 0.01 -0.01 0 0 0c-0.07,0.02 -0.14,0.03 -0.22,0.05l0 0 0 0c-0.01,0 -0.03,0.01 -0.05,0.01l0 0 0 0 -0.05 0.01 -0.01 0 0 0c-0.01,0.01 -0.02,0.01 -0.04,0.01l-0.01 0 0 0c-0.01,0.01 -0.03,0.01 -0.04,0.01l-0.01 0 0 0c-0.02,0.01 -0.04,0.01 -0.05,0.01l-0.01 0 0 0c-0.06,0.01 -0.13,0.03 -0.19,0.04l-0.01 0 0 0c-0.02,0 -0.04,0 -0.06,0.01l-0.01 0 0 0c-0.03,0 -0.05,0 -0.07,0.01l-0.02 0 0 0c-0.03,0 -0.05,0 -0.08,0.01l-0.01 0 0 0c-0.07,0.01 -0.14,0.01 -0.21,0.02l-0.02 0 0 0c-0.04,0 -0.08,0.01 -0.12,0.01l-0.04 0 0 0c-0.07,0.01 -0.13,0.01 -0.19,0.01l-0.07 0 0 0c-0.14,0.01 -0.28,0.01 -0.42,0zm-13.31 -3.17c-1.77,-1.72 -4.82,0.4 -2.92,3.02 2.34,2.48 5.35,-0.3 3.3,-2.57 -0.01,-0.01 -0.01,-0.01 -0.01,-0.02 -0.13,-0.14 -0.25,-0.29 -0.37,-0.43zm0.11 -12.13c-0.48,2.51 3.35,2.42 3.98,0.48 0.01,-0.04 0.02,-0.07 0.03,-0.1 0,0 0,-0.01 0,-0.01 0,0 0,0 0,0 0.14,-0.4 0.33,-0.77 0.61,-1.11 1.89,-2.3 6.24,-1.17 9.32,1.91 1.75,1.75 2.86,3.9 3.09,5.78 0.01,0.01 0.03,0.48 0.04,0.51 0.27,1.45 1.92,2.33 1.78,1.16 -0.44,-3.02 -2.21,-5.85 -4.37,-7.99 -2.18,-2.19 -4.93,-3.86 -7.79,-4.34 -3.76,-0.62 -6.04,1.05 -6.69,3.71zm10.04 18.93c-1.69,-0.44 -3.36,-1.19 -4.93,-2.18 0,0 0,0 0,0 -0.03,-0.02 -0.06,-0.04 -0.09,-0.05 -0.05,-0.04 -0.1,-0.07 -0.15,-0.1 -2.18,-1.24 -5,1.68 -2.48,3.34 0.13,0.09 0.26,0.17 0.39,0.25 12.28,7.65 22.49,-0.24 16.1,-13.51 3.66,8.16 -0.75,14.32 -8.84,12.25zm-26.17 -4.13c-0.67,-1.46 -2.78,-0.62 -2.51,1.01 0.04,0.12 0.08,0.25 0.12,0.37 0.71,1.69 3.11,0.8 2.49,-1.08 0,-0.01 0,-0.01 0,-0.02 -0.03,-0.09 -0.07,-0.18 -0.1,-0.28zm-4.75 -5.53c-0.02,0.07 -0.04,0.13 -0.05,0.19l0.05 -0.19zm-0.33 1.25c-0.02,0.06 -0.03,0.12 -0.05,0.19l0.05 -0.19zm-0.2 0.96c-0.02,0.06 -0.03,0.13 -0.04,0.19l0.04 -0.19zm7.86 17.18c-0.92,-0.93 -1.76,-1.92 -2.52,-2.95 0,0 0,-0.01 0,-0.01 -1.07,-1.59 -3,-0.44 -2.26,0.82 0.07,0.12 0.15,0.26 0.25,0.41 0.82,1.26 1.77,2.41 2.82,3.45 1.03,1.04 2.18,1.99 3.44,2.82 1.65,0.99 1.68,1.01 2.59,1.44 0.84,0.36 3.04,1.42 6.15,1.84 0.58,0.07 1.22,0.14 1.91,0.19 1.32,0.15 2.59,0.15 3.83,0 0,0 0,0 0,0 2.09,-0.24 4.09,-0.88 6.12,-1.82 -6.73,3 -15.88,0.13 -22.33,-6.19zm-3.66 -18.16c0,0 0,0 0,0 -0.67,-4.7 0.46,-9.09 3.87,-11.97 -2.96,2.3 -4.91,4.4 -5.76,8.17 -0.35,1.52 -0.46,3.08 -0.36,4.65 0.22,1.82 2.52,0.67 2.25,-0.85zm17.19 20.62c0.5,-0.9 0.96,-1.84 1.36,-2.84 0.49,-1.19 1.59,-3.28 -1.11,-4.9 0,0 0,0 0,0 -1.67,-1.04 -3.28,-2.32 -4.74,-3.76 -1.52,-1.53 -2.84,-3.23 -3.92,-5 -1.38,-2.28 -2.3,-4.57 -2.78,-6.76 0,0 0,0 0,0 -0.52,-2.22 -3.53,-1.15 -3.3,1.1 0.78,4.7 3.46,9.54 7.25,13.41 1.46,1.43 3.06,2.7 4.73,3.77 0,0 0,0 0.01,0 0.47,0.31 0.48,0.41 0.35,0.78 -0.37,0.9 -0.82,1.74 -1.34,2.59 0,0 0,0 0,0 -0.56,0.89 -1.2,2.61 0.97,3.61 3.59,1.41 7.37,1.91 10.96,1.1 3.76,-0.86 5.86,-2.81 8.16,-5.76 -3.82,4.51 -10.29,5.03 -16.6,2.66zm13.75 -4.78c0,0 0,0 0,0 -0.01,0 -0.01,0 -0.02,0 -0.08,0.02 -0.16,0.04 -0.25,0.06 -2.01,0.57 -2.25,3.31 0.04,2.7 4.64,-1.66 6.5,-5.63 7.18,-10.56 -0.63,4.23 -3.29,6.88 -6.95,7.8zm-25.13 -24.15c0,0 0,0 0,0 0.72,-4.07 3.44,-7.08 7.97,-7.76 -5.1,0.71 -9.18,2.68 -10.73,7.69 -0.5,1.93 2.47,1.73 2.76,0.07zm19.02 24.2c-0.01,0 -0.02,0 -0.02,0 -2.35,-0.3 -3.72,2.8 -1.25,3.27 0.02,0 0.03,0 0.05,0 2.47,0.24 3.8,-2.64 1.59,-3.2 -0.13,-0.02 -0.25,-0.04 -0.37,-0.07z"/>
  </g>
  <path class="fil0" d="M64.67 31.31l-2.48 -4.99 -0.09 0 -3.21 0 0 4.99 -4.45 0 0 -18.02 7.66 0c2.25,0 3.99,0.55 5.23,1.65 1.24,1.11 1.86,2.67 1.86,4.67 0,1.36 -0.26,2.53 -0.77,3.51 -0.52,0.99 -1.28,1.75 -2.26,2.3l3.54 5.89 -5.03 0zm120.8 -0.72c-0.49,0.29 -1.05,0.52 -1.68,0.68 -0.63,0.16 -1.27,0.25 -1.92,0.25 -1.3,0 -2.34,-0.4 -3.15,-1.19 -0.8,-0.79 -1.2,-1.87 -1.2,-3.26l0 -5.97 -1.82 0 0 -3.03 1.82 0 0 -3.86 4.3 0 0 3.86 3.4 0 0 3.03 -3.4 0 0 5.25c0,0.97 0.38,1.46 1.14,1.46 0.47,0 1.03,-0.15 1.68,-0.46l0.83 3.24zm-11.44 -14.91c-0.44,0 -0.8,0.13 -1.07,0.38 -0.28,0.26 -0.42,0.63 -0.42,1.11l0 0.9 2.92 0 0 3.03 -2.92 0 0 10.21 -4.3 0 0 -10.21 -1.77 0 0 -3.03 1.77 0 0 -1.29c0,-1.47 0.47,-2.63 1.4,-3.48 0.93,-0.85 2.13,-1.27 3.58,-1.27 0.96,0 1.9,0.18 2.82,0.54l-0.56 3.47c-0.64,-0.24 -1.13,-0.36 -1.45,-0.36zm-15.77 1.57c1.42,0 2.68,0.29 3.76,0.88 1.09,0.59 1.93,1.43 2.53,2.5 0.6,1.07 0.9,2.31 0.9,3.71 0,1.42 -0.3,2.67 -0.9,3.74 -0.6,1.07 -1.44,1.91 -2.53,2.5 -1.08,0.59 -2.34,0.88 -3.76,0.88 -1.43,0 -2.69,-0.29 -3.77,-0.88 -1.09,-0.59 -1.93,-1.43 -2.52,-2.5 -0.59,-1.07 -0.88,-2.32 -0.88,-3.74 0,-1.4 0.29,-2.64 0.88,-3.71 0.59,-1.07 1.43,-1.91 2.52,-2.5 1.08,-0.59 2.34,-0.88 3.77,-0.88zm0 3.7c-0.85,0 -1.53,0.32 -2.05,0.95 -0.51,0.63 -0.77,1.47 -0.77,2.49 0,1.05 0.26,1.89 0.77,2.52 0.52,0.64 1.2,0.95 2.05,0.95 0.85,0 1.54,-0.31 2.06,-0.95 0.52,-0.63 0.78,-1.47 0.78,-2.52 0,-1.02 -0.27,-1.86 -0.79,-2.49 -0.53,-0.63 -1.21,-0.95 -2.05,-0.95zm-9.9 0.85c-1.7,-0.95 -3.09,-1.42 -4.18,-1.42 -0.37,0 -0.67,0.08 -0.89,0.22 -0.23,0.15 -0.34,0.37 -0.34,0.66 0,0.31 0.17,0.55 0.53,0.74 0.36,0.19 0.92,0.4 1.7,0.62 0.94,0.29 1.72,0.58 2.35,0.86 0.62,0.28 1.16,0.71 1.61,1.29 0.46,0.57 0.68,1.32 0.68,2.25 0,1.4 -0.51,2.5 -1.54,3.3 -1.03,0.8 -2.37,1.2 -4.02,1.2 -1.12,0 -2.19,-0.17 -3.21,-0.51 -1.02,-0.33 -1.93,-0.82 -2.72,-1.47l1.36 -2.96c0.74,0.55 1.53,0.97 2.34,1.27 0.82,0.3 1.6,0.45 2.32,0.45 0.43,0 0.76,-0.07 1.01,-0.22 0.25,-0.14 0.38,-0.35 0.38,-0.63 0,-0.34 -0.18,-0.61 -0.55,-0.79 -0.36,-0.19 -0.93,-0.4 -1.71,-0.62 -0.92,-0.29 -1.68,-0.58 -2.28,-0.86 -0.6,-0.29 -1.13,-0.71 -1.57,-1.27 -0.45,-0.57 -0.67,-1.31 -0.67,-2.22 0,-1.4 0.5,-2.5 1.51,-3.3 1,-0.8 2.3,-1.2 3.88,-1.2 0.96,0 1.9,0.14 2.84,0.42 0.93,0.27 1.81,0.67 2.63,1.2l-1.46 2.99zm-17.64 -4.55c2.14,0 3.79,0.66 4.94,2 1.15,1.34 1.72,3.17 1.72,5.5 0,0.36 -0.01,0.64 -0.02,0.83l-9.14 0c0.21,0.78 0.57,1.39 1.09,1.81 0.52,0.42 1.15,0.63 1.9,0.63 0.57,0 1.11,-0.12 1.64,-0.36 0.53,-0.24 1.01,-0.59 1.44,-1.06l2.26 2.4c-0.68,0.8 -1.5,1.41 -2.46,1.83 -0.97,0.42 -2.06,0.63 -3.27,0.63 -1.41,0 -2.64,-0.29 -3.69,-0.87 -1.06,-0.58 -1.86,-1.41 -2.42,-2.47 -0.56,-1.06 -0.84,-2.3 -0.84,-3.7 0,-1.42 0.28,-2.68 0.85,-3.77 0.57,-1.09 1.37,-1.93 2.41,-2.52 1.03,-0.59 2.23,-0.88 3.59,-0.88zm2.46 5.88c0,-0.8 -0.23,-1.45 -0.67,-1.94 -0.45,-0.49 -1.03,-0.73 -1.76,-0.73 -0.68,0 -1.25,0.24 -1.72,0.72 -0.46,0.48 -0.76,1.13 -0.91,1.95l5.06 0zm-15.94 -5.91c1.44,0 2.59,0.48 3.46,1.44 0.86,0.96 1.3,2.25 1.3,3.88l0 8.77 -4.3 0 0 -7.46c0,-0.78 -0.21,-1.41 -0.61,-1.86 -0.41,-0.45 -0.95,-0.68 -1.63,-0.68 -0.71,0.02 -1.3,0.26 -1.76,0.74 -0.46,0.48 -0.73,1.12 -0.81,1.91l0 7.35 -4.33 0 0 -13.91 4.33 0 0 2.26c0.47,-0.8 1.07,-1.41 1.81,-1.82 0.73,-0.41 1.58,-0.62 2.54,-0.62zm-18.08 0.03c1.42,0 2.68,0.29 3.76,0.88 1.09,0.59 1.93,1.43 2.53,2.5 0.6,1.07 0.9,2.31 0.9,3.71 0,1.42 -0.3,2.67 -0.9,3.74 -0.6,1.07 -1.44,1.91 -2.53,2.5 -1.08,0.59 -2.34,0.88 -3.76,0.88 -1.43,0 -2.69,-0.29 -3.77,-0.88 -1.09,-0.59 -1.92,-1.43 -2.52,-2.5 -0.59,-1.07 -0.88,-2.32 -0.88,-3.74 0,-1.4 0.29,-2.64 0.88,-3.71 0.6,-1.07 1.43,-1.91 2.52,-2.5 1.08,-0.59 2.34,-0.88 3.77,-0.88zm0 3.7c-0.85,0 -1.53,0.32 -2.05,0.95 -0.51,0.63 -0.77,1.47 -0.77,2.49 0,1.05 0.26,1.89 0.77,2.52 0.52,0.64 1.2,0.95 2.05,0.95 0.85,0 1.54,-0.31 2.06,-0.95 0.52,-0.63 0.78,-1.47 0.78,-2.52 0,-1.02 -0.26,-1.86 -0.79,-2.49 -0.53,-0.63 -1.21,-0.95 -2.05,-0.95zm-20.13 -3.55l11.52 0.03 0 2.77 -6.32 7.61 6.57 0 0 3.5 -11.98 0 0 -2.78 6.31 -7.61 -6.1 0 0 -3.52zm-6.99 0l4.3 0 0 13.91 -4.3 0 0 -13.91zm2.11 -6.4c0.66,0 1.21,0.23 1.64,0.68 0.43,0.45 0.64,1.04 0.64,1.76 0,0.7 -0.21,1.29 -0.64,1.75 -0.43,0.46 -0.98,0.69 -1.64,0.69 -0.66,0 -1.21,-0.23 -1.64,-0.69 -0.43,-0.46 -0.64,-1.05 -0.64,-1.75 0,-0.72 0.21,-1.31 0.64,-1.76 0.43,-0.45 0.98,-0.68 1.64,-0.68zm-15.26 11.57l3.23 0c0.91,0 1.61,-0.24 2.1,-0.72 0.5,-0.48 0.74,-1.18 0.74,-2.08 0,-0.88 -0.24,-1.55 -0.74,-2.02 -0.49,-0.47 -1.19,-0.71 -2.1,-0.71l-3.23 0 0 5.53z"/>
 </g>
</svg>
