<?xml version="1.0" encoding="UTF-8"?>
<!DOCTYPE svg PUBLIC "-//W3C//DTD SVG 1.1//EN" "http://www.w3.org/Graphics/SVG/1.1/DTD/svg11.dtd">
<!-- Creator: CorelDRAW -->
<svg xmlns="http://www.w3.org/2000/svg" xml:space="preserve" width="512px" height="512px" version="1.1" style="shape-rendering:geometricPrecision; text-rendering:geometricPrecision; image-rendering:optimizeQuality; fill-rule:evenodd; clip-rule:evenodd"
viewBox="0 0 511.44 511.56"
 xmlns:xlink="http://www.w3.org/1999/xlink"
 xmlns:xodm="http://www.corel.com/coreldraw/odm/2003">
 <defs>
  <style type="text/css">
   <![CDATA[
    .fil0 {fill:#912C2F}
    .fil1 {fill:#A4373A}
    .fil2 {fill:url(#id0);fill-rule:nonzero}
   ]]>
  </style>
  <linearGradient id="id0" gradientUnits="userSpaceOnUse" x1="110.38" y1="255.8" x2="401.13" y2="255.8">
   <stop offset="0" style="stop-opacity:1; stop-color:#FBCFD0"/>
   <stop offset="1" style="stop-opacity:1; stop-color:#FEFEFE"/>
  </linearGradient>
 </defs>
 <g id="Layer_x0020_1">
  <metadata id="CorelCorpID_0Corel-Layer"/>
  <path class="fil0" d="M68.2 0.05l237.53 0 0 511.51 -237.53 0c-37.51,0 -68.2,-30.69 -68.2,-68.2l0 -375.11c0,-37.51 30.69,-68.2 68.2,-68.2z"/>
  <path class="fil1" d="M255.76 0l187.48 0c37.51,0 68.2,30.69 68.2,68.2l0 375.11c0,37.51 -30.69,68.2 -68.2,68.2l-187.48 0 0 -511.51z"/>
  <path class="fil2" d="M339.68 383.26l56.46 -42.54 -52.1 -53.17c38.69,-16.89 57.09,-43.48 57.09,-73.19 0,-44.73 -40.24,-86.02 -169.08,-86.02 -43.68,0 -86.42,2.19 -121.67,4.7l0 237.71 74.87 0 0 -66.62c16.22,0.94 34.32,1.56 52.72,1.56 10.3,0 20.28,-0.31 29.64,-0.94l72.07 78.51zm-106.39 -138.56c-18.09,0 -34.31,-0.63 -48.04,-1.25l0 -49.73c13.73,-0.63 29.95,-1.26 48.04,-1.26 68.95,0 89.85,12.52 89.85,25.97 0,13.45 -20.9,26.27 -89.85,26.27z"/>
 </g>
</svg>
