<?xml version="1.0" encoding="UTF-8"?>
<!DOCTYPE svg PUBLIC "-//W3C//DTD SVG 1.1//EN" "http://www.w3.org/Graphics/SVG/1.1/DTD/svg11.dtd">
<!-- Creator: CorelDRAW 2020 (64-Bit) -->
<svg xmlns="http://www.w3.org/2000/svg" xml:space="preserve" width="1973px" height="316px" version="1.1" style="shape-rendering:geometricPrecision; text-rendering:geometricPrecision; image-rendering:optimizeQuality; fill-rule:evenodd; clip-rule:evenodd"
viewBox="0 0 2661.56 427.01"
 xmlns:xlink="http://www.w3.org/1999/xlink"
 xmlns:xodm="http://www.corel.com/coreldraw/odm/2003">
 <defs>
  <style type="text/css">
   <![CDATA[
    .fil0 {fill:#4B4B4D;fill-rule:nonzero}
   ]]>
  </style>
 </defs>
 <g id="Layer_x0020_1">
  <metadata id="CorelCorpID_0Corel-Layer"/>
  <path class="fil0" d="M133.25 205.49c12.93,0 23.98,-1.68 33.07,-4.96 9.09,-3.28 16.49,-7.78 22.31,-13.59 5.8,-5.81 10.02,-12.65 12.64,-20.43 2.63,-7.78 3.94,-16.12 3.94,-25.11 0,-17.99 -5.81,-32.05 -17.52,-42.17 -11.72,-10.12 -29.89,-15.18 -54.44,-15.18l-38.24 0 0 121.44 38.24 0zm201.83 217.02l-86.02 0c-15.93,0 -27.36,-6 -34.29,-17.99l-68.03 -118.91c-3.19,-5.06 -6.75,-8.81 -10.68,-11.15 -3.94,-2.34 -9.56,-3.47 -16.87,-3.47l-24.18 0 0 151.52 -95.01 0 0 -409.58 133.25 0c29.61,0 54.91,3 75.8,9.09 20.9,6.09 37.95,14.62 51.16,25.49 13.22,10.87 22.78,23.71 28.77,38.51 6,14.81 9,30.92 9,48.35 0,13.31 -1.78,25.86 -5.34,37.67 -3.56,11.81 -8.81,22.68 -15.75,32.7 -6.93,10.03 -15.46,19.02 -25.67,26.9 -10.21,7.87 -22.02,14.33 -35.33,19.39 6.19,3.19 12,7.12 17.43,11.9 5.44,4.78 10.31,10.5 14.62,17.06l87.14 142.52zm109.64 -291.51l0 291.51 -87.15 0 0 -291.51 87.15 0zm8.99 -79.84c0,6.94 -1.4,13.4 -4.21,19.49 -2.81,6.09 -6.66,11.44 -11.53,16.03 -4.87,4.59 -10.49,8.24 -16.96,10.96 -6.46,2.72 -13.4,4.12 -20.71,4.12 -7.12,0 -13.77,-1.4 -19.96,-4.12 -6.18,-2.72 -11.62,-6.37 -16.39,-10.96 -4.78,-4.59 -8.53,-9.94 -11.25,-16.03 -2.72,-6.09 -4.12,-12.55 -4.12,-19.49 0,-7.12 1.4,-13.77 4.12,-19.96 2.72,-6.18 6.47,-11.62 11.25,-16.3 4.77,-4.69 10.21,-8.34 16.39,-10.96 6.19,-2.63 12.84,-3.94 19.96,-3.94 7.31,0 14.25,1.31 20.71,3.94 6.47,2.62 12.09,6.27 16.96,10.96 4.87,4.68 8.72,10.12 11.53,16.3 2.81,6.19 4.21,12.84 4.21,19.96zm268.75 114.7c0,5.99 -1.04,11.8 -3.1,17.43 -2.06,5.62 -4.78,10.21 -8.15,13.77l-121.72 160.8 130.15 0 0 64.65 -230.51 0 0 -35.42c0,-3.56 0.94,-8.06 2.81,-13.49 1.88,-5.44 4.69,-10.5 8.44,-15.18l122.84 -162.77 -126.22 0 0 -64.65 225.46 0 0 34.86zm174.85 -39.36c22.11,0 42.26,3.47 60.43,10.4 18.18,6.94 33.83,16.87 46.86,29.8 13.02,12.93 23.14,28.58 30.36,47.04 7.21,18.46 10.77,39.26 10.77,62.31 0,23.24 -3.56,44.14 -10.77,62.78 -7.22,18.65 -17.34,34.49 -30.36,47.51 -13.03,13.03 -28.68,23.05 -46.86,30.08 -18.17,7.03 -38.32,10.59 -60.43,10.59 -22.31,0 -42.55,-3.56 -60.82,-10.59 -18.27,-7.03 -34.01,-17.05 -47.22,-30.08 -13.22,-13.02 -23.43,-28.86 -30.65,-47.51 -7.21,-18.64 -10.86,-39.54 -10.86,-62.78 0,-23.05 3.65,-43.85 10.86,-62.31 7.22,-18.46 17.43,-34.11 30.65,-47.04 13.21,-12.93 28.95,-22.86 47.22,-29.8 18.27,-6.93 38.51,-10.4 60.82,-10.4zm0 235.85c20.05,0 34.85,-7.12 44.32,-21.27 9.46,-14.15 14.15,-35.61 14.15,-64.47 0,-28.86 -4.69,-50.32 -14.15,-64.37 -9.47,-14.06 -24.27,-21.08 -44.32,-21.08 -20.62,0 -35.71,7.02 -45.26,21.08 -9.56,14.05 -14.34,35.51 -14.34,64.37 0,28.86 4.78,50.32 14.34,64.47 9.55,14.15 24.64,21.27 45.26,21.27zm272.67 -199.87c5.63,-5.24 11.44,-10.12 17.43,-14.61 6,-4.5 12.47,-8.34 19.31,-11.44 6.84,-3.09 14.24,-5.53 22.2,-7.31 7.97,-1.78 16.59,-2.62 25.96,-2.62 15.93,0 30.08,2.72 42.35,8.25 12.28,5.52 22.59,13.21 31.02,23.05 8.43,9.84 14.81,21.55 19.12,35.14 4.31,13.58 6.46,28.39 6.46,44.32l0 185.25 -87.14 0 0 -185.25c0,-14.24 -3.28,-25.4 -9.84,-33.36 -6.56,-7.97 -16.21,-11.9 -28.96,-11.9 -9.55,0 -18.46,1.97 -26.8,6 -8.34,4.03 -16.49,9.55 -24.36,16.49l0 208.02 -87.14 0 0 -291.51 53.97 0c10.87,0 17.99,4.87 21.36,14.62l5.06 16.86zm421.39 79.28c0,-6.94 -0.84,-13.68 -2.63,-20.24 -1.78,-6.56 -4.68,-12.47 -8.71,-17.62 -4.03,-5.15 -9.37,-9.28 -15.93,-12.46 -6.56,-3.19 -14.52,-4.78 -23.89,-4.78 -16.49,0 -29.43,4.68 -38.8,14.15 -9.37,9.46 -15.55,23.14 -18.55,40.95l108.51 0zm-109.63 50.6c2.81,24.36 10.21,41.98 22.2,52.94 12,10.96 27.46,16.49 46.39,16.49 10.12,0 18.83,-1.22 26.14,-3.65 7.31,-2.44 13.87,-5.16 19.59,-8.16 5.71,-2.99 10.96,-5.71 15.74,-8.15 4.78,-2.43 9.74,-3.65 14.99,-3.65 6.93,0 12.18,2.53 15.74,7.59l25.3 31.2c-8.99,10.31 -18.65,18.65 -29.05,25.11 -10.4,6.47 -21.08,11.53 -32.04,15.18 -10.97,3.66 -21.93,6.19 -32.89,7.59 -10.97,1.41 -21.46,2.16 -31.39,2.16 -20.43,0 -39.55,-3.37 -57.44,-10.03 -17.9,-6.65 -33.55,-16.49 -46.95,-29.61 -13.4,-13.12 -23.99,-29.42 -31.77,-48.91 -7.77,-19.49 -11.71,-42.17 -11.71,-68.03 0,-19.49 3.37,-37.95 10.03,-55.38 6.65,-17.43 16.21,-32.7 28.67,-45.82 12.46,-13.12 27.55,-23.52 45.26,-31.2 17.71,-7.69 37.67,-11.53 59.97,-11.53 19.3,0 37.01,3 53.04,9 16.02,5.99 29.79,14.71 41.32,26.14 11.52,11.43 20.52,25.39 26.99,41.98 6.46,16.58 9.65,35.42 9.65,56.41 0,6.56 -0.28,11.9 -0.84,16.02 -0.57,4.12 -1.6,7.4 -3.1,9.84 -1.5,2.44 -3.46,4.12 -6,5.06 -2.52,0.94 -5.8,1.41 -9.74,1.41l-168.1 0zm416.6 -97.55c-2.25,3.56 -4.59,6.09 -7.12,7.59 -2.53,1.5 -5.81,2.25 -9.74,2.25 -4.13,0 -8.25,-0.94 -12.37,-2.72 -4.13,-1.78 -8.53,-3.65 -13.31,-5.71 -4.78,-2.07 -10.21,-4.03 -16.21,-5.81 -6,-1.78 -12.84,-2.63 -20.52,-2.63 -11.06,0 -19.49,2.06 -25.39,6.28 -5.91,4.22 -8.91,10.12 -8.91,17.62 0,5.43 1.97,9.93 5.81,13.49 3.84,3.56 8.9,6.65 15.28,9.37 6.37,2.72 13.58,5.34 21.64,7.78 8.06,2.43 16.31,5.15 24.74,8.15 8.43,3 16.68,6.47 24.74,10.5 8.06,4.02 15.27,8.99 21.64,14.89 6.38,5.91 11.53,13.12 15.37,21.56 3.84,8.43 5.72,18.55 5.72,30.36 0,14.43 -2.63,27.73 -7.87,39.91 -5.25,12.19 -13.03,22.68 -23.43,31.49 -10.4,8.81 -23.24,15.65 -38.51,20.52 -15.28,4.87 -32.89,7.31 -52.76,7.31 -9.93,0 -19.86,-0.94 -29.8,-2.81 -9.93,-1.88 -19.49,-4.41 -28.76,-7.59 -9.28,-3.19 -17.9,-7.03 -25.77,-11.43 -7.87,-4.41 -14.62,-9.09 -20.24,-14.15l20.24 -32.05c2.25,-3.75 5.15,-6.75 8.62,-8.9 3.47,-2.16 7.87,-3.19 13.31,-3.19 5.06,0 9.65,1.13 13.68,3.37 4.02,2.25 8.34,4.69 13.02,7.31 4.69,2.63 10.22,5.06 16.49,7.31 6.28,2.25 14.15,3.38 23.71,3.38 6.75,0 12.46,-0.75 17.15,-2.16 4.68,-1.4 8.43,-3.28 11.24,-5.72 2.81,-2.43 4.87,-5.15 6.19,-8.15 1.31,-3 1.96,-6.09 1.96,-9.27 0,-5.81 -1.96,-10.59 -5.9,-14.34 -3.94,-3.75 -9.09,-7.03 -15.46,-9.75 -6.37,-2.71 -13.59,-5.24 -21.74,-7.59 -8.15,-2.34 -16.49,-4.96 -24.92,-7.96 -8.44,-3 -16.68,-6.65 -24.84,-10.87 -8.15,-4.22 -15.46,-9.56 -21.83,-16.02 -6.37,-6.47 -11.53,-14.34 -15.46,-23.71 -3.94,-9.37 -5.9,-20.71 -5.9,-34.02 0,-12.36 2.43,-24.17 7.21,-35.32 4.78,-11.15 11.9,-20.9 21.46,-29.33 9.56,-8.43 21.55,-15.18 35.98,-20.15 14.43,-4.96 31.3,-7.4 50.6,-7.4 10.5,0 20.71,0.94 30.55,2.81 9.84,1.88 19.02,4.5 27.64,7.87 8.62,3.38 16.49,7.31 23.61,11.9 7.13,4.59 13.4,9.65 18.84,15.09l-19.68 30.64zm199.59 -68.31c22.12,0 42.26,3.47 60.44,10.4 18.18,6.94 33.83,16.87 46.85,29.8 13.03,12.93 23.15,28.58 30.36,47.04 7.22,18.46 10.78,39.26 10.78,62.31 0,23.24 -3.56,44.14 -10.78,62.78 -7.21,18.65 -17.33,34.49 -30.36,47.51 -13.02,13.03 -28.67,23.05 -46.85,30.08 -18.18,7.03 -38.32,10.59 -60.44,10.59 -22.3,0 -42.54,-3.56 -60.81,-10.59 -18.27,-7.03 -34.02,-17.05 -47.23,-30.08 -13.21,-13.02 -23.42,-28.86 -30.64,-47.51 -7.22,-18.64 -10.87,-39.54 -10.87,-62.78 0,-23.05 3.65,-43.85 10.87,-62.31 7.22,-18.46 17.43,-34.11 30.64,-47.04 13.21,-12.93 28.96,-22.86 47.23,-29.8 18.27,-6.93 38.51,-10.4 60.81,-10.4zm0 235.85c20.05,0 34.86,-7.12 44.32,-21.27 9.47,-14.15 14.15,-35.61 14.15,-64.47 0,-28.86 -4.68,-50.32 -14.15,-64.37 -9.46,-14.06 -24.27,-21.08 -44.32,-21.08 -20.61,0 -35.7,7.02 -45.26,21.08 -9.56,14.05 -14.33,35.51 -14.33,64.37 0,28.86 4.77,50.32 14.33,64.47 9.56,14.15 24.65,21.27 45.26,21.27zm483.79 -171.19l0 144.77c0,6.75 1.69,12.27 4.97,16.68 3.28,4.4 7.96,6.65 14.15,6.65 3.19,0 5.9,-0.37 8.06,-1.03 2.15,-0.66 4.03,-1.41 5.62,-2.25 1.59,-0.84 3.09,-1.59 4.5,-2.25 1.4,-0.65 3,-0.93 4.87,-0.93 2.62,0 4.78,0.56 6.37,1.78 1.6,1.21 3.19,3.18 4.87,5.8l26.43 41.33c-11.25,8.43 -23.89,14.71 -37.95,18.93 -14.06,4.21 -28.58,6.37 -43.57,6.37 -13.87,0 -26.05,-2.06 -36.64,-6.09 -10.59,-4.03 -19.49,-9.75 -26.71,-17.15 -7.21,-7.4 -12.74,-16.3 -16.49,-26.8 -3.75,-10.49 -5.62,-22.21 -5.62,-35.14l0 -150.67 -103.73 0 0 231.35 -87.14 0 0 -231.64 -19.12 -3.93c-6.56,-1.5 -11.81,-3.84 -15.84,-7.03 -4.02,-3.18 -6.09,-7.87 -6.09,-14.05l0 -34.3 41.05 0 0 -16.59c0,-16.67 2.71,-31.76 8.05,-45.25 5.35,-13.5 13.03,-25.02 23.05,-34.58 10.03,-9.56 22.21,-16.96 36.64,-22.21 14.43,-5.25 30.83,-7.87 49.2,-7.87 7.12,0 13.68,0.38 19.68,1.22 5.99,0.84 12.27,2.25 18.83,4.12l-1.69 42.45c-0.18,3 -0.93,5.43 -2.25,7.4 -1.31,1.97 -2.99,3.56 -5.15,4.78 -2.16,1.22 -4.5,2.16 -6.93,2.72 -2.44,0.56 -4.88,0.84 -7.31,0.84 -7.69,0 -14.53,0.75 -20.52,2.25 -6,1.5 -10.97,4.12 -15,7.97 -4.03,3.84 -7.12,8.9 -9.18,15.18 -2.06,6.27 -3.09,14.24 -3.09,23.8l0 13.77 111.6 0 17.43 -71.68c2.25,-9 8.62,-13.5 19.11,-13.5l45.54 0 0 85.18 72.25 0 0 59.6 -72.25 0z"/>
 </g>
</svg>
